  0
SECTION
  2
HEADER
  9
$ACADVER
  1
AC1024
  9
$ACADMAINTVER
 70
6
  9
$DWGCODEPAGE
  3
ANSI_1252
  9
$LASTSAVEDBY
  1
ezdxf
  9
$INSBASE
 10
0.0
 20
0.0
 30
0.0
  9
$EXTMIN
 10
1e+20
 20
1e+20
 30
1e+20
  9
$EXTMAX
 10
-1e+20
 20
-1e+20
 30
-1e+20
  9
$LIMMIN
 10
0.0
 20
0.0
  9
$LIMMAX
 10
420.0
 20
297.0
  9
$ORTHOMODE
 70
0
  9
$REGENMODE
 70
1
  9
$FILLMODE
 70
1
  9
$QTEXTMODE
 70
0
  9
$MIRRTEXT
 70
1
  9
$LTSCALE
 40
1.0
  9
$ATTMODE
 70
1
  9
$TEXTSIZE
 40
2.5
  9
$TRACEWID
 40
1.0
  9
$TEXTSTYLE
  7
Standard
  9
$CLAYER
  8
0
  9
$CELTYPE
  6
ByLayer
  9
$CECOLOR
 62
256
  9
$CELTSCALE
 40
1.0
  9
$DISPSILH
 70
0
  9
$DIMSCALE
 40
1.0
  9
$DIMASZ
 40
2.5
  9
$DIMEXO
 40
0.625
  9
$DIMDLI
 40
3.75
  9
$DIMRND
 40
0.0
  9
$DIMDLE
 40
0.0
  9
$DIMEXE
 40
1.25
  9
$DIMTP
 40
0.0
  9
$DIMTM
 40
0.0
  9
$DIMTXT
 40
2.5
  9
$DIMCEN
 40
2.5
  9
$DIMTSZ
 40
0.0
  9
$DIMTOL
 70
0
  9
$DIMLIM
 70
0
  9
$DIMTIH
 70
0
  9
$DIMTOH
 70
0
  9
$DIMSE1
 70
0
  9
$DIMSE2
 70
0
  9
$DIMTAD
 70
1
  9
$DIMZIN
 70
8
  9
$DIMBLK
  1

  9
$DIMASO
 70
1
  9
$DIMSHO
 70
1
  9
$DIMPOST
  1

  9
$DIMAPOST
  1

  9
$DIMALT
 70
0
  9
$DIMALTD
 70
3
  9
$DIMALTF
 40
0.03937007874
  9
$DIMLFAC
 40
1.0
  9
$DIMTOFL
 70
1
  9
$DIMTVP
 40
0.0
  9
$DIMTIX
 70
0
  9
$DIMSOXD
 70
0
  9
$DIMSAH
 70
0
  9
$DIMBLK1
  1

  9
$DIMBLK2
  1

  9
$DIMSTYLE
  2
ISO-25
  9
$DIMCLRD
 70
0
  9
$DIMCLRE
 70
0
  9
$DIMCLRT
 70
0
  9
$DIMTFAC
 40
1.0
  9
$DIMGAP
 40
0.625
  9
$DIMJUST
 70
0
  9
$DIMSD1
 70
0
  9
$DIMSD2
 70
0
  9
$DIMTOLJ
 70
0
  9
$DIMTZIN
 70
8
  9
$DIMALTZ
 70
0
  9
$DIMALTTZ
 70
0
  9
$DIMUPT
 70
0
  9
$DIMDEC
 70
2
  9
$DIMTDEC
 70
2
  9
$DIMALTU
 70
2
  9
$DIMALTTD
 70
3
  9
$DIMTXSTY
  7
Standard
  9
$DIMAUNIT
 70
0
  9
$DIMADEC
 70
0
  9
$DIMALTRND
 40
0.0
  9
$DIMAZIN
 70
0
  9
$DIMDSEP
 70
44
  9
$DIMATFIT
 70
3
  9
$DIMFRAC
 70
0
  9
$DIMLDRBLK
  1

  9
$DIMLUNIT
 70
2
  9
$DIMLWD
 70
-2
  9
$DIMLWE
 70
-2
  9
$DIMTMOVE
 70
0
  9
$DIMFXL
 40
1.0
  9
$DIMFXLON
 70
0
  9
$DIMJOGANG
 40
0.785398163397
  9
$DIMTFILL
 70
0
  9
$DIMTFILLCLR
 70
0
  9
$DIMARCSYM
 70
0
  9
$DIMLTYPE
  6

  9
$DIMLTEX1
  6

  9
$DIMLTEX2
  6

  9
$DIMTXTDIRECTION
 70
0
  9
$LUNITS
 70
2
  9
$LUPREC
 70
4
  9
$SKETCHINC
 40
1.0
  9
$FILLETRAD
 40
10.0
  9
$AUNITS
 70
0
  9
$AUPREC
 70
2
  9
$MENU
  1
.
  9
$ELEVATION
 40
0.0
  9
$PELEVATION
 40
0.0
  9
$THICKNESS
 40
0.0
  9
$LIMCHECK
 70
0
  9
$CHAMFERA
 40
0.0
  9
$CHAMFERB
 40
0.0
  9
$CHAMFERC
 40
0.0
  9
$CHAMFERD
 40
0.0
  9
$SKPOLY
 70
0
  9
$TDCREATE
 40
2461296.6336921295
  9
$TDUCREATE
 40
2458532.153996898
  9
$TDUPDATE
 40
2461296.6336921295
  9
$TDUUPDATE
 40
2458532.1544311
  9
$TDINDWG
 40
0.0
  9
$TDUSRTIMER
 40
0.0
  9
$USRTIMER
 70
1
  9
$ANGBASE
 50
0.0
  9
$ANGDIR
 70
0
  9
$PDMODE
 70
0
  9
$PDSIZE
 40
0.0
  9
$PLINEWID
 40
0.0
  9
$SPLFRAME
 70
0
  9
$SPLINETYPE
 70
6
  9
$SPLINESEGS
 70
8
  9
$HANDSEED
  5
7F
  9
$SURFTAB1
 70
6
  9
$SURFTAB2
 70
6
  9
$SURFTYPE
 70
6
  9
$SURFU
 70
6
  9
$SURFV
 70
6
  9
$UCSBASE
  2

  9
$UCSNAME
  2

  9
$UCSORG
 10
0.0
 20
0.0
 30
0.0
  9
$UCSXDIR
 10
1.0
 20
0.0
 30
0.0
  9
$UCSYDIR
 10
0.0
 20
1.0
 30
0.0
  9
$UCSORTHOREF
  2

  9
$UCSORTHOVIEW
 70
0
  9
$UCSORGTOP
 10
0.0
 20
0.0
 30
0.0
  9
$UCSORGBOTTOM
 10
0.0
 20
0.0
 30
0.0
  9
$UCSORGLEFT
 10
0.0
 20
0.0
 30
0.0
  9
$UCSORGRIGHT
 10
0.0
 20
0.0
 30
0.0
  9
$UCSORGFRONT
 10
0.0
 20
0.0
 30
0.0
  9
$UCSORGBACK
 10
0.0
 20
0.0
 30
0.0
  9
$PUCSBASE
  2

  9
$PUCSNAME
  2

  9
$PUCSORG
 10
0.0
 20
0.0
 30
0.0
  9
$PUCSXDIR
 10
1.0
 20
0.0
 30
0.0
  9
$PUCSYDIR
 10
0.0
 20
1.0
 30
0.0
  9
$PUCSORTHOREF
  2

  9
$PUCSORTHOVIEW
 70
0
  9
$PUCSORGTOP
 10
0.0
 20
0.0
 30
0.0
  9
$PUCSORGBOTTOM
 10
0.0
 20
0.0
 30
0.0
  9
$PUCSORGLEFT
 10
0.0
 20
0.0
 30
0.0
  9
$PUCSORGRIGHT
 10
0.0
 20
0.0
 30
0.0
  9
$PUCSORGFRONT
 10
0.0
 20
0.0
 30
0.0
  9
$PUCSORGBACK
 10
0.0
 20
0.0
 30
0.0
  9
$USERI1
 70
0
  9
$USERI2
 70
0
  9
$USERI3
 70
0
  9
$USERI4
 70
0
  9
$USERI5
 70
0
  9
$USERR1
 40
0.0
  9
$USERR2
 40
0.0
  9
$USERR3
 40
0.0
  9
$USERR4
 40
0.0
  9
$USERR5
 40
0.0
  9
$WORLDVIEW
 70
1
  9
$SHADEDGE
 70
3
  9
$SHADEDIF
 70
70
  9
$TILEMODE
 70
1
  9
$MAXACTVP
 70
64
  9
$PINSBASE
 10
0.0
 20
0.0
 30
0.0
  9
$PLIMCHECK
 70
0
  9
$PEXTMIN
 10
1e+20
 20
1e+20
 30
1e+20
  9
$PEXTMAX
 10
-1e+20
 20
-1e+20
 30
-1e+20
  9
$PLIMMIN
 10
0.0
 20
0.0
  9
$PLIMMAX
 10
420.0
 20
297.0
  9
$UNITMODE
 70
0
  9
$VISRETAIN
 70
1
  9
$PLINEGEN
 70
0
  9
$PSLTSCALE
 70
1
  9
$TREEDEPTH
 70
3020
  9
$CMLSTYLE
  2
Standard
  9
$CMLJUST
 70
0
  9
$CMLSCALE
 40
20.0
  9
$PROXYGRAPHICS
 70
1
  9
$MEASUREMENT
 70
1
  9
$CELWEIGHT
370
-1
  9
$ENDCAPS
280
0
  9
$JOINSTYLE
280
0
  9
$LWDISPLAY
290
0
  9
$INSUNITS
 70
4
  9
$HYPERLINKBASE
  1

  9
$STYLESHEET
  1

  9
$XEDIT
290
1
  9
$CEPSNTYPE
380
0
  9
$PSTYLEMODE
290
1
  9
$FINGERPRINTGUID
  2
{E80A811E-4F29-4939-922C-45D0F42370BE}
  9
$VERSIONGUID
  2
{FA40DBCC-1113-4FEB-9D01-0DE0BDD5900D}
  9
$EXTNAMES
290
1
  9
$PSVPSCALE
 40
0.0
  9
$OLESTARTUP
290
0
  9
$SORTENTS
280
127
  9
$INDEXCTL
280
0
  9
$HIDETEXT
280
1
  9
$XCLIPFRAME
280
1
  9
$HALOGAP
280
0
  9
$OBSCOLOR
 70
257
  9
$OBSLTYPE
280
0
  9
$INTERSECTIONDISPLAY
280
0
  9
$INTERSECTIONCOLOR
 70
257
  9
$DIMASSOC
280
2
  9
$PROJECTNAME
  1

  9
$CAMERADISPLAY
290
0
  9
$LENSLENGTH
 40
50.0
  9
$CAMERAHEIGHT
 40
0.0
  9
$STEPSPERSEC
 40
24.0
  9
$STEPSIZE
 40
100.0
  9
$3DDWFPREC
 40
2.0
  9
$PSOLWIDTH
 40
0.005
  9
$PSOLHEIGHT
 40
0.08
  9
$LOFTANG1
 40
1.570796326795
  9
$LOFTANG2
 40
1.570796326795
  9
$LOFTMAG1
 40
0.0
  9
$LOFTMAG2
 40
0.0
  9
$LOFTPARAM
 70
7
  9
$LOFTNORMALS
280
1
  9
$LATITUDE
 40
37.795
  9
$LONGITUDE
 40
-122.394
  9
$NORTHDIRECTION
 40
0.0
  9
$TIMEZONE
 70
-8000
  9
$LIGHTGLYPHDISPLAY
280
1
  9
$TILEMODELIGHTSYNCH
280
1
  9
$CMATERIAL
347
20
  9
$SOLIDHIST
280
0
  9
$SHOWHIST
280
1
  9
$DWFFRAME
280
2
  9
$DGNFRAME
280
2
  9
$REALWORLDSCALE
290
1
  9
$INTERFERECOLOR
 62
256
  9
$CSHADOW
280
0
  9
$SHADOWPLANELOCATION
 40
0.0
  0
ENDSEC
  0
SECTION
  2
CLASSES
  0
CLASS
  1
ACDBDICTIONARYWDFLT
  2
AcDbDictionaryWithDefault
  3
ObjectDBX Classes
 90
0
 91
0
280
0
281
0
  0
CLASS
  1
SUN
  2
AcDbSun
  3
SCENEOE
 90
1153
 91
0
280
0
281
0
  0
CLASS
  1
VISUALSTYLE
  2
AcDbVisualStyle
  3
ObjectDBX Classes
 90
4095
 91
0
280
0
281
0
  0
CLASS
  1
MATERIAL
  2
AcDbMaterial
  3
ObjectDBX Classes
 90
1153
 91
0
280
0
281
0
  0
CLASS
  1
SCALE
  2
AcDbScale
  3
ObjectDBX Classes
 90
1153
 91
0
280
0
281
0
  0
CLASS
  1
TABLESTYLE
  2
AcDbTableStyle
  3
ObjectDBX Classes
 90
4095
 91
0
280
0
281
0
  0
CLASS
  1
MLEADERSTYLE
  2
AcDbMLeaderStyle
  3
ACDB_MLEADERSTYLE_CLASS
 90
4095
 91
0
280
0
281
0
  0
CLASS
  1
DICTIONARYVAR
  2
AcDbDictionaryVar
  3
ObjectDBX Classes
 90
0
 91
0
280
0
281
0
  0
CLASS
  1
CELLSTYLEMAP
  2
AcDbCellStyleMap
  3
ObjectDBX Classes
 90
1152
 91
0
280
0
281
0
  0
CLASS
  1
MENTALRAYRENDERSETTINGS
  2
AcDbMentalRayRenderSettings
  3
SCENEOE
 90
1024
 91
0
280
0
281
0
  0
CLASS
  1
ACDBDETAILVIEWSTYLE
  2
AcDbDetailViewStyle
  3
ObjectDBX Classes
 90
1025
 91
0
280
0
281
0
  0
CLASS
  1
ACDBSECTIONVIEWSTYLE
  2
AcDbSectionViewStyle
  3
ObjectDBX Classes
 90
1025
 91
0
280
0
281
0
  0
CLASS
  1
RASTERVARIABLES
  2
AcDbRasterVariables
  3
ISM
 90
0
 91
0
280
0
281
0
  0
CLASS
  1
ACDBPLACEHOLDER
  2
AcDbPlaceHolder
  3
ObjectDBX Classes
 90
0
 91
0
280
0
281
0
  0
CLASS
  1
LAYOUT
  2
AcDbLayout
  3
ObjectDBX Classes
 90
0
 91
0
280
0
281
0
  0
ENDSEC
  0
SECTION
  2
TABLES
  0
TABLE
  2
VPORT
  5
8
330
0
100
AcDbSymbolTable
 70
1
  0
VPORT
  5
23
330
8
100
AcDbSymbolTableRecord
100
AcDbViewportTableRecord
  2
*Active
 70
0
 10
0.0
 20
0.0
 11
1.0
 21
1.0
 12
0.0
 22
0.0
 13
0.0
 23
0.0
 14
0.5
 24
0.5
 15
0.5
 25
0.5
 16
0.0
 26
0.0
 36
1.0
 17
0.0
 27
0.0
 37
0.0
 40
1000.0
 41
1.34
 42
50.0
 43
0.0
 44
0.0
 50
0.0
 51
0.0
 71
0
 72
1000
 73
1
 74
3
 75
0
 76
0
 77
0
 78
0
281
0
 65
0
146
0.0
  0
ENDTAB
  0
TABLE
  2
LTYPE
  5
2
330
0
100
AcDbSymbolTable
 70
3
  0
LTYPE
  5
24
330
2
100
AcDbSymbolTableRecord
100
AcDbLinetypeTableRecord
  2
ByBlock
 70
0
  3

 72
65
 73
0
 40
0.0
  0
LTYPE
  5
25
330
2
100
AcDbSymbolTableRecord
100
AcDbLinetypeTableRecord
  2
ByLayer
 70
0
  3

 72
65
 73
0
 40
0.0
  0
LTYPE
  5
26
330
2
100
AcDbSymbolTableRecord
100
AcDbLinetypeTableRecord
  2
Continuous
 70
0
  3

 72
65
 73
0
 40
0.0
  0
ENDTAB
  0
TABLE
  2
LAYER
  5
1
330
0
100
AcDbSymbolTable
 70
3
  0
LAYER
  5
27
330
1
100
AcDbSymbolTableRecord
100
AcDbLayerTableRecord
  2
0
 70
0
 62
7
  6
Continuous
370
-3
390
13
347
21
  0
LAYER
  5
28
330
1
100
AcDbSymbolTableRecord
100
AcDbLayerTableRecord
  2
Defpoints
 70
0
 62
7
  6
Continuous
290
0
370
-3
390
13
347
21
  0
LAYER
  5
2F
330
1
100
AcDbSymbolTableRecord
100
AcDbLayerTableRecord
  2
CUT
 70
0
 62
1
  6
Continuous
370
-3
390
13
347
21
  0
ENDTAB
  0
TABLE
  2
STYLE
  5
5
330
0
100
AcDbSymbolTable
 70
1
  0
STYLE
  5
29
330
5
100
AcDbSymbolTableRecord
100
AcDbTextStyleTableRecord
  2
Standard
 70
0
 40
0.0
 41
1.0
 50
0.0
 71
0
 42
2.5
  3
txt
  4

  0
ENDTAB
  0
TABLE
  2
VIEW
  5
7
330
0
100
AcDbSymbolTable
 70
0
  0
ENDTAB
  0
TABLE
  2
UCS
  5
6
330
0
100
AcDbSymbolTable
 70
0
  0
ENDTAB
  0
TABLE
  2
APPID
  5
3
330
0
100
AcDbSymbolTable
 70
3
  0
APPID
  5
2A
330
3
100
AcDbSymbolTableRecord
100
AcDbRegAppTableRecord
  2
ACAD
 70
0
  0
APPID
  5
7C
330
3
100
AcDbSymbolTableRecord
100
AcDbRegAppTableRecord
  2
HATCHBACKGROUNDCOLOR
 70
0
  0
APPID
  5
7D
330
3
100
AcDbSymbolTableRecord
100
AcDbRegAppTableRecord
  2
EZDXF
 70
0
  0
ENDTAB
  0
TABLE
  2
DIMSTYLE
  5
4
330
0
100
AcDbSymbolTable
 70
1
100
AcDbDimStyleTable
  0
DIMSTYLE
105
2B
330
4
100
AcDbSymbolTableRecord
100
AcDbDimStyleTableRecord
  2
Standard
 70
0
 40
1.0
 41
2.5
 42
0.625
 43
3.75
 44
1.25
 45
0.0
 46
0.0
 47
0.0
 48
0.0
 49
2.5
140
2.5
141
2.5
142
0.0
143
0.03937007874
144
1.0
145
0.0
146
1.0
147
0.625
148
0.0
 69
0
 70
0
 71
0
 72
0
 73
0
 74
0
 75
0
 76
0
 77
1
 78
8
 79
3
170
0
171
3
172
1
173
0
174
0
175
0
176
0
177
0
178
0
179
2
271
2
272
2
273
2
274
3
275
0
276
0
277
2
278
44
279
0
280
0
281
0
282
0
283
0
284
8
285
0
286
0
288
0
289
3
290
0
371
-2
372
-2
  0
ENDTAB
  0
TABLE
  2
BLOCK_RECORD
  5
9
330
0
100
AcDbSymbolTable
 70
2
  0
BLOCK_RECORD
  5
17
330
9
100
AcDbSymbolTableRecord
100
AcDbBlockTableRecord
  2
*Model_Space
340
1A
 70
0
280
1
281
0
  0
BLOCK_RECORD
  5
1B
330
9
100
AcDbSymbolTableRecord
100
AcDbBlockTableRecord
  2
*Paper_Space
340
1E
 70
0
280
1
281
0
  0
ENDTAB
  0
ENDSEC
  0
SECTION
  2
BLOCKS
  0
BLOCK
  5
18
330
17
100
AcDbEntity
  8
0
100
AcDbBlockBegin
  2
*Model_Space
 70
0
 10
0.0
 20
0.0
 30
0.0
  3
*Model_Space
  1

  0
ENDBLK
  5
19
330
17
100
AcDbEntity
  8
0
100
AcDbBlockEnd
  0
BLOCK
  5
1C
330
1B
100
AcDbEntity
  8
0
100
AcDbBlockBegin
  2
*Paper_Space
 70
0
 10
0.0
 20
0.0
 30
0.0
  3
*Paper_Space
  1

  0
ENDBLK
  5
1D
330
1B
100
AcDbEntity
  8
0
100
AcDbBlockEnd
  0
ENDSEC
  0
SECTION
  2
ENTITIES
  0
LWPOLYLINE
  5
30
330
17
100
AcDbEntity
  8
CUT
100
AcDbPolyline
 90
34
 70
1
 10
181.79829416011276
 20
9.663218343598839
 10
179.28852510634357
 20
13.149663364190241
 10
178.03521193334515
 20
16.73462187431347
 10
177.90111793931013
 20
20.27334502057404
 10
178.74900642243114
 20
23.62108394957781
 10
180.4416406809008
 20
26.633089807930407
 10
182.84178401291177
 20
29.164613742237357
 10
185.8121997166567
 20
31.07090689910451
 10
189.21565109032827
 20
32.20722042513728
 10
192.9149014321191
 20
32.4288054669414
 10
196.77271404022187
 20
31.59091317112273
 10
200.65185221282917
 20
29.548794684286793
 10
201.48292116031647
 20
28.916534377991134
 10
202.21382775374235
 20
28.24895492648835
 10
202.84899946675557
 20
27.535212693315355
 10
203.39286377300468
 20
26.764464042009067
 10
203.84984814613836
 20
25.92586533610639
 10
204.22438005980518
 20
25.00857293914413
 10
204.52088698765382
 20
24.001743214659314
 10
204.7437964033329
 20
22.894532526188513
 10
204.8975357804911
 20
21.676097237268756
 10
204.986532592777
 20
20.335593711436843
 10
205.01521431383927
 20
18.862178312229798
 10
204.6740231967729
 20
15.52077342251824
 10
203.7101761431318
 20
12.573904859080669
 10
202.21326259925314
 20
10.057069566602697
 10
200.2728720114738
 20
8.005764489770053
 10
197.97859382613095
 20
6.455486573268461
 10
195.4200174895615
 20
5.441732761783202
 10
192.68673244810256
 20
5.0
 10
189.8683281480912
 20
5.165785232604359
 10
187.0543940358644
 20
5.974585404281894
 10
184.33451955775925
 20
7.4618974597182195
 10
181.79829416011276
 20
9.663218343598839
  0
LWPOLYLINE
  5
31
330
17
100
AcDbEntity
  8
CUT
100
AcDbPolyline
 90
34
 70
1
 10
510.56722165998366
 20
9.188362053099198
 10
508.2289860256175
 20
11.516399277682599
 10
506.6693917969373
 20
14.117068054977054
 10
505.8445597665052
 20
16.88620781251324
 10
505.710610726883
 20
19.7196579778224
 10
506.2236654706324
 20
22.51325797843465
 10
507.33984479031545
 20
25.162847241881217
 10
509.01526947849413
 20
27.5642651956929
 10
511.2060603277303
 20
29.613351267400148
 10
513.8683381305858
 20
31.20594488453397
 10
516.9582236796225
 20
32.23788547462494
 10
520.4318377674027
 20
32.60501246520406
 10
522.4650619101109
 20
32.472433202012176
 10
524.3408661884404
 20
32.08053070951338
 10
526.0516188518878
 20
31.438057933323346
 10
527.5896881499506
 20
30.55376781905798
 10
528.9474423321254
 20
29.43641331233285
 10
530.1172496479096
 20
28.094747358763744
 10
531.0914783468003
 20
26.537522903966337
 10
531.8624966782943
 20
24.77349289355631
 10
532.4226728918889
 20
22.811410273149228
 10
532.7643752370811
 20
20.660027988360994
 10
532.8799719633681
 20
18.328098984807284
 10
532.5900294357698
 20
15.186340121405477
 10
531.7624177059863
 20
12.428940036734978
 10
530.4604605535354
 20
10.08183738373765
 10
528.7474817579346
 20
8.170970815356592
 10
526.6868050987005
 20
6.7222789845336655
 10
524.3417543553512
 20
5.761700544211745
 10
521.7756533074039
 20
5.315174147333033
 10
519.0518257343762
 20
5.4086384468399515
 10
516.2335954157852
 20
6.06803209567504
 10
513.3842861311487
 20
7.319293746780609
 10
510.56722165998366
 20
9.188362053099198
  0
LWPOLYLINE
  5
32
330
17
100
AcDbEntity
  8
CUT
100
AcDbPolyline
 90
34
 70
1
 10
232.54057060462884
 20
11.083287902831474
 10
233.21953241972994
 20
12.600877277441317
 10
233.64390211346827
 20
14.115235559297576
 10
233.82234512338073
 20
15.604459367532366
 10
233.76352688700413
 20
17.046645321277474
 10
233.47611284187525
 20
18.419890039664796
 10
232.96876842553095
 20
19.70229014182612
 10
232.25015907550812
 20
20.87194224689334
 10
231.32895022934358
 20
21.906942973998245
 10
230.21380732457416
 20
22.785388942272835
 10
228.9133957987367
 20
23.48537677084879
 10
227.436381089368
 20
23.985003078858117
 10
225.87126846409393
 20
24.262299811391223
 10
224.37497519862603
 20
24.302493413266706
 10
222.9644078350507
 20
24.118159349173126
 10
221.65647291545451
 20
23.721873083799938
 10
220.46807698192387
 20
23.1262100818356
 10
219.41612657654525
 20
22.343745807969224
 10
218.51752824140522
 20
21.387055726889603
 10
217.7891885185902
 20
20.268715303285518
 10
217.24801395018665
 20
19.001300001845983
 10
216.91091107828115
 20
17.597385287259776
 10
216.79478644496007
 20
16.069546624215917
 10
217.0697201020901
 20
13.775935677781368
 10
217.83659978966836
 20
11.76784829005085
 10
219.0085435819773
 20
10.072797588058904
 10
220.49866955329918
 20
8.718296698839742
 10
222.2200957779163
 20
7.7318587494277935
 10
224.0859403301109
 20
7.140996866857382
 10
226.00932128416542
 20
6.973224178163049
 10
227.9033567143622
 20
7.2560538103787815
 10
229.68116469498344
 20
8.016998890539234
 10
231.25586330031157
 20
9.28357254567873
 10
232.54057060462884
 20
11.083287902831474
  0
LWPOLYLINE
  5
33
330
17
100
AcDbEntity
  8
CUT
100
AcDbPolyline
 90
34
 70
1
 10
491.2588171000747
 20
9.438520607333135
 10
492.2585654296919
 20
10.64249301888771
 10
492.9890974444312
 20
11.958492204575327
 10
493.4571098691206
 20
13.35240727692879
 10
493.6692994285874
 20
14.79012734848079
 10
493.6323628476591
 20
16.23754153176379
 10
493.3529968511636
 20
17.66053893931025
 10
492.83789816392806
 20
19.02500868365275
 10
492.09376351078043
 20
20.296839877323873
 10
491.12728961654807
 20
21.441921632855966
 10
489.94517320605866
 20
22.42614306278183
 10
488.5541110041397
 20
23.21539327963393
 10
486.9009072904007
 20
23.848605848419655
 10
485.31168583324444
 20
24.221848579177077
 10
483.80097746289306
 20
24.342386782456806
 10
482.3833130095685
 20
24.21748576880934
 10
481.07322330349274
 20
23.85441084878552
 10
479.8852391748877
 20
23.26042733293584
 10
478.83389145397564
 20
22.442800531810807
 10
477.9337109709783
 20
21.408795755961027
 10
477.19922855611793
 20
20.165678315937228
 10
476.64497503961644
 20
18.720713522289795
 10
476.28548125169584
 20
17.081166685569457
 10
476.2230240103881
 20
14.896883414395687
 10
476.6601996857537
 20
12.900811480821291
 10
477.52537527831225
 20
11.129513589917691
 10
478.74691778858335
 20
9.619552446755414
 10
480.25319421708645
 20
8.407490756405435
 10
481.9725715643412
 20
7.529891223938728
 10
483.8334168308671
 20
7.023316554426044
 10
485.7640970171838
 20
6.924329452938246
 10
487.692979123811
 20
7.269492624546309
 10
489.548430151268
 20
8.095368774320875
 10
491.2588171000747
 20
9.438520607333135
  0
LWPOLYLINE
  5
34
330
17
100
AcDbEntity
  8
CUT
100
AcDbPolyline
 90
34
 70
1
 10
198.00356423579117
 20
12.130994237303593
 10
199.38540150758024
 20
13.866514988091641
 10
200.28238083455722
 20
15.760339632270092
 10
200.72262839210595
 20
17.744286665530204
 10
200.73427035561028
 20
19.750174583563222
 10
200.34543290045406
 20
21.709821882060286
 10
199.5842422020212
 20
23.55504705671276
 10
198.47882443569551
 20
25.21766860321167
 10
197.05730577686091
 20
26.629505017248377
 10
195.34781240090132
 20
27.722374794514025
 10
193.3784704832005
 20
28.42809643069997
 10
191.1774061991424
 20
28.67848842149713
 10
190.59147569598218
 20
28.625018663201043
 10
189.9633114206976
 20
28.469771985665314
 10
189.30388982354395
 20
28.220492284918958
 10
188.62418735477655
 20
27.88492345699143
 10
187.9351804646508
 20
27.470809397911527
 10
187.24784560342206
 20
26.985894003708363
 10
186.5731592213457
 20
26.437921170411187
 10
185.92209776867705
 20
25.834634794049006
 10
185.30563769567155
 20
25.183778770650832
 10
184.73475545258452
 20
24.493096996246017
 10
184.22042748967127
 20
23.77033336686346
 10
182.97166085008575
 20
21.197521983385137
 10
182.52461790483608
 20
18.67315472058644
 10
182.77884269388036
 20
16.282062847869625
 10
183.63387925717672
 20
14.109077634636499
 10
184.98927163468323
 20
12.239030350288868
 10
186.74456386635805
 20
10.756752264228538
 10
188.79929999215932
 20
9.747074645857648
 10
191.05302405204515
 20
9.29482876457778
 10
193.40528008597366
 20
9.48484588979085
 10
195.75561213390296
 20
10.401957290898892
 10
198.00356423579117
 20
12.130994237303593
  0
LWPOLYLINE
  5
35
330
17
100
AcDbEntity
  8
CUT
100
AcDbPolyline
 90
34
 70
1
 10
524.5900858186512
 20
12.102085983879734
 10
526.4153091973873
 20
13.69594476196522
 10
527.7318956757587
 20
15.503367671956342
 10
528.5606104377453
 20
17.447372463088612
 10
528.9222186673262
 20
19.450976884597672
 10
528.8374855484814
 20
21.437198685718922
 10
528.32717626519
 20
23.32905561568822
 10
527.4120560014318
 20
25.04956542374097
 10
526.1128899411863
 20
26.52174585911258
 10
524.4504432684329
 20
27.6686146710388
 10
522.4454811671511
 20
28.413189608755143
 10
520.1187688213206
 20
28.67848842149713
 10
517.9077432099361
 20
28.365538087504486
 10
515.9474065757906
 20
27.493975968658493
 10
514.2688766001995
 20
26.164735389656894
 10
512.9032709644778
 20
24.478749675198095
 10
511.8817073499399
 20
22.536952149980063
 10
511.23530343790134
 20
20.44027613870054
 10
510.9951769096771
 20
18.289654966058045
 10
511.1924454465822
 20
16.186021956750093
 10
511.85822672993163
 20
14.230310435475099
 10
513.0236384410405
 20
12.523453726930802
 10
514.7197982612236
 20
11.166385155815387
 10
515.8580837485172
 20
10.51235975531827
 10
516.8251686460214
 20
9.994491497934728
 10
517.662054042437
 20
9.61666727676949
 10
518.4097410264646
 20
9.38277398492751
 10
519.1092306868051
 20
9.296698515513405
 10
519.8015241121587
 20
9.362327761631903
 10
520.5276223912265
 20
9.583548616387844
 10
521.328526612709
 20
9.964247972885847
 10
522.2452378653066
 20
10.508312724230638
 10
523.3187572377205
 20
11.219629763527063
 10
524.5900858186512
 20
12.102085983879734
  0
LWPOLYLINE
  5
36
330
17
100
AcDbEntity
  8
CUT
100
AcDbPolyline
 90
45
 70
1
 10
152.0071397237957
 20
32.03455759032738
 10
149.35887133964596
 20
33.20818291464244
 10
147.00098823785942
 20
34.658482773643186
 10
144.9473070808395
 20
36.35592616455716
 10
143.2116445309897
 20
38.27098208461303
 10
141.80781725071355
 20
40.37411953103836
 10
140.74964190241445
 20
42.63580750106159
 10
140.050935148496
 20
45.02651499191039
 10
139.7255136513616
 20
47.516711000812975
 10
139.7871940734148
 20
50.07686452499734
 10
140.2497930770591
 20
52.67744456169149
 10
141.12712732469794
 20
55.28892010812342
 10
143.8682684898685
 20
59.99791512295921
 10
147.2741285689988
 20
63.067228019515085
 10
151.10602717283572
 20
64.63418630956993
 10
155.12528391212624
 20
64.83611750490289
 10
159.09321839761728
 20
63.81034911729276
 10
162.77115024005585
 20
61.694208658518185
 10
165.92039905018885
 20
58.62502364035839
 10
168.30228443876328
 20
54.74012157459203
 10
169.67812601652602
 20
50.176829972997986
 10
169.8092433942241
 20
45.07247634735531
 10
168.4569561826045
 20
39.564388209442725
 10
167.9757693483767
 20
38.75714322797617
 10
167.13088987881255
 20
37.79915221063495
 10
165.9973452748083
 20
36.74134293543918
 10
164.6501630372604
 20
35.63464318040876
 10
163.16437066706516
 20
34.52998072356347
 10
161.61499566511907
 20
33.47828334292342
 10
160.07706553231847
 20
32.53047881650839
 10
158.62560776955976
 20
31.737494922338293
 10
157.3356498777394
 20
31.150259438433118
 10
156.2822193577537
 20
30.81970014281265
 10
155.54034371049903
 20
30.796744813496897
 10
155.42162853698716
 20
30.831365221795696
 10
155.24569267045834
 20
30.887426153764
 10
155.01811066265716
 20
30.96297463657589
 10
154.74445706532825
 20
31.056057697405453
 10
154.43030643021615
 20
31.164722363426765
 10
154.0812333090655
 20
31.287015661813808
 10
153.70281225362098
 20
31.42098461974077
 10
153.3006178156271
 20
31.564676264381404
 10
152.88022454682852
 20
31.716137622910125
 10
152.44720699896985
 20
31.873415722500795
 10
152.0071397237957
 20
32.03455759032738
  0
LWPOLYLINE
  5
37
330
17
100
AcDbEntity
  8
CUT
100
AcDbPolyline
 90
34
 70
1
 10
171.9669702793059
 20
32.114196959740696
 10
172.6437718803687
 20
33.451711659950924
 10
173.59698073309224
 20
35.07931005368219
 10
174.76172387291038
 20
36.90914574312988
 10
176.07312833525688
 20
38.85337233048996
 10
177.46632115556548
 20
40.824143417957806
 10
178.87642936927
 20
42.73361260772916
 10
180.23858001180426
 20
44.49393350199962
 10
181.48790011860208
 20
46.01725970296492
 10
182.55951672509718
 20
47.21574481282057
 10
183.3885568667234
 20
48.001542433762175
 10
183.91014757891452
 20
48.28680616798536
 10
184.6325634098054
 20
48.15868768915099
 10
185.11973547002347
 20
47.76445417208129
 10
185.3800371122818
 20
47.131020723098814
 10
185.42184168929336
 20
46.285302448526004
 10
185.25352255377123
 20
45.25421445468542
 10
184.88345305842844
 20
44.06467184789904
 10
184.32000655597804
 20
42.74358973448945
 10
183.5715563991331
 20
41.317883220779066
 10
182.64647594060668
 20
39.814467413090114
 10
181.5531385331118
 20
38.26025741774527
 10
180.29991752936152
 20
36.68216834106663
 10
179.04616831836404
 20
35.27564589559822
 10
177.78094371761998
 20
34.00668079682056
 10
176.54114942717172
 20
32.89550408382928
 10
175.36369114706145
 20
31.96234679572092
 10
174.28547457733148
 20
31.22743997159098
 10
173.34340541802408
 20
30.71101465053566
 10
172.57438936918157
 20
30.433301871651256
 10
172.0153321308462
 20
30.414532674033403
 10
171.70313940306028
 20
30.674938096778508
 10
171.67471688586608
 20
31.2347491789821
 10
171.9669702793059
 20
32.114196959740696
  0
LWPOLYLINE
  5
38
330
17
100
AcDbEntity
  8
CUT
100
AcDbPolyline
 90
56
 70
1
 10
527.1300033015357
 20
40.62901331521089
 10
526.3122041239792
 20
42.12622808900362
 10
525.6193203743246
 20
43.488089143353825
 10
525.0497538865218
 20
44.72138250142374
 10
524.6019064945198
 20
45.83289418637582
 10
524.2741800322682
 20
46.8294102213722
 10
524.0649763337168
 20
47.71771662957511
 10
523.972697232815
 20
48.504599434147
 10
523.9957445635124
 20
49.19684465824968
 10
524.1325201597584
 20
49.80123832504594
 10
524.3814258555025
 20
50.32456645769751
 10
524.7408634846945
 20
50.77361507936689
 10
525.1423063614168
 20
51.13838444045209
 10
525.5198478647949
 20
51.403617897095046
 10
525.8758199263419
 20
51.568216131073754
 10
526.2125544775713
 20
51.63107982416656
 10
526.532383449996
 20
51.591109658151815
 10
526.8376387751296
 20
51.447206314807744
 10
527.1306523844852
 20
51.198270475912466
 10
527.4137562095763
 20
50.843202823244155
 10
527.689282181916
 20
50.38090403858115
 10
527.959562233018
 20
49.81027480370158
 10
528.2269282943951
 20
49.13021580038383
 10
528.466666919019
 20
48.520053795938345
 10
528.7710743412247
 20
47.82812266475994
 10
529.1323966365122
 20
47.06845464317675
 10
529.5428798803806
 20
46.2550819675169
 10
529.9947701483296
 20
45.40203687410854
 10
530.4803135158588
 20
44.52335159927958
 10
530.9917560584673
 20
43.63305837935825
 10
531.5213438516555
 20
42.74518945067238
 10
532.0613229709222
 20
41.873777049550306
 10
532.6039394917673
 20
41.03285341231983
 10
533.1414394896899
 20
40.23645077530921
 10
533.9379194408327
 20
39.00929243748809
 10
534.5704518424583
 20
37.8712972342007
 10
535.0392104821004
 20
36.82830353518386
 10
535.3443691472928
 20
35.88614971017447
 10
535.4861016255696
 20
35.05067412890912
 10
535.4645817044645
 20
34.327715161124715
 10
535.2799831715115
 20
33.72311117655795
 10
534.9324798142445
 20
33.24270054494586
 10
534.4222454201973
 20
32.8923216360249
 10
533.7494537769039
 20
32.67781281953211
 10
532.9142786718983
 20
32.60501246520406
 10
532.6774642241775
 20
32.69242644891936
 10
532.3554654092044
 20
32.94622842922391
 10
531.9574084315453
 20
33.35375844985544
 10
531.4924194957666
 20
33.902356554551545
 10
530.9696248064347
 20
34.579362787050286
 10
530.3981505681156
 20
35.37211719108926
 10
529.7871229853757
 20
36.26795981040641
 10
529.1456682627816
 20
37.25423068873923
 10
528.4829126048993
 20
38.31826986982577
 10
527.8079822162953
 20
39.447417397403754
 10
527.1300033015357
 20
40.62901331521089
  0
LWPOLYLINE
  5
39
330
17
100
AcDbEntity
  8
CUT
100
AcDbPolyline
 90
34
 70
1
 10
544.8020379446257
 20
37.77793046776806
 10
543.3696041816559
 20
39.8182630572293
 10
542.2559835976199
 20
41.88542913407626
 10
541.4605204020174
 20
43.97060609327045
 10
540.982558804349
 20
46.064971329772895
 10
540.8214430141142
 20
48.15970223854545
 10
540.9765172408132
 20
50.24597621454893
 10
541.447125693946
 20
52.314970652744954
 10
542.2326125830125
 20
54.35786294809468
 10
543.332322117513
 20
56.36583049555954
 10
544.7455985069472
 20
58.33005069010078
 10
546.4717859608152
 20
60.24170092667976
 10
548.8359817098059
 20
62.30576920105216
 10
551.2724461949147
 20
63.866727899009135
 10
553.7491672122105
 20
64.9298797716742
 10
556.2341325577623
 20
65.50052757017099
 10
558.6953300276389
 20
65.5839740456232
 10
561.1007474179091
 20
65.18552194915432
 10
563.4183725246418
 20
64.31047403188813
 10
565.6161931439058
 20
62.96413304494791
 10
567.6621970717702
 20
61.15180173945728
 10
569.5243721043037
 20
58.87878286654006
 10
571.1707060375751
 20
56.150379177319635
 10
572.7379004227407
 20
51.674607761187296
 10
572.9156125519943
 20
47.34425417143727
 10
571.9027134419747
 20
43.29788238635372
 10
569.8980741093204
 20
39.674056384220634
 10
567.1005655706703
 20
36.61134014332223
 10
563.7090588426631
 20
34.24829764194274
 10
559.9224249419374
 20
32.72349285836592
 10
555.9395348851322
 20
32.1754897708759
 10
551.9592596888859
 20
32.74285235775699
 10
548.1804703698376
 20
34.564144597292966
 10
544.8020379446257
 20
37.77793046776806
  0
LWPOLYLINE
  5
3A
330
17
100
AcDbEntity
  8
CUT
100
AcDbPolyline
 90
34
 70
1
 10
162.15967676843016
 20
39.780710736245474
 10
163.83732078025886
 20
41.74900606147078
 10
164.89873210422468
 20
43.97309809541411
 10
165.38427716501246
 20
46.35959230763869
 10
165.33432238730708
 20
48.81509416770789
 10
164.78923419579348
 20
51.246209145184885
 10
163.78937901515653
 20
53.559542709632915
 10
162.37512327008105
 20
55.661700330615346
 10
160.58683338525216
 20
57.45928747769529
 10
158.46487578535456
 20
58.85890962043595
 10
156.04961689507326
 20
59.76717222840062
 10
153.38142313909313
 20
60.09068077115259
 10
151.78715813285424
 20
60.00271073466141
 10
150.34268537951326
 20
59.73912850937405
 10
149.04843524062503
 20
59.300425921570586
 10
147.9048380777441
 20
58.68709479753088
 10
146.91232425242532
 20
57.89962696353479
 10
146.0713241262234
 20
56.93851424586218
 10
145.382268060693
 20
55.804248470793056
 10
144.84558641738897
 20
54.49732146460706
 10
144.4617095578659
 20
53.01822505358428
 10
144.23106784367863
 20
51.3674510640044
 10
144.15409163638182
 20
49.54549132214744
 10
144.4002446571816
 20
46.65441757788647
 10
145.09976510673894
 20
44.0689898501453
 10
146.1942450657907
 20
41.82088389463519
 10
147.6252766150738
 20
39.941775467067714
 10
149.3344518353251
 20
38.463340323154355
 10
151.26336280728145
 20
37.41725421860625
 10
153.35360161167972
 20
36.83519290913509
 10
155.54676032925684
 20
36.74883215045202
 10
157.78443104074972
 20
37.18984769826839
 10
160.00820582689522
 20
38.18991530829579
 10
162.15967676843016
 20
39.780710736245474
  0
LWPOLYLINE
  5
3B
330
17
100
AcDbEntity
  8
CUT
100
AcDbPolyline
 90
67
 70
1
 10
258.77938197154265
 20
40.63140879591969
 10
260.7836095460741
 20
42.32572805987273
 10
262.5760185498378
 20
44.156019333579735
 10
264.214857424982
 20
46.268602758835456
 10
265.7583746136549
 20
48.80979847743431
 10
267.26481855800466
 20
51.92592663117079
 10
268.7924377001796
 20
55.76330736183964
 10
270.39948048232793
 20
60.468260811235226
 10
272.1441953465978
 20
66.18710712115202
 10
274.08483073513753
 20
73.06616643338464
 10
276.2796350900952
 20
81.2517588897276
 10
278.78685685361927
 20
90.89020463197542
 10
281.76167345139555
 20
102.24157677463475
 10
284.7205648146242
 20
113.12953514610078
 10
287.6841262759762
 20
123.61834649719947
 10
290.67295316812243
 20
133.77227757875713
 10
293.7076408237339
 20
143.65559514159963
 10
296.8087845754815
 20
153.3325659365531
 10
299.9969797560363
 20
162.86745671444353
 10
303.2928216980692
 20
172.32453422609694
 10
306.71690573425116
 20
181.76806522233937
 10
310.2898271972532
 20
191.26231645399696
 10
314.03218141974617
 20
200.87155467189558
 10
315.5892110424863
 20
204.83563371343027
 10
317.06080959144373
 20
208.640074209466
 10
318.4314181424675
 20
212.2412803484652
 10
319.68547777140645
 20
215.59565631889035
 10
320.8074295541096
 20
218.65960630920384
 10
321.78171456642576
 20
221.38953450786798
 10
322.59277388420406
 20
223.74184510334527
 10
323.22504858329324
 20
225.672942284098
 10
323.6629797395424
 20
227.13923023858862
 10
323.89100842880043
 20
228.0971131552796
 10
323.8935757269163
 20
228.50299522263322
 10
322.97527415700057
 20
227.86684958847212
 10
320.95998740689276
 20
225.47777995870788
 10
318.005113168336
 20
221.5668664901369
 10
314.2680491330728
 20
216.36518933955546
 10
309.90619299284634
 20
210.10382866376
 10
305.0769424393994
 20
203.01386461954684
 10
299.93769516447486
 20
195.32637736371223
 10
294.6458488598157
 20
187.27244705305247
 10
289.3588012171647
 20
179.083153844364
 10
284.23394992826496
 20
170.98957789444307
 10
279.42869268485913
 20
163.2227993600861
 10
269.26357741055165
 20
146.0706677267991
 10
260.4079552068746
 20
130.07985788731474
 10
252.8672847247726
 20
115.26748903485456
 10
246.6470246151902
 20
101.6506803626404
 10
241.75263352907203
 20
89.24655106389385
 10
238.18957011736282
 20
78.07222033183658
 10
235.96329303100705
 20
68.14480735969026
 10
235.0792609209494
 20
59.48143134067652
 10
235.54293243813467
 20
52.09921146801711
 10
237.3597662335072
 20
46.015266934933564
 10
240.5352209580118
 20
41.24671693464776
 10
242.03389702410283
 20
39.80380195874964
 10
243.55920914946978
 20
38.63846268095305
 10
245.11293758275733
 20
37.75063906004951
 10
246.69686257260977
 20
37.1402710548303
 10
248.31276436767186
 20
36.807298624086485
 10
249.96242321658818
 20
36.751661726609576
 10
251.64761936800323
 20
36.97330032119062
 10
253.37013307056162
 20
37.47215436662092
 10
255.13174457290793
 20
38.24816382169175
 10
256.93423412368674
 20
39.30126864519416
 10
258.77938197154265
 20
40.63140879591969
  0
LWPOLYLINE
  5
3C
330
17
100
AcDbEntity
  8
CUT
100
AcDbPolyline
 90
56
 70
1
 10
472.1674068109813
 20
42.91213807993476
 10
474.86970064603463
 20
49.50442501443154
 10
475.7835360028198
 20
57.79448115321757
 10
474.9322899692003
 20
67.72580760979251
 10
472.3393396330399
 20
79.24190549765615
 10
468.0280620822021
 20
92.28627593030782
 10
462.02183440455065
 20
106.80242002124731
 10
454.34403368794887
 20
122.73383888397431
 10
445.0180370202609
 20
140.02403363198835
 10
434.06722148934995
 20
158.616505378789
 10
421.51496418308
 20
178.45475523787593
 10
407.3846421893144
 20
199.4822843227487
 10
401.4890599279067
 20
207.99548711577702
 10
396.61851706705
 20
214.95020282966075
 10
392.7226313577551
 20
220.39356876624512
 10
389.7510205510328
 20
224.37272222737548
 10
387.6533023978941
 20
226.93480051489695
 10
386.37909464934995
 20
228.12694093065497
 10
385.8780150564109
 20
227.99628077649473
 10
386.09968137008815
 20
226.5899573542615
 10
386.99371134139244
 20
223.9551079658005
 10
388.5097227213347
 20
220.1388699129571
 10
390.59733326092584
 20
215.18838049757645
 10
395.4060081669046
 20
203.769519496354
 10
399.90338064748397
 20
192.6792370338843
 10
404.1201727960908
 20
181.8251828091245
 10
408.08710670615176
 20
171.11500652103175
 10
411.8349044710938
 20
160.45635786856332
 10
415.39428818434374
 20
149.75688655067626
 10
418.7959799393282
 20
138.92424226632775
 10
422.07070182947433
 20
127.86607471447489
 10
425.24917594820863
 20
116.49003359407489
 10
428.3621243889581
 20
104.70376860408471
 10
431.4402692451494
 20
92.41492944346184
 10
434.235427252017
 20
81.39322415814036
 10
436.9038719992676
 20
71.79792647009539
 10
439.4897148866588
 20
63.54966030268334
 10
442.0370673139487
 20
56.56904957926014
 10
444.5900406808952
 20
50.77671822318231
 10
447.1927463872562
 20
46.093290157805654
 10
449.8892958327896
 20
42.43938930648682
 10
452.72380041725364
 20
39.735639592581606
 10
455.74037154040593
 20
37.902664939446545
 10
458.9831206020046
 20
36.861089270437496
 10
462.4961590018074
 20
36.531536508910996
 10
463.6103952710985
 20
36.57214655044312
 10
464.64455205324145
 20
36.698825556181845
 10
465.60965371575196
 20
36.91884684784099
 10
466.5167246261461
 20
37.23948374713503
 10
467.37678915193965
 20
37.66800957577746
 10
468.2008716606485
 20
38.21169765548253
 10
468.9999965197887
 20
38.87782130796405
 10
469.7851880968762
 20
39.67365385493606
 10
470.5674707594269
 20
40.606468618112494
 10
471.3578688749566
 20
41.68353891920749
 10
472.1674068109813
 20
42.91213807993476
  0
LWPOLYLINE
  5
3D
330
17
100
AcDbEntity
  8
CUT
100
AcDbPolyline
 90
34
 70
1
 10
565.1624705758132
 20
40.89489860992104
 10
566.5801194271451
 20
43.33155090665608
 10
567.477306692521
 20
45.79095944074866
 10
567.8789713965854
 20
48.21943338700205
 10
567.8100525639824
 20
50.563281920218756
 10
567.2954892193561
 20
52.768814215201886
 10
566.3602203873511
 20
54.78233944675422
 10
565.0291850926114
 20
56.55016678967864
 10
563.3273223597815
 20
58.018605418777696
 10
561.2795712135056
 20
59.13396450885456
 10
558.9108706784278
 20
59.84255323471184
 10
556.2461597791925
 20
60.09068077115259
 10
553.6194586156075
 20
59.79771810941585
 10
551.2870247674601
 20
58.97111396503716
 10
549.2794577426862
 20
57.68929409926428
 10
547.6273570492209
 20
56.03068427334501
 10
546.3613221950002
 20
54.07371024852699
 10
545.5119526879591
 20
51.89679778605798
 10
545.1098480360334
 20
49.57837264718578
 10
545.185607747159
 20
47.19686059315792
 10
545.7698313292707
 20
44.830687385222106
 10
546.8931182903045
 20
42.558278784626246
 10
548.5860681381959
 20
40.45806055261793
 10
550.0604145199616
 20
39.171172688598865
 10
551.6234511282122
 20
38.15177034382795
 10
553.2477878404117
 20
37.39913170620142
 10
554.9060345340237
 20
36.912534963615244
 10
556.5708010865118
 20
36.691258303965654
 10
558.21469737534
 20
36.73457991514904
 10
559.8103332779721
 20
37.0417779850611
 10
561.3303186718716
 20
37.612130701598225
 10
562.7472634345025
 20
38.44491625265657
 10
564.0337774433285
 20
39.53941282613204
 10
565.1624705758132
 20
40.89489860992104
  0
LWPOLYLINE
  5
3E
330
17
100
AcDbEntity
  8
CUT
100
AcDbPolyline
 90
67
 70
1
 10
223.86252972363255
 20
47.13315142691967
 10
225.25615171400165
 20
48.56626633987316
 10
226.4500902689257
 20
49.89041880697631
 10
227.4584534970698
 20
51.137319653533304
 10
228.29534950709873
 20
52.33867970484885
 10
228.97488640767753
 20
53.526209786227035
 10
229.51117230747107
 20
54.731620722972266
 10
229.91831531514438
 20
55.98662334038891
 10
230.2104235393624
 20
57.32292846378116
 10
230.40160508879012
 20
58.7722469184535
 10
230.50596807209246
 20
60.366289529710045
 10
230.53762059793434
 20
62.13676712285529
 10
231.42495803519446
 20
71.02203164201782
 10
234.02062483954782
 20
81.75439590369702
 10
238.22510274985396
 20
94.14260422274117
 10
243.93887350497243
 20
107.99540091399945
 10
251.0624188437627
 20
123.12153029232029
 10
259.49622050508424
 20
139.32973667255223
 10
269.1407602277966
 20
156.4287643695441
 10
279.8965197507593
 20
174.22735769814426
 10
291.66398081283194
 20
192.53426097320144
 10
304.3436251528738
 20
211.15821850956436
 10
317.8359345097446
 20
229.90797462208158
 10
324.4067010131565
 20
238.98360344081934
 10
328.6749054787941
 20
245.28651961351324
 10
330.79879746797934
 20
248.97003795655883
 10
330.93662654203416
 20
250.18747328635192
 10
329.2466422622807
 20
249.09214041928817
 10
325.8870941900411
 20
245.83735417176325
 10
321.01623188663723
 20
240.57642936017274
 10
314.79230491339115
 20
233.46268080091232
 10
307.37356283162507
 20
224.64942331037773
 10
298.91825520266076
 20
214.28997170496453
 10
289.5846315878204
 20
202.53764080106848
 10
285.93823035615617
 20
197.9386247680603
 10
282.2023517904785
 20
193.32423463720994
 10
278.43336936353256
 20
188.7588596655449
 10
274.6876565480635
 20
184.3068891100923
 10
271.0215868168165
 20
180.03271222787947
 10
267.4915336425367
 20
176.00071827593376
 10
264.15387049796914
 20
172.2752965112824
 10
261.0649708558591
 20
168.92083619095254
 10
258.28120818895167
 20
166.00172657197155
 10
255.85895596999202
 20
163.5823569113668
 10
253.85458767172537
 20
161.7271164661653
 10
248.00398410116253
 20
155.90942380062887
 10
241.38636235055912
 20
148.14247711895482
 10
234.28027619474554
 20
138.87388506576454
 10
226.96427940855182
 20
128.55125628567964
 10
219.71692576680817
 20
117.6221994233219
 10
212.8167690443449
 20
106.53432312331259
 10
206.54236301599212
 20
95.73523603027338
 10
201.1722614565801
 20
85.67254678882577
 10
196.98501814093905
 20
76.79386404359127
 10
194.25918684389913
 20
69.54679643919143
 10
193.2733213402906
 20
64.37895262024787
 10
193.66273635392622
 20
59.06257712405097
 10
194.82926648959247
 20
54.327439810823684
 10
196.67330151408737
 20
50.22969964542347
 10
199.09523119420882
 20
46.82551559270821
 10
201.99544529675478
 20
44.17104661753545
 10
205.27433358852326
 20
42.322451684762854
 10
208.8322858363122
 20
41.33588975924809
 10
212.56969180691965
 20
41.26751980584871
 10
216.38694126714353
 20
42.17350078942236
 10
220.18442398378184
 20
44.10999167482683
 10
223.86252972363255
 20
47.13315142691967
  0
LWPOLYLINE
  5
3F
330
17
100
AcDbEntity
  8
CUT
100
AcDbPolyline
 90
89
 70
1
 10
508.4529961881591
 20
43.92383207952001
 10
509.7210746960784
 20
44.93821495878114
 10
510.9382822140485
 20
46.17124638826728
 10
512.0898909872847
 20
47.592305994985466
 10
513.1611732610014
 20
49.170773405943194
 10
514.137401280414
 20
50.87602824814715
 10
515.0038472907374
 20
52.67745014860495
 10
515.7457835371864
 20
54.54441873432349
 10
516.3484822649764
 20
56.44631363230973
 10
516.7972157193219
 20
58.35251446957102
 10
517.0772561454384
 20
60.232400873114514
 10
517.1738757885404
 20
62.055352469947316
 10
516.2682633845441
 20
67.40168936577493
 10
513.7091379984217
 20
74.65142580423296
 10
509.7330673689727
 20
83.42125016505413
 10
504.57661923499666
 20
93.32785082797169
 10
498.4763613352929
 20
103.9879161727184
 10
491.66886140866114
 20
115.01813457902725
 10
484.39068719390076
 20
126.03519442663114
 10
476.87840642981143
 20
136.65578409526285
 10
469.3685868551924
 20
146.4965919646555
 10
462.0977962088434
 20
155.17430641454192
 10
455.30260222956395
 20
162.30561582465504
 10
453.23006373791
 20
164.3481455889517
 10
450.9813458884398
 20
166.6541231363212
 10
448.59711893747846
 20
169.17728279969936
 10
446.1180531413503
 20
171.87135891202192
 10
443.5848187563805
 20
174.69008580622486
 10
441.038086038894
 20
177.587197815244
 10
438.5185252452155
 20
180.51642927201502
 10
436.0668066316701
 20
183.43151450947374
 10
433.72360045458254
 20
186.2861878605561
 10
431.5295769702778
 20
189.03418365819786
 10
429.5254064350805
 20
191.62923623533484
 10
424.02405596775344
 20
198.7819725878263
 10
418.20772267693434
 20
206.14604602584444
 10
412.2490813035105
 20
213.52113054945895
 10
406.32080658836907
 20
220.70690015873987
 10
400.59557327239753
 20
227.50302885375703
 10
395.246056096483
 20
233.7091906345804
 10
390.4449298015129
 20
239.12505950127985
 10
386.36486912837466
 20
243.55030945392514
 10
383.17854881795546
 20
246.7846144925863
 10
381.0586436111426
 20
248.62764861733305
 10
380.1778282488234
 20
248.87908582823547
 10
380.23309802003007
 20
248.3761497795119
 10
380.58508976714296
 20
247.49045745156275
 10
381.2126123605456
 20
246.2552882321532
 10
382.09447467062097
 20
244.70392150904857
 10
383.2094855677523
 20
242.86963667001402
 10
384.5364539223232
 20
240.78571310281458
 10
386.05418860471656
 20
238.48543019521543
 10
387.74149848531596
 20
236.00206733498177
 10
389.5771924345045
 20
233.36890390987875
 10
391.54007932266563
 20
230.6192193076716
 10
393.6089680201825
 20
227.78629291612543
 10
407.03245183213477
 20
209.19749495531062
 10
419.4540115952712
 20
191.15292726403277
 10
430.83221612563756
 20
173.73072462311484
 10
441.12563423927924
 20
157.00902181338006
 10
450.2928347522422
 20
141.0659536156513
 10
458.2923864805718
 20
125.97965481075187
 10
465.08285824031384
 20
111.82826017950464
 10
470.6228188475142
 20
98.68990450273262
 10
474.8708371182184
 20
86.64272256125895
 10
477.7854818684721
 20
75.76484913590664
 10
479.3253219143209
 20
66.13441900749879
 10
479.855310810806
 20
61.91947298554343
 10
480.6207297599733
 20
58.13364004772765
 10
481.6261777270212
 20
54.77134536477548
 10
482.8762536771474
 20
51.827014107411024
 10
484.3755565755503
 20
49.295071446358186
 10
486.1286853874278
 20
47.169942552340984
 10
488.140239077978
 20
45.446052596083476
 10
490.4148166123991
 20
44.11782674830961
 10
492.95701695588923
 20
43.17969017974335
 10
495.77143907364643
 20
42.62606806110877
 10
498.86268193086863
 20
42.45138556312991
 10
499.9916938982487
 20
42.47152598907228
 10
501.11466649608013
 20
42.52137959109583
 10
502.21646849976486
 20
42.59862320039167
 10
503.2819686847041
 20
42.700933648151384
 10
504.2960358263001
 20
42.82598776556599
 10
505.2435386999543
 20
42.97146238382684
 10
506.1093460810683
 20
43.13503433412539
 10
506.87832674504426
 20
43.31438044765267
 10
507.5353494672834
 20
43.507177555600016
 10
508.0652830231879
 20
43.71110248915868
 10
508.4529961881591
 20
43.92383207952001
  0
LWPOLYLINE
  5
40
330
17
100
AcDbEntity
  8
CUT
100
AcDbPolyline
 90
34
 70
1
 10
123.4716801450929
 20
67.84855786832011
 10
119.92542043468687
 20
69.83810934034031
 10
117.30550317776868
 20
72.43471736035849
 10
115.57567363615675
 20
75.47054958270233
 10
114.69967707166926
 20
78.77777366169983
 10
114.64125874612459
 20
82.18855725167862
 10
115.364163921341
 20
85.5350680069665
 10
116.83213785913686
 20
88.64947358189146
 10
119.00892582133045
 20
91.36394163078087
 10
121.85827306974012
 20
93.51063980796282
 10
125.34392486618414
 20
94.92173576776493
 10
129.4296264724808
 20
95.42939716451498
 10
132.99031474479273
 20
95.06375712957008
 10
136.1021360406915
 20
94.03254343950051
 10
138.72996405698615
 20
92.43431571645402
 10
140.8386724904855
 20
90.36763358257858
 10
142.39313503799855
 20
87.93105666002185
 10
143.35822539633423
 20
85.22314457093202
 10
143.69881726230153
 20
82.34245693745655
 10
143.37978433270936
 20
79.38755338174339
 10
142.36600030436674
 20
76.45699352594029
 10
140.62233887408254
 20
73.64933699219537
 10
138.11367373866577
 20
71.06314340265614
 10
136.47291723476434
 20
69.71552119423477
 10
135.016442970236
 20
68.60583760547951
 10
133.70346794377062
 20
67.7251389071578
 10
132.49320915405798
 20
67.0644713700376
 10
131.34488359978792
 20
66.61488126488655
 10
130.2177082796503
 20
66.36741486247232
 10
129.07090019233493
 20
66.31311843356244
 10
127.86367633653167
 20
66.44303824892452
 10
126.55525371093036
 20
66.74822057932647
 10
125.10484931422083
 20
67.2197116955357
 10
123.4716801450929
 20
67.84855786832011
  0
LWPOLYLINE
  5
41
330
17
100
AcDbEntity
  8
CUT
100
AcDbPolyline
 90
67
 70
1
 10
195.16331147095576
 20
84.77425869576766
 10
196.61389565536777
 20
87.62274466496353
 10
198.28129753304296
 20
90.78404556485528
 10
200.13061341502055
 20
94.19739826555694
 10
202.12693961233958
 20
97.80203963718243
 10
204.23537243603926
 20
101.53720654984585
 10
206.4210081971587
 20
105.34213587366108
 10
208.6489432067371
 20
109.1560644787422
 10
210.88427377581365
 20
112.91822923520307
 10
213.09209621542743
 20
116.56786701315765
 10
215.23750683661765
 20
120.04421468272001
 10
217.28560195042343
 20
123.28650911400413
 10
221.02269999225365
 20
129.13344493300713
 10
224.05469969709603
 20
133.92254924302398
 10
226.41599577624555
 20
137.74448388893114
 10
228.1409829409971
 20
140.6899107156053
 10
229.26405590264557
 20
142.84949156792277
 10
229.81960937248596
 20
144.31388829075993
 10
229.8420380618132
 20
145.17376272899347
 10
229.36573668192227
 20
145.5197767274996
 10
228.42509994410807
 20
145.44259213115487
 10
227.05452255966557
 20
145.0328707848357
 10
225.28839923988966
 20
144.38127453341866
 10
224.45822440935373
 20
144.09994519318715
 10
223.55350913104252
 20
143.85556878870213
 10
222.59081761378079
 20
143.64947506284335
 10
221.58671406639314
 20
143.48299375849035
 10
220.55776269770425
 20
143.3574546185229
 10
219.52052771653882
 20
143.27418738582068
 10
218.4915733317216
 20
143.23452180326328
 10
217.48746375207733
 20
143.23978761373033
 10
216.52476318643065
 20
143.2913145601016
 10
215.62003584360616
 20
143.39043238525656
 10
214.78984593242865
 20
143.53847083207506
 10
210.90351840884196
 20
143.26771450317736
 10
205.66874549141136
 20
141.29592535793836
 10
199.4463793578877
 20
137.92105642412665
 10
192.5972721860218
 20
133.44106072951078
 10
185.48227615356447
 20
128.1538913018593
 10
178.4622434382666
 20
122.35750116894071
 10
171.8980262178789
 20
116.34984335852353
 10
166.1504766701523
 20
110.42887089837629
 10
161.58044697283768
 20
104.8925368162675
 10
158.54878930368574
 20
100.03879413996567
 10
157.4163558404474
 20
96.16559589723934
 10
157.38491353455817
 20
93.25247304900651
 10
157.41918414101238
 20
90.70998040383901
 10
157.534022623584
 20
88.48512346916526
 10
157.7442839460471
 20
86.52490775241378
 10
158.06482307217559
 20
84.77633876101312
 10
158.5104949657436
 20
83.18642200239147
 10
159.09615459052512
 20
81.70216298397747
 10
159.8366569102942
 20
80.27056721319944
 10
160.7468568888249
 20
78.83864019748586
 10
161.8416094898912
 20
77.35338744426508
 10
163.1357696772671
 20
75.76181446096577
 10
166.58026032851723
 20
71.9620829366395
 10
169.80154189315758
 20
69.05334107241312
 10
172.83849100387584
 20
67.0465286240254
 10
175.72998429335976
 20
65.95258534721529
 10
178.51489839429703
 20
65.7824509977213
 10
181.23210993937545
 20
66.54706533128237
 10
183.92049556128276
 20
68.25736810363709
 10
186.61893189270674
 20
70.92429907052424
 10
189.36629556633503
 20
74.55879798768254
 10
192.20146321485547
 20
79.17180461085076
 10
195.16331147095576
 20
84.77425869576766
  0
LWPOLYLINE
  5
42
330
17
100
AcDbEntity
  8
CUT
100
AcDbPolyline
 90
78
 70
1
 10
542.7605455733441
 20
68.95859181724448
 10
545.6654799989832
 20
70.83706701491819
 10
548.1864973595046
 20
73.22311250647294
 10
550.3060249840546
 20
76.03796772380129
 10
552.0064902017791
 20
79.20287209879658
 10
553.2703203418241
 20
82.63906506335157
 10
554.0799427333359
 20
86.26778604935906
 10
554.4177847054602
 20
90.01027448871211
 10
554.2662735873438
 20
93.7877698133034
 10
553.6078367081324
 20
97.52151145502597
 10
552.4249013969721
 20
101.13273884577262
 10
550.6998949830092
 20
104.54269141743634
 10
549.1615880868525
 20
106.66686638295039
 10
546.9033233204392
 20
109.22219069198299
 10
544.0136738076123
 20
112.13488487155084
 10
540.5812126722138
 20
115.33116944867062
 10
536.6945130380861
 20
118.73726495035898
 10
532.442148029072
 20
122.27939190363247
 10
527.9126907690136
 20
125.88377083550775
 10
523.1947143817534
 20
129.4766222730015
 10
518.3767919911342
 20
132.98416674313034
 10
513.5474967209981
 20
136.3326247729109
 10
508.79540169518754
 20
139.4482168893598
 10
506.3905615079739
 20
140.95002913597577
 10
504.25692292797186
 20
142.22096452401055
 10
502.35559932321405
 20
143.27390433571313
 10
500.64770406173324
 20
144.12172985333274
 10
499.0943505115624
 20
144.77732235911836
 10
497.65665204073457
 20
145.25356313531938
 10
496.2957220172825
 20
145.56333346418458
 10
494.97267380923915
 20
145.71951462796315
 10
493.6486207846376
 20
145.73498790890432
 10
492.2846763115106
 20
145.6226345892571
 10
490.8419537578911
 20
145.3953359512707
 10
489.80922323582416
 20
145.23359352860146
 10
488.7399400474316
 20
145.12606803961887
 10
487.6499048095071
 20
145.07133810739106
 10
486.55491813884385
 20
145.06798235498604
 10
485.4707806522353
 20
145.11457940547174
 10
484.4132929664753
 20
145.20970788191622
 10
483.398255698357
 20
145.35194640738732
 10
482.4414694646741
 20
145.53987360495296
 10
481.5587348822201
 20
145.7720680976813
 10
480.76585256778844
 20
146.0471085086401
 10
480.0786231381726
 20
146.36357346089747
 10
478.6434669104221
 20
147.1000501722448
 10
477.541935022397
 20
147.57334738474322
 10
476.7905015950333
 20
147.74249143815805
 10
476.40564074926635
 20
147.56650867225468
 10
476.40382660603177
 20
147.0044254267988
 10
476.8015332862655
 20
146.01526804155563
 10
477.61523491090315
 20
144.5580628562906
 10
478.8614056008804
 20
142.59183621076906
 10
480.5565194771329
 20
140.07561444475652
 10
482.7170506605964
 20
136.96842389801847
 10
485.3594732722064
 20
133.2292909103202
 10
489.13780725250257
 20
127.83005409907018
 10
492.8432279269085
 20
122.3829624778283
 10
496.4456858334552
 20
116.93764866514036
 10
499.9151315101718
 20
111.54374527955177
 10
503.22151549508885
 20
106.25088493960807
 10
506.33478832623615
 20
101.10870026385493
 10
509.2249005416439
 20
96.1668238708377
 10
511.8618026793421
 20
91.47488837910204
 10
514.2154452773608
 20
87.08252640719331
 10
516.2557788737299
 20
83.0393705736572
 10
517.9527540064798
 20
79.39505349703924
 10
519.6117196681778
 20
75.97132912126574
 10
521.3431356238818
 20
73.06228728289315
 10
523.162604316731
 20
70.66136414493165
 10
525.0857281898631
 20
68.76199587039125
 10
527.1281096864167
 20
67.35761862228206
 10
529.3053512495303
 20
66.44166856361406
 10
531.6330553223424
 20
66.00758185739733
 10
534.1268243479914
 20
66.04879466664197
 10
536.8022607696157
 20
66.55874315435801
 10
539.6749670303539
 20
67.53086348355545
 10
542.7605455733441
 20
68.95859181724448
  0
LWPOLYLINE
  5
43
330
17
100
AcDbEntity
  8
CUT
100
AcDbPolyline
 90
34
 70
1
 10
575.605868798252
 20
71.01685595936294
 10
572.1967516904895
 20
73.58051376756097
 10
570.0501563977299
 20
76.70699623849283
 10
569.0533922405516
 20
80.18758028449795
 10
569.0937685395335
 20
83.81354281791614
 10
570.0585946152545
 20
87.37616075108704
 10
571.8351797882933
 20
90.66671099634983
 10
574.3108333792284
 20
93.47647046604445
 10
577.3728647086389
 20
95.5967160725103
 10
580.9085830971035
 20
96.81872472808686
 10
584.8052978652007
 20
96.9337733451137
 10
588.9503183335096
 20
95.73313883593062
 10
591.7411133363636
 20
94.10129947132536
 10
593.9701211250435
 20
92.06625320180221
 10
595.6377983982055
 20
89.71983470321553
 10
596.7446018545048
 20
87.15387865141994
 10
597.290988192597
 20
84.4602197222699
 10
597.2774141111374
 20
81.73069259161963
 10
596.7043363087818
 20
79.05713193532385
 10
595.5722114841858
 20
76.53137242923665
 10
593.8814963360048
 20
74.2452487492126
 10
591.6326475628944
 20
72.29059557110632
 10
588.8261218635101
 20
70.75924757077199
 10
586.8762185956333
 20
69.93531634316184
 10
585.3104999214149
 20
69.27628430245599
 10
584.050775114977
 20
68.7836750644882
 10
583.0188534504421
 20
68.4590122450921
 10
582.1365442019323
 20
68.30381946010154
 10
581.32565664357
 20
68.3196203253503
 10
580.5080000494775
 20
68.50793845667197
 10
579.6053836937772
 20
68.87029746990041
 10
578.5396168505913
 20
69.40822098086917
 10
577.2325087940421
 20
70.12323260541208
 10
575.605868798252
 20
71.01685595936294
  0
LWPOLYLINE
  5
44
330
17
100
AcDbEntity
  8
CUT
100
AcDbPolyline
 90
34
 70
1
 10
137.9873197478281
 20
77.31421803480752
 10
138.55987760737156
 20
78.72973434260798
 10
138.84744898045025
 20
80.20385781639159
 10
138.86632516617303
 20
81.70393317195874
 10
138.63279746364861
 20
83.19730512511013
 10
138.16315717198586
 20
84.65131839164636
 10
137.4736955902936
 20
86.03331768736767
 10
136.58070401768063
 20
87.31064772807494
 10
135.5004737532558
 20
88.45065322956856
 10
134.24929609612784
 20
89.42067890764909
 10
132.8434623454056
 20
90.18806947811706
 10
131.299263800198
 20
90.72016965677302
 10
129.35475325264912
 20
91.01436760393844
 10
127.48094142647533
 20
90.93152257353594
 10
125.71186657236468
 20
90.50567281625374
 10
124.08156694100526
 20
89.77085658277991
 10
122.62408078308508
 20
88.76111212380252
 10
121.37344634929227
 20
87.51047769000974
 10
120.3637018903149
 20
86.05299153208962
 10
119.62888565684109
 20
84.42269190073014
 10
119.20303589955893
 20
82.65361704661943
 10
119.12019086915647
 20
80.77980522044562
 10
119.41438881632178
 20
78.83529467289682
 10
120.2630971696035
 20
76.54394775889797
 10
121.50630835566994
 20
74.66466001265431
 10
123.06850409114094
 20
73.20361619288909
 10
124.87416609263603
 20
72.16700105832587
 10
126.84777607677488
 20
71.56099936768807
 10
128.91381576017716
 20
71.39179587969913
 10
130.99676685946258
 20
71.66557535308249
 10
133.0211110912507
 20
72.38852254656152
 10
134.91133017216123
 20
73.56682221885977
 10
136.5919058188138
 20
75.20665912870065
 10
137.9873197478281
 20
77.31421803480752
  0
LWPOLYLINE
  5
45
330
17
100
AcDbEntity
  8
CUT
100
AcDbPolyline
 90
34
 70
1
 10
590.6559686064845
 20
76.91864095846799
 10
591.988835742869
 20
78.55334053507174
 10
592.8699708791867
 20
80.2882106363887
 10
593.322854488148
 20
82.06908820164196
 10
593.3709670424624
 20
83.84181017005474
 10
593.03778901484
 20
85.55221348085016
 10
592.346800877991
 20
87.14613507325126
 10
591.3214831046253
 20
88.56941188648105
 10
589.9853161674529
 20
89.76788085976276
 10
588.361780539184
 20
90.68737893231932
 10
586.4743566925283
 20
91.2737430433739
 10
584.3465251001962
 20
91.47281013214955
 10
581.861862775234
 20
91.30416735080257
 10
579.6580243410441
 20
90.84528482340433
 10
577.752518782418
 20
90.12241026408951
 10
576.1628550841465
 20
89.16179138699272
 10
574.9065422310207
 20
87.98967590624859
 10
574.0010892078321
 20
86.63231153599178
 10
573.4640049993718
 20
85.11594599035669
 10
573.3127985904312
 20
83.466826983478
 10
573.5649789658012
 20
81.71120222949028
 10
574.2380551102733
 20
79.87531944252818
 10
575.3495360086383
 20
77.98542633672623
 10
576.3808485013019
 20
76.75892571876216
 10
577.5824379218893
 20
75.75148222152818
 10
578.9215573864175
 20
74.96537814671646
 10
580.3654600109024
 20
74.40289579601905
 10
581.8813989113611
 20
74.06631747112796
 10
583.4366272038097
 20
73.95792547373526
 10
584.9983980042651
 20
74.08000210553288
 10
586.5339644287438
 20
74.43482966821296
 10
588.0105795932623
 20
75.02469046346742
 10
589.3954966138369
 20
75.85186679298845
 10
590.6559686064845
 20
76.91864095846799
  0
LWPOLYLINE
  5
46
330
17
100
AcDbEntity
  8
CUT
100
AcDbPolyline
 90
78
 70
1
 10
167.34439707921558
 20
118.75572931794008
 10
170.52191618976428
 20
121.66855061064648
 10
173.98345255110536
 20
124.71059227058856
 10
177.6479886694334
 20
127.819140121649
 10
181.43450705094293
 20
130.93147998771036
 10
185.26199020182847
 20
133.9848976926552
 10
189.04942062828454
 20
136.91667906036585
 10
192.71578083650576
 20
139.66410991472517
 10
196.18005333268667
 20
142.16447607961524
 10
199.36122062302178
 20
144.35506337891906
 10
202.17826521370563
 20
146.17315763651874
 10
204.55016961093278
 20
147.5560446762971
 10
204.59387831924198
 20
147.67451762898378
 10
204.57260985043996
 20
147.9386007196298
 10
204.49023615254123
 20
148.33663690135472
 10
204.35062917356035
 20
148.85696912727894
 10
204.15766086151183
 20
149.487940350522
 10
203.9152031644103
 20
150.21789352420407
 10
203.62712803027023
 20
151.03517160144486
 10
203.29730740710622
 20
151.92811753536438
 10
202.92961324293282
 20
152.88507427908254
 10
202.52791748576456
 20
153.89438478571915
 10
202.09609208361596
 20
154.94439200839426
 10
201.65863895684953
 20
156.04552141952533
 10
201.24060339234265
 20
157.20326255609282
 10
200.84667238788217
 20
158.3985544680609
 10
200.48153294125467
 20
159.6123362053938
 10
200.14987205024713
 20
160.82554681805576
 10
199.8563767126462
 20
162.01912535601096
 10
199.60573392623868
 20
163.17401086922376
 10
199.40263068881143
 20
164.27114240765812
 10
199.25175399815123
 20
165.29145902127846
 10
199.15779085204474
 20
166.21589976004887
 10
199.12542824827887
 20
167.02540367393362
 10
199.10953861936335
 20
168.6907014015644
 10
198.96462258272425
 20
169.98493417875898
 10
198.54480941352267
 20
170.86616785846635
 10
197.70422838691962
 20
171.29246829363578
 10
196.2970087780762
 20
171.2219013372165
 10
194.1772798621535
 20
170.6125328421574
 10
191.19917091431256
 20
169.42242866140793
 10
187.2168112097145
 20
167.609654647917
 10
182.08433002352047
 20
165.13227665463384
 10
175.65585663089144
 20
161.9483605345076
 10
167.78552030698847
 20
158.01597214048732
 10
160.43998574966287
 20
154.28966095529952
 10
154.2327173166529
 20
150.99991697389208
 10
149.0712817019788
 20
148.06049417228076
 10
144.86324559966084
 20
145.38514652648144
 10
141.51617570371937
 20
142.88762801250977
 10
138.93763870817472
 20
140.48169260638164
 10
137.0352013070472
 20
138.08109428411262
 10
135.7164301943571
 20
135.5995870217186
 10
134.88889206412478
 20
132.9509247952152
 10
134.4601536103704
 20
130.04886158061822
 10
134.3377815271145
 20
126.80715135394357
 10
134.58231460845255
 20
124.406801516077
 10
135.27651172140816
 20
121.88061549172026
 10
136.36126966939347
 20
119.30042059499482
 10
137.77748525582052
 20
116.7380441400224
 10
139.46605528410146
 20
114.26531344092446
 10
141.36787655764832
 20
111.9540558118226
 10
143.42384587987323
 20
109.87609856683828
 10
145.57486005418832
 20
108.1032690200931
 10
147.76181588400573
 20
106.7073944857086
 10
149.92561017273744
 20
105.76030227780628
 10
152.0071397237957
 20
105.33381971050777
 10
152.3080835706302
 20
105.47061664063452
 10
152.90029345601693
 20
105.88761860474082
 10
153.7595708521975
 20
106.56364903620353
 10
154.8617172314135
 20
107.47753136839937
 10
156.18253406590662
 20
108.60808903470505
 10
157.6978228279184
 20
109.93414546849716
 10
159.38338498969057
 20
111.43452410315257
 10
161.2150220234647
 20
113.08804837204777
 10
163.16853540148253
 20
114.87354170855967
 10
165.2197265959856
 20
116.76982754606485
 10
167.34439707921558
 20
118.75572931794008
  0
LWPOLYLINE
  5
47
330
17
100
AcDbEntity
  8
CUT
100
AcDbPolyline
 90
78
 70
1
 10
363.4251195955982
 20
135.67626861251105
 10
364.09613940899993
 20
140.96044310877738
 10
364.83719711465943
 20
148.7218589835984
 10
365.6127313416023
 20
158.3451839995865
 10
366.3871807188539
 20
169.21508591935412
 10
367.12498387543985
 20
180.7162325055136
 10
367.79057944038556
 20
192.2332915206773
 10
368.3484060427166
 20
203.15093072745768
 10
368.76290231145845
 20
212.8538178884671
 10
368.9985068756367
 20
220.72662076631784
 10
369.0196583642767
 20
226.15400712362242
 10
368.79079540640413
 20
228.52064472299318
 10
368.6912540468663
 20
228.50227112397408
 10
368.4971552596874
 20
228.28512467714089
 10
368.21638028975434
 20
227.8831443953461
 10
367.8568103819543
 20
227.31026929144195
 10
367.42632678117377
 20
226.58043837828092
 10
366.9328107323001
 20
225.70759066871526
 10
366.3841434802201
 20
224.7056651755976
 10
365.7882062698207
 20
223.58860091178008
 10
365.15288034598893
 20
222.37033689011514
 10
364.4860469536117
 20
221.0648121234552
 10
363.7955873375761
 20
219.68596562465257
 10
362.153010481504
 20
216.6108948741078
 10
360.56699616619505
 20
214.14177134413492
 10
359.0243870627789
 20
212.27815636831664
 10
357.5120258423846
 20
211.01961128023598
 10
356.0167551761421
 20
210.36569741347571
 10
354.5254177351808
 20
210.31597610161873
 10
353.0248561906302
 20
210.87000867824793
 10
351.50191321361996
 20
212.02735647694615
 10
349.94343147527945
 20
213.78758083129617
 10
348.3362536467383
 20
216.150243074881
 10
346.66722239912605
 20
219.11490454128338
 10
345.52138910233646
 20
221.28540797115375
 10
344.5885587765469
 20
222.89835088692894
 10
343.8530891427012
 20
223.83425603558854
 10
343.2993379217431
 20
223.9736461641123
 10
342.9116628346165
 20
223.19704401947982
 10
342.6744216022654
 20
221.3849723486707
 10
342.5719719456335
 20
218.4179538986645
 10
342.5886715856648
 20
214.1765114164409
 10
342.7088782433032
 20
208.54116764897938
 10
342.91694963949254
 20
201.39244534325977
 10
343.1972434951767
 20
192.61086724626156
 10
343.57717034947234
 20
182.90160097569287
 10
344.0784868214878
 20
173.40995452345393
 10
344.69191113226066
 20
164.21701188983138
 10
345.40816150282825
 20
155.40385707511223
 10
346.21795615422843
 20
147.05157407958336
 10
347.1120133074986
 20
139.2412469035317
 10
348.0810511836763
 20
132.053959547244
 10
349.1157880037994
 20
125.5707960110071
 10
350.20694198890527
 20
119.87284029510792
 10
351.3452313600315
 20
115.04117639983349
 10
352.52137433821576
 20
111.15688832547039
 10
353.12359938056727
 20
109.4585357410838
 10
353.6297072578495
 20
108.09985367357453
 10
354.06324104432144
 20
107.08084212294249
 10
354.44774381424213
 20
106.4015010891878
 10
354.80675864187043
 20
106.06183057231046
 10
355.1638286014656
 20
106.06183057231046
 10
355.5424967672863
 20
106.4015010891878
 10
355.9663062135919
 20
107.08084212294244
 10
356.4588000146413
 20
108.09985367357442
 10
357.04352124469347
 20
109.4585357410838
 10
357.74401297800745
 20
111.15688832547039
 10
358.1890156587554
 20
112.35809796000261
 10
358.67520093771645
 20
113.88092975384538
 10
359.193605385967
 20
115.68669798302942
 10
359.7352655745838
 20
117.73671692358599
 10
360.29121807464367
 20
119.99230085154598
 10
360.8524994572231
 20
122.41476404294026
 10
361.4101462933987
 20
124.96542077379989
 10
361.9551951542474
 20
127.60558532015581
 10
362.4786826108458
 20
130.296571958039
 10
362.97164523427045
 20
132.99969496348047
 10
363.4251195955982
 20
135.67626861251105
  0
LWPOLYLINE
  5
48
330
17
100
AcDbEntity
  8
CUT
100
AcDbPolyline
 90
78
 70
1
 10
568.4496603593016
 20
112.86778335862518
 10
570.0394353336483
 20
114.49427008960876
 10
571.4017901564819
 20
115.97755905832994
 10
572.5527409471977
 20
117.34986469814946
 10
573.5083038251912
 20
118.64340144242897
 10
574.2844949098579
 20
119.89038372452949
 10
574.8973303205935
 20
121.12302597781219
 10
575.3628261767931
 20
122.37354263563834
 10
575.6969985978526
 20
123.67414813136902
 10
575.9158637031672
 20
125.05705689836557
 10
576.0354376121328
 20
126.55448336998904
 10
576.0717364441444
 20
128.19864197960078
 10
575.9193437745803
 20
131.3584619063626
 10
575.4017624589392
 20
134.21698449283997
 10
574.4283875367987
 20
136.84993004085425
 10
572.9086140477351
 20
139.33301885222662
 10
570.751837031326
 20
141.7419712287783
 10
567.8674515271483
 20
144.15250747233057
 10
564.164852574779
 20
146.64034788470462
 10
559.5534352137953
 20
149.28121276772157
 10
553.9425944837743
 20
152.15082242320273
 10
547.241725424293
 20
155.32489715296933
 10
539.3602230749284
 20
158.8791572588426
 10
532.2950363454305
 20
162.00864928845513
 10
526.5270562967397
 20
164.53603481154855
 10
521.9247347666025
 20
166.48833413954492
 10
518.3565235927649
 20
167.8925675838666
 10
515.6908746129732
 20
168.77575545593575
 10
513.7962396649737
 20
169.16491806717463
 10
512.5410705865127
 20
169.08707572900536
 10
511.7938192153366
 20
168.56924875285011
 10
511.4229373891916
 20
167.63845745013114
 10
511.29687694582395
 20
166.32172213227065
 10
511.28408972298
 20
164.6460631106908
 10
511.2388194881676
 20
163.76518686158926
 10
511.10737970295366
 20
162.82876169148523
 10
510.89632674617326
 20
161.85274237935334
 10
510.6122169966611
 20
160.85308370416834
 10
510.2616068332522
 20
159.845740444905
 10
509.85105263478135
 20
158.8466673805379
 10
509.3871107800833
 20
157.8718192900418
 10
508.8763376479934
 20
156.93715095239122
 10
508.32528961734624
 20
156.05861714656103
 10
507.7405230669766
 20
155.25217265152583
 10
507.1285943757197
 20
154.53377224626036
 10
505.9380720627208
 20
153.26978949132575
 10
505.02390036248335
 20
152.21216641867105
 10
504.46349050088816
 20
151.2669135700764
 10
504.33425370381667
 20
150.34004148732214
 10
504.7136011971494
 20
149.33756071218832
 10
505.6789442067677
 20
148.16548178645525
 10
507.3076939585524
 20
146.72981525190298
 10
509.67726167838475
 20
144.93657165031178
 10
512.8650585921457
 20
142.69176152346174
 10
516.9484959257161
 20
139.90139541313314
 10
522.0049849049772
 20
136.4714838611061
 10
524.4142617712942
 20
134.7981661131677
 10
526.9265317930216
 20
132.98351931725512
 10
529.5015267108081
 20
131.0603167341838
 10
532.0989782653025
 20
129.06133162476968
 10
534.6786181971535
 20
127.01933724982858
 10
537.2001782470096
 20
124.96710687017622
 10
539.6233901555196
 20
122.93741374662825
 10
541.9079856633322
 20
120.96303114000044
 10
544.0136965110961
 20
119.07673231110851
 10
545.9002544394599
 20
117.31129052076817
 10
547.5273911890723
 20
115.69947902979534
 10
550.5069247840792
 20
112.64343574788052
 10
552.9676670280363
 20
110.18816404920746
 10
555.0107144296277
 20
108.31998116621
 10
556.7371634975377
 20
107.02520433132217
 10
558.2481107404503
 20
106.29015077697804
 10
559.64465266705
 20
106.10113773561113
 10
561.0278857860209
 20
106.44448243965572
 10
562.4989066060474
 20
107.3065021215454
 10
564.1588116358134
 20
108.67351401371432
 10
566.1086973840034
 20
110.53183534859629
 10
568.4496603593016
 20
112.86778335862518
  0
LWPOLYLINE
  5
49
330
17
100
AcDbEntity
  8
CUT
100
AcDbPolyline
 90
34
 70
1
 10
99.9331085955262
 20
129.58219046730227
 10
96.74557550899196
 20
131.39240720645626
 10
94.22137152456988
 20
133.6837036235756
 10
92.35719938226563
 20
136.34842176691026
 10
91.14976182208494
 20
139.27890368471043
 10
90.59576158403347
 20
142.36749142522626
 10
90.69190140811693
 20
145.50652703670775
 10
91.43488403434102
 20
148.58835256740488
 10
92.82141220271147
 20
151.50531006556795
 10
94.84818865323396
 20
154.1497415794468
 10
97.51191612591418
 20
156.41398915729178
 10
100.80929736075781
 20
158.1903948473528
 10
105.41131504944518
 20
159.3395831828403
 10
109.69360433838266
 20
159.0321663536313
 10
113.54021481698224
 20
157.50495155557434
 10
116.8351960746557
 20
154.99474598451792
 10
119.46259770081491
 20
151.73835683631066
 10
121.30646928487181
 20
147.97259130680087
 10
122.2508604162382
 20
143.93425659183725
 10
122.17982068432603
 20
139.8601598872682
 10
120.97739967854716
 20
135.98710838894215
 10
118.52764698831344
 20
132.5519092927078
 10
114.71461220303676
 20
129.79136979441358
 10
113.00927812739377
 20
128.91941522579077
 10
111.56068828187513
 20
128.22065828622664
 10
110.30736532446706
 20
127.69422898377901
 10
109.18783191315568
 20
127.33925732650549
 10
108.14061070592726
 20
127.15487332246343
 10
107.10422436076803
 20
127.14020697971084
 10
106.0171955356641
 20
127.29438830630498
 10
104.81804688860177
 20
127.61654731030364
 10
103.4453010775672
 20
128.10581399976434
 10
101.83748076054661
 20
128.76131838274466
 10
99.9331085955262
 20
129.58219046730227
  0
LWPOLYLINE
  5
4A
330
17
100
AcDbEntity
  8
CUT
100
AcDbPolyline
 90
34
 70
1
 10
595.2907260630934
 20
131.4813635414098
 10
593.8991359874612
 20
132.69136509291118
 10
592.673141025081
 20
134.0693381403789
 10
591.6188419520513
 20
135.59309423625737
 10
590.7423395444696
 20
137.24044493299095
 10
590.0497345784345
 20
138.98920178302393
 10
589.5471278300437
 20
140.8171763388006
 10
589.2406200753952
 20
142.70218015276524
 10
589.1363120905877
 20
144.62202477736224
 10
589.2403046517188
 20
146.5545217650358
 10
589.5586985348868
 20
148.47748266823027
 10
590.0975945161897
 20
150.36871903939
 10
591.9586985901936
 20
154.12700545880605
 10
594.4969532146368
 20
156.9977978239324
 10
597.5467550979997
 20
159.00253279392857
 10
600.942500948762
 20
160.16264702795482
 10
604.5185874754042
 20
160.49957718517075
 10
608.1094113864062
 20
160.03475992473633
 10
611.5493693902484
 20
158.78963190581135
 10
614.672858195411
 20
156.78562978755562
 10
617.3142745103742
 20
154.04419022912896
 10
619.3080150436178
 20
150.58674988969136
 10
620.4884765036225
 20
146.43474542840252
 10
620.5999552484121
 20
143.00916830010664
 10
619.8882285843474
 20
139.7934138514101
 10
618.4675527590275
 20
136.8552864407753
 10
616.4521840200507
 20
134.2625904266648
 10
613.9563786150152
 20
132.0831301675408
 10
611.0943927915199
 20
130.38471002186583
 10
607.9804827971632
 20
129.2351343481023
 10
604.7289048795437
 20
128.70220750471248
 10
601.4539152862599
 20
128.85373385015885
 10
598.2697702649102
 20
129.7575177429038
 10
595.2907260630934
 20
131.4813635414098
  0
LWPOLYLINE
  5
4B
330
17
100
AcDbEntity
  8
CUT
100
AcDbPolyline
 90
34
 70
1
 10
113.45876734972278
 20
134.83713145172106
 10
115.51401051898073
 20
136.83309492098792
 10
116.9543746825005
 20
139.0338233106361
 10
117.80793817106174
 20
141.3561193939108
 10
118.1027793154439
 20
143.71678594405762
 10
117.86697644642663
 20
146.03262573432193
 10
117.12860789478943
 20
148.2204415379492
 10
115.9157519913119
 20
150.19703612818478
 10
114.25648706677363
 20
151.8792122782741
 10
112.17889145195416
 20
153.18377276146268
 10
109.71104347763304
 20
154.0275203509958
 10
106.88102147458986
 20
154.32725782011897
 10
103.58372230290729
 20
153.97966540514915
 10
100.78394704479936
 20
153.0057990000852
 10
98.5057527447136
 20
151.50902486469576
 10
96.77319644709756
 20
149.59270925874978
 10
95.61033519639884
 20
147.3602184420158
 10
95.04122603706492
 20
144.91491867426234
 10
95.08992601354338
 20
142.36017621525832
 10
95.7804921702818
 20
139.79935732477213
 10
97.13698155172773
 20
137.33582826257262
 10
99.18345120232871
 20
135.0729552884285
 10
101.94395816653228
 20
133.11410466210825
 10
103.26803839678507
 20
132.3742626352541
 10
104.39298536588792
 20
131.79221750473403
 10
105.36669153452968
 20
131.37513569349716
 10
106.23704936339912
 20
131.130183624493
 10
107.0519513131851
 20
131.0645277206708
 10
107.85928984457644
 20
131.1853344049801
 10
108.70695741826198
 20
131.49977010036991
 10
109.64284649493058
 20
132.01500122978948
 10
110.714849535271
 20
132.7381942161884
 10
111.97085899997212
 20
133.67651548251578
 10
113.45876734972278
 20
134.83713145172106
  0
LWPOLYLINE
  5
4C
330
17
100
AcDbEntity
  8
CUT
100
AcDbPolyline
 90
34
 70
1
 10
612.2518508468726
 20
135.81650161407197
 10
613.6824801959492
 20
137.69264640315473
 10
614.6097099106426
 20
139.867712610426
 10
615.0659728990684
 20
142.24106840284117
 10
615.0837020693419
 20
144.7120819473554
 10
614.6953303295786
 20
147.1801214109241
 10
613.9332905878941
 20
149.54455496050247
 10
612.8300157524038
 20
151.70475076304564
 10
611.4179387312234
 20
153.560076985509
 10
609.7294924324682
 20
155.00990179484776
 10
607.7971097642537
 20
155.95359335801712
 10
605.6532236346952
 20
156.29051984197244
 10
604.090791196773
 20
156.14991160820773
 10
602.5333679498617
 20
155.74715501759732
 10
601.0112516049777
 20
155.1108522361668
 10
599.554739873137
 20
154.26960542994186
 10
598.1941304653556
 20
153.25201676494805
 10
596.95972109265
 20
152.08668840721097
 10
595.8818094660364
 20
150.80222252275635
 10
594.9906932965309
 20
149.4272212776097
 10
594.31667029515
 20
147.99028683779676
 10
593.8900381729094
 20
146.520021369343
 10
593.7410946408256
 20
145.04502703827416
 10
594.0162304291622
 20
142.33645028324702
 10
594.7927760613363
 20
139.89217757532182
 10
595.9974389380957
 20
137.74874889201683
 10
597.5569264601869
 20
135.94270421085
 10
599.3979460283571
 20
134.51058350933957
 10
601.4472050433533
 20
133.4889267650035
 10
603.6314109059226
 20
132.91427395536004
 10
605.8772710168122
 20
132.823165057927
 10
608.111492776769
 20
133.25214005022258
 10
610.2607835865402
 20
134.2377389097649
 10
612.2518508468726
 20
135.81650161407197
  0
LWPOLYLINE
  5
4D
330
17
100
AcDbEntity
  8
CUT
100
AcDbPolyline
 90
67
 70
1
 10
158.4564389447507
 20
158.9886016930183
 10
161.52933206219876
 20
160.59036850131054
 10
164.69894043713063
 20
162.2145942958906
 10
167.91628973675813
 20
163.83767560362145
 10
171.13240562829276
 20
165.43600895136572
 10
174.29831377894627
 20
166.9859908659862
 10
177.36503985593026
 20
168.46401787434556
 10
180.28360952645644
 20
169.84648650330647
 10
183.00504845773645
 20
171.10979327973166
 10
185.48038231698197
 20
172.23033473048378
 10
187.66063677140465
 20
173.18450738242552
 10
189.49683748821616
 20
173.94870776241973
 10
192.07004232193435
 20
175.00104190922644
 10
194.23627570257028
 20
175.94995852513432
 10
196.04791662122904
 20
176.84753487938409
 10
197.55734406901564
 20
177.74584824121672
 10
198.81693703703522
 20
178.69697587987284
 10
199.87907451639282
 20
179.75299506459348
 10
200.79613549819348
 20
180.9659830646194
 10
201.6204989735423
 20
182.3880171491913
 10
202.40454393354435
 20
184.07117458755013
 10
203.20064936930476
 20
186.06753264893663
 10
204.06119427192849
 20
188.42916860259166
 10
204.6213973033211
 20
189.96386488074123
 10
205.2214265663812
 20
191.53093335073345
 10
205.85082565587322
 20
193.10701158503727
 10
206.49913816656138
 20
194.6687371561221
 10
207.15590769321008
 20
196.1927476364568
 10
207.81067783058378
 20
197.6556805985106
 10
208.45299217344683
 20
199.03417361475266
 10
209.0723943165635
 20
200.30486425765184
 10
209.65842785469835
 20
201.44439009967752
 10
210.2006363826156
 20
202.4293887132986
 10
210.6885634950797
 20
203.23649767098428
 10
211.43494023309944
 20
204.4132493959546
 10
211.97318763854557
 20
205.37061848889394
 10
212.2463502420924
 20
206.12405757525028
 10
212.19747257441446
 20
206.68901928047194
 10
211.76959916618623
 20
207.08095623000685
 10
210.90577454808206
 20
207.31532104930326
 10
209.54904325077646
 20
207.4075663638092
 10
207.6424498049439
 20
207.37314479897273
 10
205.12903874125882
 20
207.22750898024205
 10
201.95185459039564
 20
206.9861115330653
 10
198.0539418830288
 20
206.6644050828906
 10
184.6057071302524
 20
205.04283473179186
 10
172.3545724610089
 20
202.56777065264168
 10
161.39986597968218
 20
199.31759525239502
 10
151.84091579065586
 20
195.3706909380074
 10
143.77704999831371
 20
190.80544011643389
 10
137.30759670703958
 20
185.70022519462978
 10
132.53188402121714
 20
180.1334285795502
 10
129.5492400452302
 20
174.1834326781505
 10
128.45899288346249
 20
167.92861989738574
 10
129.36047064029773
 20
161.44737264421127
 10
132.3530014201197
 20
154.81807332558236
 10
133.51410488351607
 20
152.85073587884153
 10
134.4662865327491
 20
151.2805883673409
 10
135.3599827266446
 20
150.13166590528255
 10
136.3456298240283
 20
149.428003606869
 10
137.573664183726
 20
149.19363658630243
 10
139.19452216456347
 20
149.45259995778525
 10
141.35864012536658
 20
150.22892883551958
 10
144.21645442496109
 20
151.54665833370774
 10
147.91840142217274
 20
153.42982356655207
 10
152.61491747582733
 20
155.9024596482548
 10
158.4564389447507
 20
158.9886016930183
  0
LWPOLYLINE
  5
4E
330
17
100
AcDbEntity
  8
CUT
100
AcDbPolyline
 90
67
 70
1
 10
229.80704377030386
 20
151.58468184995704
 10
233.46021975708402
 20
153.25201549434414
 10
237.1017713264923
 20
155.23399782005825
 10
240.7612700740826
 20
157.55728462603344
 10
244.46828759540844
 20
160.24853171120407
 10
248.2523954860238
 20
163.33439487450403
 10
252.1431653414824
 20
166.8415299148677
 10
256.17016875733793
 20
170.79659263122912
 10
260.3629773291443
 20
175.22623882252242
 10
264.75116265245515
 20
180.1571242876817
 10
269.3642963228244
 20
185.61590482564108
 10
274.2319499358057
 20
191.62923623533484
 10
276.94934962465885
 20
195.0489910824354
 10
279.694181518341
 20
198.50207721688443
 10
282.42713691195183
 20
201.9391079914945
 10
285.10890710059095
 20
205.3106967590783
 10
287.70018337935824
 20
208.56745687244853
 10
290.1616570433531
 20
211.66000168441775
 10
292.45401938767554
 20
214.53894454779885
 10
294.5379617074251
 20
217.15489881540415
 10
296.37417529770147
 20
219.45847784004658
 10
297.9233514536044
 20
221.4002949745387
 10
299.14618147023367
 20
222.93096357169313
 10
300.9419599089101
 20
225.20305044445735
 10
302.31019303837377
 20
227.0117775768954
 10
303.22672322823945
 20
228.35398620949894
 10
303.66739284812166
 20
229.22651758275958
 10
303.6080442676351
 20
229.62621293716873
 10
303.0245198563943
 20
229.54991351321812
 10
301.89266198401407
 20
228.99446055139921
 10
300.1883130201091
 20
227.95669529220353
 10
297.8873153342939
 20
226.43345897612267
 10
294.96551129618325
 20
224.42159284364826
 10
291.3987432753918
 20
221.91793813527178
 10
289.86250180600007
 20
220.87193650137635
 10
287.93618923091395
 20
219.62340783117492
 10
285.6678177055141
 20
218.20070056606016
 10
283.1053993851806
 20
216.6321631474252
 10
280.29694642529404
 20
214.94614401666246
 10
277.2904709812349
 20
213.17099161516478
 10
274.13398520838336
 20
211.33505438432488
 10
270.87550126212
 20
209.46668076553553
 10
267.56303129782526
 20
207.59421920018954
 10
264.2445874708794
 20
205.7460181296794
 10
260.9681819366631
 20
203.95042599539812
 10
246.70288539044634
 20
196.19995044003718
 10
235.09785441147486
 20
189.86611440183086
 10
225.87853400241767
 20
184.75886554893384
 10
218.7703691659436
 20
180.6881515495013
 10
213.49880490472165
 20
177.46392007168785
 10
209.7892862214207
 20
174.89611878364872
 10
207.36725811870957
 20
172.7946953535386
 10
205.95816559925737
 20
170.96959744951238
 10
205.28745366573284
 20
169.23077273972493
 10
205.08056732080505
 20
167.38816889233118
 10
205.06295156714282
 20
165.2517335754861
 10
205.27731410075768
 20
161.50202904284845
 10
205.95670196815433
 20
158.2217351794409
 10
207.08178008433518
 20
155.4215314478441
 10
208.63321336430263
 20
153.112097310639
 10
210.5916667230591
 20
151.30411223040645
 10
212.93780507560703
 20
150.00825566972716
 10
215.65229333694884
 20
149.23520709118193
 10
218.71579642208707
 20
148.99564595735148
 10
222.108979246024
 20
149.30025173081665
 10
225.8125067237621
 20
150.15970387415823
 10
229.80704377030386
 20
151.58468184995704
  0
LWPOLYLINE
  5
4F
330
17
100
AcDbEntity
  8
CUT
100
AcDbPolyline
 90
67
 70
1
 10
579.3647367782486
 20
158.92694715563172
 10
580.8663925535915
 20
162.45444077682782
 10
581.7757284255314
 20
166.03503116616255
 10
582.1088657301896
 20
169.62683461070995
 10
581.8819258036875
 20
173.18796739754427
 10
581.1110299821468
 20
176.67654581373952
 10
579.8122996016883
 20
180.0506861463697
 10
578.0018559984342
 20
183.26850468250916
 10
575.6958205085056
 20
186.2881177092317
 10
572.9103144680239
 20
189.06764151361165
 10
569.6614592131106
 20
191.56519238272298
 10
565.9653760798872
 20
193.73888660363988
 10
560.6963452680727
 20
196.00643659471848
 10
553.9405880001473
 20
198.28430220436022
 10
546.1321838927886
 20
200.49323341842515
 10
537.7052125626745
 20
202.55398022277345
 10
529.0937536264836
 20
204.3872926032653
 10
520.7318867008935
 20
205.91392054576087
 10
513.0536914025824
 20
207.05461403612037
 10
506.49324734822875
 20
207.73012306020382
 10
501.4846341545101
 20
207.8611976038714
 10
498.461931438105
 20
207.36858765298336
 10
497.8592188156913
 20
206.17304319339976
 10
499.4286544538194
 20
202.8747286499957
 10
500.95756452798105
 20
199.63370889648942
 10
502.4273705393477
 20
196.4909227365642
 10
503.81949398909063
 20
193.48730897390342
 10
505.1153563783813
 20
190.66380641219035
 10
506.2963792083909
 20
188.06135385510836
 10
507.34398398029106
 20
185.7208901063406
 10
508.2395921952531
 20
183.68335396957042
 10
508.9646253544485
 20
181.98968424848107
 10
509.5005049590486
 20
180.6808197467559
 10
509.82865251022463
 20
179.79769926807816
 10
510.1969644525224
 20
179.26276590152048
 10
510.98082515094114
 20
178.56921483851124
 10
512.1465512151982
 20
177.7353335930341
 10
513.660459255011
 20
176.7794096790729
 10
515.4888658800969
 20
175.71973061061124
 10
517.5980877001732
 20
174.57458390163285
 10
519.9544413249574
 20
173.3622570661213
 10
522.5242433641672
 20
172.10103761806036
 10
525.2738104275196
 20
170.8092130714337
 10
528.1694591247322
 20
169.50507094022504
 10
531.1775060655224
 20
168.20689873841806
 10
534.280683680986
 20
166.88151923419161
 10
537.4525393715613
 20
165.49838210768218
 10
540.6456122009782
 20
164.0797152408101
 10
543.8124412329671
 20
162.6477465154957
 10
546.905565531258
 20
161.22470381365926
 10
549.8775241595813
 20
159.83281501722124
 10
552.6808561816671
 20
158.49430800810168
 10
555.2681006612455
 20
157.2314106682211
 10
557.5917966620469
 20
156.0663508794997
 10
559.6044832478015
 20
155.0213565238578
 10
561.2586994822392
 20
154.11865548321575
 10
563.9869198611974
 20
152.62601924835388
 10
566.3340150742858
 20
151.47560037838474
 10
568.354879044234
 20
150.6819766623192
 10
570.1044056937707
 20
150.25972588916815
 10
571.6374889456249
 20
150.22342584794248
 10
573.0090227225259
 20
150.58765432765318
 10
574.2739009472025
 20
151.36698911731096
 10
575.4870175423841
 20
152.57600800592684
 10
576.7032664307997
 20
154.22928878251167
 10
577.9775415351779
 20
156.34140923607637
 10
579.3647367782486
 20
158.92694715563172
  0
LWPOLYLINE
  5
50
330
17
100
AcDbEntity
  8
CUT
100
AcDbPolyline
 90
67
 70
1
 10
497.3622178445059
 20
153.25304280312778
 10
498.9077704768358
 20
154.22419828356843
 10
500.4142809955624
 20
155.4892942425361
 10
501.84721723159265
 20
156.98591085394932
 10
503.1720470158336
 20
158.65162829172675
 10
504.3542381791924
 20
160.4240267297869
 10
505.3592585525761
 20
162.2406863420484
 10
506.1525759668917
 20
164.03918730242975
 10
506.69965825304644
 20
165.75710978484958
 10
506.9659732419473
 20
167.33203396322645
 10
506.9169887645013
 20
168.70154001147898
 10
506.51817265161566
 20
169.80320810352566
 10
506.1736267604212
 20
170.183553988502
 10
505.52250291098727
 20
170.72277455125496
 10
504.5906543159893
 20
171.4046933296526
 10
503.4039341881028
 20
172.2131338615631
 10
501.98819574000333
 20
173.1319196848548
 10
500.36929218436654
 20
174.14487433739578
 10
498.57307673386794
 20
175.2358213570542
 10
496.62540260118305
 20
176.38858428169812
 10
494.5521229989875
 20
177.58698664919586
 10
492.37909113995687
 20
178.8148519974156
 10
490.13216023676677
 20
180.05600386422537
 10
479.85566172137504
 20
185.73001514250453
 10
469.6415401032601
 20
191.48725647694667
 10
459.66956744488465
 20
197.21785498125413
 10
450.1195158087112
 20
202.81193776912926
 10
441.1711572572026
 20
208.15963195427452
 10
433.00426385282145
 20
213.15106465039204
 10
425.79860765803033
 20
217.67636297118426
 10
419.73396073529227
 20
221.62565403035347
 10
414.9900951470696
 20
224.8890649416021
 10
411.7467829558252
 20
227.35672281863236
 10
410.1837962240218
 20
228.91875477514662
 10
409.9843650917534
 20
229.2096950395061
 10
409.755569404776
 20
229.48772111866197
 10
409.5021772496618
 20
229.7497157954958
 10
409.22895671298227
 20
229.9925618528898
 10
408.9406758813096
 20
230.21314207372558
 10
408.6421028412152
 20
230.4083392408851
 10
408.3380056792714
 20
230.57503613725027
 10
408.0331524820498
 20
230.71011554570288
 10
407.7323113361223
 20
230.81046024912487
 10
407.4402503280606
 20
230.87295303039798
 10
407.16173754443673
 20
230.89447667240418
 10
407.15485176106273
 20
230.56388690325767
 10
407.65144569855437
 20
229.60403660801137
 10
408.6169483606886
 20
228.0628043049555
 10
410.01678875124253
 20
225.98806851238047
 10
411.81639587399303
 20
223.42770774857618
 10
413.98119873271725
 20
220.4296005318331
 10
416.47662633119205
 20
217.04162538044122
 10
419.2681076731947
 20
213.31166081269086
 10
422.3210717625021
 20
209.2875853468721
 10
425.6009476028913
 20
205.01727750127517
 10
429.0731641981393
 20
200.54861579419037
 10
438.03950984216704
 20
189.33175391192876
 10
446.2285688274622
 20
179.65461615643343
 10
453.71555338306933
 20
171.46511210795703
 10
460.57567573803294
 20
164.71115134675213
 10
466.8841481213977
 20
159.34064345307112
 10
472.716182762208
 20
155.30149800716663
 10
478.14699188950874
 20
152.54162458929102
 10
483.2517877323442
 20
151.00893277969683
 10
488.10578251975926
 20
150.65133215863654
 10
492.7841884807982
 20
151.41673230636266
 10
497.3622178445059
 20
153.25304280312778
  0
LWPOLYLINE
  5
51
330
17
100
AcDbEntity
  8
CUT
100
AcDbPolyline
 90
34
 70
1
 10
99.6999467739475
 20
179.83313494369241
 10
99.04602303453439
 20
180.13222621769916
 10
98.35417773665569
 20
180.51362282540921
 10
97.63602672435503
 20
180.9675392082696
 10
96.90318584167608
 20
181.4841898077278
 10
96.16727093266245
 20
182.0537890652308
 10
95.43989784135778
 20
182.66655142222612
 10
94.73268241180575
 20
183.31269132016072
 10
94.05724048805003
 20
183.98242320048192
 10
93.42518791413423
 20
184.6659615046369
 10
92.848140534102
 20
185.35352067407297
 10
92.337714191997
 20
186.03531515023732
 10
89.94555468879918
 20
190.7714083758054
 10
89.19811897299844
 20
195.47044432376606
 10
89.87089205603871
 20
199.95721396511874
 10
91.73935894936382
 20
204.05650827086308
 10
94.57900466441772
 20
207.59311821199879
 10
98.16531421264429
 20
210.39183475952535
 10
102.27377260548744
 20
212.27744888444244
 10
106.6798648543911
 20
213.07475155774947
 10
111.15907597079917
 20
212.60853375044627
 10
115.48689096615553
 20
210.70358643353214
 10
119.43879485190406
 20
207.18470057800693
 10
122.08638153074696
 20
203.16156710869853
 10
123.52617753612951
 20
199.00319607974455
 10
123.86464459832499
 20
194.85710851119688
 10
123.2082444476066
 20
190.8708254231078
 10
121.66343881424771
 20
187.19186783552914
 10
119.33668942852158
 20
183.96775676851297
 10
116.33445802070152
 20
181.3460132421115
 10
112.76320632106078
 20
179.47415827637664
 10
108.72939605987267
 20
178.49971289136047
 10
104.33948896741049
 20
178.57019810711506
 10
99.6999467739475
 20
179.83313494369241
  0
LWPOLYLINE
  5
52
330
17
100
AcDbEntity
  8
CUT
100
AcDbPolyline
 90
34
 70
1
 10
594.4192644368675
 20
181.67747109447484
 10
590.5393114758307
 20
184.86535752925505
 10
588.0624810171144
 20
188.64110559423136
 10
586.8713685475582
 20
192.7753025340403
 10
586.8485695540028
 20
197.03853559331876
 10
587.8766795232882
 20
201.20139201670338
 10
589.8382939422552
 20
205.034459048831
 10
592.6160082977434
 20
208.3083239343383
 10
596.0924180765935
 20
210.79357391786192
 10
600.1501187656457
 20
212.26079624403877
 10
604.6717058517405
 20
212.48057815750548
 10
609.5397748217179
 20
211.22350690289875
 10
613.5790521046849
 20
208.8844795873623
 10
616.5904028391981
 20
205.78743872715611
 10
618.6109272675644
 20
202.1390365537432
 10
619.6777256320912
 20
198.14592529858655
 10
619.8278981750859
 20
194.0147571931489
 10
619.098545138856
 20
189.95218446889325
 10
617.5267667657087
 20
186.1648593572824
 10
615.1496632979513
 20
182.85943408977934
 10
612.0043349778913
 20
180.2425608978469
 10
608.1278820478361
 20
178.52089201294797
 10
603.5574047500929
 20
177.90107966654546
 10
603.0562769364254
 20
177.94221991876563
 10
602.4459732733552
 20
178.06166851314268
 10
601.7409115630294
 20
178.25346720625157
 10
600.9555096075948
 20
178.51165775466743
 10
600.1041852091988
 20
178.83028191496538
 10
599.2013561699882
 20
179.20338144372025
 10
598.2614402921105
 20
179.62499809750707
 10
597.2988553777125
 20
180.08917363290095
 10
596.3280192289411
 20
180.58994980647688
 10
595.3633496479439
 20
181.1213683748098
 10
594.4192644368675
 20
181.67747109447484
  0
LWPOLYLINE
  5
53
330
17
100
AcDbEntity
  8
CUT
100
AcDbPolyline
 90
56
 70
1
 10
251.35174464004845
 20
204.46462008407644
 10
262.5917840132956
 20
210.84377550967068
 10
273.7683617065969
 20
217.59586463887192
 10
284.64282762117807
 20
224.54076865311765
 10
294.97653165826483
 20
231.4983687338455
 10
304.5308237190827
 20
238.28854606249305
 10
313.06705370485736
 20
244.73118182049794
 10
320.3465715168146
 20
250.6461571892977
 10
326.13072705618004
 20
255.85335335032974
 10
330.1808702241794
 20
260.1726514850319
 10
332.25835092203823
 20
263.4239327748416
 10
332.1245190509822
 20
265.4270784011964
 10
331.0339635319919
 20
265.71603632832097
 10
328.8441753890775
 20
265.6404744083227
 10
325.7248151891324
 20
265.2398961433376
 10
321.84554349904977
 20
264.55380503550174
 10
317.376020885723
 20
263.621704586951
 10
312.48590791604533
 20
262.4830982998214
 10
307.34486515691003
 20
261.1774896762488
 10
302.12255317521044
 20
259.7443822183692
 10
296.98863253784003
 20
258.2232794283185
 10
292.1127638116919
 20
256.6536848082327
 10
287.6646075636594
 20
255.07510186024777
 10
278.2745949168055
 20
251.2690425303213
 10
269.31361068128217
 20
247.077868034246
 10
260.8128756076501
 20
242.52627804738913
 10
252.80361044646972
 20
237.63897224511803
 10
245.3170359483017
 20
232.44065030279987
 10
238.38437286370663
 20
226.95601189580188
 10
232.03684194324512
 20
221.20975669949138
 10
226.3056639374777
 20
215.22658438923546
 10
221.22205959696504
 20
209.03119464040148
 10
216.8172496722677
 20
202.64828712835669
 10
213.12245491394626
 20
196.10256152846821
 10
211.1177537113132
 20
192.05695558182487
 10
209.5403578314028
 20
188.70892666641728
 10
208.3978677801629
 20
186.02631891674355
 10
207.69788406354144
 20
183.97697646730202
 10
207.44800718748624
 20
182.52874345259104
 10
207.6558376579452
 20
181.64946400710875
 10
208.32897598086618
 20
181.3069822653536
 10
209.47502266219706
 20
181.4691423618237
 10
211.10157820788584
 20
182.1037884310174
 10
213.21624312388025
 20
183.17876460743304
 10
215.82661791612824
 20
184.6619150255688
 10
217.42019570301468
 20
185.58474101926595
 10
219.50911981462718
 20
186.77678280917812
 10
222.03734008859146
 20
188.20679645794786
 10
224.94880636253316
 20
189.8435380282177
 10
228.18746847407792
 20
191.65576358263007
 10
231.6972762608514
 20
193.61222918382745
 10
235.42217956047926
 20
195.68169089445246
 10
239.30612821058725
 20
197.83290477714723
 10
243.29307204880104
 20
200.03462689455455
 10
247.3269609127462
 20
202.25561330931683
 10
251.35174464004845
 20
204.46462008407644
  0
LWPOLYLINE
  5
54
330
17
100
AcDbEntity
  8
CUT
100
AcDbPolyline
 90
45
 70
1
 10
503.43104163556615
 20
181.89113869061467
 10
502.9526383788495
 20
184.60987433237662
 10
501.59731848696373
 20
188.1441729011878
 10
499.4849167773057
 20
192.32655225975097
 10
496.73526806727205
 20
196.98953027076948
 10
493.4682071742591
 20
201.965624796946
 10
489.8035689156634
 20
207.08735370098358
 10
485.8611881088817
 20
212.18723484558512
 10
481.7608995713106
 20
217.09778609345358
 10
477.62253812034675
 20
221.65152530729185
 10
473.5659385733866
 20
225.68097034980286
 10
469.7109357478267
 20
229.0186390836897
 10
462.94181359501346
 20
233.95105795637232
 10
455.22903458833963
 20
238.8483562757233
 10
446.79375451448965
 20
243.6189557194142
 10
437.8571291601483
 20
248.17127796511653
 10
428.6403143120003
 20
252.41374469050209
 10
419.36446575673045
 20
256.2547775732421
 10
410.2507392810234
 20
259.6027982910084
 10
401.52029067156394
 20
262.36622852147246
 10
393.3942757150367
 20
264.4534899423058
 10
386.0938501981266
 20
265.7730042311799
 10
379.8401699075182
 20
266.23319306576656
 10
377.2380779768712
 20
265.3776929425795
 10
377.4621626955948
 20
262.9256832969939
 10
380.28840292736345
 20
259.04890021497306
 10
385.49277753585136
 20
253.9190797824807
 10
392.8512653847331
 20
247.70795808548024
 10
402.139845337683
 20
240.587271209935
 10
413.13449625837535
 20
232.72875524180867
 10
425.61119701048483
 20
224.3041462670646
 10
439.3459264576857
 20
215.48518037166622
 10
454.1146634636524
 20
206.44359364157702
 10
469.6933868920592
 20
197.35112216276062
 10
477.58485400719024
 20
192.86506881728212
 10
484.1449287042424
 20
189.1630859275455
 10
489.4957812830424
 20
186.18919002847358
 10
493.7595820434167
 20
183.88739765498994
 10
497.0585012851922
 20
182.2017253420175
 10
499.51470930819556
 20
181.07618962447944
 10
501.25037641225356
 20
180.45480703729888
 10
502.38767289719283
 20
180.28159411539897
 10
503.0487690628403
 20
180.50056739370288
 10
503.35583520902253
 20
181.05574340713375
 10
503.43104163556615
 20
181.89113869061467
  0
LWPOLYLINE
  5
55
330
17
100
AcDbEntity
  8
CUT
100
AcDbPolyline
 90
34
 70
1
 10
614.6585870206252
 20
189.55713397479366
 10
615.3622207484332
 20
191.34549754127687
 10
615.755937272016
 20
193.22692189610532
 10
615.8574109315642
 20
195.1543215398607
 10
615.6843160672673
 20
197.0806109731244
 10
615.2543270193153
 20
198.95870469647826
 10
614.5851181278978
 20
200.74151721050362
 10
613.6943637332048
 20
202.3819630157821
 10
612.5997381754264
 20
203.83295661289543
 10
611.3189157947523
 20
205.04741250242492
 10
609.8695709313723
 20
205.97824518495233
 10
608.2693779254763
 20
206.5783691610592
 10
605.1842972436749
 20
207.08687607872963
 10
602.2705893890391
 20
207.06162813699623
 10
599.5784658727376
 20
206.551305653686
 10
597.1581382059389
 20
205.60458894662614
 10
595.0598178998116
 20
204.27015833364334
 10
593.3337164655243
 20
202.5966941325649
 10
592.0300454142457
 20
200.63287666121772
 10
591.1990162571443
 20
198.42738623742878
 10
590.890840505389
 20
196.02890317902504
 10
591.1557296701483
 20
193.48610780383356
 10
592.0438952625907
 20
190.84768042968142
 10
593.441576245884
 20
188.4819334115877
 10
595.2254402043761
 20
186.55134538245736
 10
597.3106394853754
 20
185.0607583201761
 10
599.6123264361903
 20
184.0150142026298
 10
602.0456534041289
 20
183.41895500770434
 10
604.5257727364994
 20
183.27742271328555
 10
606.9678367806105
 20
183.5952592972591
 10
609.2869978837703
 20
184.37730673751088
 10
611.3984083932871
 20
185.62840701192667
 10
613.2172206564693
 20
187.3534020983924
 10
614.6585870206252
 20
189.55713397479366
  0
LWPOLYLINE
  5
56
330
17
100
AcDbEntity
  8
CUT
100
AcDbPolyline
 90
34
 70
1
 10
117.53872959322294
 20
188.13955024893107
 10
119.42270533152296
 20
191.84282807141696
 10
120.03814828513752
 20
195.50560393830148
 10
119.558907771674
 20
198.99137892650143
 10
118.15883310873971
 20
202.16365411293344
 10
116.01177361394198
 20
204.88593057451408
 10
113.29157860488822
 20
207.0217093881601
 10
110.17209739918569
 20
208.43449163078805
 10
106.82717931444179
 20
208.9877783793146
 10
103.43067366826388
 20
208.54507071065635
 10
100.15642977825927
 20
206.96986970172995
 10
97.17829696203533
 20
204.12567642945206
 10
95.96633354026122
 20
202.49198940664684
 10
94.98188932990382
 20
200.95027558162903
 10
94.22378397277326
 20
199.48190407677455
 10
93.69083711067964
 20
198.0682440144595
 10
93.3818683854331
 20
196.69066451705962
 10
93.2956974388437
 20
195.33053470695097
 10
93.43114391272165
 20
193.9692237065093
 10
93.78702744887701
 20
192.58810063811055
 10
94.36216768911994
 20
191.16853462413064
 10
95.15538427526054
 20
189.69189478694548
 10
96.16549684910893
 20
188.13955024893102
 10
97.5350149655102
 20
186.6184291238519
 10
99.2486349072042
 20
185.40153222378862
 10
101.22988960190368
 20
184.48885954874106
 10
103.40231197732132
 20
183.88041109870935
 10
105.68943496116987
 20
183.57618687369344
 10
108.01479148116205
 20
183.57618687369347
 10
110.30191446501061
 20
183.88041109870935
 10
112.47433684042824
 20
184.488859548741
 10
114.4555915351277
 20
185.40153222378856
 10
116.1692114768217
 20
186.61842912385185
 10
117.53872959322294
 20
188.13955024893107
  0
LWPOLYLINE
  5
57
330
17
100
AcDbEntity
  8
CUT
100
AcDbPolyline
 90
67
 70
1
 10
153.2693012042707
 20
201.56579574408252
 10
156.9754827539772
 20
203.03811942698448
 10
161.0145556974452
 20
204.43015385455334
 10
165.32318928268026
 20
205.7292712040083
 10
169.8380527576877
 20
206.9228436525689
 10
174.4958153704729
 20
207.99824337745426
 10
179.23314636904146
 20
208.94284255588389
 10
183.9867150013986
 20
209.74401336507685
 10
188.69319051554993
 20
210.38912798225257
 10
193.28924215950082
 20
210.8655585846304
 10
197.71153918125657
 20
211.16067734942962
 10
201.89675082882277
 20
211.2618564538695
 10
204.97301016249727
 20
211.27131213614425
 10
207.55183911597294
 20
211.33750191206715
 10
209.74725848267175
 20
211.5171598752861
 10
211.67328905601562
 20
211.8670201194495
 10
213.4439516294265
 20
212.44381673820533
 10
215.17326699632642
 20
213.30428382520188
 10
216.97525595013732
 20
214.50515547408713
 10
218.96393928428122
 20
216.10316577850932
 10
221.25333779218005
 20
218.15504883211636
 10
223.95747226725572
 20
220.71753872855652
 10
227.19036350293032
 20
223.847369561478
 10
230.39968427019866
 20
226.9782738335636
 10
232.9388254664309
 20
229.54827780415306
 10
234.78038507461173
 20
231.62055620187948
 10
235.8969610777258
 20
233.25828375537623
 10
236.26115145875792
 20
234.52463519327634
 10
235.84555420069267
 20
235.4827852442131
 10
234.6227672865148
 20
236.1959086368196
 10
232.5653886992091
 20
236.72718009972917
 10
229.64601642176015
 20
237.1397743615749
 10
225.83724843715277
 20
237.49686615099
 10
221.11168272837165
 20
237.86163019660768
 10
214.48073154385722
 20
238.19259267178242
 10
206.79573850469797
 20
238.30074088102552
 10
198.38969037739707
 20
238.20798570321304
 10
189.59557392845718
 20
237.93623801722114
 10
180.74637592438143
 20
237.5074087019258
 10
172.17508313167266
 20
236.94340863620323
 10
164.2146823168339
 20
236.26614869892933
 10
157.19816024636805
 20
235.4975397689803
 10
151.45850368677802
 20
234.6594927252322
 10
147.3286994045668
 20
233.77391844656105
 10
145.14173416623734
 20
232.86272781184297
 10
143.61182937933918
 20
231.33537434583596
 10
142.2143239900601
 20
229.43484726785243
 10
140.9649183241276
 20
227.2225294612994
 10
139.87931270726915
 20
224.75980380958367
 10
138.97320746521208
 20
222.1080531961123
 10
138.262302923684
 20
219.3286605042921
 10
137.7622994084121
 20
216.48300861752998
 10
137.48889724512412
 20
213.6324804192329
 10
137.45779675954736
 20
210.83845879280778
 10
137.68469827740927
 20
208.16232662166152
 10
138.18530212443733
 20
205.66546678920105
 10
138.82757714516958
 20
203.32497925739062
 10
139.41465887384922
 20
201.43267747523922
 10
140.0135449160198
 20
199.97035220379863
 10
140.69123287722473
 20
198.91979420412065
 10
141.51472036300737
 20
198.2627942372572
 10
142.5510049789113
 20
197.98114306426004
 10
143.8670843304799
 20
198.05663144618111
 10
145.52995602325672
 20
198.47105014407197
 10
147.60661766278517
 20
199.20618991898468
 10
150.16406685460868
 20
200.2438415319709
 10
153.2693012042707
 20
201.56579574408252
  0
LWPOLYLINE
  5
58
330
17
100
AcDbEntity
  8
CUT
100
AcDbPolyline
 90
67
 70
1
 10
572.076137463612
 20
203.27974066638063
 10
573.4364395908666
 20
206.52516100516408
 10
574.1695374140716
 20
209.91524987197633
 10
574.3085979435425
 20
213.375878435888
 10
573.8867881895943
 20
216.8329178659703
 10
572.9372751625423
 20
220.21223933129392
 10
571.4932258727017
 20
223.43971400092963
 10
569.5878073303876
 20
226.44121304394844
 10
567.2541865459156
 20
229.14260762942112
 10
564.5255305296006
 20
231.46976892641857
 10
561.4350062917578
 20
233.34856810401163
 10
558.0157808427026
 20
234.70487633127115
 10
554.1601181868164
 20
235.71475906494686
 10
549.7669114692283
 20
236.60677708247337
 10
544.9106521483338
 20
237.37614263647097
 10
539.665831682528
 20
238.01806797955976
 10
534.1069415302063
 20
238.5277653643598
 10
528.3084731497643
 20
238.90044704349134
 10
522.344917999597
 20
239.13132526957443
 10
516.2907675381
 20
239.21561229522916
 10
510.2205132236684
 20
239.14852037307574
 10
504.20864651469776
 20
238.9252617557343
 10
498.32965886958334
 20
238.54104869582488
 10
495.41436835311265
 20
238.30938542961007
 10
492.5258490366621
 20
238.085982334185
 10
489.70240264144104
 20
237.87346079358727
 10
486.9823308886583
 20
237.6744421918549
 10
484.40393549952285
 20
237.4915479130254
 10
482.0055181952437
 20
237.32739934113675
 10
479.82538069702997
 20
237.18461786022664
 10
477.9018247260907
 20
237.0658248543328
 10
476.2731520036348
 20
236.973641707493
 10
474.97766425087127
 20
236.910689803745
 10
474.0536631890093
 20
236.87959052712665
 10
472.27153184849334
 20
236.2873143364381
 10
472.03746751885893
 20
234.75428168840162
 10
473.1153314238733
 20
232.49038885843333
 10
475.2689847873039
 20
229.70553212194932
 10
478.2622888329183
 20
226.60960775436556
 10
481.8591047844838
 20
223.41251203109823
 10
485.82329386576794
 20
220.32414122756325
 10
489.9187173005383
 20
217.55439161917667
 10
493.90923631256226
 20
215.31315948135452
 10
497.5587121256074
 20
213.81034108951297
 10
500.631005963441
 20
213.2558327190679
 10
504.24524274481985
 20
213.11008013841774
 10
508.6543808436862
 20
212.7182956934108
 10
513.6828980102284
 20
212.1123032501238
 10
519.1552719946352
 20
211.32392667463301
 10
524.8959805470948
 20
210.38498983301503
 10
530.729501417796
 20
209.32731659134603
 10
536.4803123569271
 20
208.18273081570254
 10
541.9728911146768
 20
206.98305637216103
 10
547.0317154412336
 20
205.76011712679778
 10
551.4812630867859
 20
204.5457369456892
 10
555.1460118015223
 20
203.37173969491187
 10
558.4283781716317
 20
202.2199286658226
 10
561.1912348330401
 20
201.29773557666644
 10
563.4915340861687
 20
200.6048509462018
 10
565.3862282314382
 20
200.140965293187
 10
566.932269569269
 20
199.90576913638046
 10
568.1866104000824
 20
199.8989529945404
 10
569.2062030242988
 20
200.12020738642536
 10
570.0479997423391
 20
200.56922283079348
 10
570.7689528546243
 20
201.24568984640314
 10
571.426014661575
 20
202.14929895201277
 10
572.076137463612
 20
203.27974066638063
  0
LWPOLYLINE
  5
59
330
17
100
AcDbEntity
  8
CUT
100
AcDbPolyline
 90
34
 70
1
 10
365.2837657956995
 20
238.9452634428462
 10
367.81464906855535
 20
249.4899015942388
 10
369.7193605478213
 20
259.6782950573596
 10
371.00549248070695
 20
269.3995493219432
 10
371.68063711442176
 20
278.54276987772374
 10
371.75238669617534
 20
286.9970622144358
 10
371.22833347317726
 20
294.65153182181365
 10
370.11606969263715
 20
301.39528418959173
 10
368.4231876017646
 20
307.1174248075043
 10
366.15727944776927
 20
311.70705916528584
 10
363.3259374778606
 20
315.05329275267064
 10
359.9367539392482
 20
317.04523105939313
 10
354.11237610180945
 20
318.1479386616799
 10
349.12404721461695
 20
317.19426749897434
 10
344.99463608577804
 20
314.3118940045698
 10
341.74701152339964
 20
309.6284946117597
 10
339.40404233558917
 20
303.2717457538374
 10
337.9885973304537
 20
295.36932386409626
 10
337.5235453161004
 20
286.0489053758296
 10
338.03175510063653
 20
275.43816672233083
 10
339.53609549216935
 20
263.6647843368932
 10
342.05943529880597
 20
250.85643465281026
 10
345.6246433286536
 20
237.14079410337527
 10
347.75429491791715
 20
230.12396578505414
 10
349.6917739215465
 20
224.53195925903975
 10
351.4783072922387
 20
220.36855866026622
 10
353.1551219826909
 20
217.63754812366773
 10
354.7634449456003
 20
216.34271178417842
 10
356.34450313366415
 20
216.4878337767324
 10
357.9395234995794
 20
218.07669823626384
 10
359.58973299604344
 20
221.11308929770678
 10
361.3363585757533
 20
225.60079109599542
 10
363.2206271914063
 20
231.5435877660638
 10
365.2837657956995
 20
238.9452634428462
  0
LWPOLYLINE
  5
5A
330
17
100
AcDbEntity
  8
CUT
100
AcDbPolyline
 90
67
 70
1
 10
265.9780731510422
 20
251.14585229109736
 10
270.63181639952415
 20
253.33307552287846
 10
275.2454560581455
 20
255.38730765971013
 10
279.85465347333763
 20
257.3207389938407
 10
284.495069991532
 20
259.14555981751846
 10
289.20236695916003
 20
260.8739604229921
 10
294.01220572265305
 20
262.5181311025098
 10
298.96024762844246
 20
264.0902621483202
 10
304.0821540229599
 20
265.60254385267143
 10
309.41358625263666
 20
267.06716650781203
 10
314.99020566390413
 20
268.4963204059904
 10
320.8476736031938
 20
269.90219583945486
 10
322.36734461401477
 20
270.3034529645954
 10
323.1743885383847
 20
270.6420139923756
 10
323.22655797210973
 20
270.91969365227123
 10
322.4816055109954
 20
271.1383066737584
 10
320.8972837508478
 20
271.29966778631325
 10
318.4313452874728
 20
271.40559171941146
 10
315.04154271667613
 20
271.45789320252925
 10
310.6856286342639
 20
271.4583869651424
 10
305.3213556360418
 20
271.408887736727
 10
298.9064763178158
 20
271.311210246759
 10
291.3987432753918
 20
271.16716922471437
 10
283.36413155240143
 20
270.97965475554975
 10
276.19592367203506
 20
270.76098858226806
 10
269.7721038459965
 20
270.49985843533545
 10
263.97065628598943
 20
270.18495204521855
 10
258.6695652037176
 20
269.8049571423834
 10
253.74681481088462
 20
269.3485614572963
 10
249.08038931919438
 20
268.8044527204237
 10
244.54827294035047
 20
268.16131866223174
 10
240.0284498860567
 20
267.40784701318665
 10
235.39890436801673
 20
266.53272550375493
 10
230.53762059793434
 20
265.5246418644027
 10
221.86856993572232
 20
263.5762170665916
 10
212.85545711731172
 20
261.3961918823433
 10
203.73395898628942
 20
259.0550338616189
 10
194.73975238624217
 20
256.62321055437894
 10
186.10851416075687
 20
254.17118951058427
 10
178.07592115342035
 20
251.76943828019554
 10
170.8776502078194
 20
249.4884244131736
 10
164.74937816754093
 20
247.39861545947906
 10
159.92678187617173
 20
245.57047896907284
 10
156.64553817729868
 20
244.07448249191555
 10
155.14132391450858
 20
242.98109357796795
 10
155.53100535874495
 20
242.79413426017337
 10
156.89100844915467
 20
242.62094339565908
 10
159.1491580492281
 20
242.4631475143131
 10
162.2332790224556
 20
242.32237314602352
 10
166.0711962323276
 20
242.20024682067847
 10
170.59073454233442
 20
242.09839506816581
 10
175.71971881596647
 20
242.01844441837366
 10
181.3859739167142
 20
241.96202140119007
 10
187.51732470806792
 20
241.93075254650304
 10
194.04159605351802
 20
241.92626438420066
 10
200.88661281655487
 20
241.95018344417088
 10
212.4749072304697
 20
242.02100112551267
 10
222.04874866248358
 20
242.12049009166125
 10
229.9015621779659
 20
242.2901033952697
 10
236.3267728422864
 20
242.57129408899164
 10
241.6178057208145
 20
243.00551522548025
 10
246.06808587891996
 20
243.63421985738884
 10
249.97103838197228
 20
244.49886103737066
 10
253.62008829534105
 20
245.64089181807915
 10
257.30866068439593
 20
247.10176525216755
 10
261.3301806145065
 20
248.92293439228916
 10
265.9780731510422
 20
251.14585229109736
  0
LWPOLYLINE
  5
5B
330
17
100
AcDbEntity
  8
CUT
100
AcDbPolyline
 90
78
 70
1
 10
508.33919669019986
 20
243.86539138353518
 10
512.3718177332212
 20
244.03088036247948
 10
516.3883087618804
 20
244.14590196878999
 10
520.345328362365
 20
244.21140866646925
 10
524.1995351208628
 20
244.2283529195197
 10
527.9075876235615
 20
244.19768719194377
 10
531.4261444566492
 20
244.12036394774398
 10
534.7118642063133
 20
243.99733565092288
 10
537.7214054587414
 20
243.82955476548275
 10
540.4114268001217
 20
243.61797375542622
 10
542.7385868166416
 20
243.36354508475569
 10
544.659544094489
 20
243.06722121747367
 10
550.6388398825017
 20
242.09267681519557
 10
554.5609709697499
 20
241.749769736959
 10
556.5530067616068
 20
241.97406892914216
 10
556.7420166634454
 20
242.70114333812373
 10
555.2550700806391
 20
243.8665619102821
 10
552.2192364185611
 20
245.4058935919954
 10
547.7615850825848
 20
247.25470732964249
 10
542.0091854780837
 20
249.34857206960137
 10
535.0891070104307
 20
251.6230567582507
 10
527.1284190849993
 20
254.01373034196868
 10
518.2541911071626
 20
256.45616176713395
 10
507.2453234910989
 20
259.29954933729186
 10
497.2244893427557
 20
261.75387385486704
 10
487.98884415079914
 20
263.8491531210321
 10
479.33554340389435
 20
265.61540493696003
 10
471.0617425907075
 20
267.0826471038235
 10
462.96459719990406
 20
268.28089742279514
 10
454.84126272014987
 20
269.2401736950479
 10
446.48889464011074
 20
269.9904937217543
 10
437.70464844845225
 20
270.56187530408727
 10
428.2856796338403
 20
270.98433624321945
 10
418.0291436849404
 20
271.28789434032365
 10
409.25420321311
 20
271.49217413997485
 10
402.15194428356483
 20
271.6371963166355
 10
396.64271539429166
 20
271.70515280927975
 10
392.64686504327665
 20
271.67823555688153
 10
390.0847417285062
 20
271.538636498415
 10
388.8766939479667
 20
271.26854757285395
 10
388.94307019964475
 20
270.8501607191725
 10
390.2042189815266
 20
270.26566787634454
 10
392.5804887915986
 20
269.4972609833441
 10
395.99222812784734
 20
268.5271319791453
 10
400.3597854882592
 20
267.337472802722
 10
406.1237437706439
 20
265.7067494331547
 10
411.84953249390503
 20
263.9520255165163
 10
417.48757200151255
 20
262.09332402337066
 10
422.9882826369361
 20
260.15066792428144
 10
428.3020847436455
 20
258.1440801898127
 10
433.3793986651106
 20
256.0935837905282
 10
438.17064474480145
 20
254.0192016969918
 10
442.6262433261877
 20
251.94095687976724
 10
446.6966147527392
 20
249.87887230941845
 10
450.3321793679259
 20
247.85297095650924
 10
453.4833575152175
 20
245.8832757916034
 10
455.21175498667264
 20
244.75832551581178
 10
456.7830088920199
 20
243.81561934412423
 10
458.2466102356266
 20
243.04393639110683
 10
459.65205002186013
 20
242.43205577132593
 10
461.048819255088
 20
241.96875659934744
 10
462.48640893967763
 20
241.64281798973755
 10
464.01431007999633
 20
241.44301905706237
 10
465.68201368041156
 20
241.35813891588802
 10
467.5390107452908
 20
241.3769566807806
 10
469.6347922790014
 20
241.48825146630622
 10
472.01884928591073
 20
241.68080238703106
 10
473.8869720136923
 20
241.837362591514
 10
476.21375464056894
 20
242.01267083353255
 10
478.94189233592516
 20
242.20328035358813
 10
482.0140802691457
 20
242.4057443921823
 10
485.37301360961504
 20
242.61661618981637
 10
488.96138752671794
 20
242.8324489869916
 10
492.72189718983907
 20
243.04979602420954
 10
496.5972377683632
 20
243.26521054197147
 10
500.5301044316749
 20
243.47524578077878
 10
504.46319234915893
 20
243.6764549811329
 10
508.33919669019986
 20
243.86539138353518
  0
LWPOLYLINE
  5
5C
330
17
100
AcDbEntity
  8
CUT
100
AcDbPolyline
 90
56
 70
1
 10
147.55556684970995
 20
262.58935786031026
 10
150.88291367488466
 20
263.2694828263261
 10
153.60702466205862
 20
263.9346243186383
 10
155.726832922467
 20
264.5827072847247
 10
157.2412715673451
 20
265.2116566720631
 10
158.14927370792802
 20
265.8193974281317
 10
158.44977245545104
 20
266.40385450040856
 10
158.1417009211493
 20
266.9629528363714
 10
157.223992216258
 20
267.49461738349817
 10
155.6955794520124
 20
267.996773089267
 10
153.55539573964774
 20
268.46734490115574
 10
150.8023741903991
 20
268.90425776664244
 10
147.59941782269178
 20
269.44937141908764
 10
144.3060905619428
 20
270.2097303003068
 10
140.96809795250667
 20
271.16505860907193
 10
137.63114553873794
 20
272.29508054415516
 10
134.3409388649911
 20
273.57952030432824
 10
131.14318347562073
 20
274.9981020883632
 10
128.08358491498126
 20
276.5305500950321
 10
125.20784872742728
 20
278.1565885231068
 10
122.5616804573133
 20
279.8559415713594
 10
120.19078564899381
 20
281.6083334385618
 10
118.14086984682338
 20
283.3934883234859
 10
116.80761542666203
 20
284.6661870270903
 10
115.71417252955554
 20
285.6882179408544
 10
114.83676657546555
 20
286.46301087840834
 10
114.15162298435352
 20
286.9939956533826
 10
113.63496717618109
 20
287.2846020794077
 10
113.26302457090983
 20
287.338259970114
 10
113.01202058850131
 20
287.158399139132
 10
112.85818064891713
 20
286.7484494000919
 10
112.77773017211886
 20
286.1118405666242
 10
112.74689457806808
 20
285.2520024523594
 10
112.74189928672635
 20
284.1723648709279
 10
112.60747363709635
 20
282.2427482364466
 10
112.22106031928999
 20
280.2474720673193
 10
111.60795477993265
 20
278.2274976557511
 10
110.79345246564976
 20
276.22378629394706
 10
109.8028488230667
 20
274.27729927411207
 10
108.66143929880889
 20
272.4289978884511
 10
107.39451933950176
 20
270.7198434291692
 10
106.0273843917707
 20
269.1907971884711
 10
104.58532990224111
 20
267.882820458562
 10
103.0936513175384
 20
266.8368745316468
 10
101.577644084288
 20
266.0939206999304
 10
98.57215097323466
 20
264.5766057919522
 10
97.79717874241764
 20
263.2385548510848
 10
98.988240716528
 20
262.09992777403755
 10
101.88085022025662
 20
261.1808844575198
 10
106.21052057829446
 20
260.50158479824097
 10
111.71276511533256
 20
260.08218869291045
 10
118.1230971560618
 20
259.94285603823755
 10
125.17703002517321
 20
260.10374673093173
 10
132.61007704735775
 20
260.5850206677023
 10
140.15775154730633
 20
261.4068377452587
 10
147.55556684970995
 20
262.58935786031026
  0
LWPOLYLINE
  5
5D
330
17
100
AcDbEntity
  8
CUT
100
AcDbPolyline
 90
34
 70
1
 10
102.84911001597452
 20
272.4931746582856
 10
104.78454058453568
 20
275.09930151591277
 10
106.06064113727119
 20
277.9581598397712
 10
106.71453879840266
 20
280.9642016582276
 10
106.78336069215176
 20
284.01187899964884
 10
106.3042339427401
 20
286.9956438924016
 10
105.31428567438934
 20
289.80994836485274
 10
103.85064301132115
 20
292.3492444453691
 10
101.95043307775717
 20
294.5079841623175
 10
99.65078299791902
 20
296.18061954406454
 10
96.98881989602839
 20
297.2616026189771
 10
94.00167089630689
 20
297.645385415422
 10
92.20266266349645
 20
297.4491448312393
 10
90.36398291975802
 20
296.8902433944672
 10
88.53009104497556
 20
296.0134115787693
 10
86.74544641903319
 20
294.8633798578096
 10
85.05450842181487
 20
293.4848787052519
 10
83.50173643320471
 20
291.92263859476
 10
82.13158983308672
 20
290.22138999999765
 10
80.98852800134497
 20
288.4258633946288
 10
80.11701031786346
 20
286.5807892523172
 10
79.56149616252628
 20
284.7308980467266
 10
79.36644491521741
 20
282.920920251521
 10
79.73701812395981
 20
279.81266772402176
 10
80.77813711165125
 20
276.9953907387221
 10
82.38390092048806
 20
274.51611582524794
 10
84.44840859266652
 20
272.42186951322526
 10
86.86575917038299
 20
270.75967833227986
 10
89.5300516958338
 20
269.5765688120379
 10
92.3353852112153
 20
268.9195674821252
 10
95.17585875872378
 20
268.8357008721677
 10
97.94557138055562
 20
269.3719955117913
 10
100.53862211890707
 20
270.57547793062196
 10
102.84911001597452
 20
272.4931746582856
  0
LWPOLYLINE
  5
5E
330
17
100
AcDbEntity
  8
CUT
100
AcDbPolyline
 90
34
 70
1
 10
625.1532869904811
 20
272.122979131327
 10
626.4239976147936
 20
273.59632519962247
 10
627.4329864333115
 20
275.1961578888147
 10
628.1807059208396
 20
276.8973359817967
 10
628.6676085521821
 20
278.6747182614611
 10
628.8941468021437
 20
280.5031635107011
 10
628.8607731455288
 20
282.35753051240926
 10
628.5679400571421
 20
284.21267804947865
 10
628.0161000117878
 20
286.04346490480214
 10
627.2057054842707
 20
287.8247498612724
 10
626.1372089493954
 20
289.53139170178247
 10
624.8110628819661
 20
291.1382492092252
 10
621.4611656907999
 20
293.8530792764738
 10
617.9433148888161
 20
295.2527736954193
 10
614.4146354173785
 20
295.48212578664555
 10
611.0322522178503
 20
294.6859288707365
 10
607.9532902315951
 20
293.00897626827594
 10
605.3348743999767
 20
290.5960612998479
 10
603.3341296643582
 20
287.5919772860361
 10
602.1081809661035
 20
284.1415175474246
 10
601.814153246576
 20
280.3894754045972
 10
602.6091714471393
 20
276.48064417813765
 10
604.6503605091567
 20
272.55981718863006
 10
605.9044092627266
 20
271.13995218604714
 10
607.4496697223504
 20
269.99251180329435
 10
609.2297282295988
 20
269.1186979972229
 10
611.1881711260414
 20
268.51971272468415
 10
613.2685847532487
 20
268.19675794252925
 10
615.4145554527906
 20
268.1510356076093
 10
617.5696695662378
 20
268.38374767677567
 10
619.6775134351603
 20
268.8960961068794
 10
621.6816734011283
 20
269.68928285477165
 10
623.5257358057117
 20
270.7645098773038
 10
625.1532869904811
 20
272.122979131327
  0
LWPOLYLINE
  5
5F
330
17
100
AcDbEntity
  8
CUT
100
AcDbPolyline
 90
78
 70
1
 10
554.6987046294031
 20
272.15043599901895
 10
560.2252015015846
 20
273.48155986884257
 10
565.8193088595253
 20
275.35705027003377
 10
571.3320959767709
 20
277.67398202815406
 10
576.6146321268659
 20
280.32942996876517
 10
581.5179865833558
 20
283.2204689174287
 10
585.8932286197852
 20
286.2441736997061
 10
589.5914275096993
 20
289.2976191411591
 10
592.4636525266434
 20
292.27788006734903
 10
594.3609729441623
 20
295.08203130383765
 10
595.1344580358012
 20
297.60714767618646
 10
594.6351770751053
 20
299.75030400995706
 10
592.9011837445443
 20
300.7795511202234
 10
588.7902711638405
 20
302.46668210124835
 10
582.7230350364769
 20
304.67831951708524
 10
575.1200710659361
 20
307.28108593178774
 10
566.4019749557013
 20
310.141603909409
 10
556.9893424092554
 20
313.1264960140027
 10
547.3027691300812
 20
316.10238480962227
 10
537.7628508216617
 20
318.93589286032085
 10
528.7901831874798
 20
321.49364273015215
 10
520.8053619310183
 20
323.6422569831695
 10
514.2289827557602
 20
325.2483581834263
 10
506.9143923375342
 20
326.6778804496812
 10
498.95184268683704
 20
327.84945779938596
 10
490.5571187096715
 20
328.7602320626446
 10
481.94600531203986
 20
329.40734506956125
 10
473.3342873999444
 20
329.78793865024005
 10
464.93774987938764
 20
329.89915463478513
 10
456.9721776563719
 20
329.73813485330055
 10
449.65335563689973
 20
329.3020211358903
 10
443.1970687269735
 20
328.5879553126588
 10
437.81910183259544
 20
327.59307921370976
 10
433.7352398597681
 20
326.31453466914763
 10
429.518834013994
 20
324.35495526162015
 10
424.1393834938746
 20
321.58576272457924
 10
417.92655468589277
 20
318.20438447421463
 10
411.21001397653146
 20
314.4082479267161
 10
404.31942775227344
 20
310.39478049827346
 10
397.5844623996019
 20
306.36140960507663
 10
391.3347843049997
 20
302.50556266331535
 10
385.9000598549499
 20
299.0246670891793
 10
381.60995543593543
 20
296.1161502988585
 10
378.7941374344392
 20
293.9774397085426
 10
377.7822722369443
 20
292.80596273442137
 10
378.0627913589418
 20
292.4335311818538
 10
378.9073407484922
 20
292.0967083595504
 10
380.32040844093177
 20
291.7952129026315
 10
382.3064824715971
 20
291.528763446218
 10
384.87005087582486
 20
291.2970786254306
 10
388.0156016889512
 20
291.09987707538977
 10
391.74762294631296
 20
290.9368774312164
 10
396.0706026832466
 20
290.8077983280309
 10
400.98902893508847
 20
290.71235840095414
 10
406.5073897371753
 20
290.65027628510654
 10
412.63017312484334
 20
290.62127061560903
 10
422.953871899169
 20
290.50064199653804
 10
432.8750152659011
 20
290.17317969919173
 10
442.4671906950569
 20
289.62865879388363
 10
451.80398565665337
 20
288.85685435092785
 10
460.95898762070794
 20
287.847541440638
 10
470.0057840572375
 20
286.5904951333277
 10
479.01796243625944
 20
285.0754904993109
 10
488.06911022779076
 20
283.2923026089011
 10
497.2328149018489
 20
281.23070653241217
 10
506.5826639284508
 20
278.88047734015794
 10
516.1922447776137
 20
276.2313901024521
 10
521.9173197499717
 20
274.6004207341177
 10
526.7433231835964
 20
273.26957989979616
 10
530.8216464105257
 20
272.2228229908665
 10
534.3036807627965
 20
271.4441053987078
 10
537.3408175724466
 20
270.91738251469906
 10
540.084448171513
 20
270.62660973021923
 10
542.6859638920334
 20
270.5557424366474
 10
545.2967560660453
 20
270.6887360253624
 10
548.0682160255859
 20
271.00954588774334
 10
551.1517351026928
 20
271.5021274151692
 10
554.6987046294031
 20
272.15043599901895
  0
LWPOLYLINE
  5
60
330
17
100
AcDbEntity
  8
CUT
100
AcDbPolyline
 90
78
 70
1
 10
196.18053521549868
 20
277.0970700368401
 10
204.6591220833831
 20
279.63431668505655
 10
212.9595700179549
 20
281.87285582428314
 10
221.17392217143964
 20
283.82534792376765
 10
229.39422169606274
 20
285.5044534527581
 10
237.71251174404992
 20
286.92283288050237
 10
246.22083546762653
 20
288.09314667624835
 10
255.01123601901818
 20
289.02805530924394
 10
264.17575655045044
 20
289.74021924873693
 10
273.80644021414884
 20
290.2422989639755
 10
283.9953301623389
 20
290.54695492420717
 10
294.83446954724616
 20
290.6668475986801
 10
301.1833388228754
 20
290.7024725986935
 10
306.9874143780916
 20
290.7713680019406
 10
312.2340834038737
 20
290.8728310312251
 10
316.9107330911999
 20
291.006158909351
 10
321.00475063104903
 20
291.170648859122
 10
324.5035232143996
 20
291.36559810334205
 10
327.3944380322302
 20
291.5903038648148
 10
329.6648822755195
 20
291.8440633663442
 10
331.30224313524604
 20
292.126173830734
 10
332.29390780238845
 20
292.43593248078804
 10
332.6272634679254
 20
292.7726365393101
 10
332.3224832342264
 20
293.24829276216366
 10
331.4375746767766
 20
294.05605029593374
 10
330.01667803092107
 20
295.1664931286031
 10
328.1039335320051
 20
296.55020524815467
 10
325.7434814153739
 20
298.17777064257126
 10
322.97946191637277
 20
300.0197732998357
 10
319.85601527034703
 20
302.0467972079308
 10
316.41728171264185
 20
304.2294263548396
 10
312.70740147860255
 20
306.53824472854467
 10
308.77051480357443
 20
308.94383631702914
 10
304.6507619229027
 20
311.4167851082757
 10
297.6739444192095
 20
315.5567867813539
 10
291.8413953555269
 20
318.94953114944843
 10
286.9101195117959
 20
321.6731566283322
 10
282.6371216679572
 20
323.80580163377806
 10
278.7794066039516
 20
325.42560458155896
 10
275.09397909971966
 20
326.61070388744776
 10
271.3378439352022
 20
327.43923796721725
 10
267.26800589034013
 20
327.98934523664053
 10
262.641469745074
 20
328.33916411149033
 10
257.2152402793448
 20
328.5668330075395
 10
250.74632227309303
 20
328.75049034056104
 10
241.45410748052674
 20
328.8819714298002
 10
232.613705545029
 20
328.75254680442555
 10
224.08100020998475
 20
328.33817955352106
 10
215.71187521877866
 20
327.6148327661707
 10
207.36221431479555
 20
326.55846953145834
 10
198.88790124142034
 20
325.1450529384681
 10
190.14481974203775
 20
323.35054607628365
 10
180.9888535600327
 20
321.1509120339892
 10
171.27588643879002
 20
318.5221139006685
 10
160.86180212169447
 20
315.4401147654056
 10
149.60248435213094
 20
311.88087771728436
 10
140.51595393351036
 20
308.9119412217061
 10
133.03379424047813
 20
306.39358178252314
 10
127.03332377000005
 20
304.24328962784654
 10
122.39186101904193
 20
302.3785549857876
 10
118.98672448456962
 20
300.71686808445776
 10
116.69523266354902
 20
299.1757191519681
 10
115.39470405294593
 20
297.67259841643
 10
114.96245714972626
 20
296.1249961059546
 10
115.2758104508558
 20
294.45040244865334
 10
116.21208245330044
 20
292.56630767263727
 10
117.648591654026
 20
290.39020200601794
 10
121.41218125504741
 20
286.1296105074387
 10
126.27419675131762
 20
282.4077934905468
 10
132.09354137745214
 20
279.24863445850826
 10
138.72911836806637
 20
276.6760169144892
 10
146.0398309577758
 20
274.71382436165544
 10
153.8845823811959
 20
273.385940303173
 10
162.12227587294223
 20
272.716248242208
 10
170.61181466763014
 20
272.7286316819261
 10
179.21210199987527
 20
273.44697412549357
 10
187.78204110429294
 20
274.8951590760762
 10
196.18053521549868
 20
277.0970700368401
  0
LWPOLYLINE
  5
61
330
17
100
AcDbEntity
  8
CUT
100
AcDbPolyline
 90
67
 70
1
 10
326.687518234435
 20
315.76087000745497
 10
319.8399935284778
 20
328.2728888505662
 10
311.7373882584633
 20
341.31214738984517
 10
302.49966150428384
 20
354.74017300105845
 10
292.24677234583146
 20
368.41849305997215
 10
281.09867986299804
 20
382.208634942353
 10
269.175343135676
 20
395.97212602396706
 10
256.5967212437572
 20
409.57049368058085
 10
243.48277326713398
 20
422.86526528796065
 10
229.9534582856982
 20
435.7179682218729
 10
216.12873537934206
 20
447.99012985808395
 10
202.12856362795773
 20
459.54327757236
 10
198.48577147023238
 20
462.37992818634905
 10
195.32204949547884
 20
464.7009658620067
 10
192.56728269374867
 20
466.52092495485505
 10
190.15135605509346
 20
467.8543398204164
 10
188.00415456956492
 20
468.7157448142127
 10
186.0555632272147
 20
469.11967429176633
 10
184.23546701809437
 20
469.0806626085993
 10
182.4737509322556
 20
468.61324412023384
 10
180.70029995975003
 20
467.73195318219206
 10
178.84499909062933
 20
466.4513241499961
 10
176.8377333149451
 20
464.7858913791681
 10
174.21761660357825
 20
461.98603067628744
 10
172.01691075241948
 20
458.61590761292325
 10
170.24335684990857
 20
454.7591570006916
 10
168.90469598448502
 20
450.4994136512088
 10
168.00866924458848
 20
445.9203123760909
 10
167.5630177186586
 20
441.10548798695436
 10
167.575482495135
 20
436.13857529541525
 10
168.05380466245737
 20
431.10320911308963
 10
169.0057253090653
 20
426.0830242515939
 10
170.43898552339843
 20
421.16165552254427
 10
172.36132639389638
 20
416.42273773755676
 10
175.95862036182217
 20
410.01801417581714
 10
180.88893277162893
 20
403.30345492655266
 10
187.17169559845672
 20
396.2639991624619
 10
194.82634081744516
 20
388.88458605624356
 10
203.87230040373413
 20
381.1501547805964
 10
214.3290063324636
 20
373.0456445082189
 10
226.21589057877327
 20
364.5559944118098
 10
239.5523851178031
 20
355.6661436640679
 10
254.35792192469287
 20
346.3610314376917
 10
270.6519329745824
 20
336.62559690537984
 10
288.45385024261157
 20
326.4447792398311
 10
291.47323218005266
 20
324.7409954267004
 10
294.60855130375785
 20
322.9518056899466
 10
297.81024667914113
 20
321.1065523784588
 10
301.0287573716162
 20
319.23457784112657
 10
304.2145224465968
 20
317.36522442683906
 10
307.31798096949666
 20
315.5278344844856
 10
310.2895720057295
 20
313.75175036295553
 10
313.07973462070925
 20
312.0663144111381
 10
315.63890787984957
 20
310.50086897792255
 10
317.9175308485643
 20
309.08475641219826
 10
319.86604259226704
 20
307.8473190628546
 10
323.39111330050446
 20
305.61929227034034
 10
326.276558491005
 20
303.9127277672423
 10
328.54192423241784
 20
302.75030082473836
 10
330.2067565933918
 20
302.1546867140065
 10
331.29060164257595
 20
302.1485607062248
 10
331.81300544861904
 20
302.75459807257124
 10
331.7935140801702
 20
303.9954740842238
 10
331.25167360587847
 20
305.89386401236044
 10
330.2070300943927
 20
308.47244312815917
 10
328.67912961436195
 20
311.753886702798
 10
326.687518234435
 20
315.76087000745497
  0
LWPOLYLINE
  5
62
330
17
100
AcDbEntity
  8
CUT
100
AcDbPolyline
 90
67
 70
1
 10
399.37815447733243
 20
313.2937786348843
 10
402.346795582054
 20
315.06203688391815
 10
405.61635633032057
 20
316.9903278995127
 10
409.1252380167084
 20
319.04328324644257
 10
412.81184193579344
 20
321.18553448948245
 10
416.6145693821519
 20
323.38171319340717
 10
420.47182165035986
 20
325.5964509229913
 10
424.3220000349935
 20
327.7943792430097
 10
428.10350583062905
 20
329.94012971823685
 10
431.7547403318426
 20
331.99833391344765
 10
435.21410483321034
 20
333.93362339341667
 10
438.42000062930833
 20
335.71062972291867
 10
459.569206256862
 20
347.96369487401273
 10
478.4623258302692
 20
360.14378527313204
 10
495.05723937037027
 20
372.20016206408184
 10
509.31182689800477
 20
384.08208639066726
 10
521.1839684340126
 20
395.7388193966933
 10
530.6315439992338
 20
407.1196222259652
 10
537.6124336145083
 20
418.17375602228805
 10
542.084517300676
 20
428.85048192946704
 10
544.0056750785767
 20
439.0990610913072
 10
543.3337869690506
 20
448.8687546516137
 10
540.0267329929372
 20
458.1088237541917
 10
539.0780041686577
 20
459.6865249573739
 10
537.8799513548952
 20
461.2727628861098
 10
536.4779048690662
 20
462.83407927642304
 10
534.917195028587
 20
464.33701586433705
 10
533.2431521508743
 20
465.7481143858752
 10
531.5011065533445
 20
467.03391657706106
 10
529.7363885534144
 20
468.1609641739181
 10
527.9943284685002
 20
469.0957989124697
 10
526.3202566160185
 20
469.80496252873945
 10
524.7595033133857
 20
470.25499675875074
 10
523.3573988780186
 20
470.41244333852705
 10
519.41312184529
 20
468.6140953833637
 10
512.5352535920774
 20
463.59477507465317
 10
503.30969920535017
 20
455.918067747565
 10
492.32236377207744
 20
446.1475587372687
 10
480.1591523792286
 20
434.84683337893375
 10
467.40597011377304
 20
422.57947700772974
 10
454.64872206268006
 20
409.90907495882595
 10
442.47331331291923
 20
397.3992125673921
 10
431.4656489514597
 20
385.61347516859763
 10
422.2116340652709
 20
375.115448097612
 10
415.29717374132224
 20
366.4687166896047
 10
409.83967973334114
 20
358.822928649736
 10
404.3203853926495
 20
350.6626968313315
 10
398.89872454853895
 20
342.2705318033358
 10
393.7341310303006
 20
333.92894413469355
 10
388.9860386672256
 20
325.92044439434915
 10
384.8138812886055
 20
318.52754315124736
 10
381.3770927237315
 20
312.03275097433277
 10
378.83510680189505
 20
306.7185784325497
 10
377.3473573523872
 20
302.8675360948429
 10
377.07327820449956
 20
300.76213453015697
 10
378.17230318752337
 20
300.6848843074364
 10
378.75171138558625
 20
301.01759347309553
 10
379.70117217719894
 20
301.5726948980248
 10
380.98722779548814
 20
302.3302947594688
 10
382.5764204735801
 20
303.27049923467195
 10
384.4352924446015
 20
304.3734145008787
 10
386.53038594167884
 20
305.6191467353336
 10
388.8282431979385
 20
306.98780211528094
 10
391.2954064465073
 20
308.4594868179652
 10
393.89841792051146
 20
310.01430702063095
 10
396.60381985307777
 20
311.63236890052247
 10
399.37815447733243
 20
313.2937786348843
  0
LWPOLYLINE
  5
63
330
17
100
AcDbEntity
  8
CUT
100
AcDbPolyline
 90
45
 70
1
 10
632.1992255782777
 20
307.612327356845
 10
629.9618034077356
 20
310.9255558635103
 10
628.57331684989
 20
314.42772303354326
 10
627.9836561797971
 20
318.01253285747185
 10
628.1427116725123
 20
321.57368932582403
 10
629.0003736030923
 20
325.00489642912765
 10
630.5065322465925
 20
328.1998581579105
 10
632.6110778780692
 20
331.0522785027007
 10
635.2639007725783
 20
333.4558614540259
 10
638.4148912051756
 20
335.30431100241424
 10
642.0139394509174
 20
336.4913311383934
 10
646.0109357848595
 20
336.91062585249136
 10
647.550320270272
 20
336.650292443963
 10
649.2204145540538
 20
335.9160116769661
 10
650.9627871171085
 20
334.7778627393829
 10
652.7190064403401
 20
333.3059248190958
 10
654.4306410046523
 20
331.5702771039873
 10
656.0392592909494
 20
329.64099878193935
 10
657.486429780135
 20
327.58816904083466
 10
658.7137209531134
 20
325.48186706855535
 10
659.6627012907883
 20
323.39217205298365
 10
660.2749392740636
 20
321.3891631820021
 10
660.4920033838434
 20
319.54291964349295
 10
660.2873605457396
 20
317.1425748668344
 10
659.7001231263862
 20
314.7662070482607
 10
658.7703277682207
 20
312.4569316402821
 10
657.5380111136793
 20
310.25786409540916
 10
656.0432098051996
 20
308.2121198661523
 10
654.3259604852186
 20
306.3628144050218
 10
652.4262997961731
 20
304.75306316452816
 10
650.3842643805004
 20
303.42598159718153
 10
648.2398908806375
 20
302.42468515549257
 10
646.0332159390214
 20
301.7922892919716
 10
643.804276198089
 20
301.57190945912896
 10
642.5212151617524
 20
301.61087523197165
 10
641.3216503325132
 20
301.73215456499133
 10
640.1929534036415
 20
301.9423204799256
 10
639.1224960684069
 20
302.24794599851225
 10
638.0976500200795
 20
302.65560414248887
 10
637.105786951929
 20
303.17186793359303
 10
636.1342785572252
 20
303.80331039356247
 10
635.1704965292384
 20
304.5565045441348
 10
634.2018125612384
 20
305.43802340704747
 10
633.2155983464949
 20
306.45444000403836
 10
632.1992255782777
 20
307.612327356845
  0
LWPOLYLINE
  5
64
330
17
100
AcDbEntity
  8
CUT
100
AcDbPolyline
 90
34
 70
1
 10
75.29742702137375
 20
310.6713515053999
 10
76.55956964909267
 20
312.3376425308003
 10
77.5692837512678
 20
313.83197186526775
 10
78.3265693278992
 20
315.1925532178984
 10
78.83142637898676
 20
316.45760029778864
 10
79.08385490453055
 20
317.6653268140345
 10
79.08385490453055
 20
318.8539464757323
 10
78.83142637898676
 20
320.0616729919782
 10
78.3265693278992
 20
321.32672007186835
 10
77.56928375126785
 20
322.6873014244991
 10
76.5595696490927
 20
324.18163075896655
 10
75.29742702137376
 20
325.847921784367
 10
73.13335911594288
 20
328.1288304403689
 10
70.82840597587308
 20
329.7293425629644
 10
68.45567856174915
 20
330.6780316111137
 10
66.08828783415575
 20
331.0034710437768
 10
63.79934475367766
 20
330.7342343199141
 10
61.66196028089962
 20
329.8988948984855
 10
59.74924537640635
 20
328.5260262384512
 10
58.1343110007826
 20
326.6442017987713
 10
56.8902681146131
 20
324.28199503840597
 10
56.090227678482606
 20
321.4679794163153
 10
55.80730065297582
 20
318.23072839145954
 10
56.09881444582007
 20
315.1532806871536
 10
56.92118047702799
 20
312.46281478692265
 10
58.19613572561238
 20
310.1896855309921
 10
59.845417170586025
 20
308.36424775958733
 10
61.790761790961675
 20
307.0168563129335
 10
63.95390656575213
 20
306.17786603125603
 10
66.25658847397015
 20
305.8776317547802
 10
68.62054449462858
 20
306.1465083237314
 10
70.96751160674012
 20
307.01485057833486
 10
73.21922678931759
 20
308.5130133588159
 10
75.29742702137375
 20
310.6713515053999
  0
LWPOLYLINE
  5
65
330
17
100
AcDbEntity
  8
CUT
100
AcDbPolyline
 90
67
 70
1
 10
606.34928510489
 20
312.61077529482077
 10
610.226108294299
 20
317.0557041495809
 10
613.5833924482645
 20
321.80446102201694
 10
616.3933078646511
 20
326.7272869977597
 10
618.6280248413236
 20
331.69442316243953
 10
620.2597136761467
 20
336.57611060168693
 10
621.2605446669853
 20
341.24259040113236
 10
621.602688111704
 20
345.56410364640624
 10
621.2583143081678
 20
349.4108914231392
 10
620.1995935542416
 20
352.6531948169616
 10
618.3986961477896
 20
355.16125491350397
 10
615.8277923866772
 20
356.8053127983967
 10
605.4503563813101
 20
360.236647828381
 10
593.5901352269219
 20
363.03639643224386
 10
580.6523542175294
 20
365.198331443575
 10
567.0422386471497
 20
366.716225695964
 10
553.1650138098008
 20
367.5838520230009
 10
539.4259049994989
 20
367.79498325827524
 10
526.230137510262
 20
367.3433922353768
 10
513.9829366361068
 20
366.2228517878954
 10
503.0895276710512
 20
364.4271347494208
 10
493.9551359091118
 20
361.95001395354274
 10
486.9849866443062
 20
358.78526223385086
 10
485.9071072881573
 20
358.1277532886551
 10
484.5362501443636
 20
357.29193320397513
 10
482.9074303828808
 20
356.29913336177515
 10
481.0556631736639
 20
355.1706851440188
 10
479.01596368666833
 20
353.9279199326703
 10
476.8233470918493
 20
352.59216910969315
 10
474.512828559162
 20
351.18476405705155
 10
472.11942325856205
 20
349.72703615670923
 10
469.6781463600043
 20
348.24031679063006
 10
467.2240130334443
 20
346.7459373407781
 10
464.7920384488373
 20
345.2652291891171
 10
460.8179635145273
 20
342.8326221319661
 10
457.6890020155732
 20
340.83565316140846
 10
455.45382986987204
 20
339.2250803501825
 10
454.1611229953209
 20
337.95166177102703
 10
453.85955730981726
 20
336.9661554966804
 10
454.5978087312581
 20
336.21931959988115
 10
456.4245531775405
 20
335.66191215336795
 10
459.3884665665618
 20
335.244691229879
 10
463.5382248162194
 20
334.918414902153
 10
468.92250384441013
 20
334.6338412429285
 10
475.58997956903136
 20
334.34172832494403
 10
483.9650280218325
 20
333.9215287944743
 10
491.65089255457855
 20
333.38230122767425
 10
498.8506042966954
 20
332.6822237175353
 10
505.7671943776089
 20
331.77947435704914
 10
512.6036939267453
 20
330.6322312392072
 10
519.5631340735304
 20
329.19867245700107
 10
526.8485459473901
 20
327.4369761034223
 10
534.6629606777508
 20
325.30532027146234
 10
543.2094093940382
 20
322.76188305411273
 10
552.6909232256781
 20
319.76484254436497
 10
563.3105333020969
 20
316.27237683521065
 10
572.6579893412347
 20
313.144620773107
 10
580.2038170349219
 20
310.6366423646891
 10
586.1862363490501
 20
308.72817460504797
 10
590.8434672495102
 20
307.39895048927485
 10
594.4137297021937
 20
306.6287030124608
 10
597.1352436729915
 20
306.39716516969696
 10
599.2462291277947
 20
306.68406995607455
 10
600.9849060324951
 20
307.4691503666845
 10
602.5894943529837
 20
308.73213939661815
 10
604.2982140551514
 20
310.4527700409665
 10
606.34928510489
 20
312.61077529482077
  0
LWPOLYLINE
  5
66
330
17
100
AcDbEntity
  8
CUT
100
AcDbPolyline
 90
34
 70
1
 10
650.238855217273
 20
308.5546512837532
 10
652.2924926778677
 20
310.4541002344223
 10
653.7209315129992
 20
312.7420710404405
 10
654.5576588833205
 20
315.2985852048478
 10
654.8361619494846
 20
318.0036642306845
 10
654.589927872144
 20
320.7373296209906
 10
653.8524438119525
 20
323.37960287880617
 10
652.6571969295627
 20
325.8105055071714
 10
651.037674385628
 20
327.91005900912637
 10
649.0273633408009
 20
329.55828488771124
 10
646.6597509557347
 20
330.63520464596604
 10
643.9683243910823
 20
331.02083978693094
 10
641.2693887580781
 20
330.66004808133897
 10
638.8780810759029
 20
329.64936795518946
 10
636.8289794026842
 20
328.0963418944218
 10
635.1566617965498
 20
326.1085123849758
 10
633.8957063156274
 20
323.7934219127908
 10
633.0806910180452
 20
321.2586129638065
 10
632.7461939619303
 20
318.6116280239625
 10
632.9267932054111
 20
315.96000957919813
 10
633.657066806615
 20
313.4113001154532
 10
634.97159282367
 20
311.07304211866705
 10
636.9049493147036
 20
309.0527780747794
 10
638.2990476882043
 20
307.9724361124871
 10
639.5715016622243
 20
307.102290803641
 10
640.750731029282
 20
306.4412804443299
 10
641.8651555818949
 20
305.98834333064246
 10
642.9431951125817
 20
305.74241775866767
 10
644.0132694138606
 20
305.7024420244942
 10
645.1037982782497
 20
305.8673544242108
 10
646.2432014982672
 20
306.2360932539062
 10
647.4598988664316
 20
306.8075968096692
 10
648.7823101752607
 20
307.5808033875886
 10
650.238855217273
 20
308.5546512837532
  0
LWPOLYLINE
  5
67
330
17
100
AcDbEntity
  8
CUT
100
AcDbPolyline
 90
67
 70
1
 10
143.59857845474366
 20
315.2025034399222
 10
153.6253892200984
 20
318.63542216468505
 10
163.537875045919
 20
321.7396521470667
 10
173.33797764800448
 20
324.5155608734266
 10
183.02763874215387
 20
326.96351583012404
 10
192.6088000441664
 20
329.08388450351816
 10
202.0834032698411
 20
330.87703437996856
 10
211.4533901349771
 20
332.34333294583433
 10
220.7207023553736
 20
333.48314768747485
 10
229.88728164682956
 20
334.2968460912494
 10
238.95506972514417
 20
334.7847956435173
 10
247.92600830611656
 20
334.94736383063787
 10
251.56386763824054
 20
334.9575405330001
 10
254.44272845147077
 20
335.0287774495352
 10
256.53217785632125
 20
335.2221347944162
 10
257.8018029633058
 20
335.598672781816
 10
258.2211908829384
 20
336.21945162590777
 10
257.75992872573295
 20
337.1455315408642
 10
256.3876036022034
 20
338.4379727408584
 10
254.07380262286358
 20
340.15783544006325
 10
250.78811289822755
 20
342.3661798526517
 10
246.50012153880925
 20
345.12406619279676
 10
241.17941565512245
 20
348.4925546746714
 10
236.02104990981007
 20
351.73532864146114
 10
231.6299720460901
 20
354.4363584940673
 10
227.84396727372044
 20
356.66117841328474
 10
224.50082080245872
 20
358.47532257990855
 10
221.43831784206282
 20
359.9443251747336
 10
218.4942436022905
 20
361.13372037855476
 10
215.50638329289956
 20
362.1090423721671
 10
212.3125221236479
 20
362.9358253363654
 10
208.75044530429318
 20
363.6796034519447
 10
204.65793804459327
 20
364.40591089969985
 10
199.87278555430595
 20
365.18028186042585
 10
189.8806274834926
 20
366.50796541396664
 10
179.5727727575871
 20
367.40435847566204
 10
169.10924158500444
 20
367.88092279331363
 10
158.65005417415944
 20
367.9491201147234
 10
148.355230733467
 20
367.62041218769315
 10
138.38479147134214
 20
366.90626076002457
 10
128.89875659619963
 20
365.8181275795194
 10
120.05714631645449
 20
364.3674743939794
 10
112.01998084052155
 20
362.56576295120635
 10
104.94728037681578
 20
360.4244549990021
 10
98.99906513375208
 20
357.9550122851684
 10
96.23205039215894
 20
356.3737981810963
 10
93.91385942358347
 20
354.57988484540004
 10
92.04429345450849
 20
352.57226691853384
 10
90.62315371141666
 20
350.3499390409518
 10
89.65024142079075
 20
347.91189585310804
 10
89.12535780911354
 20
345.25713199545675
 10
89.04830410286773
 20
342.384642108452
 10
89.41888152853609
 20
339.2934208325479
 10
90.23689131260133
 20
335.98246280819865
 10
91.50213468154624
 20
332.45076267585836
 10
93.21441286185355
 20
328.6973150759812
 10
96.28108571800294
 20
322.89832101534
 10
99.23791453912514
 20
318.12427169379356
 10
102.22242772583681
 20
314.3383317318315
 10
105.37215367875453
 20
311.50366574994337
 10
108.82462079849488
 20
309.5834383686188
 10
112.71735748567448
 20
308.54081420834734
 10
117.18789214091002
 20
308.3389578896186
 10
122.37375316481808
 20
308.9410340329221
 10
128.41246895801532
 20
310.3102072587475
 10
135.44156792111832
 20
312.4096421875843
 10
143.59857845474366
 20
315.2025034399222
  0
LWPOLYLINE
  5
68
330
17
100
AcDbEntity
  8
CUT
100
AcDbPolyline
 90
34
 70
1
 10
365.86020625568676
 20
330.3039717239346
 10
368.2947974675813
 20
334.3673486051289
 10
369.3872263148987
 20
338.43271953299734
 10
369.2914920938335
 20
342.3533912833437
 10
368.1615941005804
 20
345.9826706319722
 10
366.15153163133397
 20
349.1738643546869
 10
363.4153039822889
 20
351.7802792272919
 10
360.10691044963994
 20
353.6552220255912
 10
356.38035032958174
 20
354.6519995253889
 10
352.3896229183088
 20
354.62391850248895
 10
348.288727512016
 20
353.42428573269564
 10
344.23166340689795
 20
350.90640799181296
 10
342.80612895420245
 20
349.4900021780222
 10
341.6426669158639
 20
347.79697551343764
 10
340.7435321308388
 20
345.8821366623401
 10
340.1109794380835
 20
343.80029428901014
 10
339.74726367655444
 20
341.6062570577285
 10
339.654639685208
 20
339.35483363277604
 10
339.83536230300075
 20
337.1008326784332
 10
340.2916863688891
 20
334.89906285898087
 10
341.0258667218295
 20
332.80433283869957
 10
342.0401582007785
 20
330.8714512818702
 10
343.33681564469225
 20
329.1552268527734
 10
344.9864680421891
 20
327.6590368624185
 10
346.8892848688798
 20
326.49182405538113
 10
348.98740655284246
 20
325.6506374600407
 10
351.222973522155
 20
325.1325261047766
 10
353.5381262048952
 20
324.9345390179683
 10
355.8750050291412
 20
325.0537252279951
 10
358.17575042297096
 20
325.4871337632364
 10
360.3825028144624
 20
326.23181365207165
 10
362.43740263169354
 20
327.2848139228801
 10
364.28259030274234
 20
328.64318360404127
 10
365.86020625568676
 20
330.3039717239346
  0
LWPOLYLINE
  5
69
330
17
100
AcDbEntity
  8
CUT
100
AcDbPolyline
 90
34
 70
1
 10
63.321615310781716
 20
361.18523418150966
 10
63.29824946101401
 20
362.98842726395713
 10
62.874489042819036
 20
364.9442936436434
 10
62.104273257621124
 20
366.9844802228402
 10
61.04154130684452
 20
369.04063390381947
 10
59.740232391913516
 20
371.044401588853
 10
58.25428571425246
 20
372.9274301802125
 10
56.63764047528561
 20
374.62136658016993
 10
54.94423587643725
 20
376.05785769099697
 10
53.228011119131715
 20
377.1685504149655
 10
51.542905404793274
 20
377.88509165434726
 10
49.942857934846224
 20
378.13912831141414
 10
48.09808313978874
 20
377.91447926980993
 10
46.46773291661904
 20
377.2779996516963
 10
45.07082117889127
 20
376.28589071712156
 10
43.92636184015959
 20
374.99435372613436
 10
43.05336881397817
 20
373.45958993878315
 10
42.47085601390118
 20
371.7378006151164
 10
42.19783735348278
 20
369.8851870151825
 10
42.25332674627715
 20
367.9579503990299
 10
42.656338105838465
 20
366.01229202670714
 10
43.42588534572087
 20
364.10441315826273
 10
44.58098237947855
 20
362.2905150537451
 10
46.58991678438828
 20
360.01091797876865
 10
48.717472977946834
 20
358.1565477722552
 10
50.903760997133695
 20
356.7309366110959
 10
53.088890878928275
 20
355.73761667218196
 10
55.212972660310065
 20
355.1801201324044
 10
57.216116378258505
 20
355.06197916865455
 10
59.03843206975307
 20
355.38672595782344
 10
60.62002977177321
 20
356.15789267680225
 10
61.9010195212984
 20
357.3790115024822
 10
62.821511355308076
 20
359.0536146117542
 10
63.321615310781716
 20
361.18523418150966
  0
LWPOLYLINE
  5
6A
330
17
100
AcDbEntity
  8
CUT
100
AcDbPolyline
 90
34
 70
1
 10
663.5261355994351
 20
359.39889992099467
 10
664.915119426913
 20
360.9121930926965
 10
666.0599051752422
 20
362.42620400383777
 10
666.9598010995043
 20
363.93468660471063
 10
667.6141154547798
 20
365.4313948456071
 10
668.0221564961506
 20
366.9100826768192
 10
668.1832324786974
 20
368.36450404863893
 10
668.0966516575015
 20
369.78841291135836
 10
667.7617222876444
 20
371.17556321526945
 10
667.177752624207
 20
372.5197089106642
 10
666.3440509222705
 20
373.81460394783477
 10
665.2599254369162
 20
375.05400227707304
 10
664.1001454553054
 20
376.12637849170756
 10
662.9955720871185
 20
376.95194482912115
 10
661.92490790184
 20
377.5268051250624
 10
660.8668554689541
 20
377.84706321528
 10
659.8001173579453
 20
377.90882293552227
 10
658.7033961382982
 20
377.70818812153783
 10
657.5553943794972
 20
377.241262609075
 10
656.3348146510266
 20
376.50415023388257
 10
655.020359522371
 20
375.49295483170886
 10
653.590731563015
 20
374.2037802383025
 10
652.0246333424428
 20
372.63273028941194
 10
649.365875156046
 20
369.28161546940146
 10
647.7493418613503
 20
366.013364127155
 10
647.074581781167
 20
362.94355772554945
 10
647.2411432383063
 20
360.18777772746165
 10
648.1485745555793
 20
357.86160559576837
 10
649.696424055797
 20
356.0806227933464
 10
651.7842400617703
 20
354.9604107830725
 10
654.31157089631
 20
354.6165510278236
 10
657.1779648822267
 20
355.16462499047645
 10
660.2829703423314
 20
356.7202141339079
 10
663.5261355994351
 20
359.39889992099467
  0
LWPOLYLINE
  5
6B
330
17
100
AcDbEntity
  8
CUT
100
AcDbPolyline
 90
89
 70
1
 10
633.4971505833583
 20
369.819091289796
 10
635.054840264974
 20
372.0699307821024
 10
636.352226246692
 20
374.4401716456791
 10
637.3874151396324
 20
376.9087651405216
 10
638.1585135549144
 20
379.4546625266257
 10
638.6636281036582
 20
382.056815063987
 10
638.9008653969835
 20
384.6941740126011
 10
638.8683320460096
 20
387.3456906324636
 10
638.5641346618568
 20
389.9903161835699
 10
637.9863798556446
 20
392.6070019259159
 10
637.1331742384926
 20
395.17469911949706
 10
636.0026244215209
 20
397.6723590243091
 10
635.2673496889535
 20
399.04935514048606
 10
634.544547786295
 20
400.1875021784246
 10
633.7214235294467
 20
401.11743333395907
 10
632.6851817343098
 20
401.8697818029242
 10
631.3230272167851
 20
402.4751807811544
 10
629.5221647927742
 20
402.9642634644842
 10
627.1697992781778
 20
403.36766304874806
 10
624.1531354888973
 20
403.7160127297805
 10
620.359378240834
 20
404.03994570341615
 10
615.6757323498886
 20
404.37009516548943
 10
609.9894026319624
 20
404.73709431183477
 10
605.947120303184
 20
404.95780376826593
 10
601.7558366482116
 20
405.1169859827518
 10
597.440945425449
 20
405.21510205070365
 10
593.027840393299
 20
405.2526130675328
 10
588.5419153101656
 20
405.22998012865077
 10
584.0085639344517
 20
405.1476643294686
 10
579.453180024561
 20
405.00612676539777
 10
574.9011573388971
 20
404.80582853184944
 10
570.3778896358631
 20
404.5472307242351
 10
565.9087706738624
 20
404.230794437966
 10
561.5191942112987
 20
403.8569807684534
 10
555.2028050406778
 20
403.26134921190976
 10
549.9565924468735
 20
402.703469053546
 10
545.593684245394
 20
402.10459037743095
 10
541.927208251748
 20
401.38596326763377
 10
538.7702922814439
 20
400.4688378082232
 10
535.9360641499902
 20
399.2744640832682
 10
533.2376516728957
 20
397.7240921768376
 10
530.4881826656689
 20
395.7389721730002
 10
527.5007849438183
 20
393.2403541558251
 10
524.0885863228523
 20
390.14948820938116
 10
520.0647146182796
 20
386.38762441773724
 10
517.6973235293409
 20
384.1559515485178
 10
515.4428972891626
 20
382.01330780167166
 10
513.3262581297104
 20
379.9842945361524
 10
511.3722282829501
 20
378.09351311091393
 10
509.60562998084754
 20
376.3655648849098
 10
508.0512854553685
 20
374.82505121709397
 10
506.73401693847893
 20
373.4965734664199
 10
505.67864666214473
 20
372.40473299184134
 10
504.90999685833145
 20
371.5741311523121
 10
504.4528897590052
 20
371.0293693067859
 10
504.3321475961315
 20
370.79504881421633
 10
504.626441449129
 20
370.74894305602413
 10
505.3743699545046
 20
370.75065295651734
 10
506.54064667985676
 20
370.79752118898125
 10
508.0899851927833
 20
370.8868904267014
 10
509.98709906088266
 20
371.0161033429628
 10
512.1967018517532
 20
371.18250261105106
 10
514.6835071329929
 20
371.38343090425104
 10
517.4122284722006
 20
371.61623089584833
 10
520.347579436974
 20
371.8782452591281
 10
523.4542735949117
 20
372.1668166673757
 10
526.6970245136116
 20
372.4792877938763
 10
535.2370586553424
 20
373.06411729151034
 10
544.3695183045395
 20
373.2330611284532
 10
553.8878247694481
 20
373.0129622821052
 10
563.5853993583125
 20
372.4306637298666
 10
573.2556633793778
 20
371.51300844913766
 10
582.6920381408889
 20
370.28683941731873
 10
591.6879449510903
 20
368.77899961181015
 10
600.0368051182271
 20
367.01633201001204
 10
607.5320399505441
 20
365.0256795893248
 10
613.9670707562861
 20
362.8338853271487
 10
619.1353188436979
 20
360.46779220088405
 10
620.1331788078106
 20
360.04284955506745
 10
621.1609789721506
 20
359.8523357884103
 10
622.2292566768508
 20
359.9031119908466
 10
623.3485492620437
 20
360.20203925231056
 10
624.5293940678627
 20
360.75597866273625
 10
625.78232843444
 20
361.57179131205777
 10
627.1178897019091
 20
362.65633829020925
 10
628.5466152104025
 20
364.01648068712467
 10
630.0790423000533
 20
365.6590795927382
 10
631.7257083109943
 20
367.590996096984
 10
633.4971505833583
 20
369.819091289796
  0
LWPOLYLINE
  5
6C
330
17
100
AcDbEntity
  8
CUT
100
AcDbPolyline
 90
78
 70
1
 10
99.98069614467882
 20
364.18835465775487
 10
104.73997953176169
 20
365.8479737262736
 10
109.72557881259728
 20
367.29895215203163
 10
114.99055101951812
 20
368.5468417865548
 10
120.58795318485664
 20
369.5971944813689
 10
126.57084234094535
 20
370.4555620879995
 10
132.99227552011678
 20
371.1274964579723
 10
139.90530975470338
 20
371.61854944281316
 10
147.3630020770377
 20
371.9342728940476
 10
155.41840951945218
 20
372.08021866320144
 10
164.12458911427933
 20
372.0619386018003
 10
173.53459789385167
 20
371.88498456136983
 10
178.45165553649568
 20
371.7705408906404
 10
183.1185951898215
 20
371.68827377721533
 10
187.4849277904735
 20
371.6375437316313
 10
191.5001642750962
 20
371.61771126442494
 10
195.11381558033415
 20
371.6281368861329
 10
198.2753926428319
 20
371.66818110729184
 10
200.93440639923395
 20
371.73720443843837
 10
203.04036778618482
 20
371.83456739010893
 10
204.54278774032903
 20
371.95963047284044
 10
205.39117719831117
 20
372.1117541971694
 10
205.53504709677566
 20
372.2902990736323
 10
205.1625342037078
 20
372.6182418764232
 10
204.51163293593058
 20
373.2041347523664
 10
203.60664070334482
 20
374.02570127094396
 10
202.4718549158516
 20
375.06066500163826
 10
201.13157298335167
 20
376.2867495139315
 10
199.61009231574602
 20
377.6816783773059
 10
197.9317103229356
 20
379.2231751612438
 10
196.12072441482132
 20
380.88896343522725
 10
194.2014320013041
 20
382.6567667687386
 10
192.19813049228495
 20
384.50430873126004
 10
190.13511729766464
 20
386.4093128922738
 10
186.66455920912455
 20
389.60550396279626
 10
183.73523669658488
 20
392.2381461552827
 10
181.1992052035543
 20
394.3804872143155
 10
178.9085201735415
 20
396.1057748844771
 10
176.71523705005518
 20
397.4872569103499
 10
174.47141127660413
 20
398.59818103651605
 10
172.029098296697
 20
399.51179500755836
 10
169.24035355384257
 20
400.3013465680589
 10
165.9572324915495
 20
401.04008346260014
 10
162.03179055332657
 20
401.80125343576447
 10
157.3160831826825
 20
402.6581042321343
 10
150.77138537680003
 20
403.61463202518394
 10
143.1279338697355
 20
404.36529617289375
 10
134.70849898593215
 20
404.91204830193095
 10
125.83585104983315
 20
405.2568400389626
 10
116.83276038588168
 20
405.40162301065584
 10
108.021997318521
 20
405.34834884367785
 10
99.72633217219426
 20
405.0989691646957
 10
92.26853527134469
 20
404.65543560037645
 10
85.97137694041547
 20
404.0196997773873
 10
81.15762750384981
 20
403.19371332239535
 10
78.15005728609091
 20
402.1794278620677
 10
75.70564264536415
 20
400.3968830910185
 10
73.77714637201662
 20
398.1040590109555
 10
72.36196999787796
 20
395.38426559487027
 10
71.4575150547779
 20
392.3208128157545
 10
71.06118307454611
 20
388.9970106465997
 10
71.17037558901222
 20
385.49616906039745
 10
71.782494130006
 20
381.9015980301394
 10
72.89494022935709
 20
378.29660752881705
 10
74.50511541889519
 20
374.764507529422
 10
76.61042123044999
 20
371.3886080049459
 10
79.20825919585116
 20
368.2522189283804
 10
81.3382602709812
 20
366.01496922023114
 10
83.11481512346651
 20
364.2109751837734
 10
84.63963264644562
 20
362.82033876189183
 10
86.01442173305706
 20
361.8231618974713
 10
87.34089127643935
 20
361.19954653339653
 10
88.72075016973102
 20
360.9295946125522
 10
90.25570730607062
 20
360.9934080778232
 10
92.04747157859666
 20
361.3710888720942
 10
94.19775188044768
 20
362.04273893824995
 10
96.80825710476223
 20
362.9884602191753
 10
99.98069614467882
 20
364.18835465775487
  0
LWPOLYLINE
  5
6D
330
17
100
AcDbEntity
  8
CUT
100
AcDbPolyline
 90
56
 70
1
 10
372.02536029710643
 20
381.16639864440094
 10
372.3767750503739
 20
383.26776093319114
 10
373.5073769021009
 20
387.04235520420684
 10
375.30345154194015
 20
392.2099344801122
 10
377.65128465954473
 20
398.4902517835714
 10
380.43716194456744
 20
405.6030601372486
 10
383.54736908666143
 20
413.2681125638079
 10
386.8681917754794
 20
421.2051620859134
 10
390.2859157006745
 20
429.1339617262293
 10
393.6868265518995
 20
436.7742645074197
 10
396.9572100188074
 20
443.8458234521487
 10
399.98335179105123
 20
450.0683915830805
 10
403.25692551846305
 20
456.3732135196764
 10
406.39181192509204
 20
461.96682772972423
 10
409.40991430710585
 20
466.8725691802906
 10
412.3331359606718
 20
471.11377283844234
 10
415.1833801819574
 20
474.71377367124626
 10
417.98255026713
 20
477.69590664576896
 10
420.7525495123571
 20
480.08350672907727
 10
423.5152812138064
 20
481.8999088882379
 10
426.292648667645
 20
483.1684480903176
 10
429.1065551700405
 20
483.91245930238324
 10
431.9789040171605
 20
484.15527749150135
 10
436.19939070698206
 20
483.8625349656129
 10
439.3222452891504
 20
483.01312734411107
 10
441.36528318811054
 20
481.65028456124105
 10
442.3463198283077
 20
479.81723655124824
 10
442.283170634187
 20
477.55721324837793
 10
441.19365103019373
 20
474.9134445868754
 10
439.09557644077296
 20
471.92916050098603
 10
436.00676229037015
 20
468.6475909249549
 10
431.9450240034304
 20
465.1119657930275
 10
426.9281770043988
 20
461.3655150394491
 10
420.9740367177206
 20
457.45146859846494
 10
415.7931138506699
 20
454.1223736144448
 10
411.2370035643045
 20
450.9137338692868
 10
407.2171376079235
 20
447.708132730622
 10
403.64494773082583
 20
444.3881535660816
 10
400.4318656823106
 20
440.8363797432966
 10
397.4893232116768
 20
436.9353946298982
 10
394.72875206822334
 20
432.56778159351757
 10
392.0615840012494
 20
427.6161240017857
 10
389.399250760054
 20
421.9630052223338
 10
386.65318409393603
 20
415.4910086227929
 10
383.7348157521946
 20
408.0827175707943
 10
381.25542428717495
 20
401.6290067801856
 10
379.14717710658374
 20
396.17931428008063
 10
377.38068581658206
 20
391.6660854874042
 10
375.9265620233308
 20
388.02176581908105
 10
374.75541733299093
 20
385.17880069203613
 10
373.83786335172346
 20
383.06963552319434
 10
373.1445116856894
 20
381.62671572948045
 10
372.64597394104965
 20
380.7824867278193
 10
372.3128617239653
 20
380.46939393513577
 10
372.1157866405972
 20
380.61988276835467
 10
372.02536029710643
 20
381.16639864440094
  0
LWPOLYLINE
  5
6E
330
17
100
AcDbEntity
  8
CUT
100
AcDbPolyline
 90
78
 70
1
 10
166.21678402040058
 20
419.31773087528956
 10
165.0003232384672
 20
422.70690178340413
 10
163.94962033980818
 20
425.5055994609449
 10
162.994956509599
 20
427.7923788710861
 10
162.066612933015
 20
429.6457949770023
 10
161.09487079523157
 20
431.1444027418679
 10
160.0100112814241
 20
432.3667571288573
 10
158.74231557676805
 20
433.3914131011448
 10
157.2220648664388
 20
434.29692562190485
 10
155.37954033561184
 20
435.1618496543119
 10
153.1450231694625
 20
436.06474016154027
 10
150.44879455316612
 20
437.08415210676446
 10
145.5261606531158
 20
438.8290664252038
 10
140.50473993263446
 20
440.41329850586504
 10
135.35544263614295
 20
441.84190470471094
 10
130.04917900806188
 20
443.11994137770427
 10
124.55685929281205
 20
444.25246488080774
 10
118.84939373481426
 20
445.2445315699842
 10
112.89769257848918
 20
446.10119780119635
 10
106.67266606825761
 20
446.827519930407
 10
100.14522444854029
 20
447.4285543135789
 10
93.28627796375794
 20
447.90935730667474
 10
86.06673685833134
 20
448.27498526565745
 10
79.67467957013532
 20
448.53593797994574
 10
74.42612023581366
 20
448.7116417210643
 10
70.19049740011006
 20
448.77010445967903
 10
66.83724960776814
 20
448.6793341664556
 10
64.23581540353165
 20
448.4073388120598
 10
62.25563333214427
 20
447.92212636715743
 10
60.76614193834965
 20
447.1917048024142
 10
59.636779766891536
 20
446.18408208849604
 10
58.73698536251357
 20
444.86726619606856
 10
57.93619726995948
 20
443.20926509579766
 10
57.1038540339729
 20
441.178086758349
 10
56.039936337271214
 20
437.141755630696
 10
55.89646157362284
 20
432.9032292365265
 10
56.57711526189318
 20
428.5998981915741
 10
57.985582920947635
 20
424.36915311157213
 10
60.025550069651594
 20
420.34838461225445
 10
62.60070222687049
 20
416.67498330935456
 10
65.6147249114697
 20
413.4863398186059
 10
68.97130364231467
 20
410.91984475574225
 10
72.57412393827079
 20
409.112888736497
 10
76.32687131820347
 20
408.2028623766038
 10
80.1332313009781
 20
408.3271562917962
 10
85.05124538702843
 20
409.06067202772346
 10
90.84430031843335
 20
409.6635089801515
 10
97.31654909494992
 20
410.13397864707116
 10
104.27214471633509
 20
410.4703925264731
 10
111.5152401823459
 20
410.67106211634814
 10
118.84998849273933
 20
410.7342989146869
 10
126.0805426472725
 20
410.6584144194802
 10
133.0110556457023
 20
410.4417201287186
 10
139.44568048778586
 20
410.0825275403931
 10
145.18857017328017
 20
409.57914815249416
 10
150.04387770194222
 20
408.9298934630126
 10
152.5250546904317
 20
408.5183547456835
 10
154.94241860655205
 20
408.1194598536137
 10
157.26619610987103
 20
407.73800531887645
 10
159.46661385995597
 20
407.3787876735451
 10
161.51389851637435
 20
407.0466034496927
 10
163.37827673869387
 20
406.74624917939263
 10
165.02997518648192
 20
406.4825213947181
 10
166.43922051930605
 20
406.2602166277423
 10
167.57623939673383
 20
406.0841314105384
 10
168.4112584783327
 20
405.9590622751798
 10
168.91450442367022
 20
405.88980575373967
 10
169.2100453686794
 20
405.98327183075185
 10
169.38961590409392
 20
406.34107685516085
 10
169.45582028281893
 20
406.95025813707315
 10
169.41126275775946
 20
407.7978529865955
 10
169.25854758182047
 20
408.8708987138345
 10
169.00027900790704
 20
410.1564326288968
 10
168.63906128892427
 20
411.641492041889
 10
168.1774986777772
 20
413.3131142629178
 10
167.61819542737086
 20
415.1583366020897
 10
166.9637557906103
 20
417.1641963695114
 10
166.21678402040058
 20
419.31773087528956
  0
LWPOLYLINE
  5
6F
330
17
100
AcDbEntity
  8
CUT
100
AcDbPolyline
 90
89
 70
1
 10
597.2556740205296
 20
409.2287200951858
 10
607.1672863827306
 20
409.1002413045899
 10
615.3147185229086
 20
409.02097344727036
 10
621.9090758446931
 20
409.0136731443471
 10
627.1614637517137
 20
409.10109701694006
 10
631.2829876475997
 20
409.30600168616905
 10
634.4847529359809
 20
409.651143773154
 10
636.9778650204867
 20
410.15927989901473
 10
638.9734293047467
 20
410.8531666848712
 10
640.6825511923902
 20
411.7555607518433
 10
642.316336087047
 20
412.8892187210508
 10
644.0858893923465
 20
414.27689721361367
 10
646.7824619774098
 20
416.59006555966766
 10
649.1107997350068
 20
418.9323247145866
 10
651.0708070473659
 20
421.3033998497266
 10
652.6623882967144
 20
423.7030161364437
 10
653.8854478652806
 20
426.130898746094
 10
654.7398901352921
 20
428.5867728500336
 10
655.2256194889768
 20
431.07036361961855
 10
655.342540308563
 20
433.5813962262051
 10
655.0905569762783
 20
436.11959584114913
 10
654.4695738743507
 20
438.6846876358069
 10
653.479495385008
 20
441.2763967815344
 10
652.621248327343
 20
443.1515136149805
 10
651.8401809694502
 20
444.6866656401078
 10
651.044871009626
 20
445.9157804940489
 10
650.1438961461662
 20
446.8727858139364
 10
649.0458340773669
 20
447.591609236903
 10
647.6592625015242
 20
448.1061784000814
 10
645.892759116934
 20
448.4504209406041
 10
643.6549016218928
 20
448.6582644956039
 10
640.8542677146966
 20
448.76363670221326
 10
637.399435093641
 20
448.80046519756496
 10
633.1989814570227
 20
448.8026776187916
 10
627.5974061496497
 20
448.7076856552242
 10
621.7379231284236
 20
448.43618168014564
 10
615.6680724910614
 20
447.9949095842302
 10
609.4353943352799
 20
447.39061325815203
 10
603.0874287587959
 20
446.6300365925854
 10
596.6717158593264
 20
445.7199234782045
 10
590.2357957345882
 20
444.66701780568354
 10
583.8272084822986
 20
443.47806346569666
 10
577.4934942001739
 20
442.1598043489181
 10
571.2821929859315
 20
440.71898434602207
 10
565.240844937288
 20
439.1623473476828
 10
561.3237053716633
 20
438.09163090097655
 10
558.0976346968957
 20
437.1630012259645
 10
555.473253214016
 20
436.30672620879454
 10
553.3611812240553
 20
435.45307373561474
 10
551.6720390280444
 20
434.532311692573
 10
550.3164469270145
 20
433.4747079658173
 10
549.2050252219962
 20
432.2105304414957
 10
548.2483942140211
 20
430.67004700575603
 10
547.3571742041197
 20
428.7835255447464
 10
546.4419854933234
 20
426.48123394461476
 10
545.4134483826628
 20
423.69344009150905
 10
544.7961647971742
 20
422.00964747187265
 10
544.1765910275583
 20
420.33258631537905
 10
543.5633850571779
 20
418.68497979670525
 10
542.9652048693963
 20
417.0895510905284
 10
542.390708447576
 20
415.56902337152513
 10
541.8485537750804
 20
414.14611981437264
 10
541.3473988352724
 20
412.84356359374783
 10
540.8959016115153
 20
411.6840778843277
 10
540.5027200871722
 20
410.69038586078904
 10
540.1765122456056
 20
409.885210697809
 10
539.9259360701791
 20
409.2912755700645
 10
539.643953339933
 20
408.5807502760157
 10
539.4922397242851
 20
407.99978208579773
 10
539.4949457271954
 20
407.5442688077262
 10
539.6762218526228
 20
407.2101082501169
 10
540.0602186045269
 20
406.99319822128547
 10
540.6710864868668
 20
406.88943652954754
 10
541.532976003602
 20
406.8947209832189
 10
542.670037658692
 20
407.0049493906152
 10
544.1064219560959
 20
407.21601956005213
 10
545.8662793997734
 20
407.52382929984543
 10
547.9737604936836
 20
407.9242764183106
 10
549.7988663088353
 20
408.18911515365124
 10
552.3882510079657
 20
408.43087760108585
 10
555.6641595058707
 20
408.64750566014743
 10
559.5488367173465
 20
408.8369412303692
 10
563.9645275571887
 20
408.99712621128407
 10
568.8334769401943
 20
409.1260025024254
 10
574.0779297811587
 20
409.22151200332615
 10
579.6201309948784
 20
409.28159661351947
 10
585.3823254961494
 20
409.30419823253845
 10
591.2867581997677
 20
409.2872587599162
 10
597.2556740205296
 20
409.2287200951858
  0
LWPOLYLINE
  5
70
330
17
100
AcDbEntity
  8
CUT
100
AcDbPolyline
 90
34
 70
1
 10
35.17272878104542
 20
431.1079071120121
 10
36.50395031092834
 20
433.96786874052714
 10
37.40410697708598
 20
436.5943159715668
 10
37.86238458536527
 20
439.0094569937357
 10
37.86796894161315
 20
441.23549999563807
 10
37.41004585167656
 20
443.2946531658786
 10
36.47780112140241
 20
445.2091246930616
 10
35.060420556637666
 20
447.00112276579176
 10
33.14708996322928
 20
448.69285557267347
 10
30.726995147024162
 20
450.30653130231127
 10
27.78932191386926
 20
451.8643581433095
 10
24.323256069611517
 20
453.3885442842727
 10
19.719208597253328
 20
455.2396639859347
 10
15.993097064176812
 20
456.6529461745321
 10
13.108350902916335
 20
457.5707173795013
 10
11.028399546006298
 20
457.935304130279
 10
9.71667242598108
 20
457.68903295630196
 10
9.136598975375092
 20
456.77423038700664
 10
9.251608626722714
 20
455.13322295182974
 10
10.025130812558334
 20
452.7083371802078
 10
11.420594965416358
 20
449.4418996015775
 10
13.401430517831168
 20
445.27623674537546
 10
15.931066902337157
 20
440.15367514103826
 10
18.5003172723847
 20
435.0988292781942
 10
20.756146736282773
 20
430.96072809888364
 10
22.748361704009618
 20
427.7159569295787
 10
24.526768585543415
 20
425.34110109675163
 10
26.1411737908624
 20
423.81274592687475
 10
27.641383729944785
 20
423.1074767464203
 10
29.077204812768798
 20
423.20187888186047
 10
30.498443449312642
 20
424.07253765966743
 10
31.954906049554552
 20
425.69603840631356
 10
33.49639902347275
 20
428.048966448271
 10
35.17272878104542
 20
431.1079071120121
  0
LWPOLYLINE
  5
71
330
17
100
AcDbEntity
  8
CUT
100
AcDbPolyline
 90
45
 70
1
 10
701.2793678367132
 20
457.76516786555715
 10
700.2490666991955
 20
458.069997442588
 10
698.4406815679174
 20
457.8656208210346
 10
696.0228732495638
 20
457.2288565871533
 10
693.1643025508203
 20
456.2365233272002
 10
690.0336302783726
 20
454.96543962743164
 10
686.7995172389064
 20
453.49242407410395
 10
683.6306242391071
 20
451.8942952534733
 10
680.6956120856606
 20
450.24787175179574
 10
678.1631415852522
 20
448.6299721553279
 10
676.2018735445679
 20
447.11741505032575
 10
674.9804687702928
 20
445.7870190230457
 10
674.0204353487206
 20
444.0218591989945
 10
673.3608157108489
 20
442.1426656233453
 10
672.9945646568978
 20
440.17979213178756
 10
672.9146369870875
 20
438.16359256001067
 10
673.1139875016383
 20
436.1244207437042
 10
673.585571000771
 20
434.09263051855754
 10
674.3223422847054
 20
432.09857572026004
 10
675.3172561536624
 20
430.17261018450137
 10
676.5632674078618
 20
428.3450877469708
 10
678.0533308475242
 20
426.6463622433579
 10
679.7804012728698
 20
425.10678750935205
 10
681.0910129331284
 20
424.09440073660255
 10
682.2041314117469
 20
423.3486051799285
 10
683.182301047833
 20
422.9314465117741
 10
684.0880661804946
 20
422.9049704045835
 10
684.9839711488394
 20
423.3312225308007
 10
685.9325602919754
 20
424.27224856286995
 10
686.9963779490106
 20
425.79009417323533
 10
688.2379684590526
 20
427.94680503434097
 10
689.7198761612096
 20
430.804426818631
 10
691.5046453945891
 20
434.4250051985495
 10
693.6548204982994
 20
438.87058584654073
 10
694.914745885605
 20
441.515806480314
 10
696.0974034710482
 20
444.06495425072853
 10
697.1907635405712
 20
446.48821802161615
 10
698.1827963801163
 20
448.75578665680854
 10
699.061472275626
 20
450.83784902013747
 10
699.8147615130425
 20
452.7045939754347
 10
700.4306343783084
 20
454.32621038653207
 10
700.897061157366
 20
455.6728871172612
 10
701.2020121361577
 20
456.71481303145396
 10
701.333457600626
 20
457.422176992942
 10
701.2793678367132
 20
457.76516786555715
  0
LWPOLYLINE
  5
72
330
17
100
AcDbEntity
  8
CUT
100
AcDbPolyline
 90
89
 70
1
 10
163.242742214078
 20
448.32574559267556
 10
163.60169944270243
 20
449.7435568706365
 10
163.97028177939225
 20
451.1852310066846
 10
164.34288349421436
 20
452.62960102577955
 10
164.71389885723565
 20
454.0554999528814
 10
165.07772213852294
 20
455.4417608129496
 10
165.4287476081432
 20
456.76721663094423
 10
165.7613695361633
 20
458.0107004318249
 10
166.06998219265017
 20
459.15104524055135
 10
166.34897984767073
 20
460.16708408208353
 10
166.59275677129182
 20
461.0376499813811
 10
166.79570723358037
 20
461.7415759634039
 10
165.64153324466304
 20
464.80547008766587
 10
160.94310822812372
 20
468.3937572958688
 10
153.27096941966752
 20
472.33457423248365
 10
143.19565405499947
 20
476.4560575419815
 10
131.2876993698244
 20
480.58634386883324
 10
118.11764259984754
 20
484.5535698575096
 10
104.25602098077374
 20
488.1858721524818
 10
90.27337174830811
 20
491.31138739822063
 10
76.74023213815559
 20
493.75825223919696
 10
64.22713938602126
 20
495.3546033198818
 10
53.304630727610125
 20
495.9285772847461
 10
50.690795247894286
 20
495.9167141160923
 10
48.49348223522576
 20
495.86646433618455
 10
46.66764492672986
 20
495.76054639335416
 10
45.16823655953184
 20
495.5816787359326
 10
43.95021037075703
 20
495.3125798122512
 10
42.968519597530715
 20
494.9359680706413
 10
42.178117476978166
 20
494.43456195943435
 10
41.53395724622474
 20
493.7910799269617
 10
40.99099214239569
 20
492.98824042155456
 10
40.50417540261633
 20
492.00876189154457
 10
40.02846026401196
 20
490.8353627852628
 10
39.40634728963146
 20
488.7078743841904
 10
39.098508788916035
 20
486.4488465681792
 10
39.09840194345445
 20
484.07747636906873
 10
39.3994839348355
 20
481.6129608186984
 10
39.99521194464798
 20
479.07449694890784
 10
40.87904315448067
 20
476.4812817915364
 10
42.044434745922345
 20
473.85251237842357
 10
43.484843900561835
 20
471.20738574140887
 10
45.19372779998791
 20
468.5650989123317
 10
47.16454362578935
 20
465.94484892303154
 10
49.39074855955495
 20
463.365832805348
 10
51.249005045514544
 20
461.36839759743566
 10
52.884386749639546
 20
459.72728442472436
 10
54.44087094485639
 20
458.4007207003933
 10
56.062434904091546
 20
457.34693383762186
 10
57.89305590027141
 20
456.52415124958924
 10
60.07671120632248
 20
455.89060034947465
 10
62.757378095171134
 20
455.40450855045736
 10
66.07903383974387
 20
455.0241032657167
 10
70.18565571296713
 20
454.70761190843183
 10
75.22122098776731
 20
454.4132618917821
 10
81.32970693707088
 20
454.09928062894676
 10
88.60817946351197
 20
453.6651472196454
 10
95.70272804179318
 20
453.10794900875726
 10
102.59518304106878
 20
452.4306846903079
 10
109.26737483049307
 20
451.63635295832324
 10
115.70113377922038
 20
450.7279525068292
 10
121.87829025640495
 20
449.7084820298515
 10
127.78067463120112
 20
448.58094022141603
 10
133.39011727276318
 20
447.34832577554863
 10
138.68844855024543
 20
446.0136373862751
 10
143.65749883280213
 20
444.5798737476213
 10
148.27909848958757
 20
443.05003355361305
 10
149.8509298157174
 20
442.49435661490486
 10
151.37437727287363
 20
441.96030099644315
 10
152.83112731901926
 20
441.4540299618916
 10
154.2028664121172
 20
440.98170677491373
 10
155.47128101013044
 20
440.5494946991732
 10
156.61805757102192
 20
440.16355699833355
 10
157.62488255275449
 20
439.8300569360584
 10
158.4734424132912
 20
439.55515777601136
 10
159.145423610595
 20
439.3450227818561
 10
159.6225126026288
 20
439.20581521725603
 10
159.8863958473556
 20
439.1436983458749
 10
160.0603926988666
 20
439.2241671586341
 10
160.2765011974947
 20
439.498949752814
 10
160.5294258305651
 20
439.9535590516164
 10
160.81387108540298
 20
440.57350797824336
 10
161.1245414493336
 20
441.3443094558966
 10
161.4561414096822
 20
442.2514764077781
 10
161.80337545377398
 20
443.28052175708984
 10
162.1609480689343
 20
444.4169584270335
 10
162.52356374248822
 20
445.6462993408111
 10
162.88592696176104
 20
446.95405742162444
 10
163.242742214078
 20
448.32574559267556
  0
LWPOLYLINE
  5
73
330
17
100
AcDbEntity
  8
CUT
100
AcDbPolyline
 90
89
 70
1
 10
563.4450143408314
 20
443.79485100972914
 10
568.5579934433773
 20
445.2016178866691
 10
573.9785982523932
 20
446.52523450025296
 10
579.6669162875273
 20
447.7597538877726
 10
585.5830350684272
 20
448.8992290865196
 10
591.6870421147411
 20
449.9377131337858
 10
597.9390249461169
 20
450.8692590668629
 10
604.2990710822025
 20
451.6879199230426
 10
610.7272680426463
 20
452.38774873961665
 10
617.1837033470957
 20
452.9627985538768
 10
623.6284645151992
 20
453.4071224031147
 10
630.0216390666044
 20
453.7147733246222
 10
635.5392614723046
 20
453.930751650052
 10
640.1490876808529
 20
454.1454935796625
 10
643.9603687181652
 20
454.38241981239753
 10
647.0823556101581
 20
454.664951047201
 10
649.6242993827476
 20
455.0165079830167
 10
651.6954510618502
 20
455.4605113187885
 10
653.4050616733822
 20
456.0203817534603
 10
654.8623822432598
 20
456.7195399859759
 10
656.1766637973994
 20
457.58140671527923
 10
657.4571573617173
 20
458.6294026403141
 10
658.8131139621297
 20
459.88694846002437
 10
660.647283968488
 20
461.83950796424614
 10
662.3731226609995
 20
464.0592582865131
 10
663.9720505300975
 20
466.49892798806684
 10
665.4254880662156
 20
469.1112456301487
 10
666.7148557597872
 20
471.8489397740003
 10
667.8215741012458
 20
474.66473898086304
 10
668.7270635810253
 20
477.5113718119785
 10
669.4127446895587
 20
480.341566828588
 10
669.86003791728
 20
483.10805259193313
 10
670.0503637546224
 20
485.7635576632554
 10
669.9651426920194
 20
488.2608106037962
 10
669.7930918372844
 20
489.9248412855018
 10
669.570170556862
 20
491.285552838687
 10
669.2138492411061
 20
492.37148107737164
 10
668.6415982803703
 20
493.21116181557585
 10
667.7708880650084
 20
493.8331308673196
 10
666.5191889853743
 20
494.2659240466228
 10
664.8039714318218
 20
494.5380771675055
 10
662.5427057947045
 20
494.67812604398773
 10
659.6528624643765
 20
494.7146064900894
 10
656.0519118311913
 20
494.6760543198306
 10
651.6573242855029
 20
494.5910053472312
 10
644.9394682458473
 20
494.2795976514119
 10
637.7394059409104
 20
493.6229932531095
 10
630.146524878415
 20
492.64114171628034
 10
622.2502125660832
 20
491.3539926048809
 10
614.1398565116376
 20
489.7814954828674
 10
605.9048442228009
 20
487.94359991419634
 10
597.6345632072952
 20
485.860255462824
 10
589.4184009728432
 20
483.5514116927069
 10
581.3457450271675
 20
481.03701816780125
 10
573.5059828779903
 20
478.3370244520636
 10
565.9885020330341
 20
475.47138010945014
 10
559.6003053309764
 20
472.91398558198887
 10
554.455885255153
 20
470.84070730457427
 10
550.4423348883902
 20
469.16031121203696
 10
547.4467473135134
 20
467.7815632392078
 10
545.356215613349
 20
466.61322932091736
 10
544.0578328707232
 20
465.5640753919962
 10
543.4386921684616
 20
464.54286738727524
 10
543.3858865893906
 20
463.458371241585
 10
543.7865092163358
 20
462.2193528897563
 10
544.5276531321238
 20
460.7345782666196
 10
545.4964114195799
 20
458.9128133070058
 10
545.9513871647705
 20
457.96776140127446
 10
546.3861675580063
 20
456.9376090030163
 10
546.7958778591601
 20
455.8412293199267
 10
547.1756433281049
 20
454.6974955597014
 10
547.5205892247137
 20
453.5252809300357
 10
547.8258408088594
 20
452.3434586386253
 10
548.086523340415
 20
451.17090189316565
 10
548.2977620792536
 20
450.0264839013523
 10
548.4546822852479
 20
448.92907787088075
 10
548.5524092182711
 20
447.89755700944653
 10
548.5860681381959
 20
446.9507945247453
 10
548.6248591187075
 20
445.2361549826208
 10
548.7748361513522
 20
443.8391803643362
 10
549.086405372795
 20
442.74916473435906
 10
549.6099729197002
 20
441.95540215715704
 10
550.3959449287329
 20
441.4471866971978
 10
551.4947275365577
 20
441.2138124189491
 10
552.9567268798394
 20
441.24457338687836
 10
554.832349095243
 20
441.5287636654534
 10
557.172000319433
 20
442.05567731914175
 10
560.0260866890743
 20
442.81460841241113
 10
563.4450143408314
 20
443.79485100972914
  0
LWPOLYLINE
  5
74
330
17
100
AcDbEntity
  8
CUT
100
AcDbPolyline
 90
45
 70
1
 10
300.3322581930121
 20
458.44174380825893
 10
298.806071118514
 20
461.134131926126
 10
297.05131280966987
 20
463.7831316563419
 10
295.1163794694139
 20
466.34385717855486
 10
293.04966730068037
 20
468.77142267241317
 10
290.8995725064034
 20
471.020942317565
 10
288.7144912895175
 20
473.0475302936586
 10
286.54281985295677
 20
474.8063007803422
 10
284.43295439965556
 20
476.25236795726397
 10
282.4332911325481
 20
477.34084600407226
 10
280.5922262545686
 20
478.0268491004151
 10
278.95815596865145
 20
478.2654914259409
 10
277.10510020132864
 20
478.14637564039265
 10
275.79577586857175
 20
477.7844358816265
 10
275.03465538648277
 20
477.1727835464608
 10
274.82621117116355
 20
476.3045300317136
 10
275.17491563871613
 20
475.1727867342033
 10
276.0852412052426
 20
473.77066505074805
 10
277.5616602868448
 20
472.091276378166
 10
279.6086452996249
 20
470.12773211327533
 10
282.23066865968474
 20
467.87314365289444
 10
285.43220278312646
 20
465.3206223938413
 10
289.21772008605194
 20
462.4632797329344
 10
291.13486875164705
 20
461.05121483225776
 10
292.97840436215444
 20
459.700383699984
 10
294.7269952774475
 20
458.4260150687241
 10
296.3593098573993
 20
457.2433376710892
 10
297.85401646188313
 20
456.1675802396904
 10
299.18978345077227
 20
455.21397150713864
 10
300.3452791839399
 20
454.3977402060452
 10
301.29917202125944
 20
453.73411506902113
 10
302.030130322604
 20
453.2383248286775
 10
302.51682244784683
 20
452.92559821762535
 10
302.73791675686135
 20
452.8111639684759
 10
302.78551376993096
 20
452.86322039270095
 10
302.7684654703961
 20
453.03389084020523
 10
302.69056741271527
 20
453.314291601249
 10
302.55561515134656
 20
453.6955389660926
 10
302.36740424074856
 20
454.1687492249965
 10
302.12973023537955
 20
454.72503866822075
 10
301.84638868969785
 20
455.3555235860257
 10
301.5211751581619
 20
456.0513202686717
 10
301.15788519523005
 20
456.80354500641903
 10
300.7603143553606
 20
457.60331408952806
 10
300.3322581930121
 20
458.44174380825893
  0
LWPOLYLINE
  5
75
330
17
100
AcDbEntity
  8
CUT
100
AcDbPolyline
 90
34
 70
1
 10
436.1971668365294
 20
475.8349622469574
 10
436.27522730258715
 20
476.5834879101919
 10
435.99433089600694
 20
477.1932245724583
 10
435.3993059897755
 20
477.66274698295416
 10
434.53498095687945
 20
477.9906298908767
 10
433.4461841703058
 20
478.1754480454232
 10
432.1777440030412
 20
478.215776195791
 10
430.77448882807244
 20
478.11018909117746
 10
429.2812470183864
 20
477.8572614807798
 10
427.74284694696985
 20
477.4555681137954
 10
426.2041169868097
 20
476.9036837394215
 10
424.7098855108925
 20
476.2001831068555
 10
423.4516367083024
 20
475.3251408869398
 10
421.9047272678265
 20
473.93490597613766
 10
420.1552278015129
 20
472.1394263493353
 10
418.28920892140945
 20
470.0486499814188
 10
416.3927412395642
 20
467.7725248472744
 10
414.5518953680249
 20
465.4209989217883
 10
412.8527419188398
 20
463.10402017984643
 10
411.38135150405674
 20
460.93153659633515
 10
410.2237947357238
 20
459.01349614614065
 10
409.46614222588875
 20
457.45984680414887
 10
409.1944645865998
 20
456.3805365452461
 10
409.8007081591506
 20
456.2488674437165
 10
411.46620657918737
 20
456.9940403310788
 10
413.96111140028694
 20
458.4504580947844
 10
417.05557417602574
 20
460.4525236222848
 10
420.5197464599803
 20
462.83463980103124
 10
424.1237798057273
 20
465.4312095184752
 10
427.63782576684326
 20
468.0766356620682
 10
430.832035896905
 20
470.6053211192615
 10
433.4765617494887
 20
472.8516687775065
 10
435.3415548781714
 20
474.6500815242547
 10
436.1971668365294
 20
475.8349622469574
  0
LWPOLYLINE
  5
76
330
17
100
AcDbEntity
  8
CUT
100
AcDbPolyline
 90
34
 70
1
 10
21.3388905224031
 20
466.9227573521233
 10
22.525523942962508
 20
468.97124756499835
 10
23.4297942767674
 20
471.27832881922166
 10
24.05603063929924
 20
473.77976195603406
 10
24.40856214603948
 20
476.41130781667664
 10
24.49171791246956
 20
479.10872724239016
 10
24.309827054070944
 20
481.80778107441563
 10
23.867218686325078
 20
484.44423015399394
 10
23.168221924713418
 20
486.95383532236593
 10
22.217165884717424
 20
489.2723574207726
 10
21.018379681818526
 20
491.33555729045474
 10
19.5761924314982
 20
493.0791957726535
 10
17.091521567836786
 20
495.2602865738595
 10
14.771390759762317
 20
496.70020929357315
 10
12.639685121472327
 20
497.4208769661049
 10
10.720289767164333
 20
497.4442026257653
 10
9.037089811035877
 20
496.7920993068647
 10
7.61397036728447
 20
495.4864800437138
 10
6.474816550107654
 20
493.5492578706229
 10
5.643513473702955
 20
491.0023458219026
 10
5.143946252267889
 20
487.86765693186345
 10
5.0
 20
484.1671042348158
 10
5.2355598310968094
 20
479.9226007650702
 10
5.796536761776311
 20
476.02821767979174
 10
6.663020769710687
 20
472.5755097517359
 10
7.7933736440200265
 20
469.59809053773836
 10
9.14595717382441
 20
467.1295735946347
 10
10.679133148243913
 20
465.20357247926034
 10
12.35126335639862
 20
463.85370074845093
 10
14.12070958740861
 20
463.1135719590421
 10
15.94583363039397
 20
463.0167996678693
 10
17.784997274474797
 20
463.5969974317683
 10
19.59656230877114
 20
464.88777880757436
 10
21.3388905224031
 20
466.9227573521233
  0
LWPOLYLINE
  5
77
330
17
100
AcDbEntity
  8
CUT
100
AcDbPolyline
 90
34
 70
1
 10
702.3668623236446
 20
470.04873081581275
 10
703.4944877292171
 20
472.49883667500103
 10
704.3001244125392
 20
475.3265193853553
 10
704.7974144705032
 20
478.4090813568449
 10
705.0
 20
481.623824999439
 10
704.9215230979219
 20
484.8480527231067
 10
704.5756258611606
 20
487.95906693781717
 10
703.975950386608
 20
490.83417005353954
 10
703.1361387711561
 20
493.3506644802429
 10
702.0698331116965
 20
495.3858526278965
 10
700.7906755051213
 20
496.81703690646947
 10
699.3123080483217
 20
497.52151972593094
 10
697.5697668389022
 20
497.5943261177398
 10
695.8321893691061
 20
497.1820786269545
 10
694.1334971495027
 20
496.3312335925419
 10
692.5076116906612
 20
495.0882473534692
 10
690.9884545031513
 20
493.49957624870353
 10
689.6099470975422
 20
491.6116766172119
 10
688.4060109844032
 20
489.4710047979615
 10
687.410567674304
 20
487.1240171299193
 10
686.657538677814
 20
484.61716995205245
 10
686.1808455055022
 20
481.996919603328
 10
686.0144096679386
 20
479.30972242271315
 10
686.2285966450945
 20
475.0020466873264
 10
686.8395404804303
 20
471.30694780640835
 10
687.7998155297461
 20
468.25128465563495
 10
689.0619961488427
 20
465.86191611068267
 10
690.578656693521
 20
464.1657010472278
 10
692.3023715195816
 20
463.18949834094656
 10
694.1857149828252
 20
462.9601668675151
 10
696.1812614390527
 20
463.50456550260975
 10
698.2415852440645
 20
464.84955312190675
 10
700.3192607536616
 20
467.02198860108234
 10
702.3668623236446
 20
470.04873081581275
  0
LWPOLYLINE
  5
78
330
17
100
AcDbEntity
  8
CUT
100
AcDbPolyline
 90
56
 70
1
 10
181.45607005159766
 20
474.561447713941
 10
180.4760267193835
 20
475.7654211451642
 10
177.72672026165168
 20
478.0117036068395
 10
173.4943859867681
 20
481.11341530477415
 10
168.06525920309852
 20
484.8836764447757
 10
161.72557521900893
 20
489.1356072326514
 10
154.76156934286524
 20
493.68232787420885
 10
147.4594768830332
 20
498.3369585752554
 10
140.10553314787884
 20
502.9126195415985
 10
132.9859734457679
 20
507.2224309790453
 10
126.38703308506643
 20
511.07951309340353
 10
120.59494737414022
 20
514.2969860904805
 10
109.56986986989368
 20
519.974583796566
 10
99.56972925841836
 20
524.6247281480058
 10
90.51930935308552
 20
528.2543070981972
 10
82.34339396726641
 20
530.8702086005372
 10
74.96676691433241
 20
532.4793206084231
 10
68.3142120076548
 20
533.0885310752519
 10
62.31051306060486
 20
532.7047279544208
 10
56.880453886553966
 20
531.3347991993271
 10
51.94881829887336
 20
528.9856327633677
 10
47.440390110934395
 20
525.6641165999398
 10
43.27995313610835
 20
521.3771386624406
 10
41.045454796725686
 20
518.4196570648867
 10
39.430034644371354
 20
515.6197046910474
 10
38.423315287782124
 20
513.0034372214957
 10
38.01491933569472
 20
510.5970103368042
 10
38.194469396845896
 20
508.42657971754625
 10
38.9515880799724
 20
506.5183010442945
 10
40.27589799381097
 20
504.898329997622
 10
42.15702174709839
 20
503.59282225810165
 10
44.58458194857139
 20
502.6279335063063
 10
47.54820120696671
 20
502.02981942280894
 10
51.03750213102109
 20
501.8246356881825
 10
58.07400051542539
 20
501.5231587206703
 10
66.29628389820226
 20
500.6558876917403
 10
75.47349381808908
 20
499.2785624118025
 10
85.37477181382316
 20
497.4469226912669
 10
95.76925942414186
 20
495.21670834054333
 10
106.42609818778253
 20
492.643659170042
 10
117.11442964348257
 20
489.78351499017276
 10
127.60339532997928
 20
486.6920156113456
 10
137.66213678601002
 20
483.42490084397053
 10
147.05979555031217
 20
480.0379104984575
 10
155.56551316162304
 20
476.5867843852166
 10
159.8599269262098
 20
474.80617223431824
 10
163.80201329663416
 20
473.34205628429606
 10
167.37983295264434
 20
472.19537051054647
 10
170.5814465739885
 20
471.367048888466
 10
173.3949148404148
 20
470.8580253934511
 10
175.80829843167152
 20
470.66923400089826
 10
177.80965802750677
 20
470.80160868620396
 10
179.38705430766882
 20
471.2560834247646
 10
180.5285479519059
 20
472.03359219197665
 10
181.2221996399661
 20
473.1350689632366
 10
181.45607005159766
 20
474.561447713941
  0
LWPOLYLINE
  5
79
330
17
100
AcDbEntity
  8
CUT
100
AcDbPolyline
 90
67
 70
1
 10
588.832939586192
 20
488.9238585487098
 10
594.237001982189
 20
490.42193976999323
 10
599.8335639006948
 20
491.8558408718367
 10
605.5942417171159
 20
493.220313705653
 10
611.4906518068582
 20
494.51011012285534
 10
617.4944105453274
 20
495.71998197485647
 10
623.57713430793
 20
496.8446811130694
 10
629.7104394700718
 20
497.87895938890716
 10
635.8659424071592
 20
498.81756865378253
 10
642.015259494598
 20
499.6552607591086
 10
648.1300071077945
 20
500.38678755629826
 10
654.1818016221548
 20
501.0069008967644
 10
658.4026145605935
 20
501.47173534441856
 10
661.9796904070787
 20
502.0336243650517
 10
664.9443422522946
 20
502.72225559528835
 10
667.3278831869264
 20
503.5673166717529
 10
669.1616263016583
 20
504.5984952310696
 10
670.4768846871754
 20
505.84547890986295
 10
671.304971434162
 20
507.3379553447573
 10
671.6771996333032
 20
509.1056121723769
 10
671.6248823752833
 20
511.17813702934643
 10
671.1793327507874
 20
513.58521755229
 10
670.3718638504998
 20
516.356541377832
 10
666.9127917183032
 20
523.2505981717392
 10
661.7500010245958
 20
528.1943797932064
 10
654.9117041306523
 20
531.1946164119481
 10
646.4261133977463
 20
532.2580381976788
 10
636.3214411871519
 20
531.3913753201135
 10
624.625899860143
 20
528.6013579489668
 10
611.3677017779936
 20
523.894716253953
 10
596.5750593019777
 20
517.278180404787
 10
580.2761847933697
 20
508.75848057118344
 10
562.499290613443
 20
498.3423469228569
 10
543.2725891234719
 20
486.0365096295222
 10
539.2705168510588
 20
483.37233004794865
 10
536.0223261928845
 20
481.1763813654992
 10
533.4829853680677
 20
479.3861425977958
 10
531.6074625957272
 20
477.93909276046054
 10
530.3507260949816
 20
476.7727108691154
 10
529.6677440849501
 20
475.8244759393822
 10
529.5134847847511
 20
475.0318669868832
 10
529.8429164135035
 20
474.33236302724026
 10
530.6110071903263
 20
473.6634430760753
 10
531.772725334338
 20
472.9625861490105
 10
533.2830390646576
 20
472.1672712616677
 10
534.7909811848214
 20
471.40832260600087
 10
536.1228850975159
 20
470.82539852067936
 10
537.3702413741927
 20
470.4361593439268
 10
538.6245405863029
 20
470.25826541396674
 10
539.9772733052982
 20
470.30937706902256
 10
541.5199301026299
 20
470.60715464731777
 10
543.3440015497496
 20
471.16925848707587
 10
545.5409782181085
 20
472.01334892652045
 10
548.2023506791584
 20
473.15708630387485
 10
551.4196095043503
 20
474.6181309573628
 10
555.284245265136
 20
476.4141432252075
 10
557.8150909257139
 20
477.5612358741559
 10
560.6085391873033
 20
478.76557138878167
 10
563.6116582256564
 20
480.0074124271021
 10
566.7715162165248
 20
481.267021647134
 10
570.0351813356604
 20
482.5246617068945
 10
573.349721758815
 20
483.76059526440054
 10
576.6622056617407
 20
484.9550849776692
 10
579.9197012201893
 20
486.08839350471743
 10
583.0692766099128
 20
487.14078350356226
 10
586.0580000066631
 20
488.09251763222073
 10
588.832939586192
 20
488.9238585487098
  0
LWPOLYLINE
  5
7A
330
17
100
AcDbEntity
  8
CUT
100
AcDbPolyline
 90
34
 70
1
 10
17.672804753902838
 20
507.16237027300775
 10
20.396663155176128
 20
510.3239646894571
 10
22.843176919664216
 20
514.0021903436061
 10
24.975260899104683
 20
518.0377178533913
 10
26.75582994523505
 20
522.2712178367492
 10
28.147798909792886
 20
526.5433609116163
 10
29.114082644515758
 20
530.6948176959293
 10
29.6175960011412
 20
534.5662588076244
 10
29.621253831406793
 20
537.9983548646386
 10
29.087970987050074
 20
540.831776484908
 10
27.980662319808623
 20
542.9071942863694
 10
26.26224268141997
 20
544.0652788869593
 10
23.73612354281235
 20
544.4476759009901
 10
21.20312198694064
 20
544.0503248250683
 10
18.713624676392463
 20
542.9424209919875
 10
16.318018273755445
 20
541.193159734542
 10
14.066689441617205
 20
538.8717363855259
 10
12.01002484256539
 20
536.0473462777333
 10
10.198411139187606
 20
532.789184743958
 10
8.682234994071493
 20
529.1664471169945
 10
7.5118830698046715
 20
525.2483287296365
 10
6.737742028974774
 20
521.1040249146782
 10
6.410198534169427
 20
516.8027310049138
 10
6.450502796919762
 20
513.450755737382
 10
6.7103615631183535
 20
510.57434547273283
 10
7.182161266945959
 20
508.18001713249623
 10
7.858288342583336
 20
506.2742876382015
 10
8.731129224211259
 20
504.8636739113785
 10
9.793070346010474
 20
503.9546928735569
 10
11.036498142161765
 20
503.55386144626635
 10
12.45379904684588
 20
503.66769655103644
 10
14.03735949424359
 20
504.3027151093969
 10
15.779565918535658
 20
505.46543404287746
 10
17.672804753902838
 20
507.16237027300775
  0
LWPOLYLINE
  5
7B
330
17
100
AcDbEntity
  8
CUT
100
AcDbPolyline
 90
34
 70
1
 10
702.4920897976745
 20
506.8933609730671
 10
703.4216694395587
 20
510.14874900259224
 10
703.8742345105775
 20
513.7073580987205
 10
703.880269111501
 20
517.4692532818561
 10
703.4702573430992
 20
521.3344995724028
 10
702.6746833061421
 20
525.2031619907649
 10
701.5240311013999
 20
528.9753055573462
 10
700.0487848296426
 20
532.5509952925509
 10
698.2794285916407
 20
535.8302962167827
 10
696.2464464881638
 20
538.713273350446
 10
693.9803226199823
 20
541.0999917139445
 10
691.5115410878661
 20
542.8905163276826
 10
687.8404846679404
 20
544.4668940591247
 10
684.8943007406133
 20
544.6957070291053
 10
682.6743081414692
 20
543.7227363878542
 10
681.1818257060921
 20
541.6937632856009
 10
680.418172270066
 20
538.754568872575
 10
680.3846666689751
 20
535.0509342990064
 10
681.0826277384036
 20
530.7286407151246
 10
682.5133743139355
 20
525.9334692711594
 10
684.6782252311548
 20
520.8112011173404
 10
687.578499325646
 20
515.5076174038974
 10
691.2155154329928
 20
510.1684992810598
 10
692.6165803505703
 20
508.4178467155997
 10
693.9590378946726
 20
506.95296211843413
 10
695.2373624035571
 20
505.77545034808355
 10
696.4460282154811
 20
504.8869162630683
 10
697.5795096687019
 20
504.2889647219088
 10
698.6322811014771
 20
503.9832005831256
 10
699.5988168520638
 20
503.97122870523896
 10
700.4735912587196
 20
504.2546539467694
 10
701.2510786597016
 20
504.8350811662373
 10
701.9257533932675
 20
505.714115222163
 10
702.4920897976745
 20
506.8933609730671
  0
ENDSEC
  0
SECTION
  2
OBJECTS
  0
DICTIONARY
  5
A
330
0
100
AcDbDictionary
281
1
  3
ACAD_COLOR
350
B
  3
ACAD_GROUP
350
C
  3
ACAD_LAYOUT
350
D
  3
ACAD_MATERIAL
350
E
  3
ACAD_MLEADERSTYLE
350
F
  3
ACAD_MLINESTYLE
350
10
  3
ACAD_PLOTSETTINGS
350
11
  3
ACAD_PLOTSTYLENAME
350
12
  3
ACAD_SCALELIST
350
14
  3
ACAD_TABLESTYLE
350
15
  3
ACAD_VISUALSTYLE
350
16
  3
EZDXF_META
350
2D
  0
DICTIONARY
  5
B
330
A
100
AcDbDictionary
281
1
  0
DICTIONARY
  5
C
330
A
100
AcDbDictionary
281
1
  0
DICTIONARY
  5
D
330
A
100
AcDbDictionary
281
1
  3
Model
350
1A
  3
Layout1
350
1E
  0
DICTIONARY
  5
E
330
A
100
AcDbDictionary
281
1
  3
ByBlock
350
1F
  3
ByLayer
350
20
  3
Global
350
21
  0
DICTIONARY
  5
F
330
A
100
AcDbDictionary
281
1
  3
Standard
350
2C
  0
DICTIONARY
  5
10
330
A
100
AcDbDictionary
281
1
  3
Standard
350
22
  0
DICTIONARY
  5
11
330
A
100
AcDbDictionary
281
1
  0
ACDBDICTIONARYWDFLT
  5
12
330
A
100
AcDbDictionary
281
1
  3
Normal
350
13
100
AcDbDictionaryWithDefault
340
13
  0
ACDBPLACEHOLDER
  5
13
330
12
  0
DICTIONARY
  5
14
330
A
100
AcDbDictionary
281
1
  0
DICTIONARY
  5
15
330
A
100
AcDbDictionary
281
1
  0
DICTIONARY
  5
16
330
A
100
AcDbDictionary
281
1
  0
LAYOUT
  5
1A
330
D
100
AcDbPlotSettings
  1

  4
A3
  6

 40
7.5
 41
20.0
 42
7.5
 43
20.0
 44
420.0
 45
297.0
 46
0.0
 47
0.0
 48
0.0
 49
0.0
140
0.0
141
0.0
142
1.0
143
1.0
 70
1024
 72
1
 73
0
 74
5
  7

 75
16
 76
0
 77
2
 78
300
147
1.0
148
0.0
149
0.0
100
AcDbLayout
  1
Model
 70
1
 71
0
 10
0.0
 20
0.0
 11
420.0
 21
297.0
 12
0.0
 22
0.0
 32
0.0
 14
1e+20
 24
1e+20
 34
1e+20
 15
-1e+20
 25
-1e+20
 35
-1e+20
146
0.0
 13
0.0
 23
0.0
 33
0.0
 16
1.0
 26
0.0
 36
0.0
 17
0.0
 27
1.0
 37
0.0
 76
1
330
17
  0
LAYOUT
  5
1E
330
D
100
AcDbPlotSettings
  1

  4
A3
  6

 40
7.5
 41
20.0
 42
7.5
 43
20.0
 44
420.0
 45
297.0
 46
0.0
 47
0.0
 48
0.0
 49
0.0
140
0.0
141
0.0
142
1.0
143
1.0
 70
0
 72
1
 73
0
 74
5
  7

 75
16
 76
0
 77
2
 78
300
147
1.0
148
0.0
149
0.0
100
AcDbLayout
  1
Layout1
 70
1
 71
1
 10
0.0
 20
0.0
 11
420.0
 21
297.0
 12
0.0
 22
0.0
 32
0.0
 14
1e+20
 24
1e+20
 34
1e+20
 15
-1e+20
 25
-1e+20
 35
-1e+20
146
0.0
 13
0.0
 23
0.0
 33
0.0
 16
1.0
 26
0.0
 36
0.0
 17
0.0
 27
1.0
 37
0.0
 76
1
330
1B
  0
MATERIAL
  5
1F
102
{ACAD_REACTORS
330
E
102
}
330
E
100
AcDbMaterial
  1
ByBlock
  2

 70
0
 40
1.0
 71
1
 41
1.0
 91
-1023410177
 42
1.0
 72
1
  3

 73
1
 74
1
 75
1
 44
0.5
 73
0
 45
1.0
 46
1.0
 77
1
  4

 78
1
 79
1
170
1
 48
1.0
171
1
  6

172
1
173
1
174
1
140
1.0
141
1.0
175
1
  7

176
1
177
1
178
1
143
1.0
179
1
  8

270
1
271
1
272
1
145
1.0
146
1.0
273
1
  9

274
1
275
1
276
1
 42
1.0
 72
1
  3

 73
1
 74
1
 75
1
 94
63
  0
MATERIAL
  5
20
102
{ACAD_REACTORS
330
E
102
}
330
E
100
AcDbMaterial
  1
ByLayer
  2

 70
0
 40
1.0
 71
1
 41
1.0
 91
-1023410177
 42
1.0
 72
1
  3

 73
1
 74
1
 75
1
 44
0.5
 73
0
 45
1.0
 46
1.0
 77
1
  4

 78
1
 79
1
170
1
 48
1.0
171
1
  6

172
1
173
1
174
1
140
1.0
141
1.0
175
1
  7

176
1
177
1
178
1
143
1.0
179
1
  8

270
1
271
1
272
1
145
1.0
146
1.0
273
1
  9

274
1
275
1
276
1
 42
1.0
 72
1
  3

 73
1
 74
1
 75
1
 94
63
  0
MATERIAL
  5
21
102
{ACAD_REACTORS
330
E
102
}
330
E
100
AcDbMaterial
  1
Global
  2

 70
0
 40
1.0
 71
1
 41
1.0
 91
-1023410177
 42
1.0
 72
1
  3

 73
1
 74
1
 75
1
 44
0.5
 73
0
 45
1.0
 46
1.0
 77
1
  4

 78
1
 79
1
170
1
 48
1.0
171
1
  6

172
1
173
1
174
1
140
1.0
141
1.0
175
1
  7

176
1
177
1
178
1
143
1.0
179
1
  8

270
1
271
1
272
1
145
1.0
146
1.0
273
1
  9

274
1
275
1
276
1
 42
1.0
 72
1
  3

 73
1
 74
1
 75
1
 94
63
  0
MLINESTYLE
  5
22
102
{ACAD_REACTORS
330
10
102
}
330
10
100
AcDbMlineStyle
  2
Standard
 70
0
  3

 62
256
 51
90.0
 52
90.0
 71
2
 49
0.5
 62
256
  6
BYLAYER
 49
-0.5
 62
256
  6
BYLAYER
  0
MLEADERSTYLE
  5
2C
102
{ACAD_REACTORS
330
F
102
}
330
F
100
AcDbMLeaderStyle
179
2
170
2
171
1
172
0
 90
2
 40
0.0
 41
0.0
173
1
 91
-1056964608
 92
-2
290
1
 42
2.0
291
1
 43
8.0
  3
Standard
 44
4.0
300

342
29
174
1
175
1
176
0
178
1
 93
-1056964608
 45
4.0
292
0
297
0
 46
4.0
 94
-1056964608
 47
1.0
 49
1.0
140
1.0
294
1
141
0.0
177
0
142
1.0
295
0
296
0
143
3.75
271
0
272
9
273
9
  0
DICTIONARY
  5
2D
330
A
100
AcDbDictionary
280
1
281
1
  3
CREATED_BY_EZDXF
350
2E
  3
WRITTEN_BY_EZDXF
350
7E
  0
DICTIONARYVAR
  5
2E
330
2D
100
DictionaryVariables
280
0
  1
1.4.3 @ 2026-09-12T12:12:31.857659+00:00
  0
DICTIONARYVAR
  5
7E
330
2D
100
DictionaryVariables
280
0
  1
1.4.3 @ 2026-09-12T12:12:31.909592+00:00
  0
ENDSEC
  0
EOF
