  0
SECTION
  2
HEADER
  9
$ACADVER
  1
AC1024
  9
$ACADMAINTVER
 70
6
  9
$DWGCODEPAGE
  3
ANSI_1252
  9
$LASTSAVEDBY
  1
ezdxf
  9
$INSBASE
 10
0.0
 20
0.0
 30
0.0
  9
$EXTMIN
 10
1e+20
 20
1e+20
 30
1e+20
  9
$EXTMAX
 10
-1e+20
 20
-1e+20
 30
-1e+20
  9
$LIMMIN
 10
0.0
 20
0.0
  9
$LIMMAX
 10
420.0
 20
297.0
  9
$ORTHOMODE
 70
0
  9
$REGENMODE
 70
1
  9
$FILLMODE
 70
1
  9
$QTEXTMODE
 70
0
  9
$MIRRTEXT
 70
1
  9
$LTSCALE
 40
1.0
  9
$ATTMODE
 70
1
  9
$TEXTSIZE
 40
2.5
  9
$TRACEWID
 40
1.0
  9
$TEXTSTYLE
  7
Standard
  9
$CLAYER
  8
0
  9
$CELTYPE
  6
ByLayer
  9
$CECOLOR
 62
256
  9
$CELTSCALE
 40
1.0
  9
$DISPSILH
 70
0
  9
$DIMSCALE
 40
1.0
  9
$DIMASZ
 40
2.5
  9
$DIMEXO
 40
0.625
  9
$DIMDLI
 40
3.75
  9
$DIMRND
 40
0.0
  9
$DIMDLE
 40
0.0
  9
$DIMEXE
 40
1.25
  9
$DIMTP
 40
0.0
  9
$DIMTM
 40
0.0
  9
$DIMTXT
 40
2.5
  9
$DIMCEN
 40
2.5
  9
$DIMTSZ
 40
0.0
  9
$DIMTOL
 70
0
  9
$DIMLIM
 70
0
  9
$DIMTIH
 70
0
  9
$DIMTOH
 70
0
  9
$DIMSE1
 70
0
  9
$DIMSE2
 70
0
  9
$DIMTAD
 70
1
  9
$DIMZIN
 70
8
  9
$DIMBLK
  1

  9
$DIMASO
 70
1
  9
$DIMSHO
 70
1
  9
$DIMPOST
  1

  9
$DIMAPOST
  1

  9
$DIMALT
 70
0
  9
$DIMALTD
 70
3
  9
$DIMALTF
 40
0.03937007874
  9
$DIMLFAC
 40
1.0
  9
$DIMTOFL
 70
1
  9
$DIMTVP
 40
0.0
  9
$DIMTIX
 70
0
  9
$DIMSOXD
 70
0
  9
$DIMSAH
 70
0
  9
$DIMBLK1
  1

  9
$DIMBLK2
  1

  9
$DIMSTYLE
  2
ISO-25
  9
$DIMCLRD
 70
0
  9
$DIMCLRE
 70
0
  9
$DIMCLRT
 70
0
  9
$DIMTFAC
 40
1.0
  9
$DIMGAP
 40
0.625
  9
$DIMJUST
 70
0
  9
$DIMSD1
 70
0
  9
$DIMSD2
 70
0
  9
$DIMTOLJ
 70
0
  9
$DIMTZIN
 70
8
  9
$DIMALTZ
 70
0
  9
$DIMALTTZ
 70
0
  9
$DIMUPT
 70
0
  9
$DIMDEC
 70
2
  9
$DIMTDEC
 70
2
  9
$DIMALTU
 70
2
  9
$DIMALTTD
 70
3
  9
$DIMTXSTY
  7
Standard
  9
$DIMAUNIT
 70
0
  9
$DIMADEC
 70
0
  9
$DIMALTRND
 40
0.0
  9
$DIMAZIN
 70
0
  9
$DIMDSEP
 70
44
  9
$DIMATFIT
 70
3
  9
$DIMFRAC
 70
0
  9
$DIMLDRBLK
  1

  9
$DIMLUNIT
 70
2
  9
$DIMLWD
 70
-2
  9
$DIMLWE
 70
-2
  9
$DIMTMOVE
 70
0
  9
$DIMFXL
 40
1.0
  9
$DIMFXLON
 70
0
  9
$DIMJOGANG
 40
0.785398163397
  9
$DIMTFILL
 70
0
  9
$DIMTFILLCLR
 70
0
  9
$DIMARCSYM
 70
0
  9
$DIMLTYPE
  6

  9
$DIMLTEX1
  6

  9
$DIMLTEX2
  6

  9
$DIMTXTDIRECTION
 70
0
  9
$LUNITS
 70
2
  9
$LUPREC
 70
4
  9
$SKETCHINC
 40
1.0
  9
$FILLETRAD
 40
10.0
  9
$AUNITS
 70
0
  9
$AUPREC
 70
2
  9
$MENU
  1
.
  9
$ELEVATION
 40
0.0
  9
$PELEVATION
 40
0.0
  9
$THICKNESS
 40
0.0
  9
$LIMCHECK
 70
0
  9
$CHAMFERA
 40
0.0
  9
$CHAMFERB
 40
0.0
  9
$CHAMFERC
 40
0.0
  9
$CHAMFERD
 40
0.0
  9
$SKPOLY
 70
0
  9
$TDCREATE
 40
2461283.0416782405
  9
$TDUCREATE
 40
2458532.153996898
  9
$TDUPDATE
 40
2461283.041689815
  9
$TDUUPDATE
 40
2458532.1544311
  9
$TDINDWG
 40
0.0
  9
$TDUSRTIMER
 40
0.0
  9
$USRTIMER
 70
1
  9
$ANGBASE
 50
0.0
  9
$ANGDIR
 70
0
  9
$PDMODE
 70
0
  9
$PDSIZE
 40
0.0
  9
$PLINEWID
 40
0.0
  9
$SPLFRAME
 70
0
  9
$SPLINETYPE
 70
6
  9
$SPLINESEGS
 70
8
  9
$HANDSEED
  5
4B
  9
$SURFTAB1
 70
6
  9
$SURFTAB2
 70
6
  9
$SURFTYPE
 70
6
  9
$SURFU
 70
6
  9
$SURFV
 70
6
  9
$UCSBASE
  2

  9
$UCSNAME
  2

  9
$UCSORG
 10
0.0
 20
0.0
 30
0.0
  9
$UCSXDIR
 10
1.0
 20
0.0
 30
0.0
  9
$UCSYDIR
 10
0.0
 20
1.0
 30
0.0
  9
$UCSORTHOREF
  2

  9
$UCSORTHOVIEW
 70
0
  9
$UCSORGTOP
 10
0.0
 20
0.0
 30
0.0
  9
$UCSORGBOTTOM
 10
0.0
 20
0.0
 30
0.0
  9
$UCSORGLEFT
 10
0.0
 20
0.0
 30
0.0
  9
$UCSORGRIGHT
 10
0.0
 20
0.0
 30
0.0
  9
$UCSORGFRONT
 10
0.0
 20
0.0
 30
0.0
  9
$UCSORGBACK
 10
0.0
 20
0.0
 30
0.0
  9
$PUCSBASE
  2

  9
$PUCSNAME
  2

  9
$PUCSORG
 10
0.0
 20
0.0
 30
0.0
  9
$PUCSXDIR
 10
1.0
 20
0.0
 30
0.0
  9
$PUCSYDIR
 10
0.0
 20
1.0
 30
0.0
  9
$PUCSORTHOREF
  2

  9
$PUCSORTHOVIEW
 70
0
  9
$PUCSORGTOP
 10
0.0
 20
0.0
 30
0.0
  9
$PUCSORGBOTTOM
 10
0.0
 20
0.0
 30
0.0
  9
$PUCSORGLEFT
 10
0.0
 20
0.0
 30
0.0
  9
$PUCSORGRIGHT
 10
0.0
 20
0.0
 30
0.0
  9
$PUCSORGFRONT
 10
0.0
 20
0.0
 30
0.0
  9
$PUCSORGBACK
 10
0.0
 20
0.0
 30
0.0
  9
$USERI1
 70
0
  9
$USERI2
 70
0
  9
$USERI3
 70
0
  9
$USERI4
 70
0
  9
$USERI5
 70
0
  9
$USERR1
 40
0.0
  9
$USERR2
 40
0.0
  9
$USERR3
 40
0.0
  9
$USERR4
 40
0.0
  9
$USERR5
 40
0.0
  9
$WORLDVIEW
 70
1
  9
$SHADEDGE
 70
3
  9
$SHADEDIF
 70
70
  9
$TILEMODE
 70
1
  9
$MAXACTVP
 70
64
  9
$PINSBASE
 10
0.0
 20
0.0
 30
0.0
  9
$PLIMCHECK
 70
0
  9
$PEXTMIN
 10
1e+20
 20
1e+20
 30
1e+20
  9
$PEXTMAX
 10
-1e+20
 20
-1e+20
 30
-1e+20
  9
$PLIMMIN
 10
0.0
 20
0.0
  9
$PLIMMAX
 10
420.0
 20
297.0
  9
$UNITMODE
 70
0
  9
$VISRETAIN
 70
1
  9
$PLINEGEN
 70
0
  9
$PSLTSCALE
 70
1
  9
$TREEDEPTH
 70
3020
  9
$CMLSTYLE
  2
Standard
  9
$CMLJUST
 70
0
  9
$CMLSCALE
 40
20.0
  9
$PROXYGRAPHICS
 70
1
  9
$MEASUREMENT
 70
1
  9
$CELWEIGHT
370
-1
  9
$ENDCAPS
280
0
  9
$JOINSTYLE
280
0
  9
$LWDISPLAY
290
0
  9
$INSUNITS
 70
6
  9
$HYPERLINKBASE
  1

  9
$STYLESHEET
  1

  9
$XEDIT
290
1
  9
$CEPSNTYPE
380
0
  9
$PSTYLEMODE
290
1
  9
$FINGERPRINTGUID
  2
{7A6A2FC0-9A2C-4FF1-ACDD-279FA86474EC}
  9
$VERSIONGUID
  2
{0909DB63-7F87-4911-AB5A-BBA60C8D98D3}
  9
$EXTNAMES
290
1
  9
$PSVPSCALE
 40
0.0
  9
$OLESTARTUP
290
0
  9
$SORTENTS
280
127
  9
$INDEXCTL
280
0
  9
$HIDETEXT
280
1
  9
$XCLIPFRAME
280
1
  9
$HALOGAP
280
0
  9
$OBSCOLOR
 70
257
  9
$OBSLTYPE
280
0
  9
$INTERSECTIONDISPLAY
280
0
  9
$INTERSECTIONCOLOR
 70
257
  9
$DIMASSOC
280
2
  9
$PROJECTNAME
  1

  9
$CAMERADISPLAY
290
0
  9
$LENSLENGTH
 40
50.0
  9
$CAMERAHEIGHT
 40
0.0
  9
$STEPSPERSEC
 40
24.0
  9
$STEPSIZE
 40
100.0
  9
$3DDWFPREC
 40
2.0
  9
$PSOLWIDTH
 40
0.005
  9
$PSOLHEIGHT
 40
0.08
  9
$LOFTANG1
 40
1.570796326795
  9
$LOFTANG2
 40
1.570796326795
  9
$LOFTMAG1
 40
0.0
  9
$LOFTMAG2
 40
0.0
  9
$LOFTPARAM
 70
7
  9
$LOFTNORMALS
280
1
  9
$LATITUDE
 40
37.795
  9
$LONGITUDE
 40
-122.394
  9
$NORTHDIRECTION
 40
0.0
  9
$TIMEZONE
 70
-8000
  9
$LIGHTGLYPHDISPLAY
280
1
  9
$TILEMODELIGHTSYNCH
280
1
  9
$CMATERIAL
347
20
  9
$SOLIDHIST
280
0
  9
$SHOWHIST
280
1
  9
$DWFFRAME
280
2
  9
$DGNFRAME
280
2
  9
$REALWORLDSCALE
290
1
  9
$INTERFERECOLOR
 62
256
  9
$CSHADOW
280
0
  9
$SHADOWPLANELOCATION
 40
0.0
  0
ENDSEC
  0
SECTION
  2
CLASSES
  0
CLASS
  1
ACDBDICTIONARYWDFLT
  2
AcDbDictionaryWithDefault
  3
ObjectDBX Classes
 90
0
 91
0
280
0
281
0
  0
CLASS
  1
SUN
  2
AcDbSun
  3
SCENEOE
 90
1153
 91
0
280
0
281
0
  0
CLASS
  1
VISUALSTYLE
  2
AcDbVisualStyle
  3
ObjectDBX Classes
 90
4095
 91
0
280
0
281
0
  0
CLASS
  1
MATERIAL
  2
AcDbMaterial
  3
ObjectDBX Classes
 90
1153
 91
0
280
0
281
0
  0
CLASS
  1
SCALE
  2
AcDbScale
  3
ObjectDBX Classes
 90
1153
 91
0
280
0
281
0
  0
CLASS
  1
TABLESTYLE
  2
AcDbTableStyle
  3
ObjectDBX Classes
 90
4095
 91
0
280
0
281
0
  0
CLASS
  1
MLEADERSTYLE
  2
AcDbMLeaderStyle
  3
ACDB_MLEADERSTYLE_CLASS
 90
4095
 91
0
280
0
281
0
  0
CLASS
  1
DICTIONARYVAR
  2
AcDbDictionaryVar
  3
ObjectDBX Classes
 90
0
 91
0
280
0
281
0
  0
CLASS
  1
CELLSTYLEMAP
  2
AcDbCellStyleMap
  3
ObjectDBX Classes
 90
1152
 91
0
280
0
281
0
  0
CLASS
  1
MENTALRAYRENDERSETTINGS
  2
AcDbMentalRayRenderSettings
  3
SCENEOE
 90
1024
 91
0
280
0
281
0
  0
CLASS
  1
ACDBDETAILVIEWSTYLE
  2
AcDbDetailViewStyle
  3
ObjectDBX Classes
 90
1025
 91
0
280
0
281
0
  0
CLASS
  1
ACDBSECTIONVIEWSTYLE
  2
AcDbSectionViewStyle
  3
ObjectDBX Classes
 90
1025
 91
0
280
0
281
0
  0
CLASS
  1
RASTERVARIABLES
  2
AcDbRasterVariables
  3
ISM
 90
0
 91
0
280
0
281
0
  0
CLASS
  1
ACDBPLACEHOLDER
  2
AcDbPlaceHolder
  3
ObjectDBX Classes
 90
0
 91
0
280
0
281
0
  0
CLASS
  1
LAYOUT
  2
AcDbLayout
  3
ObjectDBX Classes
 90
0
 91
0
280
0
281
0
  0
ENDSEC
  0
SECTION
  2
TABLES
  0
TABLE
  2
VPORT
  5
8
330
0
100
AcDbSymbolTable
 70
1
  0
VPORT
  5
23
330
8
100
AcDbSymbolTableRecord
100
AcDbViewportTableRecord
  2
*Active
 70
0
 10
0.0
 20
0.0
 11
1.0
 21
1.0
 12
0.0
 22
0.0
 13
0.0
 23
0.0
 14
0.5
 24
0.5
 15
0.5
 25
0.5
 16
0.0
 26
0.0
 36
1.0
 17
0.0
 27
0.0
 37
0.0
 40
1000.0
 41
1.34
 42
50.0
 43
0.0
 44
0.0
 50
0.0
 51
0.0
 71
0
 72
1000
 73
1
 74
3
 75
0
 76
0
 77
0
 78
0
281
0
 65
0
146
0.0
  0
ENDTAB
  0
TABLE
  2
LTYPE
  5
2
330
0
100
AcDbSymbolTable
 70
3
  0
LTYPE
  5
24
330
2
100
AcDbSymbolTableRecord
100
AcDbLinetypeTableRecord
  2
ByBlock
 70
0
  3

 72
65
 73
0
 40
0.0
  0
LTYPE
  5
25
330
2
100
AcDbSymbolTableRecord
100
AcDbLinetypeTableRecord
  2
ByLayer
 70
0
  3

 72
65
 73
0
 40
0.0
  0
LTYPE
  5
26
330
2
100
AcDbSymbolTableRecord
100
AcDbLinetypeTableRecord
  2
Continuous
 70
0
  3

 72
65
 73
0
 40
0.0
  0
ENDTAB
  0
TABLE
  2
LAYER
  5
1
330
0
100
AcDbSymbolTable
 70
2
  0
LAYER
  5
27
330
1
100
AcDbSymbolTableRecord
100
AcDbLayerTableRecord
  2
0
 70
0
 62
7
  6
Continuous
370
-3
390
13
347
21
  0
LAYER
  5
28
330
1
100
AcDbSymbolTableRecord
100
AcDbLayerTableRecord
  2
Defpoints
 70
0
 62
7
  6
Continuous
290
0
370
-3
390
13
347
21
  0
ENDTAB
  0
TABLE
  2
STYLE
  5
5
330
0
100
AcDbSymbolTable
 70
1
  0
STYLE
  5
29
330
5
100
AcDbSymbolTableRecord
100
AcDbTextStyleTableRecord
  2
Standard
 70
0
 40
0.0
 41
1.0
 50
0.0
 71
0
 42
2.5
  3
txt
  4

  0
ENDTAB
  0
TABLE
  2
VIEW
  5
7
330
0
100
AcDbSymbolTable
 70
0
  0
ENDTAB
  0
TABLE
  2
UCS
  5
6
330
0
100
AcDbSymbolTable
 70
0
  0
ENDTAB
  0
TABLE
  2
APPID
  5
3
330
0
100
AcDbSymbolTable
 70
3
  0
APPID
  5
2A
330
3
100
AcDbSymbolTableRecord
100
AcDbRegAppTableRecord
  2
ACAD
 70
0
  0
APPID
  5
48
330
3
100
AcDbSymbolTableRecord
100
AcDbRegAppTableRecord
  2
HATCHBACKGROUNDCOLOR
 70
0
  0
APPID
  5
49
330
3
100
AcDbSymbolTableRecord
100
AcDbRegAppTableRecord
  2
EZDXF
 70
0
  0
ENDTAB
  0
TABLE
  2
DIMSTYLE
  5
4
330
0
100
AcDbSymbolTable
 70
1
100
AcDbDimStyleTable
  0
DIMSTYLE
105
2B
330
4
100
AcDbSymbolTableRecord
100
AcDbDimStyleTableRecord
  2
Standard
 70
0
 40
1.0
 41
2.5
 42
0.625
 43
3.75
 44
1.25
 45
0.0
 46
0.0
 47
0.0
 48
0.0
 49
2.5
140
2.5
141
2.5
142
0.0
143
0.03937007874
144
1.0
145
0.0
146
1.0
147
0.625
148
0.0
 69
0
 70
0
 71
0
 72
0
 73
0
 74
0
 75
0
 76
0
 77
1
 78
8
 79
3
170
0
171
3
172
1
173
0
174
0
175
0
176
0
177
0
178
0
179
2
271
2
272
2
273
2
274
3
275
0
276
0
277
2
278
44
279
0
280
0
281
0
282
0
283
0
284
8
285
0
286
0
288
0
289
3
290
0
371
-2
372
-2
  0
ENDTAB
  0
TABLE
  2
BLOCK_RECORD
  5
9
330
0
100
AcDbSymbolTable
 70
5
  0
BLOCK_RECORD
  5
17
330
9
100
AcDbSymbolTableRecord
100
AcDbBlockTableRecord
  2
*Model_Space
340
1A
 70
0
280
1
281
0
  0
BLOCK_RECORD
  5
1B
330
9
100
AcDbSymbolTableRecord
100
AcDbBlockTableRecord
  2
*Paper_Space
340
1E
 70
0
280
1
281
0
  0
BLOCK_RECORD
  5
2F
330
9
100
AcDbSymbolTableRecord
100
AcDbBlockTableRecord
  2
PART_0
340
0
 70
0
280
1
281
0
  0
BLOCK_RECORD
  5
35
330
9
100
AcDbSymbolTableRecord
100
AcDbBlockTableRecord
  2
PART_1
340
0
 70
0
280
1
281
0
  0
BLOCK_RECORD
  5
3C
330
9
100
AcDbSymbolTableRecord
100
AcDbBlockTableRecord
  2
PART_2
340
0
 70
0
280
1
281
0
  0
ENDTAB
  0
ENDSEC
  0
SECTION
  2
BLOCKS
  0
BLOCK
  5
18
330
17
100
AcDbEntity
  8
0
100
AcDbBlockBegin
  2
*Model_Space
 70
0
 10
0.0
 20
0.0
 30
0.0
  3
*Model_Space
  1

  0
ENDBLK
  5
19
330
17
100
AcDbEntity
  8
0
100
AcDbBlockEnd
  0
BLOCK
  5
1C
330
1B
100
AcDbEntity
  8
0
100
AcDbBlockBegin
  2
*Paper_Space
 70
0
 10
0.0
 20
0.0
 30
0.0
  3
*Paper_Space
  1

  0
ENDBLK
  5
1D
330
1B
100
AcDbEntity
  8
0
100
AcDbBlockEnd
  0
BLOCK
  5
30
330
2F
100
AcDbEntity
  8
0
100
AcDbBlockBegin
  2
PART_0
 70
0
 10
0.0
 20
0.0
 30
0.0
  3
PART_0
  1

  0
LWPOLYLINE
  5
32
330
2F
100
AcDbEntity
  8
CUT
100
AcDbPolyline
 90
574
 70
1
 10
27.842211351076255
 20
10.211315531066482
 10
27.41920581201332
 20
10.246144348001945
 10
26.97176806926149
 20
10.297093242545378
 10
26.50575552607942
 20
10.362922171817768
 10
26.02702618630704
 20
10.44239085220832
 10
25.54143870706692
 20
10.534258748829933
 10
25.05485242723921
 20
10.637285068647508
 10
24.5731273736861
 20
10.750228758294197
 10
24.102124247215535
 20
10.871848507627737
 10
23.647704390210983
 20
11.00090276004274
 10
23.21572973771496
 20
11.136149730472056
 10
22.812062753539045
 20
11.276347431904732
 10
21.147146251876855
 20
11.972945568228885
 10
19.57434139651304
 20
12.80338868028179
 10
18.100040169470017
 20
13.760414199958475
 10
16.730635268941885
 20
14.836759357472431
 10
15.472520063970471
 20
16.025161129011025
 10
14.33208855461999
 20
17.318356166861076
 10
13.31573533396465
 20
18.70908071260275
 10
12.429855548835306
 20
20.190070493139462
 10
11.68084485666025
 20
21.754060598457365
 10
11.075099375906804
 20
23.393785339011743
 10
10.619015627581998
 20
25.10197807943687
 10
10.520238404867536
 20
25.553522919652963
 10
10.440084501975578
 20
26.00551093605905
 10
10.37678507878405
 20
26.60030116104946
 10
10.328559988791248
 20
27.48023690164005
 10
10.293608346883477
 20
28.787632765284044
 10
10.270089693936892
 20
30.66475498848442
 10
10.25609076714841
 20
33.25379902764769
 10
10.249570092350144
 20
36.696874126088645
 10
10.248272001504839
 20
41.13601662291134
 10
10.24961109102362
 20
46.71327436607432
 10
10.250564173394853
 20
53.57092588157171
 10
10.248286385904047
 20
60.70575802191173
 10
10.245314245540571
 20
66.4532237120677
 10
10.245857456476145
 20
70.97506835578245
 10
10.253599093878691
 20
74.43283557297754
 10
10.27185236826958
 20
76.9881043962837
 10
10.303704428170583
 20
78.80256385161256
 10
10.352114442473376
 20
80.0380115153652
 10
10.419972633034833
 20
80.85632637989643
 10
10.51013351740709
 20
81.41943917995144
 10
10.625433336117878
 20
81.88930945387831
 10
10.768697369818899
 20
82.4279127436854
 10
11.118848714056902
 20
83.63694370870326
 10
11.550300191181933
 20
84.81472841372197
 10
12.060661577436022
 20
85.95793937614243
 10
12.647542818429123
 20
87.0632492137234
 10
13.308554032659847
 20
88.12733062208535
 10
14.04130551397473
 20
89.14685635368954
 10
14.843407733049055
 20
90.11849919820692
 10
15.712471337988447
 20
91.03893196423932
 10
16.64610715417169
 20
91.90482746239714
 10
17.641926183480514
 20
92.7128584897696
 10
18.69753960309241
 20
93.45969781585444
 10
19.245064513602777
 20
93.80786329265142
 10
19.802322413024868
 20
94.13691138130842
 10
20.36877923300398
 20
94.4466148291636
 10
20.943900946384325
 20
94.73674641292132
 10
21.527153569137017
 20
95.0070789385752
 10
22.118003162371796
 20
95.25738524149666
 10
22.71591583444422
 20
95.48743818670029
 10
23.320357743171684
 20
95.6970106692991
 10
23.93079509817202
 20
95.8858756151645
 10
24.546694163340007
 20
96.05380598180832
 10
25.167521259478153
 20
96.2005747595063
 10
25.638850589027136
 20
96.30691937345973
 10
26.06538241247922
 20
96.39279925018398
 10
26.57666083459933
 20
96.46032743960797
 10
27.302214513455425
 20
96.51161005478977
 10
28.37154594339902
 20
96.54874118793077
 10
29.914109139536357
 20
96.57379381448217
 10
32.05927119653338
 20
96.58880763172098
 10
34.936248826589654
 20
96.5957769480829
 10
38.67400399958632
 20
96.59664831435012
 10
43.401074379282946
 20
96.59335623276877
 10
49.245316745569546
 20
96.5879745538668
 10
71.10620416377436
 20
96.5782368634309
 10
71.47884145457596
 20
96.38785012890527
 10
71.63112355009113
 20
96.3039490447947
 10
71.76069212460501
 20
96.21732925022658
 10
71.86913934201539
 20
96.12398420223387
 10
71.9580571091893
 20
96.01990754169647
 10
72.02903718887885
 20
95.90109308953642
 10
72.08367130312996
 20
95.7635348403815
 10
72.1235512274296
 20
95.60322695485988
 10
72.15026887631151
 20
95.41616375153616
 10
72.16541638154558
 20
95.19833969935803
 10
72.17058616439579
 20
94.94574941136881
 10
72.16737100376776
 20
94.65438764036062
 10
72.15578338257583
 20
94.25763467242413
 10
72.13287022349371
 20
93.93128549971438
 10
72.08769588187542
 20
93.66817151670232
 10
72.00932601435673
 20
93.4611249541507
 10
71.88682663016591
 20
93.3029790769708
 10
71.70926323307181
 20
93.18656859413667
 10
71.465700057836
 20
93.10473027322917
 10
71.145199382275
 20
93.05030374044279
 10
70.73682087089433
 20
93.01613243675742
 10
70.22962088057928
 20
92.99506469088426
 10
69.61265163519678
 20
92.97995485699474
 10
69.09947721957145
 20
92.96803142103053
 10
68.67409900976932
 20
92.95463571082159
 10
68.32686922184087
 20
92.93722595251279
 10
68.04813772411453
 20
92.91326492842786
 10
67.8282522589856
 20
92.88021882129918
 10
67.65755878677956
 20
92.83555629819064
 10
67.52640188898232
 20
92.77674780704466
 10
67.42512518964041
 20
92.70126506208629
 10
67.344071769274
 20
92.6065806996871
 10
67.2735845562782
 20
92.49016809230936
 10
67.20400668735408
 20
92.34950131405697
 10
67.17639920260689
 20
92.28736474197068
 10
67.15285842001917
 20
92.22649543925162
 10
67.13328730982498
 20
92.16614968647272
 10
67.11758886011307
 20
92.10558378276075
 10
67.10566607400966
 20
92.04405404344308
 10
67.09742196741276
 20
91.98081679793899
 10
67.09275956728231
 20
91.91512838790943
 10
67.09158191049013
 20
91.8462451656775
 10
67.09379204323415
 20
91.77342349292891
 10
67.09929302102384
 20
91.6959197397018
 10
67.10798790924403
 20
91.61299028367365
 10
67.12699511197948
 20
91.4852637816865
 10
67.15264332325322
 20
91.36669718458728
 10
67.18536554623002
 20
91.25661006890834
 10
67.22559480354947
 20
91.15432205630574
 10
67.27376412848585
 20
91.05915281550816
 10
67.33030655536982
 20
90.97042206411855
 10
67.39565510931124
 20
90.8874495703216
 10
67.4702427952552
 20
90.80955515455723
 10
67.55450258639692
 20
90.73605869122768
 10
67.64886741197256
 20
90.66628011051253
 10
67.75377014443521
 20
90.59953940037346
 10
67.83310621171393
 20
90.55854183031923
 10
67.94512372666507
 20
90.52462813796605
 10
68.12751350003965
 20
90.49693401970181
 10
68.41796148465704
 20
90.47459981736894
 10
68.85414521853988
 20
90.45677515951083
 10
69.47372920152
 20
90.4426260226497
 10
70.31436015956103
 20
90.43134493443831
 10
71.41366399301715
 20
90.42216530267807
 10
72.80924757987984
 20
90.41438084568537
 10
74.53871063611122
 20
90.40737030352619
 10
76.63967524924006
 20
90.40062509414139
 10
78.1441977786136
 20
90.39713292575708
 10
79.51024563012008
 20
90.39582924766326
 10
80.7383811725561
 20
90.39661793690505
 10
81.82914759704899
 20
90.39941138800756
 10
82.78307392074707
 20
90.40413274625654
 10
83.60067963125931
 20
90.41071689484812
 10
84.28247870005188
 20
90.41911055290409
 10
84.82898285810808
 20
90.42927181730106
 10
85.24070413641452
 20
90.44116942267252
 10
85.51815673366121
 20
90.4547819258418
 10
85.66185829615522
 20
90.47009695774426
 10
85.79841914171404
 20
90.50555324613843
 10
85.9334107996053
 20
90.5537393705226
 10
86.06544821518332
 20
90.6135880980335
 10
86.19314608558413
 20
90.68403216032974
 10
86.31511885746137
 20
90.76400427055874
 10
86.42998073174329
 20
90.85243714071635
 10
86.53634567496944
 20
90.94826349910548
 10
86.63282743671111
 20
91.05041610767255
 10
86.71803957255007
 20
91.15782777907961
 10
86.79059547208306
 20
91.26943139345272
 10
86.8491083914318
 20
91.38415991483159
 10
86.87543230415548
 20
91.45439732093826
 10
86.89897267171928
 20
91.54090690374856
 10
86.91999070719363
 20
91.64688371772826
 10
86.93874749554053
 20
91.77552286581006
 10
86.95550395244868
 20
91.93001951220444
 10
86.9705207818492
 20
92.11356889517356
 10
86.98405843312479
 20
92.32936633931995
 10
86.99637705918366
 20
92.58060726689679
 10
87.00773647669858
 20
92.8704872076237
 10
87.0183961298939
 20
93.20220180649561
 10
87.02861505928847
 20
93.57894682910869
 10
87.07628722806756
 20
95.4746702962832
 10
87.32626298735269
 20
95.83086912044791
 10
87.36707231637217
 20
95.88544649433707
 10
87.41385609465505
 20
95.9417391752124
 10
87.46564119425243
 20
95.99887753715936
 10
87.52145444724984
 20
96.0559919555334
 10
87.58032263840184
 20
96.11221280426872
 10
87.64127250003152
 20
96.16667045363437
 10
87.7033307091359
 20
96.21849526841272
 10
87.76552388663708
 20
96.26681760646817
 10
87.82687859872134
 20
96.31076781767034
 10
87.88642136021456
 20
96.34947624313409
 10
87.94317863994921
 20
96.38207321473922
 10
88.31012373676431
 20
96.57708607923173
 10
95.85083234729171
 20
96.58844217100635
 10
97.60900231694369
 20
96.59134376350224
 10
99.07442950798948
 20
96.59280315467562
 10
100.27489308784538
 20
96.59227593619619
 10
101.2382087676646
 20
96.58924984840101
 10
101.99222366755565
 20
96.58323288354312
 10
102.56481022053663
 20
96.57374553879978
 10
102.98386025010814
 20
96.56031590324949
 10
103.27727971983715
 20
96.54247660271758
 10
103.47298433728541
 20
96.51976292961315
 10
103.59889605432113
 20
96.49171171835994
 10
103.68294045495425
 20
96.45786069493184
 10
103.82367272471835
 20
96.38150695633824
 10
103.94204806072776
 20
96.30446629586443
 10
104.03993784562219
 20
96.22157667984739
 10
104.11921353265524
 20
96.12767637116622
 10
104.18174659881464
 20
96.01760389662225
 10
104.22940847932962
 20
95.88619804699171
 10
104.26407048401515
 20
95.72829791039898
 10
104.28760369530514
 20
95.53874294032173
 10
104.30187884730722
 20
95.31237306046779
 10
104.30876618477073
 20
95.04402880999227
 10
104.31013530051396
 20
94.72855153410761
 10
104.30904493115379
 20
94.47785214198328
 10
104.30664878363758
 20
94.26563609403178
 10
104.30242717837697
 20
94.08790631150931
 10
104.29586002602463
 20
93.94066616698673
 10
104.28642690338654
 20
93.81991941266301
 10
104.27360712290967
 20
93.72167011080803
 10
104.25687979477179
 20
93.64192256837237
 10
104.23572388085786
 20
93.57668127741869
 10
104.20961824012406
 20
93.52195086265658
 10
104.17804166502155
 20
93.47373603702046
 10
104.1404729087788
 20
93.4280415659345
 10
104.05537639190194
 20
93.34019644439887
 10
103.96554671530552
 20
93.26514174359035
 10
103.86666535569096
 20
93.20192867858016
 10
103.75441399582638
 20
93.14960848560048
 10
103.62447458880595
 20
93.10723244894314
 10
103.4725294467424
 20
93.073851928132
 10
103.2942613542518
 20
93.0485183866904
 10
103.0853537071856
 20
93.030283424405
 10
102.84149067720683
 20
93.01819881569487
 10
102.5583574029658
 20
93.01131655755641
 10
102.23164020875205
 20
93.0086889316111
 10
101.93245966060783
 20
93.00781663185789
 10
101.68659025634172
 20
93.0060614915983
 10
101.48785419479393
 20
93.00242217791768
 10
101.3300752409387
 20
92.99589755859452
 10
101.20707837725246
 20
92.98548670093754
 10
101.11268950011784
 20
92.97018885215813
 10
101.04073516464491
 20
92.94900340808869
 10
100.9850423799137
 20
92.92092987551278
 10
100.93943845572545
 20
92.88496783190868
 10
100.89775090142912
 20
92.84011688512682
 10
100.85380737719534
 20
92.78537663448627
 10
100.81093783575534
 20
92.72447143820092
 10
100.77573990615265
 20
92.63923080886018
 10
100.74739050481642
 20
92.49638350551712
 10
100.72506467367992
 20
92.26266009411282
 10
100.70793361183192
 20
91.90479501830359
 10
100.69516175332204
 20
91.38952973703269
 10
100.68590272351965
 20
90.68361730147831
 10
100.67929389877497
 20
89.75382905293928
 10
100.67444916493876
 20
88.56696463978821
 10
100.67044935604686
 20
87.08986744021342
 10
100.66632988104935
 20
85.28944904628115
 10
100.66370558256628
 20
83.89965576721565
 10
100.66267730830643
 20
82.67412101165613
 10
100.66338320238134
 20
81.60493141445602
 10
100.66595330904964
 20
80.68417764004863
 10
100.67050940847987
 20
79.90395632905447
 10
100.67716526229889
 20
79.25637162900598
 10
100.68602717782038
 20
78.73353621285338
 10
100.69719478552659
 20
78.32757174985534
 10
100.71076192888698
 20
78.03060884961845
 10
100.72681758342274
 20
77.8347865442807
 10
100.74544674612558
 20
77.73225140288025
 10
100.7633450838602
 20
77.68639597611474
 10
100.78605778103547
 20
77.63917337579016
 10
100.81309430074472
 20
77.59119969045321
 10
100.84396411286066
 20
77.54309096865799
 10
100.87817668746733
 20
77.49546321659616
 10
100.91524148872949
 20
77.44893239717294
 10
100.9546679692491
 20
77.40411443053095
 10
100.9959655649635
 20
77.3616251960126
 10
101.03864369064155
 20
77.32208053554237
 10
101.08221173603322
 20
77.2860962584015
 10
101.1261790627237
 20
77.25428814735973
 10
101.40857350700588
 20
77.0648896448205
 10
104.95960599565733
 20
77.0739616621334
 10
105.89253378621359
 20
77.07544918984901
 10
106.66854877146635
 20
77.07408170078813
 10
107.30416548644804
 20
77.06848214948847
 10
107.81592224135552
 20
77.0572653372635
 10
108.22037433855826
 20
77.03903924844757
 10
108.53408910535222
 20
77.01240648159097
 10
108.77364225183254
 20
76.97596559020323
 10
108.95561521821904
 20
76.92831225021311
 10
109.09659328909913
 20
76.86804022055836
 10
109.21316433272492
 20
76.79374208487023
 10
109.32191807955203
 20
76.7040097693527
 10
109.34900581324383
 20
76.67782505116199
 10
109.37812215089932
 20
76.64574075140092
 10
109.4087544903946
 20
76.60852374801406
 10
109.44039021271587
 20
76.56694091620626
 10
109.47251667863242
 20
76.52175912177071
 10
109.50462122624133
 20
76.47374521549446
 10
109.53619116939423
 20
76.42366602861753
 10
109.56671379702465
 20
76.37228836931794
 10
109.59567637340139
 20
76.32037902019214
 10
109.62256613933748
 20
76.26870473669929
 10
109.64687031438682
 20
76.21803224653884
 10
109.68334292614895
 20
76.10201388989582
 10
109.71303346929413
 20
75.86745348189048
 10
109.73627336234136
 20
75.42253076392359
 10
109.75339391678979
 20
74.67547716834588
 10
109.76473111850832
 20
73.53462521492571
 10
109.77064519264505
 20
71.90848196563016
 10
109.77157752724095
 20
69.70582975070306
 10
109.76819180778013
 20
66.83584221156394
 10
109.76168097430991
 20
63.2081433884129
 10
109.75431635855693
 20
58.73256969169047
 10
109.750052800224
 20
53.3181203562061
 10
109.75261503797897
 20
47.90411587543921
 10
109.75886547758937
 20
43.42946436902112
 10
109.76475763783101
 20
39.8027226100734
 10
109.76783571296522
 20
36.93353942422819
 10
109.76676414070599
 20
34.7314998921789
 10
109.7607935587673
 20
33.10579599446459
 10
109.74943665910332
 20
31.965242916928176
 10
109.73231042298166
 20
31.218380277018277
 10
109.70906853427756
 20
30.773569496648555
 10
109.67937571914085
 20
30.53906770772864
 10
109.6428996078073
 20
30.4230784449681
 10
109.61859296183238
 20
30.372418743445234
 10
109.59170046929613
 20
30.320757532791998
 10
109.56273496852472
 20
30.268861349959778
 10
109.53220927365761
 20
30.217496758732374
 10
109.50063617237483
 20
30.167430348936392
 10
109.46852842472227
 20
30.119428734767762
 10
109.43639876300276
 20
30.074258552198774
 10
109.40475989270531
 20
30.032686455429776
 10
109.37412449444714
 20
29.99547911235118
 10
109.34500522691197
 20
29.96340319898477
 10
109.31791473077519
 20
29.937225392879032
 10
109.20917767093047
 20
29.847550512812983
 10
109.09262095582793
 20
29.773292843720867
 10
108.95170315952596
 20
29.713045277615763
 10
108.76988473873081
 20
29.665401473732615
 10
108.53062873384786
 20
29.62895640989203
 10
108.21740201264197
 20
29.602307191074164
 10
107.81367714745332
 20
29.58405411719713
 10
107.30293507710759
 20
29.572802009591022
 10
106.66866879297547
 20
29.567161780624104
 10
105.89438841549982
 20
29.565752190387585
 10
104.96362820695373
 20
29.567201642385196
 10
104.13298394868318
 20
29.568875585561557
 10
103.44098465887602
 20
29.56919564217119
 10
102.87374539991868
 20
29.567601870378045
 10
102.41739465570747
 20
29.563542267133865
 10
102.05807299311313
 20
29.55647108999288
 10
101.78193128436574
 20
29.545847364603368
 10
101.57512872781581
 20
29.531133617447928
 10
101.42383087710915
 20
29.51179483684329
 10
101.31420784894533
 20
29.487297645871045
 10
101.23243283628429
 20
29.457109664849092
 10
101.16468101344415
 20
29.420699042723143
 10
101.02632022307313
 20
29.33897237292238
 10
100.91424547634738
 20
29.251681382448787
 10
100.82586041392354
 20
29.11796124011502
 10
100.75856770842667
 20
28.89693995456398
 10
100.70976563301555
 20
28.54773268264331
 10
100.6768430539526
 20
28.029432739198388
 10
100.6571727300302
 20
27.301100557715696
 10
100.64810293048056
 20
26.321752596516745
 10
100.6469477526151
 20
25.05035281593026
 10
100.65097720991906
 20
23.445809541554915
 10
100.65740903677761
 20
21.466979927516554
 10
100.66288957188328
 20
19.681327081651624
 10
100.6680050193388
 20
18.216102236199433
 10
100.67374499086829
 20
17.03854080638655
 10
100.68105345411198
 20
16.11580385871929
 10
100.69084077003942
 20
15.415004766503099
 10
100.70399324238069
 20
14.90322602746362
 10
100.72138045759684
 20
14.547530191829448
 10
100.74386084774329
 20
14.31496716787148
 10
100.77228584648356
 20
14.17257921091051
 10
100.80750290042846
 20
14.087404340184086
 10
100.85035749868835
 20
14.026478591105542
 10
101.02353818989131
 20
13.805963773034689
 10
102.32963690211575
 20
13.802482485900434
 10
102.81409513336472
 20
13.797639874064028
 10
103.21537267263545
 20
13.781366167789182
 10
103.541041353215
 20
13.746794232702022
 10
103.79867682951794
 20
13.687056210693257
 10
103.99585765025095
 20
13.595283430058435
 10
104.14016442222548
 20
13.46460626673057
 10
104.23917904710434
 20
13.288153983892888
 10
104.30048402086108
 20
13.059054574524433
 10
104.3316617932655
 20
12.770434629720224
 10
104.3402941920036
 20
12.415419253991915
 10
104.33396192266342
 20
11.98713204638263
 10
104.32467605179096
 20
11.698361559605342
 10
104.31066227725205
 20
11.45090551316345
 10
104.29015150058875
 20
11.24034337343887
 10
104.261374100383
 20
11.062253897302526
 10
104.22256005951802
 20
10.912215292122106
 10
104.17193907781781
 20
10.785805339091729
 10
104.10774067080195
 20
10.678601483649777
 10
104.02819425514424
 20
10.586180895611166
 10
103.93152922117535
 20
10.50412050073015
 10
103.81597499243452
 20
10.427996984700233
 10
103.67976107185751
 20
10.353386770065256
 10
103.59611379004036
 20
10.319250400935251
 10
103.47164300190582
 20
10.291157723219674
 10
103.27755477603564
 20
10.268716357447088
 10
102.98505908538164
 20
10.251533104646741
 10
102.5653726848093
 20
10.239213338240644
 10
101.9897230117151
 20
10.231359904691363
 10
101.22935314031858
 20
10.22757122644091
 10
100.25552777381259
 20
10.227438102770043
 10
99.03954011036912
 20
10.230538421824818
 10
97.55271906278357
 20
10.23642861848007
 10
95.76643556303182
 20
10.24463026890366
 10
88.14511669058163
 20
10.27834179846198
 10
87.80197193974875
 20
10.50686495712985
 10
87.74889567848426
 20
10.544867209702577
 10
87.69321366888207
 20
10.589657420898543
 10
87.63583638090223
 20
10.640244920449126
 10
87.57767423626255
 20
10.695639043658653
 10
87.51963760310582
 20
10.754849130688228
 10
87.46263679269195
 20
10.816884525696064
 10
87.4075820581732
 20
10.88075457580266
 10
87.35538359552072
 20
10.945468629848632
 10
87.30695154667593
 20
11.01003603691522
 10
87.26319600500277
 20
11.073466144581541
 10
87.22502702311354
 20
11.134768296898805
 10
87.16697651031048
 20
11.23538510533897
 10
87.11921395128324
 20
11.326734492314655
 10
87.080495114904
 20
11.419022609339958
 10
87.04957585990164
 20
11.522455604973505
 10
87.0252120005882
 20
11.64723958414992
 10
87.00615914402385
 20
11.80358056037735
 10
86.99117249594177
 20
12.001684399277206
 10
86.97900662988391
 20
12.251756750850136
 10
86.96841521023076
 20
12.564002966398903
 10
86.95815065477625
 20
12.948627994025918
 10
86.94696371558517
 20
13.415836243726433
 10
86.93685305528328
 20
13.819143630482948
 10
86.92665275979985
 20
14.165376314918534
 10
86.91590277785599
 20
14.459726719246156
 10
86.90414233952647
 20
14.707387044936318
 10
86.8909100351984
 20
14.91354928927862
 10
86.87574390352258
 20
15.083405267130459
 10
86.85818152405457
 20
15.222146636272498
 10
86.83776011063111
 20
15.334964924796159
 10
86.81401660204816
 20
15.427051559064815
 10
86.78648774723447
 20
15.503597890983375
 10
86.75471018278063
 20
15.569795223554024
 10
86.6936868534554
 20
15.668047325569816
 10
86.61977061515252
 20
15.762627864076684
 10
86.53414764125866
 20
15.85278197027014
 10
86.43800398466598
 20
15.93775469912164
 10
86.33252555290044
 20
16.016791045087274
 10
86.21889808664183
 20
16.08913595799234
 10
86.09830714202225
 20
16.154034359094194
 10
85.97193807708743
 20
16.210731157264803
 10
85.84097604279026
 20
16.25847126517242
 10
85.70660597885758
 20
16.296499615283768
 10
85.57001261482817
 20
16.324061175455796
 10
85.41583933967945
 20
16.33395201924636
 10
85.08687237369992
 20
16.34358054294817
 10
84.59728592756264
 20
16.352801789123873
 10
83.96125719554941
 20
16.361460628942258
 10
83.19296250585084
 20
16.36939453881123
 10
82.3065737137208
 20
16.376436447993193
 10
81.31625514422706
 20
16.38241784682598
 10
80.23616138762138
 20
16.38717221755592
 10
79.08043622178168
 20
16.39053870781232
 10
77.8632128595215
 20
16.392365828135112
 10
76.59861558507079
 20
16.39251484639317
 10
74.50421798361414
 20
16.39072073885398
 10
72.78099622525394
 20
16.387758121930297
 10
71.39126351239416
 20
16.383223256966193
 10
70.29735768887576
 20
16.376590030682003
 10
69.4616083179773
 20
16.367240392781923
 10
68.84632364168652
 20
16.35449150098309
 10
68.41378875116362
 20
16.33761691181787
 10
68.12626909458992
 20
16.315862065014834
 10
67.94601578520135
 20
16.288455205309216
 10
67.8352707333114
 20
16.25461487604954
 10
67.75627056695257
 20
16.21355480798071
 10
67.63392671706688
 20
16.135997283866978
 10
67.52676229165604
 20
16.05693411581968
 10
67.43404678343268
 20
15.97502509732563
 10
67.35504952874908
 20
15.88892992361192
 10
67.28903974603003
 20
15.797308192763722
 10
67.23528657205985
 20
15.6988194062859
 10
67.19305909620243
 20
15.592122969424885
 10
67.16162639256854
 20
15.475878191540428
 10
67.14025755008498
 20
15.348744286792087
 10
67.12822170036563
 20
15.209380375380393
 10
67.12478804323459
 20
15.056445485556093
 10
67.12926217132124
 20
14.899814027326123
 10
67.14174645884334
 20
14.757552308672492
 10
67.16275179889877
 20
14.62868697358585
 10
67.19278910669232
 20
14.512244622377086
 10
67.23236930545778
 20
14.407251810306015
 10
67.28200331443986
 20
14.31273504448243
 10
67.34220203886811
 20
14.227720779067273
 10
67.4134763618977
 20
14.151235408786317
 10
67.4963371385336
 20
14.082305260758272
 10
67.59129519159544
 20
14.019956584634553
 10
67.69886130981739
 20
13.963215541046562
 10
67.76420113809212
 20
13.936093256821565
 10
67.84029262056211
 20
13.912779167631127
 10
67.93077418303251
 20
13.893026130655898
 10
68.0392840619518
 20
13.876586772268485
 10
68.16946023243105
 20
13.863213419805017
 10
68.32494032700322
 20
13.852658012479417
 10
68.50936154711746
 20
13.844671989561363
 10
68.72636057016766
 20
13.839006153410129
 10
68.97957345592482
 20
13.835410504403828
 10
69.2726355576288
 20
13.833634044281462
 10
69.60918144477151
 20
13.833424543990148
 10
70.05863955088262
 20
13.832541557564548
 10
70.43965163416546
 20
13.827651069107745
 10
70.75938012282458
 20
13.81737428962155
 10
71.02498510951463
 20
13.80032983729533
 10
71.24362487917895
 20
13.775134152448278
 10
71.42245634549487
 20
13.740401898768088
 10
71.56863541697008
 20
13.694746329141672
 10
71.68931731025637
 20
13.63677960008211
 10
71.79165682435054
 20
13.56511302333976
 10
71.88280858564212
 20
13.478357247015705
 10
71.96992727066012
 20
13.375122361600946
 10
72.01093410741512
 20
13.319615624644872
 10
72.0452459037893
 20
13.264271856455956
 10
72.07344522624366
 20
13.204859039212758
 10
72.09611475022267
 20
13.137145090496926
 10
72.1138372444946
 20
13.056897876055146
 10
72.12719557029521
 20
12.959885217464699
 10
72.13677269485046
 20
12.841874894982416
 10
72.14315171867634
 20
12.698634645855522
 10
72.14691591577964
 20
12.525932158427697
 10
72.14864878552589
 20
12.319535062472065
 10
72.14893411452492
 20
12.075210916317072
 10
72.14836118523425
 20
11.817323481375874
 10
72.1465711483796
 20
11.602912719061491
 10
72.1426799868627
 20
11.426617660450095
 10
72.13580403684657
 20
11.283077250762485
 10
72.1250599138019
 20
11.16693036292063
 10
72.10956444446992
 20
11.07281580913477
 10
72.08843460253456
 20
10.995372351172065
 10
72.06078744638941
 20
10.92923870982961
 10
72.02574005789899
 20
10.869053574038087
 10
71.9824094815248
 20
10.809455609944044
 10
71.92991266363646
 20
10.74508347024945
 10
71.84196861222918
 20
10.609560394683008
 10
71.74523906288019
 20
10.500533731283904
 10
71.51438054820275
 20
10.415110653804916
 10
71.02403582234727
 20
10.35038100596605
 10
70.14881836483903
 20
10.303387630106092
 10
68.76327713487095
 20
10.271083643186234
 10
66.74182936361548
 20
10.250288484592602
 10
63.95864847068131
 20
10.237668035028618
 10
60.287511134099496
 20
10.229781023570176
 10
55.60165478492927
 20
10.223235939883258
 10
49.773758811184116
 20
10.214953356369987
 10
46.60367615696215
 20
10.210304512805878
 10
43.56449974565168
 20
10.206480277570106
 10
40.69102023440596
 20
10.203548627545068
 10
38.0180381297634
 20
10.201538091259927
 10
35.5803511042155
 20
10.200446579411956
 10
33.41274580869198
 20
10.20025045318963
 10
31.549992913171216
 20
10.200912802244337
 10
30.026844130904216
 20
10.202390581524117
 10
28.878030158483412
 20
10.204640659663564
 10
28.138258639297906
 20
10.207625032853926
 10
27.842211351076255
 20
10.211315531066482
  0
ENDBLK
  5
31
330
2F
100
AcDbEntity
  8
0
100
AcDbBlockEnd
  0
BLOCK
  5
36
330
35
100
AcDbEntity
  8
0
100
AcDbBlockBegin
  2
PART_1
 70
0
 10
0.0
 20
0.0
 30
0.0
  3
PART_1
  1

  0
LWPOLYLINE
  5
38
330
35
100
AcDbEntity
  8
CUT
100
AcDbPolyline
 90
514
 70
1
 10
16.86667510050057
 20
10.231632813633343
 10
16.382211176260736
 20
10.294697408410036
 10
15.915448428504384
 20
10.380394533416425
 10
15.465773132686822
 20
10.48899649952523
 10
15.03257141164893
 20
10.620775605565768
 10
14.61522924865237
 20
10.776004126958515
 10
14.213132498349811
 20
10.954954304394109
 10
13.825666895817406
 20
11.157898332551262
 10
13.452218063745564
 20
11.38510834885268
 10
13.09217151785567
 20
11.636856422260216
 10
12.744912670584164
 20
11.913414542119547
 10
12.409826833050888
 20
12.215054607071172
 10
12.184869221088679
 20
12.439226884915078
 10
11.969577661209389
 20
12.672770752223826
 10
11.764568080815447
 20
12.914741055850598
 10
11.570456459514634
 20
13.164192699911528
 10
11.387858825918816
 20
13.420180649454473
 10
11.217391254163823
 20
13.681759933828838
 10
11.059669860086972
 20
13.947985649811422
 10
10.915310796997709
 20
14.217912964540883
 10
10.78493025097564
 20
14.490597118311353
 10
10.66914443562855
 20
14.765093427273596
 10
10.568569586241297
 20
15.040457286088886
 10
10.4729840095838
 20
15.304068668661952
 10
10.395833949601917
 20
15.59759792738844
 10
10.335536065091167
 20
16.113482011050632
 10
10.29050711310908
 20
17.04411953246641
 10
10.259163177004144
 20
18.58182128163203
 10
10.239907637722307
 20
20.918724546887677
 10
10.231083874165188
 20
24.246662973997957
 10
10.230835754207849
 20
28.756993006324123
 10
10.236758345058867
 20
34.64044037533247
 10
10.24517561052555
 20
42.087255070381026
 10
10.250163301518516
 20
51.28845546241652
 10
10.247776875794335
 20
59.27149865045118
 10
10.242190777737418
 20
65.94353045813898
 10
10.236760908420687
 20
71.42425464544672
 10
10.233619293566637
 20
75.8323662501393
 10
10.233955536325462
 20
79.28649860716672
 10
10.238420503368555
 20
81.9055549329393
 10
10.24740079224699
 20
83.80874030910869
 10
10.261165940335504
 20
85.11549932196337
 10
10.279938150706235
 20
85.94544218323412
 10
10.303922315001309
 20
86.41828345536062
 10
10.333317630778915
 20
86.65379698632535
 10
10.423362490207777
 20
87.0487137212913
 10
10.528094251920445
 20
87.42508759951626
 10
10.64859994997176
 20
87.78492686873075
 10
10.785966481365447
 20
88.13024006631036
 10
10.94128059828137
 20
88.46303598660256
 10
11.115628896093487
 20
88.78532365298628
 10
11.31009779759273
 20
89.09911229479113
 10
11.525773533774135
 20
89.40641132924841
 10
11.763742121514893
 20
89.70923034870549
 10
12.025089338460806
 20
90.00957911340865
 10
12.310900695453332
 20
90.30946755024395
 10
12.622297782546394
 20
90.61058327022265
 10
12.931418200999126
 20
90.88391817209877
 10
13.241195855175771
 20
91.1310559190241
 10
13.554564225466192
 20
91.35358034699941
 10
13.874456393262156
 20
91.55307543955834
 10
14.203805053221991
 20
91.7311252992754
 10
14.545542512933572
 20
91.88931411715083
 10
14.902600679961346
 20
92.02922614078125
 10
15.277911036111483
 20
92.15244564213457
 10
15.674404598576471
 20
92.26055688571446
 10
16.0950118674305
 20
92.35514409793035
 10
16.258103193771426
 20
92.38253464193836
 10
16.471693035204133
 20
92.40550130984273
 10
16.75960448253419
 20
92.42434521808846
 10
17.14565749463878
 20
92.43936627926131
 10
17.653667227115008
 20
92.45086260807167
 10
18.307441737579687
 20
92.45912981055054
 10
19.130778918277525
 20
92.46446020949652
 10
20.1474624351154
 20
92.46714210641007
 10
21.381256360882652
 20
92.46745926677848
 10
22.85589808200782
 20
92.46569097258553
 10
24.595088949801653
 20
92.46211326667887
 10
32.47731061609237
 20
92.44327069298602
 10
32.745192718641334
 20
92.26204395246079
 10
32.78661027684102
 20
92.23243268950506
 10
32.83002740034825
 20
92.19844031439982
 10
32.874736059592394
 20
92.16077622592861
 10
32.92002823712289
 20
92.12014982975069
 10
32.965195927202906
 20
92.07727053836268
 10
33.00953113504087
 20
92.03284777087273
 10
33.05232587564743
 20
91.98759095258069
 10
33.092872172305746
 20
91.94220951435904
 10
33.130462054644696
 20
91.89741289182864
 10
33.16438755630644
 20
91.85391052432395
 10
33.193940712202526
 20
91.81241185364304
 10
33.235450925201405
 20
91.74802068199939
 10
33.27014840825551
 20
91.68581671411638
 10
33.298648603708585
 20
91.62138267611853
 10
33.32156700254745
 20
91.55030135401977
 10
33.339519164002574
 20
91.46815562716176
 10
33.353120747639146
 20
91.37052851599542
 10
33.36298755811346
 20
91.25300324492235
 10
33.3697356028511
 20
91.11116332130442
 10
33.37398116303578
 20
90.94059263228256
 10
33.37634087847291
 20
90.73687556174207
 10
33.37743184710416
 20
90.49559713065082
 10
33.37788504234652
 20
90.23568761881917
 10
33.377092463335245
 20
90.02106293738058
 10
33.37398905805864
 20
89.84557056490891
 10
33.36751041274257
 20
89.70305886031329
 10
33.356592600665586
 20
89.58737686550324
 10
33.3401720524606
 20
89.49237413925749
 10
33.31718544891962
 20
89.41190062788505
 10
33.28656963700435
 20
89.33980657670561
 10
33.24726156943868
 20
89.26994248509152
 10
33.19819826789086
 20
89.19615910686313
 10
33.13831680932133
 20
89.11230749725449
 10
33.040314593172
 20
88.98326447104729
 10
32.94381207297563
 20
88.87560140191445
 10
32.84108578811568
 20
88.7874265481542
 10
32.72441194016452
 20
88.71684855468654
 10
32.58606625954835
 20
88.66197632149358
 10
32.41832379527054
 20
88.6209188884398
 10
32.2134586293096
 20
88.59178533320619
 10
31.9637435197037
 20
88.57268467776981
 10
31.661449478809896
 20
88.56172579696907
 10
31.29884529584888
 20
88.55701732043356
 10
30.868197015705572
 20
88.55666751682989
 10
30.33289912261805
 20
88.55541622668932
 10
29.890336358383834
 20
88.54466869583977
 10
29.53173023796726
 20
88.51843423802134
 10
29.248297270770188
 20
88.47072207086475
 10
29.03125020793125
 20
88.39554122346114
 10
28.871799104826355
 20
88.28690061642547
 10
28.76115221930872
 20
88.13880927728663
 10
28.690516764664256
 20
87.94527667126454
 10
28.651099531974758
 20
87.70031314023629
 10
28.63410739026099
 20
87.39793045211334
 10
28.63074766444274
 20
87.03214246967194
 10
28.631737182289744
 20
86.86163707119438
 10
28.634358282169885
 20
86.71065692308683
 10
28.638803637498345
 20
86.57766137948241
 10
28.645266014713783
 20
86.46111000264368
 10
28.653938258153058
 20
86.35946253670602
 10
28.665013276519588
 20
86.27117888243453
 10
28.67868403092363
 20
86.19471907333006
 10
28.69514352446347
 20
86.12854325336782
 10
28.714584793311783
 20
86.07111165660244
 10
28.737200899270693
 20
86.0208845888286
 10
28.763184923761386
 20
85.97632241144572
 10
28.8181692174226
 20
85.86223048330012
 10
28.899564485621784
 20
85.77013453096853
 10
29.130167052109172
 20
85.69733040495706
 10
29.632752501576864
 20
85.64110753544485
 10
30.530037668052945
 20
85.59874184916116
 10
31.94461466077938
 20
85.56748764585674
 10
33.998844606299656
 20
85.54457905904033
 10
36.81469121191898
 20
85.52727012152464
 10
40.5134789573017
 20
85.512988851761
 10
45.21563643878277
 20
85.49978113678307
 10
51.040822661138506
 20
85.48733401916948
 10
56.07020638351627
 20
85.48110105487912
 10
60.259262103146995
 20
85.48108462476834
 10
63.68707259492311
 20
85.4857148750917
 10
66.43137122225409
 20
85.49367032356
 10
68.5692192622842
 20
85.50422552787442
 10
70.17749914947231
 20
85.51719768791637
 10
71.33314739498698
 20
85.53277751128641
 10
72.11322213898825
 20
85.55138062493457
 10
72.59489586618585
 20
85.57354834466065
 10
72.85542397763791
 20
85.5998884088045
 10
72.97211189636577
 20
85.63104108839535
 10
73.09176367450388
 20
85.69301316802876
 10
73.19056102160793
 20
85.76249339378292
 10
73.2705352845476
 20
85.85264701931276
 10
73.3337178185187
 20
85.97663958127447
 10
73.3821393389842
 20
86.1476373369786
 10
73.41782916700072
 20
86.37880775538976
 10
73.44281438953828
 20
86.68332003217371
 10
73.4591189717608
 20
87.07434558745753
 10
73.468762874237
 20
87.56505849539735
 10
73.47376124240932
 20
88.16863579030277
 10
73.4761237453616
 20
88.89825759753447
 10
73.4814247860133
 20
91.50798818372903
 10
73.69058533656366
 20
91.83149867521766
 10
73.78072135433453
 20
91.98805344165683
 10
73.8639212958542
 20
92.11398868584041
 10
73.9949424376225
 20
92.21271996245386
 10
74.2285475920424
 20
92.28766434828117
 10
74.61950945897367
 20
92.34224458112482
 10
75.22261938005617
 20
92.37989471337961
 10
76.09270088833928
 20
92.40406609522371
 10
77.28462841131031
 20
92.41823155367466
 10
78.85335079490874
 20
92.4258845554474
 10
80.85391749980536
 20
92.43052941368995
 10
83.34150220609735
 20
92.43565915127604
 10
85.80648095133301
 20
92.44191026240205
 10
87.79903139907613
 20
92.44595737136716
 10
89.37109931302739
 20
92.44515817141345
 10
90.57476175593389
 20
92.43690952640934
 10
91.46219058845529
 20
92.41862180638917
 10
92.0856232924582
 20
92.38770759477572
 10
92.49734096758257
 20
92.34157760142936
 10
92.74965222140942
 20
92.27763995010935
 10
92.8948817171707
 20
92.1933008660092
 10
92.985362499853
 20
92.08596578204924
 10
93.07343158910953
 20
91.95304039977822
 10
93.11430755905043
 20
91.89275203523253
 10
93.14834270197359
 20
91.83365917114455
 10
93.17614398764533
 20
91.77081959725949
 10
93.19831836190804
 20
91.69929124304353
 10
93.2154727250115
 20
91.61413219567311
 10
93.22821390066602
 20
91.51040074371353
 10
93.23714859599939
 20
91.3831554472813
 10
93.24288335260833
 20
91.22745523593085
 10
93.24602448898538
 20
91.03835953611451
 10
93.24717803478852
 20
90.81092843084082
 10
93.24694965774026
 20
90.54022285512434
 10
93.24582335664186
 20
90.27515508664376
 10
93.24349017617583
 20
90.05124880499118
 10
93.2394159614345
 20
89.86406284108011
 10
93.23306621927131
 20
89.70915673369453
 10
93.22390619072921
 20
89.58209060505035
 10
93.2114009131115
 20
89.47842504477622
 10
93.19501527179187
 20
89.39372100511758
 10
93.17421404194461
 20
89.32353970953817
 10
93.1484619204009
 20
89.26344257633204
 10
93.11722354781791
 20
89.20899115838883
 10
93.07996352129578
 20
89.15574709988444
 10
92.97863908539198
 20
89.02314484992489
 10
92.88507286082442
 20
88.91382625352622
 10
92.7895752782969
 20
88.82528284796146
 10
92.68245696945476
 20
88.75500609875672
 10
92.55402891534237
 20
88.70048740643233
 10
92.39460268975095
 20
88.65921807346407
 10
92.19449080151344
 20
88.62868923355079
 10
91.94400714268214
 20
88.60639174700752
 10
91.63346755386678
 20
88.5898160681544
 10
91.25319052388447
 20
88.57645209327964
 10
90.79349804841182
 20
88.563789001673
 10
90.32018844309383
 20
88.55024876523314
 10
89.92600171328894
 20
88.53511252952953
 10
89.60281196262864
 20
88.51613994920032
 10
89.34249637657148
 20
88.49108983601776
 10
89.13693469100427
 20
88.45772043209712
 10
88.97800867260929
 20
88.41378962501564
 10
88.85760163268696
 20
88.35705511049957
 10
88.76759799046818
 20
88.28527450917085
 10
88.69988289696191
 20
88.19620544361298
 10
88.64634192628135
 20
88.08760558108953
 10
88.59886083826768
 20
87.95723264592662
 10
88.58359460180978
 20
87.90307173609274
 10
88.57002565036439
 20
87.83805359505703
 10
88.55820078971078
 20
87.76292935037874
 10
88.54816682376348
 20
87.67845015159752
 10
88.53997055900722
 20
87.58536716190736
 10
88.53365880862914
 20
87.48443155028474
 10
88.52927839633492
 20
87.37639448404933
 10
88.52687615983585
 20
87.26200712184456
 10
88.5264989539929
 20
87.14202060703269
 10
88.52819365360453
 20
87.0171860615059
 10
88.53200715582405
 20
86.88825457992226
 10
88.5415083138143
 20
86.68127751568866
 10
88.55424325197674
 20
86.50317756565866
 10
88.57151700419026
 20
86.35077332602184
 10
88.59463439059743
 20
86.2208838762086
 10
88.62490006971579
 20
86.1103286887316
 10
88.66361858874481
 20
86.0159275506095
 10
88.712094432365
 20
85.9345004977767
 10
88.77163207024162
 20
85.86286776352968
 10
88.84353600340556
 20
85.7978497417219
 10
88.92911080969492
 20
85.73626696509355
 10
89.0296611885082
 20
85.67494009881827
 10
89.11250437781489
 20
85.65763568588986
 10
89.30214892193827
 20
85.64202125630882
 10
89.60530536675235
 20
85.62799877642495
 10
90.02869030390531
 20
85.61546855555517
 10
90.57902705692351
 20
85.60432878210896
 10
91.263046180795
 20
85.59447496014646
 10
92.08748571813321
 20
85.585799260264
 10
93.0590911595474
 20
85.57818981718705
 10
94.18461506752364
 20
85.57153002574728
 10
95.47081634302597
 20
85.56569790371434
 10
96.92445914181451
 20
85.56056560035132
 10
99.05362875388762
 20
85.5542458166075
 10
100.77429768300979
 20
85.54794275123581
 10
102.13659756842371
 20
85.53851218414464
 10
103.19074132969197
 20
85.52277836579822
 10
103.9869943629119
 20
85.49754074101364
 10
104.57565572113337
 20
85.45958060666189
 10
105.00704571506729
 20
85.40566676087143
 10
105.33149780073838
 20
85.33255990581087
 10
105.59935352025268
 20
85.23701579742307
 10
105.86095981258494
 20
85.11578718375985
 10
106.16666833000612
 20
84.96562455700368
 10
106.63421221640381
 20
84.71835680508197
 10
107.07407047256896
 20
84.44012834436126
 10
107.48520033648805
 20
84.13221494924993
 10
107.86655888532674
 20
83.7958924480336
 10
108.21710304658117
 20
83.43243671088493
 10
108.53578960807141
 20
83.04312363909747
 10
108.82157522695941
 20
82.62922915528469
 10
109.0734164379535
 20
82.1920291943094
 10
109.29026966084123
 20
81.7327996947276
 10
109.47109120747764
 20
81.25281659054218
 10
109.61483728834342
 20
80.75335580306873
 10
109.7805105860402
 20
80.07833810631203
 10
109.72983892414328
 20
50.41995613926015
 10
109.74812910204048
 20
20.753623829367292
 10
109.57203364513843
 20
20.25328904565457
 10
109.3503078843017
 20
19.6981191001158
 10
109.08689104745073
 20
19.171809950149857
 10
108.783664356908
 20
18.676159980220554
 10
108.44250880357382
 20
18.212967572390788
 10
108.06530513144472
 20
17.784031089587337
 10
107.65393382101131
 20
17.391148857705154
 10
107.21027507121468
 20
17.03611914597901
 10
106.73620877960467
 20
16.720740145005315
 10
106.23361452029863
 20
16.446809941734426
 10
105.7043715192932
 20
16.216126490665825
 10
105.15035862662022
 20
16.030487580367073
 10
104.51549635708616
 20
15.84812375538543
 10
96.81497827895447
 20
15.824613800808596
 10
95.32000615040869
 20
15.819691045456985
 10
94.01027156857134
 20
15.81409457711711
 10
92.87602355551846
 20
15.807653902957265
 10
91.90751963189457
 20
15.800204908920556
 10
91.09502643767759
 20
15.79158882947695
 10
90.42881987297147
 20
15.781651197801812
 10
89.89918482097102
 20
15.77024086575793
 10
89.49641453503041
 20
15.7572091521853
 10
89.21080977834085
 20
15.742409147711406
 10
89.03267780149727
 20
15.72569517888926
 10
88.95233123399056
 20
15.706922416151045
 10
88.854923755628
 20
15.630031137210413
 10
88.7680633645794
 20
15.519937753162772
 10
88.69268700683655
 20
15.381739900475973
 10
88.62973158639348
 20
15.220535485797832
 10
88.58013407075971
 20
15.041422800343302
 10
88.54483158311338
 20
14.849500596057652
 10
88.52476147914348
 20
14.649868124154846
 10
88.52086140709473
 20
14.447625137582564
 10
88.5340693500975
 20
14.247871859635623
 10
88.56532365049642
 20
14.05570892131636
 10
88.61556301654058
 20
13.876237270139004
 10
88.6631496845263
 20
13.753942097478742
 10
88.71788228260282
 20
13.65170570395742
 10
88.7874805890879
 20
13.567490503008443
 10
88.87966458309423
 20
13.49925886731875
 10
89.0021546407562
 20
13.444973118479536
 10
89.16267179400187
 20
13.402595537734133
 10
89.36893804924418
 20
13.370088401391122
 10
89.62867676124252
 20
13.345414045841114
 10
89.94961305448687
 20
13.326534968295011
 10
90.33947428080623
 20
13.311413970120784
 10
90.80599049757714
 20
13.298014349702182
 10
91.27066245140313
 20
13.285185619443245
 10
91.6552483347756
 20
13.271366544490549
 10
91.96944382051798
 20
13.253864144723213
 10
92.22294784850607
 20
13.229985828200164
 10
92.42546183472456
 20
13.19703930792161
 10
92.58668902129654
 20
13.152332513309936
 10
92.71633394820702
 20
13.093173510238426
 10
92.8241020332824
 20
13.016870439243519
 10
92.91969925162098
 20
12.920731478538986
 10
93.01283190909669
 20
12.802064836123895
 10
93.11320650677919
 20
12.658178773344423
 10
93.15114783795597
 20
12.599607267620005
 10
93.18354123203133
 20
12.542422700896367
 10
93.2108012293408
 20
12.48452669180059
 10
93.23334235644506
 20
12.423820833648257
 10
93.25157912404916
 20
12.358206686891235
 10
93.26592602284751
 20
12.285585768701017
 10
93.27679751729507
 20
12.203859539764967
 10
93.28460803730086
 20
12.110929388401038
 10
93.28977196784179
 20
12.004696612133122
 10
93.29270363649945
 20
11.883062396915053
 10
93.29381729893304
 20
11.74392779424423
 10
93.29013556978539
 20
11.541976621790946
 10
93.27741598921213
 20
11.361540867003328
 10
93.25462339713616
 20
11.200621167682923
 10
93.22072255284554
 20
11.05721796175766
 10
93.17467816304749
 20
10.92933152275085
 10
93.11545490955588
 20
10.814961988505713
 10
93.04201747661786
 20
10.712109383529734
 10
92.95333057788919
 20
10.61877363520525
 10
92.84835898305519
 20
10.53295458400218
 10
92.72606754406485
 20
10.452651987726835
 10
92.58542122089975
 20
10.37586551974478
 10
92.23255714081868
 20
10.197991551726851
 10
83.39516212965188
 20
10.217839518218003
 10
81.20771295363465
 20
10.222706288491594
 10
79.41372678957755
 20
10.227369424370773
 10
77.97219270261142
 20
10.232700779319277
 10
76.84217454982617
 20
10.239574497211482
 10
75.98279729538787
 20
10.248856149227038
 10
75.35323256686884
 20
10.261397852085606
 10
74.91268557755782
 20
10.27803776468993
 10
74.62038433381704
 20
10.299602190467612
 10
74.43557131007462
 20
10.326908786345063
 10
74.31749744985378
 20
10.360769798995193
 10
74.225418288099
 20
10.401994648373012
 10
74.17320272713324
 20
10.429244270763142
 10
74.11950531397801
 20
10.460628763274029
 10
74.06514719072818
 20
10.495488207164325
 10
74.01094946532567
 20
10.533162683519228
 10
73.95773321030657
 20
10.57299227245436
 10
73.90631946280884
 20
10.614317052335643
 10
73.85752922587261
 20
10.656477099002753
 10
73.8121834710677
 20
10.698812484985387
 10
73.77110314248156
 20
10.740663278704599
 10
73.73510916210003
 20
10.781369543653934
 10
73.70502243660738
 20
10.820271337560367
 10
73.66195121657509
 20
10.884137656387175
 10
73.62611782791294
 20
10.949841591725113
 10
73.59663397745592
 20
11.026808118028331
 10
73.57261126667078
 20
11.124462145467636
 10
73.55316104337027
 20
11.252228436847291
 10
73.53739420105396
 20
11.419531498310057
 10
73.52442092083564
 20
11.635795439721313
 10
73.51335034749604
 20
11.910443797944252
 10
73.50329018651135
 20
12.252899312485802
 10
73.49334620253775
 20
12.672583637726168
 10
73.48262159111965
 20
13.178916968362453
 10
73.47054354160431
 20
13.730271926332856
 10
73.45807336861964
 20
14.188538824378902
 10
73.4436124516958
 20
14.563629851534067
 10
73.4255596939787
 20
14.865455909557905
 10
73.40231186655758
 20
15.103926722759748
 10
73.37226399136276
 20
15.288950992332442
 10
73.3338097373032
 20
15.43043657887073
 10
73.28534180809204
 20
15.53829069731184
 10
73.22525230495384
 20
15.62242011055173
 10
73.15193305242535
 20
15.692731310886316
 10
73.0637758802234
 20
15.759130681661514
 10
72.95739209344379
 20
15.7871715795809
 10
72.67827198495077
 20
15.811084577803436
 10
72.15761156877943
 20
15.831376996914933
 10
71.32664776655432
 20
15.848523704970164
 10
70.11668031445375
 20
15.86293838046866
 10
68.45908895581914
 20
15.874926906038137
 10
66.28532934718314
 20
15.884615095603078
 10
63.52687484590055
 20
15.89184855478469
 10
60.115051656772856
 20
15.89608711866918
 10
55.98071778311321
 20
15.896375301230709
 10
51.053827324558476
 20
15.891546489406963
 10
29.180796174796892
 20
15.840883544550866
 10
28.921222841881836
 20
15.60859105334954
 10
28.66164632235834
 20
15.376300806803272
 10
28.659642964353885
 20
14.577745771606509
 10
28.65952928185621
 20
14.385955975719234
 10
28.660802770999513
 20
14.226133060174789
 10
28.664324889423803
 20
14.094237038581337
 10
28.67095733911287
 20
13.986227453611995
 10
28.681562009850627
 20
13.898063492145432
 10
28.697000929455506
 20
13.82570407682666
 10
28.718136220947024
 20
13.765107935771963
 10
28.745830066713467
 20
13.712233651628685
 10
28.780944679728627
 20
13.663039690795225
 10
28.82434228189851
 20
13.613484413300544
 10
28.876885089698415
 20
13.55952606362752
 10
29.096092779818594
 20
13.339913316646193
 10
30.818895988032242
 20
13.304407671745125
 10
31.288204510833953
 20
13.294139624353974
 10
31.676355492755906
 20
13.283009771697227
 10
31.99301437351671
 20
13.268805865350851
 10
32.24784317018482
 20
13.249315722731167
 10
32.45050119118019
 20
13.222327160428772
 10
32.610645676890854
 20
13.18562795229847
 10
32.73793235412852
 20
13.1370057925062
 10
32.84201589517514
 20
13.074248248424515
 10
32.93255027512201
 20
12.995142692647926
 10
33.0191890238821
 20
12.897476206992188
 10
33.11158537188112
 20
12.779035453821699
 10
33.16267247383222
 20
12.710060127594954
 10
33.205229420304406
 20
12.64708160594396
 10
33.24001972787193
 20
12.586571762319801
 10
33.26780694004209
 20
12.525002337688958
 10
33.28935463123184
 20
12.458844960966076
 10
33.30542641808725
 20
12.384571155865116
 10
33.31678597826475
 20
12.29865233442878
 10
33.324197076688066
 20
12.197559777577116
 10
33.328423599200875
 20
12.077764603161704
 10
33.33022959344777
 20
11.935737722213197
 10
33.3303793167362
 20
11.767949784326634
 10
33.32631849811192
 20
11.550573276133312
 10
33.31431964644587
 20
11.359338348191978
 10
33.29304173131608
 20
11.191592934866659
 10
33.26114391546044
 20
11.044684661382556
 10
33.21728550081187
 20
10.915960894448455
 10
33.160125876909376
 20
10.802768788496957
 10
33.08832447146345
 20
10.702455328520543
 10
33.00054070299899
 20
10.612367370283893
 10
32.89543393563857
 20
10.529851678516694
 10
32.771663436224415
 20
10.45225496352995
 10
32.62788833410372
 20
10.376923916549643
 10
32.53661652456966
 20
10.33574965404665
 10
32.42484638278383
 20
10.301973363728157
 10
32.25757387892067
 20
10.27483893969113
 10
31.999791602802667
 20
10.253590112692175
 10
31.616485963818246
 20
10.237470194366106
 10
31.072633124517164
 20
10.225721950387205
 10
30.33319381922482
 20
10.217587846242665
 10
29.36310733501606
 20
10.212311013724293
 10
28.127285122618744
 20
10.20913735165627
 10
26.59060475733824
 20
10.20731914250861
 10
24.717905247536248
 20
10.206120373970899
 10
23.599942093918884
 20
10.205832562434118
 10
22.525604663777315
 20
10.206193858277047
 10
21.50729566039778
 20
10.207164187748672
 10
20.557420517224436
 20
10.208701900895395
 10
19.688386538013596
 20
10.210763925510156
 10
18.91260203905766
 20
10.213306016021457
 10
18.242475495718033
 20
10.216283080824821
 10
17.690414685169884
 20
10.219649572769923
 10
17.268825807299304
 20
10.223359929509526
 10
16.990112555743238
 20
10.22736905238442
 10
16.86667510050057
 20
10.231632813633343
  0
LWPOLYLINE
  5
39
330
35
100
AcDbEntity
  8
CUT
100
AcDbPolyline
 90
80
 70
1
 10
98.06168238951341
 20
26.241268835888256
 10
98.16419073071368
 20
26.2787481657336
 10
98.24693791743103
 20
26.3571021658023
 10
98.3119468032877
 20
26.608677440836342
 10
98.36121791262963
 20
27.165817725547246
 10
98.39671506909995
 20
28.160862764837386
 10
98.42031972968206
 20
29.726143879745987
 10
98.43370579098132
 20
31.993969436317172
 10
98.43793881642799
 20
35.09656807645301
 10
98.43169437515765
 20
39.1657569637496
 10
98.39540568847706
 20
44.32800061175874
 10
98.33616887888078
 20
50.27526318956838
 10
98.42901857202487
 20
56.72915062381338
 10
98.44227414890219
 20
61.95066510070582
 10
98.44383120943873
 20
66.04694726395246
 10
98.43687122362147
 20
69.15429705927804
 10
98.42021439481503
 20
71.40978825271428
 10
98.39177753246629
 20
72.95060836582553
 10
98.34919785513085
 20
73.91397349576899
 10
98.29000687502459
 20
74.43710931207198
 10
98.21169154660325
 20
74.65724550902516
 10
98.11171720206552
 20
74.71161412605034
 10
97.98753288848076
 20
74.73744933371079
 10
97.94182348217345
 20
74.75358505752591
 10
97.88657323196688
 20
74.767874742547
 10
97.82221668161671
 20
74.78028683287387
 10
97.74918841782541
 20
74.79078982152537
 10
97.66792306496609
 20
74.79935223743786
 10
97.57885528003666
 20
74.80594263324636
 10
97.48241974792184
 20
74.8105295738007
 10
97.37905117702344
 20
74.81308162537691
 10
97.26918429530576
 20
74.81356734555081
 10
97.15325384678843
 20
74.81195527370718
 10
97.03169458850789
 20
74.80821392216437
 10
96.85719141888893
 20
74.8010992439956
 10
96.71203628413566
 20
74.7937334430399
 10
96.59232631715588
 20
74.78492997730162
 10
96.49415887669086
 20
74.77350375404824
 10
96.41363143272598
 20
74.75827080102877
 10
96.3468415105948
 20
74.73804799122848
 10
96.2898866829752
 20
74.71165282360707
 10
96.23886460211499
 20
74.67790326105205
 10
96.18987306723585
 20
74.63561762626591
 10
96.13901012408105
 20
74.58361455635423
 10
96.08237419496407
 20
74.52071301740641
 10
95.85263443675967
 20
74.26103964822879
 10
95.97575551042395
 20
50.3134995047909
 10
95.96492814512355
 20
46.23300274819532
 10
95.89468430267459
 20
42.27822650994317
 10
95.87964169789356
 20
38.802314850261915
 10
95.87624724602396
 20
35.806876361445774
 10
95.87795434036668
 20
33.27291801493806
 10
95.88292023477266
 20
31.180101864468583
 10
95.89046552936641
 20
29.507849161063238
 10
95.90031103647998
 20
28.23551468982198
 10
95.91234584742065
 20
27.342429638635252
 10
95.9265404545098
 20
26.80791526118127
 10
95.94290935534681
 20
26.611288044503855
 10
95.99544694316259
 20
26.515356062395657
 10
96.05048664813386
 20
26.433715957566427
 10
96.11093588152016
 20
26.36527334344804
 10
96.17970242894121
 20
26.308933393235026
 10
96.25969428100309
 20
26.263600762578292
 10
96.35381950181988
 20
26.228179461893873
 10
96.46498613812842
 20
26.20157267880962
 10
96.59610217430075
 20
26.182682550922095
 10
96.7500755415967
 20
26.170409889303098
 10
96.92981419343931
 20
26.163653854234955
 10
97.13822626224632
 20
26.16131158669187
 10
97.25357877941315
 20
26.161944631792004
 10
97.36702233407357
 20
26.164281083258242
 10
97.47709971986973
 20
26.168195019373993
 10
97.58235376034231
 20
26.173560826444163
 10
97.6813273082559
 20
26.180253170138165
 10
97.77256324637938
 20
26.18814695622986
 10
97.85460449045264
 20
26.197117280671993
 10
97.92599399483032
 20
26.207039368936506
 10
97.98527476099149
 20
26.21778850452535
 10
98.03098984874228
 20
26.22923994650939
 10
98.06168238951341
 20
26.241268835888256
  0
ENDBLK
  5
37
330
35
100
AcDbEntity
  8
0
100
AcDbBlockEnd
  0
BLOCK
  5
3D
330
3C
100
AcDbEntity
  8
0
100
AcDbBlockBegin
  2
PART_2
 70
0
 10
0.0
 20
0.0
 30
0.0
  3
PART_2
  1

  0
LWPOLYLINE
  5
3F
330
3C
100
AcDbEntity
  8
CUT
100
AcDbPolyline
 90
524
 70
1
 10
95.85886817829478
 20
10.282623041437153
 10
95.55751764376558
 20
10.35809881583061
 10
95.26620657064582
 20
10.446592414036548
 10
94.98419640969371
 20
10.548515713219171
 10
94.71074869306446
 20
10.664280559967624
 10
94.44512502207132
 20
10.794298756456145
 10
94.18658705452364
 20
10.938982046672447
 10
93.93439649169366
 20
11.098742102597393
 10
93.6878150649458
 20
11.273990510196667
 10
93.44610452204397
 20
11.465138755061686
 10
93.20852661313518
 20
11.672598207510967
 10
92.97434307638821
 20
11.896780106935925
 10
92.83076570981488
 20
12.042372100458858
 10
92.7011930945067
 20
12.179123866621685
 10
92.58139534047348
 20
12.312865666287761
 10
92.46714247795748
 20
12.449427656730741
 10
92.35420442853143
 20
12.594639848102355
 10
92.2383509585648
 20
12.754332038119614
 10
92.11535161388295
 20
12.93433372292828
 10
91.98097563391599
 20
13.140473981081737
 10
91.8309918428228
 20
13.378581326076588
 10
91.66116851393032
 20
13.654483520773285
 10
91.46727320226555
 20
13.974007344087934
 10
91.31885243976653
 20
14.219691572332017
 10
91.13736343752662
 20
14.52003790025262
 10
90.92712333137469
 20
14.867894700217818
 10
90.69244927782238
 20
15.2561102968004
 10
90.43765866020948
 20
15.67753323313136
 10
90.16706928370127
 20
16.12501253229509
 10
89.8849995598344
 20
16.59139795698873
 10
89.5957686791217
 20
17.069540267251984
 10
89.30369676802313
 20
17.552291472301818
 10
89.01310502438801
 20
18.032505068250966
 10
88.72831582334751
 20
18.503036248756327
 10
88.19584601931126
 20
19.384122783937936
 10
87.62781457395604
 20
20.326586307071047
 10
87.03583153948536
 20
21.310916536222287
 10
86.43151215368181
 20
22.317608353185623
 10
85.8264787780632
 20
23.327165236490416
 10
85.23236282623559
 20
24.32010341962326
 10
84.66080646945842
 20
25.276956654471185
 10
84.12346381041067
 20
26.17828118534194
 10
83.63200115244459
 20
27.00466014966267
 10
83.19809600644433
 20
27.736706163837372
 10
82.83343460969635
 20
28.355060459115737
 10
82.61361380092106
 20
28.723329649597158
 10
82.40140187247896
 20
29.066367017186867
 10
82.19432114347465
 20
29.387493302528004
 10
81.98989296426579
 20
29.69002706351689
 10
81.7856378127272
 20
29.97728473523159
 10
81.57907537337316
 20
30.252580691359242
 10
81.36772459445748
 20
30.519227290765738
 10
81.14910371887282
 20
30.780534891890785
 10
80.92073028502232
 20
31.039811816306994
 10
80.68012109377892
 20
31.3003642405546
 10
80.42479213714533
 20
31.56549599162303
 10
79.87469710958295
 20
32.101776558410776
 10
79.3092779572691
 20
32.6048723739502
 10
78.72747181881445
 20
33.075458223149276
 10
78.12821833870171
 20
33.514213803998025
 10
77.51046082414611
 20
33.9218251182056
 10
76.87314784369033
 20
34.29898632613464
 10
76.21523547718313
 20
34.646402222127776
 10
75.53569054727325
 20
34.96479154374574
 10
74.83349536083647
 20
35.25489140349529
 10
74.1076548208658
 20
35.5174632208786
 10
73.3572073345853
 20
35.753300613534414
 10
72.78160661527352
 20
35.908286578554524
 10
72.20339703632013
 20
36.03843424053986
 10
71.62508906039436
 20
36.143730136307035
 10
71.0492204027776
 20
36.22415702885033
 10
70.4783588748749
 20
36.27968373908542
 10
69.91510209206412
 20
36.31024966936897
 10
69.3620707906565
 20
36.31574323977112
 10
68.8218912220103
 20
36.295975150159734
 10
68.29716180334117
 20
36.25065088359867
 10
67.79040179953577
 20
36.17935210745692
 10
67.30398738788634
 20
36.08154146275646
 10
67.20428940049078
 20
36.055593966893085
 10
67.06152978249204
 20
36.01453549856035
 10
66.88017528814993
 20
35.959689458683414
 10
66.66469361909364
 20
35.89235013396241
 10
66.41953275364763
 20
35.813783093404396
 10
66.14910077864198
 20
35.72523070268353
 10
65.85774898959093
 20
35.62792443040449
 10
65.5497620163212
 20
35.52310392544203
 10
65.22935856455345
 20
35.41204046291182
 10
64.90070450380684
 20
35.29606008386229
 10
64.5679367602192
 20
35.17656078191787
 10
63.857542990759015
 20
34.92014496423564
 10
62.99543268093758
 20
34.60987787076748
 10
61.99784534361443
 20
34.25190112065585
 10
60.88167157596501
 20
33.85384481268083
 10
59.66526300426977
 20
33.42406223869053
 10
58.36832326914759
 20
32.97076893310238
 10
57.01132373996485
 20
32.50164751242309
 10
55.6149821659618
 20
32.02386473097286
 10
54.199978653913206
 20
31.54423938784038
 10
52.786853625345294
 20
31.06940060120901
 10
51.395997073918394
 20
30.605892657379812
 10
50.71624176672353
 20
30.380512623685217
 10
50.084480944070215
 20
30.171485252609923
 10
49.47905373784344
 20
29.97162420580777
 10
48.878265714285426
 20
29.773769159535505
 10
48.26039827336709
 20
29.570780218889748
 10
47.60371395335614
 20
29.3555348477906
 10
46.88645940835685
 20
29.120926417456854
 10
46.08686719490053
 20
28.859863664842155
 10
45.18315714191202
 20
28.5652704692317
 10
44.15353781996395
 20
28.23008545631815
 10
42.976208394217736
 20
27.847261064022412
 10
42.4356427781583
 20
27.671177932386243
 10
41.97267492123728
 20
27.5192643539811
 10
41.578563152322374
 20
27.38831970198605
 10
41.24456084748708
 20
27.275149099753932
 10
40.96191783775414
 20
27.176561892808802
 10
40.72188141044259
 20
27.08937051918058
 10
40.51569703308323
 20
27.010389666269234
 10
40.33460888145416
 20
26.936435640627266
 10
40.16986022367041
 20
26.864325902240196
 10
40.012693693395406
 20
26.790878731636106
 10
39.85435147315739
 20
26.712913009190682
 10
39.35129670957632
 20
26.446343050263284
 10
38.866672523794435
 20
26.15841453107418
 10
38.39030191969339
 20
25.839859413639083
 10
37.9120078867429
 20
25.481408087335673
 10
37.42161388744789
 20
25.073788419702353
 10
36.908944345732145
 20
24.607724895387875
 10
36.3638251304037
 20
24.07393789621405
 10
35.776084016375194
 20
23.46314318281013
 10
35.135551096088555
 20
22.76605163587014
 10
34.4320591061105
 20
21.973369301633447
 10
33.6554436310424
 20
21.075797762193346
 10
33.07226027726277
 20
20.394987437551876
 10
32.57880564720786
 20
19.8186746099406
 10
32.15903774523072
 20
19.32807115753007
 10
31.796919677197064
 20
18.904377732147786
 10
31.47641819829134
 20
18.528787260339534
 10
31.181502717007913
 20
18.182487226254473
 10
30.896144655439535
 20
17.84666109481563
 10
30.604317099293237
 20
17.502489093729864
 10
30.28999469076766
 20
17.131148496895104
 10
29.93715372653949
 20
16.713813515833877
 10
29.529772423963735
 20
16.23165489591046
 10
29.31684522172969
 20
15.979644372014402
 10
29.10699460579446
 20
15.73136307279977
 10
28.90294077883295
 20
15.49002472237244
 10
28.707403796753116
 20
15.258843300586044
 10
28.523103588195827
 20
15.041033004973677
 10
28.352759977676534
 20
14.83980820747487
 10
28.19909271206342
 20
14.658383406560748
 10
28.064821490224656
 20
14.499973175030018
 10
27.952665995829456
 20
14.36779210340471
 10
27.865345933453664
 20
14.26505473848831
 10
27.805581068324557
 20
14.194975516254168
 10
27.755073334880958
 20
14.13560871682992
 10
27.694631209842928
 20
14.063973736834306
 10
27.625634342009757
 20
13.981732562272718
 10
27.549462371338667
 20
13.890547194650617
 10
27.46749492118607
 20
13.79207966465022
 10
27.38111159204934
 20
13.68799204305899
 10
27.291691956787123
 20
13.579946449004218
 10
27.200615557279267
 20
13.469605055588506
 10
27.109261902475666
 20
13.358630093048676
 10
27.01901046777573
 20
13.248683849577585
 10
26.931240695676948
 20
13.141428669954767
 10
26.842234938932418
 20
13.033405839721848
 10
26.748394996480553
 20
12.921230583745526
 10
26.651279430883314
 20
12.806676239309276
 10
26.55244676980044
 20
12.69151620166841
 10
26.453455506069922
 20
12.577523923089684
 10
26.355864099106913
 20
12.466472909778036
 10
26.26123097754907
 20
12.360136716838351
 10
26.171114543081863
 20
12.260288941403793
 10
26.087073175386763
 20
12.168703214039171
 10
26.010665238168077
 20
12.087153188496742
 10
25.94344908623076
 20
12.017412529866087
 10
25.789705549604157
 20
11.869568966353548
 10
25.6192647847839
 20
11.72152623084267
 10
25.434654487316095
 20
11.574870961576412
 10
25.238402304410364
 20
11.43118980590289
 10
25.033035859698913
 20
11.292069395041944
 10
24.821082775603855
 20
11.15909632167427
 10
24.605070693276318
 20
11.033857120204509
 10
24.387527290158214
 20
10.917938249488632
 10
24.170980295287663
 20
10.812926077771289
 10
23.957957502523186
 20
10.7204068695447
 10
23.7509867819019
 20
10.641966774018472
 10
23.166793876511672
 20
10.438124846340374
 10
19.011046265504056
 20
10.426375034843138
 10
17.89135910795819
 20
10.423922666586616
 10
16.962312176364506
 20
10.424188759621916
 10
16.201269216475463
 20
10.428636996858971
 10
15.585581690793532
 20
10.438739568706291
 10
15.092592408071814
 20
10.455975064726411
 10
14.699638125996858
 20
10.481826772832523
 10
14.384051411435518
 20
10.517781341101287
 10
14.123161940921733
 20
10.565327761327472
 10
13.894297356710076
 20
10.625956642783777
 10
13.67478374977585
 20
10.701159754656352
 10
13.441945814022134
 20
10.792429824295393
 10
13.131759701915325
 20
10.929325722060925
 10
12.833120439290633
 20
11.084438672114157
 10
12.546946101867936
 20
11.25693860808566
 10
12.274154887752301
 20
11.445995392822484
 10
12.015665113231695
 20
11.650778828597296
 10
11.772395208435562
 20
11.870458666609776
 10
11.54526371285162
 20
12.104204615918427
 10
11.33518927069311
 20
12.351186351935617
 10
11.14309062610435
 20
12.610573524612862
 10
10.969886618188374
 20
12.881535766440312
 10
10.816496175836512
 20
13.163242700381653
 10
10.767797253838735
 20
13.262708293576
 10
10.718669306046156
 20
13.366678961578474
 10
10.669812385508623
 20
13.473474734838963
 10
10.62192659290127
 20
13.581415676112666
 10
10.575712077727825
 20
13.688821882398658
 10
10.531869037696232
 20
13.79401348547834
 10
10.491097716211879
 20
13.895310651129313
 10
10.454098397935327
 20
13.991033577086982
 10
10.421571402356106
 20
14.079502489817934
 10
10.394217075341762
 20
14.159037640155576
 10
10.37273577863178
 20
14.227959297830271
 10
10.344008184195303
 20
14.38014035471782
 10
10.320339115485327
 20
14.686115177897896
 10
10.301356610658761
 20
15.244185360484785
 10
10.286677648952953
 20
16.15262494766406
 10
10.275896353703708
 20
17.509658672730367
 10
10.268562241032733
 20
19.413434656220023
 10
10.26414087974804
 20
21.961995865802397
 10
10.261945617301967
 20
25.25326238535785
 10
10.26102859765509
 20
29.385053436419703
 10
10.260034070294862
 20
34.455207078723596
 10
10.257072090627922
 20
40.561882280036215
 10
10.251718133465651
 20
46.45731350456828
 10
10.245947693386247
 20
51.39822632867019
 10
10.241302776322103
 20
55.47038968283476
 10
10.238879833456505
 20
58.759247572958394
 10
10.239413771569792
 20
61.35018903648191
 10
10.243395438149344
 20
63.32866916019269
 10
10.251166390317215
 20
64.78024222979849
 10
10.262981978195327
 20
65.79055478794707
 10
10.279049596483983
 20
66.44532493635162
 10
10.299550802615922
 20
66.83031995594516
 10
10.32465383349456
 20
67.03133706647242
 10
10.452448902615714
 20
67.53877019459235
 10
10.627418091671037
 20
68.02135949044455
 10
10.847683431422155
 20
68.47712393252522
 10
11.111367195842787
 20
68.90408255907198
 10
11.416591920229942
 20
69.30025449581598
 10
11.76148042028447
 20
69.66365898515582
 10
12.144155812422184
 20
69.99231541756708
 10
12.562741535593485
 20
70.28424336612277
 10
13.015361374908968
 20
70.537462625088
 10
13.500139487389763
 20
70.74999325367409
 10
14.015200430182048
 20
70.91985562619227
 10
14.145008612985041
 20
70.95418740633355
 10
14.27747786243394
 20
70.98250823516844
 10
14.430221555002078
 20
71.00534463379063
 10
14.620852394873697
 20
71.02322258187665
 10
14.866982165051256
 20
71.03666728272933
 10
15.186221285329179
 20
71.0462027737735
 10
15.59617815143208
 20
71.05235137332846
 10
16.11445821311961
 20
71.05563294932779
 10
16.7586627244182
 20
71.05656398951487
 10
17.546387063187566
 20
71.0556564462755
 10
18.495218464852563
 20
71.05341632442587
 10
22.459673905072158
 20
71.04251854718979
 10
22.696731663679767
 20
70.84863119728087
 10
22.757614940490036
 20
70.79669467744363
 10
22.812839500676155
 20
70.74219662948772
 10
22.86613768903206
 20
70.67772241663778
 10
22.92124192266098
 20
70.59585758822769
 10
22.981884722108376
 20
70.48918799560106
 10
23.051798763068483
 20
70.35029996469753
 10
23.13471694850219
 20
70.1717805293368
 10
23.234372500839562
 20
69.9462177316271
 10
23.354499073695628
 20
69.66620099926787
 10
23.498830882086402
 20
69.3243216139901
 10
23.671102849303935
 20
68.91317329128938
 10
23.803017694553652
 20
68.59941406676943
 10
23.918022139815466
 20
68.32990856840183
 10
24.018088927741424
 20
68.10079559972718
 10
24.105191104507718
 20
67.90821487121943
 10
24.181301963572622
 20
67.74830687495117
 10
24.24839499593653
 20
67.61721276046494
 10
24.308443846995118
 20
67.51107421574358
 10
24.36342227992498
 20
67.42603335656226
 10
24.41530414545562
 20
67.35823262688501
 10
24.46606335784933
 20
67.30381471237925
 10
24.517673876917087
 20
67.25892246859112
 10
24.60537812953548
 20
67.195567668365
 10
24.692801429719626
 20
67.1447237046727
 10
24.782139903464294
 20
67.10636991646155
 10
24.875589619582406
 20
67.08048565070959
 10
24.975346564696324
 20
67.06705025668452
 10
25.083606613636814
 20
67.0660430771386
 10
25.202565495108825
 20
67.07744343662992
 10
25.33441875241288
 20
67.10123062720685
 10
25.481361698925795
 20
67.1373838917436
 10
25.64558936794512
 20
67.18588240526742
 10
25.82929645638832
 20
67.24670525468315
 10
26.127581063688446
 20
67.35523588589483
 10
26.372310153186163
 20
67.46017130911562
 10
26.565544893258796
 20
67.56760966718504
 10
26.70934523128581
 20
67.68364875789501
 10
26.80577015163564
 20
67.81438616364667
 10
26.856877928916195
 20
67.96591941612292
 10
26.864726373029107
 20
68.1443461980165
 10
26.831373062549567
 20
68.35576458106533
 10
26.758875563305576
 20
68.60627329691384
 10
26.649291629770183
 20
68.9019720348067
 10
26.504679387959712
 20
69.24896175797653
 10
26.45300664103781
 20
69.37093122961423
 10
26.403639956952983
 20
69.4914466637897
 10
26.357132104439167
 20
69.60892860409658
 10
26.31403582272213
 20
69.72179751235089
 10
26.27490382462215
 20
69.82847377590328
 10
26.240288800612777
 20
69.92737771745514
 10
26.21074342384438
 20
70.01692960729437
 10
26.186820356142544
 20
70.09554967789664
 10
26.16907225499369
 20
70.1616581408741
 10
26.158051781532848
 20
70.21367520629502
 10
26.154311609551655
 20
70.25002110444548
 10
26.158016064292607
 20
70.32310271450169
 10
26.16863000613968
 20
70.39449944747486
 10
26.186071233492346
 20
70.46407249948436
 10
26.21025753763687
 20
70.53168305504144
 10
26.241106703583945
 20
70.59719228762094
 10
26.27853651086964
 20
70.66046136022325
 10
26.322464734323226
 20
70.72135142592752
 10
26.372809144804734
 20
70.77972362843748
 10
26.429487509915194
 20
70.83543910262023
 10
26.492417594682575
 20
70.88835897503996
 10
26.561517162225783
 20
70.93834436448714
 10
26.793582267886602
 20
71.09423922060594
 10
65.95435315176262
 20
71.00499187455186
 10
73.07579912157877
 20
71.01536976662506
 10
79.43737064385746
 20
71.03113575837536
 10
85.05817670851745
 20
71.0462035356862
 10
89.95539320193348
 20
71.05784087778733
 10
94.14670919893271
 20
71.0653334857077
 10
97.65074989710722
 20
71.06877102823789
 10
100.48687649766708
 20
71.06846284071531
 10
102.67493690985394
 20
71.06471960340518
 10
104.23508775335512
 20
71.05778810929452
 10
105.18768359519906
 20
71.04784074672367
 10
105.55321160138766
 20
71.03498141521473
 10
105.96599437020551
 20
70.94083462871018
 10
106.37252646387007
 20
70.81037268878936
 10
106.76959454315887
 20
70.64592059352283
 10
107.15398458298144
 20
70.44980370640818
 10
107.52248188441267
 20
70.22434768299712
 10
107.87187109306576
 20
69.97187840673043
 10
108.19893622338665
 20
69.69472193171534
 10
108.50046068865875
 20
69.39520443025515
 10
108.77322733667317
 20
69.07565214300962
 10
109.0140184911645
 20
68.73839132972051
 10
109.21961599925353
 20
68.38574821847298
 10
109.35756637117002
 20
68.1157342897362
 10
109.47089541929165
 20
67.87195826679859
 10
109.56197627612433
 20
67.63216880573185
 10
109.63318326910716
 20
67.37411647142417
 10
109.6868917324304
 20
67.07555397288692
 10
109.72547799767091
 20
66.71423689575752
 10
109.75131961215335
 20
66.26792492967262
 10
109.76679585834654
 20
65.71438359241864
 10
109.77428868984722
 20
65.03138644865882
 10
109.77618426272743
 20
64.19671780052303
 10
109.77487532867386
 20
63.18817577605615
 10
109.77272571570006
 20
62.23623581746297
 10
109.76919669858664
 20
61.45430416949749
 10
109.7626807064717
 20
60.824605685972735
 10
109.75157326991885
 20
60.32937760926145
 10
109.73427318354028
 20
59.95086684332242
 10
109.70918225686374
 20
59.6713275532893
 10
109.67470482073574
 20
59.473019140159295
 10
109.62924712499577
 20
59.33820460048864
 10
109.57121672851588
 20
59.249149262060385
 10
109.49902195064047
 20
59.18811988085318
 10
109.41107142656776
 20
59.13738408679882
 10
109.37589714785054
 20
59.12180367442577
 10
109.31514331432795
 20
59.0986787373216
 10
109.23105552905962
 20
59.06874323438771
 10
109.125879407042
 20
59.032731098718
 10
109.00186057181345
 20
58.991376245313944
 10
108.86124465233306
 20
58.94541257818336
 10
108.70627728009504
 20
58.89557399689974
 10
108.53920408644971
 20
58.842594402675985
 10
108.36227070011252
 20
58.78720770398576
 10
108.17772274485229
 20
58.73014782174728
 10
107.98780583735716
 20
58.6721486940666
 10
107.78567179237743
 20
58.61076721096192
 10
107.56565207545582
 20
58.54388668784687
 10
107.3317617586078
 20
58.472730748690765
 10
107.08801589007658
 20
58.398523070613344
 10
106.83842948933277
 20
58.3224873947405
 10
106.58701754309715
 20
58.24584753470562
 10
106.33779500251887
 20
58.16982738253037
 10
106.09477678167198
 20
58.0956509115617
 10
105.86197775755421
 20
58.02454217610304
 10
105.64341277178282
 20
57.957725307359844
 10
105.44309663417894
 20
57.89642450532949
 10
105.24790495002563
 20
57.83665470353236
 10
105.04421869519815
 20
57.77428269831697
 10
104.8353106974396
 20
57.71031056635602
 10
104.62445375903603
 20
57.64574043988498
 10
104.41492065456697
 20
57.581574511341564
 10
104.20998412965825
 20
57.51881503579866
 10
104.01291690085915
 20
57.45846433095433
 10
103.82699165677377
 20
57.401524774430065
 10
103.65548106057409
 20
57.348998798133735
 10
103.50165775401152
 20
57.301888879467676
 10
103.36879436301923
 20
57.26119752920953
 10
103.24762398980442
 20
57.22349706585674
 10
103.1277508199478
 20
57.18507089087754
 10
103.01075409270283
 20
57.146488165461435
 10
102.89821304282621
 20
57.1083180620413
 10
102.79170690188575
 20
57.07112976148372
 10
102.69281489976797
 20
57.03549244984292
 10
102.60311626638862
 20
57.00197531466878
 10
102.52419023360446
 20
56.97114754086776
 10
102.45761603731808
 20
56.94357830612691
 10
102.40497291976301
 20
56.91983677592339
 10
102.36784013194776
 20
56.90049209815544
 10
102.30164919925073
 20
56.85492475765812
 10
102.23947913612207
 20
56.7991260134715
 10
102.18206036414536
 20
56.73462928856697
 10
102.13012335706819
 20
56.66296793851568
 10
102.08439863253992
 20
56.58567523132671
 10
102.04561674356762
 20
56.50428433157349
 10
102.0145082696793
 20
56.420328289046324
 10
101.99180380782799
 20
56.33534003216496
 10
101.9782339631097
 20
56.250852366368576
 10
101.9745293394047
 20
56.16839797767133
 10
101.98142053007835
 20
56.08950944152798
 10
102.00903856556677
 20
55.95952817266979
 10
102.05178892183945
 20
55.80950163415163
 10
102.10694110957719
 20
55.64552017911665
 10
102.17176421411699
 20
55.47367384386992
 10
102.24352673025325
 20
55.30005237643032
 10
102.31949646154479
 20
55.13074529048032
 10
102.396940486491
 20
54.97184193926965
 10
102.47312519328379
 20
54.82943160325989
 10
102.54531638394009
 20
54.70960358550211
 10
102.61077944759894
 20
54.618447309924626
 10
102.666779601734
 20
54.562052419842544
 10
102.77305521041792
 20
54.489406780481964
 10
102.8798541542446
 20
54.43560574578151
 10
103.00070881872266
 20
54.4033318915643
 10
103.14915191979387
 20
54.39526744794665
 10
103.33871638775784
 20
54.41409450247781
 10
103.58293528182288
 20
54.46249513804961
 10
103.89534173350808
 20
54.543151504606165
 10
104.28946891791549
 20
54.658745824178546
 10
104.77885005183863
 20
54.81196033094174
 10
105.37701841686557
 20
55.00547715158892
 10
106.09750740423678
 20
55.24197813584471
 10
106.49624409959617
 20
55.37253929205342
 10
106.88171007910975
 20
55.49731212899862
 10
107.24932831468061
 20
55.61489715073419
 10
107.59452176036831
 20
55.723894914204806
 10
107.91271335250576
 20
55.82290602847353
 10
108.19932601022393
 20
55.91053115286279
 10
108.44978263630469
 20
55.98537099422348
 10
108.65950611829547
 20
56.046026303507
 10
108.82391932983339
 20
56.091097871774934
 10
108.93844513214158
 20
56.11918652574232
 10
108.99850637567363
 20
56.12889312291087
 10
109.0792346992506
 20
56.12486552299686
 10
109.15889521799618
 20
56.112869274140934
 10
109.23660872069475
 20
56.09341598126576
 10
109.31149597932746
 20
56.06701729864802
 10
109.38267774447439
 20
56.034184928493026
 10
109.44927474172643
 20
55.99543061880931
 10
109.51040766906115
 20
55.95126616060192
 10
109.56519719513886
 20
55.90220338439412
 10
109.6127639584771
 20
55.84875415607862
 10
109.65222856746806
 20
55.7914303720908
 10
109.68271160120705
 20
55.730743953888535
 10
109.6979440550771
 20
55.56117819134106
 10
109.7106041697968
 20
55.116892017571416
 10
109.72075818871818
 20
54.3744620806084
 10
109.72850038130898
 20
53.310490535468396
 10
109.73396447588729
 20
51.9016058554115
 10
109.7373390624403
 20
50.12445846844152
 10
109.73888666487007
 20
47.9557073185576
 10
109.73896400198832
 20
45.37199204300074
 10
109.73803686416562
 20
42.34988520968623
 10
109.73667713978926
 20
38.865822420771025
 10
109.73552445889341
 20
34.89601836635063
 10
109.73554717560388
 20
30.021911667483653
 10
109.7363812072635
 20
25.975528548140197
 10
109.73648449331165
 20
22.6782911991442
 10
109.73480395049427
 20
20.05167461587279
 10
109.73059956326863
 20
18.017041321242537
 10
109.7233103647999
 20
16.495605225541603
 10
109.71247103399801
 20
15.408448561193726
 10
109.6976650484206
 20
14.676553720617509
 10
109.67849993882349
 20
14.22083457836138
 10
109.65459473900081
 20
13.962162276398919
 10
109.62557380697136
 20
13.8213843837668
 10
109.45583429418707
 20
13.33487787874502
 10
109.24015049432485
 20
12.872144691496098
 10
108.9816402980802
 20
12.436055519085459
 10
108.68342108428321
 20
12.02948115726531
 10
108.34860967295269
 20
11.655292435853319
 10
107.98032228054679
 20
11.316360153489313
 10
107.58167447652843
 20
11.015555009019243
 10
107.15578114042876
 20
10.755747526669294
 10
106.70575641865761
 20
10.539807972004429
 10
106.23471368039144
 20
10.370606255411207
 10
105.74576547199219
 20
10.251011819496663
 10
105.36255562468372
 20
10.216842899449906
 10
104.66481550372434
 20
10.190679231674741
 10
103.7230438489456
 20
10.172340867496866
 10
102.60773875998368
 20
10.161645785518003
 10
101.38938583681615
 20
10.158402066116611
 10
100.13844771127542
 20
10.162402416384538
 10
98.9253555786625
 20
10.173421350874781
 10
97.82050423027549
 20
10.191215312568293
 10
96.89425273160569
 20
10.215525754587103
 10
96.21693303379054
 20
10.246084819904898
 10
95.85886817829478
 20
10.282623041437153
  0
LWPOLYLINE
  5
40
330
3C
100
AcDbEntity
  8
CUT
100
AcDbPolyline
 90
157
 70
1
 10
98.62133661168683
 20
24.755344589113975
 10
98.92236808663411
 20
24.869395448974917
 10
99.20126835374039
 20
25.003029550713066
 10
99.45813773748313
 20
25.1564094696252
 10
99.69307855199649
 20
25.32969293681861
 10
99.9061949055073
 20
25.52303320223222
 10
100.0975924241031
 20
25.736579215458292
 10
100.26737791916267
 20
25.970475621067287
 10
100.41565901549373
 20
26.22486255834231
 10
100.54254375267766
 20
26.499875245729363
 10
100.64814017039919
 20
26.795643317552678
 10
100.73255589014772
 20
27.11228986381678
 10
100.75727227312876
 20
27.244867257353384
 10
100.77699345281387
 20
27.419433622807137
 10
100.79166868016317
 20
27.662651129960153
 10
100.80120359915237
 20
28.001081226140958
 10
100.80543824297484
 20
28.46110258728006
 10
100.80413169670803
 20
29.068765032091335
 10
100.79699364166001
 20
29.849532798694526
 10
100.78389174412689
 20
30.827860754885375
 10
100.76559780996723
 20
32.02667136345312
 10
100.74576842462804
 20
33.467580620979206
 10
100.73372729034294
 20
35.17492826987117
 10
100.80383077377665
 20
42.75809787820269
 10
100.64795575686595
 20
43.205317624805375
 10
100.54248111884995
 20
43.47445069402424
 10
100.41933497722044
 20
43.72776077543141
 10
100.278956568187
 20
43.964822137492845
 10
100.12178522246579
 20
44.18521106394008
 10
99.94826051341269
 20
44.38850560781965
 10
99.75882240732109
 20
44.57428541172923
 10
99.55391141776076
 20
44.74213158471616
 10
99.33396876602274
 20
44.891626629616106
 10
99.09943654980769
 20
45.022354417360845
 10
98.85075792226635
 20
45.13390020720616
 10
98.58837728335573
 20
45.22585071409683
 10
98.35968679797433
 20
45.29065636205933
 10
98.14581848822637
 20
45.33896355937995
 10
97.93907996909223
 20
45.36985233639311
 10
97.73179117339879
 20
45.38241331343547
 10
97.51628430459654
 20
45.375747273189056
 10
97.28490556937334
 20
45.348965599065004
 10
97.03001849811028
 20
45.301192087966086
 10
96.74400861410365
 20
45.231566775339935
 10
96.41928901858549
 20
45.13925265816146
 10
96.04830597431364
 20
45.023446551320056
 10
95.62354255729102
 20
44.8833956774857
 10
95.41138392819346
 20
44.81204136961829
 10
95.19927515371549
 20
44.74041347220218
 10
94.9901347065659
 20
44.66952293609578
 10
94.78687527824653
 20
44.60037449862604
 10
94.5924047126995
 20
44.53396617849396
 10
94.4096271745898
 20
44.47128915705254
 10
94.24144443915124
 20
44.413328117556844
 10
94.09075717965968
 20
44.361062081915684
 10
93.96046613814138
 20
44.315465749500774
 10
93.85347309650462
 20
44.277511311166776
 10
93.7726816170922
 20
44.24817068889646
 10
93.57207144770224
 20
44.174628737712204
 10
93.30611436347908
 20
44.078374732664614
 10
92.98563534803156
 20
43.963414701668896
 10
92.6214243039985
 20
43.833748355528954
 10
92.22422873977361
 20
43.69334478834868
 10
91.80475805171325
 20
43.54611942414262
 10
91.37369973952265
 20
43.395916454025794
 10
90.94174445995411
 20
43.246501190625395
 10
90.5196136928637
 20
43.101564753188704
 10
90.11808260690496
 20
42.96473996193994
 10
89.74799223096225
 20
42.83962396631394
 10
89.38578406492594
 20
42.71421085925794
 10
89.06924277873127
 20
42.5961142668905
 10
88.79417641843912
 20
42.4823366189786
 10
88.55636917112253
 20
42.36991471113449
 10
88.35158172271612
 20
42.255908711880686
 10
88.17555382415271
 20
42.13739480587354
 10
88.02400761836851
 20
42.01146069791068
 10
87.89265089763222
 20
41.875203261422016
 10
87.77717982217989
 20
41.72572776186317
 10
87.67328081160623
 20
41.560148226669256
 10
87.57663138085887
 20
41.375588628241765
 10
87.50770184983203
 20
41.22220075760183
 10
87.44879731490447
 20
41.067308898187335
 10
87.39992803919723
 20
40.910937117489944
 10
87.36110398591273
 20
40.75310995301007
 10
87.3323348276391
 20
40.59385239432288
 10
87.3136299585014
 20
40.43318987299569
 10
87.30499850858831
 20
40.27114826069385
 10
87.30644936018558
 20
40.107753875952966
 10
87.31799116543206
 20
39.943033500282205
 10
87.33963236508465
 20
39.777014404502765
 10
87.37138120813071
 20
39.60972438653128
 10
87.4055806089787
 20
39.46653042269066
 10
87.45298709742738
 20
39.316356168519214
 10
87.52850286614733
 20
39.13272992174996
 10
87.64705062543304
 20
38.88927986936402
 10
87.82358428721182
 20
38.559814141091294
 10
88.07309542616102
 20
38.118485492723444
 10
88.41057964292311
 20
37.540123197221035
 10
88.850820606167
 20
36.80091087631129
 10
89.40742867821326
 20
35.879688827936334
 10
90.08916952780017
 20
34.7593217913349
 10
90.89126913643133
 20
33.419911324293004
 10
91.03327362492682
 20
33.17629046396758
 10
91.19042077146555
 20
32.903595916841944
 10
91.3594778925429
 20
32.60658741546492
 10
91.53748851715433
 20
32.29000942912451
 10
91.72175045964889
 20
31.95873503748535
 10
91.90971593613357
 20
31.617884663372795
 10
92.09885461366204
 20
31.272872534349656
 10
92.28653536571134
 20
30.929374430471945
 10
92.46996204088721
 20
30.593247235237225
 10
92.64616524862433
 20
30.270440267929686
 10
92.81203091017514
 20
29.9669249639296
 10
92.97328885131489
 20
29.672437463691214
 10
93.13627462278022
 20
29.37559302605504
 10
93.29865899009765
 20
29.080685839899786
 10
93.45806628627827
 20
28.79202034236304
 10
93.61208562152396
 20
28.513900739479297
 10
93.75828190285442
 20
28.250624656631903
 10
93.89420553881935
 20
28.006479951000184
 10
94.01740045050308
 20
27.785743652482612
 10
94.12541048933176
 20
27.592682158451723
 10
94.2157846186976
 20
27.431552028908435
 10
94.28608133182786
 20
27.306600923991898
 10
94.34602106795852
 20
27.20004166959962
 10
94.40637848418335
 20
27.092292123600295
 10
94.46630083736218
 20
26.984901952830764
 10
94.5249326403643
 20
26.879421547177362
 10
94.58141596684015
 20
26.7774018508613
 10
94.63489081723985
 20
26.680394201691836
 10
94.68449552982723
 20
26.589950184223646
 10
94.7293672252815
 20
26.507621499220534
 10
94.76864227855411
 20
26.434959848917337
 10
94.80145681680732
 20
26.37351683519579
 10
94.82694724749734
 20
26.324843865764944
 10
94.89337026353643
 20
26.21165742268892
 10
94.98107721793754
 20
26.086131128376316
 10
95.08630926527043
 20
25.952090114615615
 10
95.20529908136085
 20
25.813361948523777
 10
95.33426890489186
 20
25.673777652621055
 10
95.46942963797625
 20
25.53717201203202
 10
95.6069808399048
 20
25.407383378536586
 10
95.7431114502919
 20
25.288253175317394
 10
95.87400109035701
 20
25.183625273367355
 10
95.99582181619375
 20
25.097345365972252
 10
96.10474023554713
 20
25.033260422324084
 10
96.35585615063282
 20
24.91233386270149
 10
96.59827058476014
 20
24.811008131723074
 10
96.83338451700608
 20
24.729135089150596
 10
97.06260539922388
 20
24.66656179713233
 10
97.28734613991558
 20
24.623131314507248
 10
97.50902424723648
 20
24.59868321032271
 10
97.72906113567977
 20
24.593053863966357
 10
97.9488815974806
 20
24.606076603115508
 10
98.16991344043426
 20
24.637581719824365
 10
98.39358729676742
 20
24.687396398737704
 10
98.62133661168683
 20
24.755344589113975
  0
LWPOLYLINE
  5
41
330
3C
100
AcDbEntity
  8
CUT
100
AcDbPolyline
 90
111
 70
1
 10
60.39791501534554
 20
41.28086261297106
 10
61.92005963351447
 20
41.75449044850202
 10
63.39397890696102
 20
42.1665181864145
 10
64.68809272009557
 20
42.56401654016309
 10
65.78562821894732
 20
42.91572904510349
 10
66.696704420662
 20
43.21520331501697
 10
67.43460474798775
 20
43.463252700747
 10
68.01315215005695
 20
43.66297268691825
 10
68.44628480137652
 20
43.818329080253186
 10
68.74796658400692
 20
43.93367272843283
 10
68.93216545605674
 20
44.013544246270676
 10
69.0128482671369
 20
44.06258517798043
 10
69.07959615189901
 20
44.13936504326363
 10
69.13326561558607
 20
44.21722850144352
 10
69.17388723150106
 20
44.29788569409017
 10
69.20149328812236
 20
44.38304798893432
 10
69.21611815577327
 20
44.47442748444361
 10
69.21779876872318
 20
44.5737366592036
 10
69.20657521989583
 20
44.68268818208887
 10
69.18249146387038
 20
44.80299491314329
 10
69.14559611789213
 20
44.936370140797024
 10
69.0959433386332
 20
45.0845281181753
 10
69.03359373237876
 20
45.24918497854607
 10
68.95884773552342
 20
45.43448053827356
 10
68.89086407469588
 20
45.594198789115346
 10
68.82779659680784
 20
45.73083390011699
 10
68.76781107568854
 20
45.84687866212011
 10
68.70908291737346
 20
45.9448259337507
 10
68.64979519466624
 20
46.027169338998895
 10
68.58813707506849
 20
46.09640342782865
 10
68.5223026630864
 20
46.15502346573946
 10
68.4504902587249
 20
46.205524974791416
 10
68.37090203095894
 20
46.25040311302903
 10
68.28174411248655
 20
46.29215195404618
 10
68.21196812026717
 20
46.322007014162565
 10
68.15208997045778
 20
46.345714106129975
 10
68.09887471779277
 20
46.36314447593675
 10
68.04908989889938
 20
46.37416719080437
 10
67.99950496772166
 20
46.3786497909716
 10
67.94689083498479
 20
46.37645872548402
 10
67.88801954374173
 20
46.36745956341727
 10
67.81966410456657
 20
46.35151697246789
 10
67.73859851141371
 20
46.32849445094817
 10
67.6415979638508
 20
46.29825378640028
 10
67.52543933519463
 20
46.260654192709445
 10
67.40756165270372
 20
46.22169739856939
 10
67.20111468195793
 20
46.1528121863911
 10
66.91385894838709
 20
46.05653157365593
 10
66.55357410088004
 20
45.93535998401725
 10
66.12806554211934
 20
45.791766349455116
 10
65.64517711207769
 20
45.628171065898094
 10
65.11281465718125
 20
45.44692329081515
 10
64.53899109119132
 20
45.25026174940849
 10
63.93191740657808
 20
45.04024607241936
 10
63.30020034868023
 20
44.81863506030557
 10
62.653310716627445
 20
44.58667782204572
 10
61.97812288163058
 20
44.33564808765879
 10
61.27443997267471
 20
44.056347178049265
 10
60.59340099234973
 20
43.76224963035885
 10
59.95079741189375
 20
43.53692206263768
 10
59.21341422291186
 20
43.36344808574795
 10
58.41306928869608
 20
43.15319962100642
 10
57.610935366673345
 20
42.92010119988321
 10
56.832304213342155
 20
42.68268028694445
 10
56.09310701202463
 20
42.45179084341892
 10
55.40719761202799
 20
42.23476802219505
 10
54.78789530637854
 20
42.03744939895668
 10
53.77208626372853
 20
41.711466599658905
 10
52.93927902082862
 20
41.440786145792686
 10
52.270341140230926
 20
41.2184990426032
 10
51.746153577904636
 20
41.03707179366839
 10
51.34761378886082
 20
40.888706575635155
 10
51.05563018307989
 20
40.76548073772919
 10
50.851117408811646
 20
40.659408298523644
 10
50.71499312056464
 20
40.56246921978978
 10
50.62817588582956
 20
40.46662327166764
 10
50.57158398679449
 20
40.3638152253278
 10
50.52613509540928
 20
40.24597427249519
 10
50.50906344535882
 20
40.19392983511334
 10
50.4970884187664
 20
40.14372115971756
 10
50.49073422692171
 20
40.09268128213904
 10
50.49052398734733
 20
40.03814243926359
 10
50.49697945159271
 20
39.977436268947
 10
50.51062056917393
 20
39.90789390826191
 10
50.531964894535804
 20
39.82684596608513
 10
50.56152684665869
 20
39.731622334429844
 10
50.59981683800492
 20
39.61955178806289
 10
50.647340302605286
 20
39.48796130463713
 10
50.704596674484286
 20
39.33417501954987
 10
50.78561886696067
 20
39.12826158431045
 10
50.8646309115626
 20
38.949167880589556
 10
50.94342097197515
 20
38.79514376635186
 10
51.02376884898591
 20
38.66443831718517
 10
51.107447567833944
 20
38.555299108012775
 10
51.19622469798394
 20
38.465971971331996
 10
51.291863387652086
 20
38.394701105882305
 10
51.396123114350104
 20
38.3397294417503
 10
51.51076015883398
 20
38.29929919730212
 10
51.637527806889224
 20
38.271652588422114
 10
51.778176273662254
 20
38.25503267114653
 10
51.888441206638866
 20
38.2857604166371
 10
52.17848629705707
 20
38.377396781222444
 10
52.634330020300084
 20
38.5254560066284
 10
53.241926425360084
 20
38.72554335893108
 10
53.98712532876682
 20
38.97339669457876
 10
54.85558003270571
 20
39.264975964167405
 10
55.832522304597184
 20
39.59665350654758
 10
56.90214402398217
 20
39.9656346826629
 10
58.045588492549435
 20
40.37087915868409
 10
59.233090041893824
 20
40.814059053890986
 10
60.39791501534554
 20
41.28086261297106
  0
LWPOLYLINE
  5
42
330
3C
100
AcDbEntity
  8
CUT
100
AcDbPolyline
 90
335
 70
1
 10
39.23248195179857
 20
38.80204963978328
 10
39.42104750360197
 20
38.87931407990952
 10
39.58417249692766
 20
38.951879417410154
 10
39.72382378473057
 20
39.02144026359585
 10
39.841965416504394
 20
39.08969269454646
 10
39.94055882483812
 20
39.158333892147
 10
40.02156311025483
 20
39.22906177150674
 10
40.08693540040707
 20
39.30357460595766
 10
40.13863126030813
 20
39.3835706555521
 10
40.17860513285468
 20
39.470747799837724
 10
40.20881079277048
 20
39.56680317088792
 10
40.2312018016529
 20
39.67343277808897
 10
40.240351605486794
 20
39.73590394140557
 10
40.24128597720887
 20
39.80094326137076
 10
40.227907334237
 20
39.88292791385515
 10
40.1941188207946
 20
39.99622243352459
 10
40.13382218716771
 20
40.15516913376328
 10
40.04091372670806
 20
40.37407322895541
 10
39.909275642921834
 20
40.66718289919311
 10
39.73275817918176
 20
41.04866564010463
 10
39.505145105093874
 20
41.53258525310007
 10
39.22009266867046
 20
42.13289070065878
 10
38.871033584373876
 20
42.86344097046509
 10
38.7820307859982
 20
43.051356774855265
 10
38.6977019113569
 20
43.23354587067221
 10
38.61884759197196
 20
43.408078533524126
 10
38.54627152827849
 20
43.57302638121718
 10
38.480780212023944
 20
43.726461851929855
 10
38.423182476639624
 20
43.86645773685812
 10
38.374288882584686
 20
43.991086790750096
 10
38.334910949475315
 20
44.098421431769715
 10
38.30586024909741
 20
44.186533527831024
 10
38.28794737352062
 20
44.253494250558596
 10
38.28198079143155
 20
44.297373960728294
 10
38.28724671206576
 20
44.37595889903671
 10
38.30123340769126
 20
44.45765078445363
 10
38.32321924574195
 20
44.54105306958636
 10
38.35248263373511
 20
44.62477052975105
 10
38.388301987010216
 20
44.707409378011846
 10
38.42995569079241
 20
44.7875773445549
 10
38.47672205178742
 20
44.8638837154772
 10
38.52787923436209
 20
44.93493932479469
 10
38.5827051764777
 20
44.999356492205514
 10
38.64047748107477
 20
45.05574889785355
 10
38.70047327973234
 20
45.10273138402735
 10
38.73121073330114
 20
45.122328515728256
 10
38.76732653817756
 20
45.14272748745335
 10
38.80802715782902
 20
45.16360324225389
 10
38.852518999485994
 20
45.18463085791211
 10
38.90000841912876
 20
45.20548553096904
 10
38.94970172676439
 20
45.225842559001144
 10
39.0008051922038
 20
45.24537732062654
 10
39.05252505153897
 20
45.263765252777176
 10
39.104067514508664
 20
45.28068182484615
 10
39.15463877292606
 20
45.29580250941633
 10
39.203445010319314
 20
45.308802749403505
 10
39.46564684213206
 20
45.38302280981584
 10
39.99285780602672
 20
45.53931023887156
 10
40.7307221464046
 20
45.761266877716984
 10
41.624844203498284
 20
46.032581317268715
 10
42.62076090370969
 20
46.337074949630036
 10
43.663876831860556
 20
46.65880241227106
 10
44.69930553725361
 20
46.98226291216429
 10
45.671447291872205
 20
47.29284140711006
 10
46.522782804745226
 20
47.577602814584054
 10
47.190818895780374
 20
47.82530765047781
 10
47.60936982730683
 20
48.01617182432655
 10
47.72074646563675
 20
48.07852207183628
 10
47.818041329147476
 20
48.138604667812636
 10
47.89857583402965
 20
48.1893438254118
 10
47.9671552059424
 20
48.222931830898304
 10
48.03512091683127
 20
48.23854116554163
 10
48.109760749218424
 20
48.24399277604924
 10
48.189157597215306
 20
48.247372063711964
 10
48.26709485496316
 20
48.252066044815464
 10
48.33761178113685
 20
48.25808195353754
 10
48.39613895710307
 20
48.26420959993457
 10
48.43923926055245
 20
48.26910711235612
 10
48.49266982132669
 20
48.276205194001854
 10
48.582966924837066
 20
48.29075338566942
 10
48.70815613772429
 20
48.31439035731796
 10
48.86551479073127
 20
48.348244331944095
 10
49.051679201110765
 20
48.39255900749121
 10
49.26299034870094
 20
48.446790035956695
 10
49.49574804427824
 20
48.50989656349024
 10
49.74631623421935
 20
48.5806020710093
 10
50.0111395507854
 20
48.657555788845364
 10
50.28672754846512
 20
48.73941184817682
 10
50.56963417800264
 20
48.82485985656542
 10
50.89395818092966
 20
48.92372357687272
 10
51.28978580400271
 20
49.044998736462695
 10
51.74768356470476
 20
49.18599146930002
 10
52.25823561254739
 20
49.343837756367094
 10
52.81204385130103
 20
49.51557692038127
 10
53.3997234361798
 20
49.69820375974982
 10
54.01189775739198
 20
49.88869864663649
 10
54.63919457672093
 20
50.08404248352536
 10
55.27224352575342
 20
50.28122298179295
 10
55.901674659334205
 20
50.477236520413015
 10
56.518117698778944
 20
50.66908799077434
 10
57.12188402453101
 20
50.857033582487986
 10
57.714503608817495
 20
51.04173320484951
 10
58.288433447671835
 20
51.22080470034169
 10
58.836130296078466
 20
51.39186792640351
 10
59.35005061937632
 20
51.552544654529235
 10
59.82265057423802
 20
51.700458424049415
 10
60.24638600395571
 20
51.83323439617394
 10
60.6137124379366
 20
51.94849923442525
 10
60.91708508833886
 20
52.04388102802019
 10
61.148958838184136
 20
52.11700927175626
 10
61.30178821534256
 20
52.16551491801121
 10
61.42013360655608
 20
52.203331181670684
 10
61.55188403907506
 20
52.24542668855471
 10
61.69448673089022
 20
52.29098659167344
 10
61.845388933586236
 20
52.339195909909684
 10
62.00203793671837
 20
52.389239511687734
 10
62.161881069759744
 20
52.44030210836955
 10
62.32236570197975
 20
52.49156825580832
 10
62.4809392406169
 20
52.54222236250045
 10
62.635049127683374
 20
52.59144870291318
 10
62.78214283569231
 20
52.638431434778056
 10
62.91966786254095
 20
52.68235461939931
 10
63.06945344179077
 20
52.73022835508378
 10
63.252144723068625
 20
52.78868248585547
 10
63.46341310609005
 20
52.85633058212195
 10
63.698930029305615
 20
52.931786059911936
 10
63.9543669915085
 20
53.01366209881708
 10
64.22539556586908
 20
53.100571590099655
 10
64.50768740727352
 20
53.19112711114313
 10
64.7969142541017
 20
53.28394092142203
 10
65.08874792564788
 20
53.37762497497798
 10
65.37886031632107
 20
53.47079094475813
 10
65.66292338760974
 20
53.56205025486787
 10
65.9791677523414
 20
53.66338139112353
 10
66.3627162208678
 20
53.785792756750496
 10
66.80457917540605
 20
53.92644017906275
 10
67.29576714717992
 20
54.08247892171413
 10
67.82729084864233
 20
54.25106357380876
 10
68.39016118417945
 20
54.4293480190685
 10
68.97538924469616
 20
54.614485463581474
 10
69.57398629142789
 20
54.80362850144629
 10
70.17696373354413
 20
54.99392920108406
 10
70.77533310302995
 20
55.18253919941384
 10
71.36010602923884
 20
55.36660979537915
 10
71.92993584785283
 20
55.5459116084757
 10
72.48491844651151
 20
55.72067652110713
 10
73.01822937451112
 20
55.88874741012639
 10
73.52304421716616
 20
56.047967028956414
 10
73.99253858532163
 20
56.19617804454678
 10
74.41988810569413
 20
56.33122307110044
 10
74.79826841188414
 20
56.45094470120247
 10
75.12085513582005
 20
56.553185535256645
 10
75.38082389932246
 20
56.635788210370144
 10
75.57135030540474
 20
56.696595430075014
 10
75.6856099288312
 20
56.73344999659117
 10
75.76960422510001
 20
56.760753389064895
 10
75.87225673457951
 20
56.79382956394412
 10
75.9911261332751
 20
56.83190512989162
 10
76.12377109992102
 20
56.8742066859215
 10
76.26775031682881
 20
56.91996081849761
 10
76.4206224704854
 20
56.96839409950664
 10
76.57994625191446
 20
57.01873308505692
 10
76.74328035681829
 20
57.07020431503877
 10
76.90818348552014
 20
57.12203431337463
 10
77.072214342728
 20
57.17344958888536
 10
77.23293163713889
 20
57.223676636702656
 10
78.02098544690031
 20
57.47021519671523
 10
78.67667136638137
 20
57.67757845112581
 10
79.2137052440222
 20
57.85126896761272
 10
79.64580271267295
 20
57.99679009714939
 10
79.98667930023396
 20
58.119645622086026
 10
80.25005050291038
 20
58.225339545178656
 10
80.44963183015128
 20
58.319375987616894
 10
80.5991388258427
 20
58.40725917952408
 10
80.71228706749487
 20
58.49449353504843
 10
80.80279214338559
 20
58.5865838082804
 10
80.88436960662557
 20
58.68903532685793
 10
80.91359483356291
 20
58.73076423293697
 10
80.9389409169658
 20
58.772862814010594
 10
80.96062146332005
 20
58.816277814852576
 10
80.9788500961953
 20
58.861956016814865
 10
80.99384046126272
 20
58.9108442371459
 10
81.00580623213659
 20
58.96388933049601
 10
81.01496111699474
 20
59.02203819262599
 10
81.02151886592385
 20
59.08623776634801
 10
81.02569327891985
 20
59.15743504973982
 10
81.02769821445449
 20
59.236577106684074
 10
81.02774759849747
 20
59.32461107979412
 10
81.02173699025116
 20
59.46635111073165
 10
81.00635554354784
 20
59.599139139320755
 10
80.98152618191176
 20
59.723115210365464
 10
80.94717185288596
 20
59.838419452597186
 10
80.90321552545102
 20
59.9451920723959
 10
80.84958018782781
 20
60.043573347733926
 10
80.7861888456282
 20
60.133703622325335
 10
80.71296452032443
 20
60.215723299962704
 10
80.62983024801015
 20
60.289772839021396
 10
80.536709078432
 20
60.35599274711043
 10
80.4335240742722
 20
60.41452357584792
 10
80.33945913218413
 20
60.44820558927394
 10
80.12167775237138
 20
60.475512687613694
 10
79.65745315108002
 20
60.49673920059286
 10
78.82408779561068
 20
60.512132820754765
 10
77.49895177575809
 20
60.52183801156679
 10
75.55956342559456
 20
60.52579145041692
 10
72.88377468033653
 20
60.5235211982485
 10
69.35025390074473
 20
60.51373991568964
 10
64.83993518898112
 20
60.493532117533064
 10
59.24095539879245
 20
60.45743494210746
 10
52.463037550722085
 20
60.40562112403647
 10
24.92940455864027
 20
60.52299653111815
 10
24.260754514354524
 20
60.32765231315351
 10
23.781215748079063
 20
60.1645720427454
 10
23.326223245585602
 20
59.96366616906352
 10
22.89774416793344
 20
59.726887815056614
 10
22.497746954353158
 20
59.45619131909757
 10
22.12820119082209
 20
59.15353209325678
 10
21.79107749504094
 20
58.82086651944186
 10
21.48834741443637
 20
58.46015187632325
 10
21.221983334374997
 20
58.07334629176988
 10
20.993958394228184
 20
57.66240871696339
 10
20.80624640927973
 20
57.229298919557586
 10
20.66082179672609
 20
56.775977494289684
 10
20.50045177554223
 20
56.17587255359954
 10
20.50863911679679
 20
50.80065225996183
 10
20.509550883383397
 20
49.52286451108201
 10
20.51080723932757
 20
48.46141572847745
 10
20.513156240836032
 20
47.59353645172816
 10
20.517283669161245
 20
46.896498312663965
 10
20.52382227365242
 20
46.347592086854235
 10
20.533363034213462
 20
45.924114781731625
 10
20.54646589936635
 20
45.60336312031526
 10
20.56366889460079
 20
45.36263102900426
 10
20.585495272927197
 20
45.17920932825834
 10
20.612458716931744
 20
45.03038641127135
 10
20.64506669941306
 20
44.89344915630604
 10
20.83977157586758
 20
44.29306235948101
 10
21.103112083811038
 20
43.728810938649175
 10
21.429438021117747
 20
43.20513873072449
 10
21.813101219494953
 20
42.72648443647407
 10
22.248456039071037
 20
42.297281488094065
 10
22.72985983669585
 20
41.92195774906551
 10
23.25167340728442
 20
41.60493501824517
 10
23.80826138982519
 20
41.35062829451931
 10
24.39399261882655
 20
41.163444740319605
 10
25.003240385148025
 20
41.04778226136148
 10
25.630382542932722
 20
41.00802759624616
 10
25.837648167615434
 20
41.00916455789498
 10
26.023596492709906
 20
41.01551281116325
 10
26.203249308141675
 20
41.03111956727246
 10
26.391627641566828
 20
41.06003362311237
 10
26.603751981992932
 20
41.10630477944383
 10
26.85464247613755
 20
41.17398336648482
 10
27.159319085337337
 20
41.26711989226721
 10
27.532801696552774
 20
41.3897648188793
 10
27.990110184199406
 20
41.545968468272676
 10
28.546264419598593
 20
41.73978106359654
 10
29.216284220925868
 20
41.975252926257276
 10
29.547488619064985
 20
42.091751588788554
 10
29.893839291172
 20
42.21341763318869
 10
30.249732535751335
 20
42.33829101693719
 10
30.60956464100724
 20
42.464411727191035
 10
30.967731884595366
 20
42.58981978150394
 10
31.318630533715297
 20
42.712555227555185
 10
31.656656845719265
 20
42.83065814138037
 10
31.97620706943407
 20
42.94216862353371
 10
32.271677447398844
 20
43.04512679259584
 10
32.53746421919897
 20
43.137572775507344
 10
32.76796362601266
 20
43.21754669439547
 10
32.97642592864195
 20
43.29003923085696
 10
33.1782292078061
 20
43.360763120291914
 10
33.370961428739705
 20
43.42884158022944
 10
33.55221053906598
 20
43.49339787668242
 10
33.71956446414712
 20
43.55355533788145
 10
33.87061110273541
 20
43.608437367242416
 10
34.00293832317975
 20
43.6571674548464
 10
34.11413396048944
 20
43.69886918656256
 10
34.20178581458612
 20
43.73266624984366
 10
34.263481650077324
 20
43.75768243519873
 10
34.29680919785012
 20
43.773041632427926
 10
34.35333550048014
 20
43.799783964251425
 10
34.4144160627381
 20
43.81956534657548
 10
34.47976194939327
 20
43.83241682888623
 10
34.549083973236236
 20
43.83836946999704
 10
34.62209270434222
 20
43.837454313654796
 10
34.69849847976289
 20
43.82970236168421
 10
34.77801141400036
 20
43.815144544690305
 10
34.86034141064063
 20
43.79381169037261
 10
34.945198175543
 20
43.765734489551384
 10
35.03229123199688
 20
43.73094346006542
 10
35.12132993826528
 20
43.68946890877443
 10
35.20175019334319
 20
43.64705953721633
 10
35.27327053760733
 20
43.603447669158044
 10
35.33760125600655
 20
43.55632781354277
 10
35.39645140536038
 20
43.503394932253485
 10
35.45152881226198
 20
43.442344142929045
 10
35.50453997246957
 20
43.370870416615666
 10
35.55718985281987
 20
43.28666826005062
 10
35.611181600992225
 20
43.18743136823031
 10
35.66821617338745
 20
43.07085222758548
 10
35.72999189741256
 20
42.934621643879204
 10
35.79820399218683
 20
42.776428162391134
 10
35.82380315559073
 20
42.71692727857789
 10
35.856166537408896
 20
42.643215354254515
 10
35.894471292282574
 20
42.55708758782413
 10
35.93789479765039
 20
42.46033912627666
 10
35.98561497722375
 20
42.35476521853694
 10
36.03681056083207
 20
42.24216137334605
 10
36.09066127948695
 20
42.124323519430156
 10
36.14634799610434
 20
42.00304816253789
 10
36.20305277404924
 20
41.88013253162521
 10
36.259958887423636
 20
41.75737470506593
 10
36.31625077864729
 20
41.63657370725292
 10
36.37596648218258
 20
41.50860320973595
 10
36.44280606729096
 20
41.36502201718264
 10
36.51544906339685
 20
41.208658034931005
 10
36.59257695474729
 20
41.04234018998854
 10
36.672873458902856
 20
40.86889897016583
 10
36.75502462958536
 20
40.69116692009464
 10
36.837718800759866
 20
40.51197906368232
 10
36.91964639715448
 20
40.33417322214651
 10
36.99949964268605
 20
40.16059020020134
 10
37.07597220165131
 20
39.994073819223715
 10
37.14775878758839
 20
39.83747078403901
 10
37.317414680397604
 20
39.47583955197977
 10
37.46962308973272
 20
39.178176094056674
 10
37.61154724412905
 20
38.941023353253115
 10
37.75033302677704
 20
38.76090333171821
 10
37.89311560720202
 20
38.634320039952414
 10
38.047023225194394
 20
38.557763350640585
 10
38.21917872712262
 20
38.52771311235496
 10
38.416699253270465
 20
38.54064324114238
 10
38.646694238596744
 20
38.59302571901303
 10
38.91626163305879
 20
38.68133453582515
 10
39.23248195179857
 20
38.80204963978328
  0
ENDBLK
  5
3E
330
3C
100
AcDbEntity
  8
0
100
AcDbBlockEnd
  0
ENDSEC
  0
SECTION
  2
ENTITIES
  0
INSERT
  5
33
330
17
100
AcDbEntity
  8
0
100
AcDbBlockReference
  2
PART_0
 10
-7.7453142455405715
 20
-7.70025045318963
 30
0.0
  0
INSERT
  5
3A
330
17
100
AcDbEntity
  8
0
100
AcDbBlockReference
  2
PART_1
 10
96.79916424579216
 20
-7.697991551726851
 30
0.0
  0
INSERT
  5
43
330
17
100
AcDbEntity
  8
0
100
AcDbBlockReference
  2
PART_2
 10
201.3411201665435
 20
-7.6584020661166115
 30
0.0
  0
INSERT
  5
45
330
17
100
AcDbEntity
  8
0
100
AcDbBlockReference
  2
PART_2
 10
305.8811201665435
 20
-7.6584020661166115
 30
0.0
  0
LWPOLYLINE
  5
47
330
17
100
AcDbEntity
  8
SHEET_BORDER
 62
3
100
AcDbPolyline
 90
5
 70
0
 10
0.0
 20
0.0
 10
2440.0
 20
0.0
 10
2440.0
 20
1220.0
 10
0.0
 20
1220.0
 10
0.0
 20
0.0
  0
ENDSEC
  0
SECTION
  2
OBJECTS
  0
DICTIONARY
  5
A
330
0
100
AcDbDictionary
281
1
  3
ACAD_COLOR
350
B
  3
ACAD_GROUP
350
C
  3
ACAD_LAYOUT
350
D
  3
ACAD_MATERIAL
350
E
  3
ACAD_MLEADERSTYLE
350
F
  3
ACAD_MLINESTYLE
350
10
  3
ACAD_PLOTSETTINGS
350
11
  3
ACAD_PLOTSTYLENAME
350
12
  3
ACAD_SCALELIST
350
14
  3
ACAD_TABLESTYLE
350
15
  3
ACAD_VISUALSTYLE
350
16
  3
EZDXF_META
350
2D
  0
DICTIONARY
  5
B
330
A
100
AcDbDictionary
281
1
  0
DICTIONARY
  5
C
330
A
100
AcDbDictionary
281
1
  0
DICTIONARY
  5
D
330
A
100
AcDbDictionary
281
1
  3
Model
350
1A
  3
Layout1
350
1E
  0
DICTIONARY
  5
E
330
A
100
AcDbDictionary
281
1
  3
ByBlock
350
1F
  3
ByLayer
350
20
  3
Global
350
21
  0
DICTIONARY
  5
F
330
A
100
AcDbDictionary
281
1
  3
Standard
350
2C
  0
DICTIONARY
  5
10
330
A
100
AcDbDictionary
281
1
  3
Standard
350
22
  0
DICTIONARY
  5
11
330
A
100
AcDbDictionary
281
1
  0
ACDBDICTIONARYWDFLT
  5
12
330
A
100
AcDbDictionary
281
1
  3
Normal
350
13
100
AcDbDictionaryWithDefault
340
13
  0
ACDBPLACEHOLDER
  5
13
330
12
  0
DICTIONARY
  5
14
330
A
100
AcDbDictionary
281
1
  0
DICTIONARY
  5
15
330
A
100
AcDbDictionary
281
1
  0
DICTIONARY
  5
16
330
A
100
AcDbDictionary
281
1
  0
LAYOUT
  5
1A
330
D
100
AcDbPlotSettings
  1

  4
A3
  6

 40
7.5
 41
20.0
 42
7.5
 43
20.0
 44
420.0
 45
297.0
 46
0.0
 47
0.0
 48
0.0
 49
0.0
140
0.0
141
0.0
142
1.0
143
1.0
 70
1024
 72
1
 73
0
 74
5
  7

 75
16
 76
0
 77
2
 78
300
147
1.0
148
0.0
149
0.0
100
AcDbLayout
  1
Model
 70
1
 71
0
 10
0.0
 20
0.0
 11
420.0
 21
297.0
 12
0.0
 22
0.0
 32
0.0
 14
1e+20
 24
1e+20
 34
1e+20
 15
-1e+20
 25
-1e+20
 35
-1e+20
146
0.0
 13
0.0
 23
0.0
 33
0.0
 16
1.0
 26
0.0
 36
0.0
 17
0.0
 27
1.0
 37
0.0
 76
1
330
17
  0
LAYOUT
  5
1E
330
D
100
AcDbPlotSettings
  1

  4
A3
  6

 40
7.5
 41
20.0
 42
7.5
 43
20.0
 44
420.0
 45
297.0
 46
0.0
 47
0.0
 48
0.0
 49
0.0
140
0.0
141
0.0
142
1.0
143
1.0
 70
0
 72
1
 73
0
 74
5
  7

 75
16
 76
0
 77
2
 78
300
147
1.0
148
0.0
149
0.0
100
AcDbLayout
  1
Layout1
 70
1
 71
1
 10
0.0
 20
0.0
 11
420.0
 21
297.0
 12
0.0
 22
0.0
 32
0.0
 14
1e+20
 24
1e+20
 34
1e+20
 15
-1e+20
 25
-1e+20
 35
-1e+20
146
0.0
 13
0.0
 23
0.0
 33
0.0
 16
1.0
 26
0.0
 36
0.0
 17
0.0
 27
1.0
 37
0.0
 76
1
330
1B
  0
MATERIAL
  5
1F
102
{ACAD_REACTORS
330
E
102
}
330
E
100
AcDbMaterial
  1
ByBlock
  2

 70
0
 40
1.0
 71
1
 41
1.0
 91
-1023410177
 42
1.0
 72
1
  3

 73
1
 74
1
 75
1
 44
0.5
 73
0
 45
1.0
 46
1.0
 77
1
  4

 78
1
 79
1
170
1
 48
1.0
171
1
  6

172
1
173
1
174
1
140
1.0
141
1.0
175
1
  7

176
1
177
1
178
1
143
1.0
179
1
  8

270
1
271
1
272
1
145
1.0
146
1.0
273
1
  9

274
1
275
1
276
1
 42
1.0
 72
1
  3

 73
1
 74
1
 75
1
 94
63
  0
MATERIAL
  5
20
102
{ACAD_REACTORS
330
E
102
}
330
E
100
AcDbMaterial
  1
ByLayer
  2

 70
0
 40
1.0
 71
1
 41
1.0
 91
-1023410177
 42
1.0
 72
1
  3

 73
1
 74
1
 75
1
 44
0.5
 73
0
 45
1.0
 46
1.0
 77
1
  4

 78
1
 79
1
170
1
 48
1.0
171
1
  6

172
1
173
1
174
1
140
1.0
141
1.0
175
1
  7

176
1
177
1
178
1
143
1.0
179
1
  8

270
1
271
1
272
1
145
1.0
146
1.0
273
1
  9

274
1
275
1
276
1
 42
1.0
 72
1
  3

 73
1
 74
1
 75
1
 94
63
  0
MATERIAL
  5
21
102
{ACAD_REACTORS
330
E
102
}
330
E
100
AcDbMaterial
  1
Global
  2

 70
0
 40
1.0
 71
1
 41
1.0
 91
-1023410177
 42
1.0
 72
1
  3

 73
1
 74
1
 75
1
 44
0.5
 73
0
 45
1.0
 46
1.0
 77
1
  4

 78
1
 79
1
170
1
 48
1.0
171
1
  6

172
1
173
1
174
1
140
1.0
141
1.0
175
1
  7

176
1
177
1
178
1
143
1.0
179
1
  8

270
1
271
1
272
1
145
1.0
146
1.0
273
1
  9

274
1
275
1
276
1
 42
1.0
 72
1
  3

 73
1
 74
1
 75
1
 94
63
  0
MLINESTYLE
  5
22
102
{ACAD_REACTORS
330
10
102
}
330
10
100
AcDbMlineStyle
  2
Standard
 70
0
  3

 62
256
 51
90.0
 52
90.0
 71
2
 49
0.5
 62
256
  6
BYLAYER
 49
-0.5
 62
256
  6
BYLAYER
  0
MLEADERSTYLE
  5
2C
102
{ACAD_REACTORS
330
F
102
}
330
F
100
AcDbMLeaderStyle
179
2
170
2
171
1
172
0
 90
2
 40
0.0
 41
0.0
173
1
 91
-1056964608
 92
-2
290
1
 42
2.0
291
1
 43
8.0
  3
Standard
 44
4.0
300

342
29
174
1
175
1
176
0
178
1
 93
-1056964608
 45
4.0
292
0
297
0
 46
4.0
 94
-1056964608
 47
1.0
 49
1.0
140
1.0
294
1
141
0.0
177
0
142
1.0
295
0
296
0
143
3.75
271
0
272
9
273
9
  0
DICTIONARY
  5
2D
330
A
100
AcDbDictionary
280
1
281
1
  3
CREATED_BY_EZDXF
350
2E
  3
WRITTEN_BY_EZDXF
350
4A
  0
DICTIONARYVAR
  5
2E
330
2D
100
DictionaryVariables
280
0
  1
1.4.4 @ 2026-08-29T22:00:01.863357+00:00
  0
DICTIONARYVAR
  5
4A
330
2D
100
DictionaryVariables
280
0
  1
1.4.4 @ 2026-08-29T22:00:02.337197+00:00
  0
ENDSEC
  0
EOF
