  0
SECTION
  2
HEADER
  9
$ACADVER
  1
AC1024
  9
$ACADMAINTVER
 70
6
  9
$DWGCODEPAGE
  3
ANSI_1252
  9
$LASTSAVEDBY
  1
ezdxf
  9
$INSBASE
 10
0.0
 20
0.0
 30
0.0
  9
$EXTMIN
 10
1e+20
 20
1e+20
 30
1e+20
  9
$EXTMAX
 10
-1e+20
 20
-1e+20
 30
-1e+20
  9
$LIMMIN
 10
0.0
 20
0.0
  9
$LIMMAX
 10
420.0
 20
297.0
  9
$ORTHOMODE
 70
0
  9
$REGENMODE
 70
1
  9
$FILLMODE
 70
1
  9
$QTEXTMODE
 70
0
  9
$MIRRTEXT
 70
1
  9
$LTSCALE
 40
1.0
  9
$ATTMODE
 70
1
  9
$TEXTSIZE
 40
2.5
  9
$TRACEWID
 40
1.0
  9
$TEXTSTYLE
  7
Standard
  9
$CLAYER
  8
0
  9
$CELTYPE
  6
ByLayer
  9
$CECOLOR
 62
256
  9
$CELTSCALE
 40
1.0
  9
$DISPSILH
 70
0
  9
$DIMSCALE
 40
1.0
  9
$DIMASZ
 40
2.5
  9
$DIMEXO
 40
0.625
  9
$DIMDLI
 40
3.75
  9
$DIMRND
 40
0.0
  9
$DIMDLE
 40
0.0
  9
$DIMEXE
 40
1.25
  9
$DIMTP
 40
0.0
  9
$DIMTM
 40
0.0
  9
$DIMTXT
 40
2.5
  9
$DIMCEN
 40
2.5
  9
$DIMTSZ
 40
0.0
  9
$DIMTOL
 70
0
  9
$DIMLIM
 70
0
  9
$DIMTIH
 70
0
  9
$DIMTOH
 70
0
  9
$DIMSE1
 70
0
  9
$DIMSE2
 70
0
  9
$DIMTAD
 70
1
  9
$DIMZIN
 70
8
  9
$DIMBLK
  1

  9
$DIMASO
 70
1
  9
$DIMSHO
 70
1
  9
$DIMPOST
  1

  9
$DIMAPOST
  1

  9
$DIMALT
 70
0
  9
$DIMALTD
 70
3
  9
$DIMALTF
 40
0.03937007874
  9
$DIMLFAC
 40
1.0
  9
$DIMTOFL
 70
1
  9
$DIMTVP
 40
0.0
  9
$DIMTIX
 70
0
  9
$DIMSOXD
 70
0
  9
$DIMSAH
 70
0
  9
$DIMBLK1
  1

  9
$DIMBLK2
  1

  9
$DIMSTYLE
  2
ISO-25
  9
$DIMCLRD
 70
0
  9
$DIMCLRE
 70
0
  9
$DIMCLRT
 70
0
  9
$DIMTFAC
 40
1.0
  9
$DIMGAP
 40
0.625
  9
$DIMJUST
 70
0
  9
$DIMSD1
 70
0
  9
$DIMSD2
 70
0
  9
$DIMTOLJ
 70
0
  9
$DIMTZIN
 70
8
  9
$DIMALTZ
 70
0
  9
$DIMALTTZ
 70
0
  9
$DIMUPT
 70
0
  9
$DIMDEC
 70
2
  9
$DIMTDEC
 70
2
  9
$DIMALTU
 70
2
  9
$DIMALTTD
 70
3
  9
$DIMTXSTY
  7
Standard
  9
$DIMAUNIT
 70
0
  9
$DIMADEC
 70
0
  9
$DIMALTRND
 40
0.0
  9
$DIMAZIN
 70
0
  9
$DIMDSEP
 70
44
  9
$DIMATFIT
 70
3
  9
$DIMFRAC
 70
0
  9
$DIMLDRBLK
  1

  9
$DIMLUNIT
 70
2
  9
$DIMLWD
 70
-2
  9
$DIMLWE
 70
-2
  9
$DIMTMOVE
 70
0
  9
$DIMFXL
 40
1.0
  9
$DIMFXLON
 70
0
  9
$DIMJOGANG
 40
0.785398163397
  9
$DIMTFILL
 70
0
  9
$DIMTFILLCLR
 70
0
  9
$DIMARCSYM
 70
0
  9
$DIMLTYPE
  6

  9
$DIMLTEX1
  6

  9
$DIMLTEX2
  6

  9
$DIMTXTDIRECTION
 70
0
  9
$LUNITS
 70
2
  9
$LUPREC
 70
4
  9
$SKETCHINC
 40
1.0
  9
$FILLETRAD
 40
10.0
  9
$AUNITS
 70
0
  9
$AUPREC
 70
2
  9
$MENU
  1
.
  9
$ELEVATION
 40
0.0
  9
$PELEVATION
 40
0.0
  9
$THICKNESS
 40
0.0
  9
$LIMCHECK
 70
0
  9
$CHAMFERA
 40
0.0
  9
$CHAMFERB
 40
0.0
  9
$CHAMFERC
 40
0.0
  9
$CHAMFERD
 40
0.0
  9
$SKPOLY
 70
0
  9
$TDCREATE
 40
2461257.9421180557
  9
$TDUCREATE
 40
2458532.153996898
  9
$TDUPDATE
 40
2461257.9421180557
  9
$TDUUPDATE
 40
2458532.1544311
  9
$TDINDWG
 40
0.0
  9
$TDUSRTIMER
 40
0.0
  9
$USRTIMER
 70
1
  9
$ANGBASE
 50
0.0
  9
$ANGDIR
 70
0
  9
$PDMODE
 70
0
  9
$PDSIZE
 40
0.0
  9
$PLINEWID
 40
0.0
  9
$SPLFRAME
 70
0
  9
$SPLINETYPE
 70
6
  9
$SPLINESEGS
 70
8
  9
$HANDSEED
  5
37
  9
$SURFTAB1
 70
6
  9
$SURFTAB2
 70
6
  9
$SURFTYPE
 70
6
  9
$SURFU
 70
6
  9
$SURFV
 70
6
  9
$UCSBASE
  2

  9
$UCSNAME
  2

  9
$UCSORG
 10
0.0
 20
0.0
 30
0.0
  9
$UCSXDIR
 10
1.0
 20
0.0
 30
0.0
  9
$UCSYDIR
 10
0.0
 20
1.0
 30
0.0
  9
$UCSORTHOREF
  2

  9
$UCSORTHOVIEW
 70
0
  9
$UCSORGTOP
 10
0.0
 20
0.0
 30
0.0
  9
$UCSORGBOTTOM
 10
0.0
 20
0.0
 30
0.0
  9
$UCSORGLEFT
 10
0.0
 20
0.0
 30
0.0
  9
$UCSORGRIGHT
 10
0.0
 20
0.0
 30
0.0
  9
$UCSORGFRONT
 10
0.0
 20
0.0
 30
0.0
  9
$UCSORGBACK
 10
0.0
 20
0.0
 30
0.0
  9
$PUCSBASE
  2

  9
$PUCSNAME
  2

  9
$PUCSORG
 10
0.0
 20
0.0
 30
0.0
  9
$PUCSXDIR
 10
1.0
 20
0.0
 30
0.0
  9
$PUCSYDIR
 10
0.0
 20
1.0
 30
0.0
  9
$PUCSORTHOREF
  2

  9
$PUCSORTHOVIEW
 70
0
  9
$PUCSORGTOP
 10
0.0
 20
0.0
 30
0.0
  9
$PUCSORGBOTTOM
 10
0.0
 20
0.0
 30
0.0
  9
$PUCSORGLEFT
 10
0.0
 20
0.0
 30
0.0
  9
$PUCSORGRIGHT
 10
0.0
 20
0.0
 30
0.0
  9
$PUCSORGFRONT
 10
0.0
 20
0.0
 30
0.0
  9
$PUCSORGBACK
 10
0.0
 20
0.0
 30
0.0
  9
$USERI1
 70
0
  9
$USERI2
 70
0
  9
$USERI3
 70
0
  9
$USERI4
 70
0
  9
$USERI5
 70
0
  9
$USERR1
 40
0.0
  9
$USERR2
 40
0.0
  9
$USERR3
 40
0.0
  9
$USERR4
 40
0.0
  9
$USERR5
 40
0.0
  9
$WORLDVIEW
 70
1
  9
$SHADEDGE
 70
3
  9
$SHADEDIF
 70
70
  9
$TILEMODE
 70
1
  9
$MAXACTVP
 70
64
  9
$PINSBASE
 10
0.0
 20
0.0
 30
0.0
  9
$PLIMCHECK
 70
0
  9
$PEXTMIN
 10
1e+20
 20
1e+20
 30
1e+20
  9
$PEXTMAX
 10
-1e+20
 20
-1e+20
 30
-1e+20
  9
$PLIMMIN
 10
0.0
 20
0.0
  9
$PLIMMAX
 10
420.0
 20
297.0
  9
$UNITMODE
 70
0
  9
$VISRETAIN
 70
1
  9
$PLINEGEN
 70
0
  9
$PSLTSCALE
 70
1
  9
$TREEDEPTH
 70
3020
  9
$CMLSTYLE
  2
Standard
  9
$CMLJUST
 70
0
  9
$CMLSCALE
 40
20.0
  9
$PROXYGRAPHICS
 70
1
  9
$MEASUREMENT
 70
1
  9
$CELWEIGHT
370
-1
  9
$ENDCAPS
280
0
  9
$JOINSTYLE
280
0
  9
$LWDISPLAY
290
0
  9
$INSUNITS
 70
4
  9
$HYPERLINKBASE
  1

  9
$STYLESHEET
  1

  9
$XEDIT
290
1
  9
$CEPSNTYPE
380
0
  9
$PSTYLEMODE
290
1
  9
$FINGERPRINTGUID
  2
{D26C6E8A-1F5D-44F1-971F-A68EECAC0BC6}
  9
$VERSIONGUID
  2
{31BE3FBF-454C-458A-8FCD-E22A3B05C7CA}
  9
$EXTNAMES
290
1
  9
$PSVPSCALE
 40
0.0
  9
$OLESTARTUP
290
0
  9
$SORTENTS
280
127
  9
$INDEXCTL
280
0
  9
$HIDETEXT
280
1
  9
$XCLIPFRAME
280
1
  9
$HALOGAP
280
0
  9
$OBSCOLOR
 70
257
  9
$OBSLTYPE
280
0
  9
$INTERSECTIONDISPLAY
280
0
  9
$INTERSECTIONCOLOR
 70
257
  9
$DIMASSOC
280
2
  9
$PROJECTNAME
  1

  9
$CAMERADISPLAY
290
0
  9
$LENSLENGTH
 40
50.0
  9
$CAMERAHEIGHT
 40
0.0
  9
$STEPSPERSEC
 40
24.0
  9
$STEPSIZE
 40
100.0
  9
$3DDWFPREC
 40
2.0
  9
$PSOLWIDTH
 40
0.005
  9
$PSOLHEIGHT
 40
0.08
  9
$LOFTANG1
 40
1.570796326795
  9
$LOFTANG2
 40
1.570796326795
  9
$LOFTMAG1
 40
0.0
  9
$LOFTMAG2
 40
0.0
  9
$LOFTPARAM
 70
7
  9
$LOFTNORMALS
280
1
  9
$LATITUDE
 40
37.795
  9
$LONGITUDE
 40
-122.394
  9
$NORTHDIRECTION
 40
0.0
  9
$TIMEZONE
 70
-8000
  9
$LIGHTGLYPHDISPLAY
280
1
  9
$TILEMODELIGHTSYNCH
280
1
  9
$CMATERIAL
347
20
  9
$SOLIDHIST
280
0
  9
$SHOWHIST
280
1
  9
$DWFFRAME
280
2
  9
$DGNFRAME
280
2
  9
$REALWORLDSCALE
290
1
  9
$INTERFERECOLOR
 62
256
  9
$CSHADOW
280
0
  9
$SHADOWPLANELOCATION
 40
0.0
  0
ENDSEC
  0
SECTION
  2
CLASSES
  0
CLASS
  1
ACDBDICTIONARYWDFLT
  2
AcDbDictionaryWithDefault
  3
ObjectDBX Classes
 90
0
 91
0
280
0
281
0
  0
CLASS
  1
SUN
  2
AcDbSun
  3
SCENEOE
 90
1153
 91
0
280
0
281
0
  0
CLASS
  1
VISUALSTYLE
  2
AcDbVisualStyle
  3
ObjectDBX Classes
 90
4095
 91
0
280
0
281
0
  0
CLASS
  1
MATERIAL
  2
AcDbMaterial
  3
ObjectDBX Classes
 90
1153
 91
0
280
0
281
0
  0
CLASS
  1
SCALE
  2
AcDbScale
  3
ObjectDBX Classes
 90
1153
 91
0
280
0
281
0
  0
CLASS
  1
TABLESTYLE
  2
AcDbTableStyle
  3
ObjectDBX Classes
 90
4095
 91
0
280
0
281
0
  0
CLASS
  1
MLEADERSTYLE
  2
AcDbMLeaderStyle
  3
ACDB_MLEADERSTYLE_CLASS
 90
4095
 91
0
280
0
281
0
  0
CLASS
  1
DICTIONARYVAR
  2
AcDbDictionaryVar
  3
ObjectDBX Classes
 90
0
 91
0
280
0
281
0
  0
CLASS
  1
CELLSTYLEMAP
  2
AcDbCellStyleMap
  3
ObjectDBX Classes
 90
1152
 91
0
280
0
281
0
  0
CLASS
  1
MENTALRAYRENDERSETTINGS
  2
AcDbMentalRayRenderSettings
  3
SCENEOE
 90
1024
 91
0
280
0
281
0
  0
CLASS
  1
ACDBDETAILVIEWSTYLE
  2
AcDbDetailViewStyle
  3
ObjectDBX Classes
 90
1025
 91
0
280
0
281
0
  0
CLASS
  1
ACDBSECTIONVIEWSTYLE
  2
AcDbSectionViewStyle
  3
ObjectDBX Classes
 90
1025
 91
0
280
0
281
0
  0
CLASS
  1
RASTERVARIABLES
  2
AcDbRasterVariables
  3
ISM
 90
0
 91
0
280
0
281
0
  0
CLASS
  1
ACDBPLACEHOLDER
  2
AcDbPlaceHolder
  3
ObjectDBX Classes
 90
0
 91
0
280
0
281
0
  0
CLASS
  1
LAYOUT
  2
AcDbLayout
  3
ObjectDBX Classes
 90
0
 91
0
280
0
281
0
  0
ENDSEC
  0
SECTION
  2
TABLES
  0
TABLE
  2
VPORT
  5
8
330
0
100
AcDbSymbolTable
 70
1
  0
VPORT
  5
23
330
8
100
AcDbSymbolTableRecord
100
AcDbViewportTableRecord
  2
*Active
 70
0
 10
0.0
 20
0.0
 11
1.0
 21
1.0
 12
0.0
 22
0.0
 13
0.0
 23
0.0
 14
0.5
 24
0.5
 15
0.5
 25
0.5
 16
0.0
 26
0.0
 36
1.0
 17
0.0
 27
0.0
 37
0.0
 40
1000.0
 41
1.34
 42
50.0
 43
0.0
 44
0.0
 50
0.0
 51
0.0
 71
0
 72
1000
 73
1
 74
3
 75
0
 76
0
 77
0
 78
0
281
0
 65
0
146
0.0
  0
ENDTAB
  0
TABLE
  2
LTYPE
  5
2
330
0
100
AcDbSymbolTable
 70
3
  0
LTYPE
  5
24
330
2
100
AcDbSymbolTableRecord
100
AcDbLinetypeTableRecord
  2
ByBlock
 70
0
  3

 72
65
 73
0
 40
0.0
  0
LTYPE
  5
25
330
2
100
AcDbSymbolTableRecord
100
AcDbLinetypeTableRecord
  2
ByLayer
 70
0
  3

 72
65
 73
0
 40
0.0
  0
LTYPE
  5
26
330
2
100
AcDbSymbolTableRecord
100
AcDbLinetypeTableRecord
  2
Continuous
 70
0
  3

 72
65
 73
0
 40
0.0
  0
ENDTAB
  0
TABLE
  2
LAYER
  5
1
330
0
100
AcDbSymbolTable
 70
3
  0
LAYER
  5
27
330
1
100
AcDbSymbolTableRecord
100
AcDbLayerTableRecord
  2
0
 70
0
 62
7
  6
Continuous
370
-3
390
13
347
21
  0
LAYER
  5
28
330
1
100
AcDbSymbolTableRecord
100
AcDbLayerTableRecord
  2
Defpoints
 70
0
 62
7
  6
Continuous
290
0
370
-3
390
13
347
21
  0
LAYER
  5
2F
330
1
100
AcDbSymbolTableRecord
100
AcDbLayerTableRecord
  2
CUT
 70
0
 62
1
  6
Continuous
370
-3
390
13
347
21
  0
ENDTAB
  0
TABLE
  2
STYLE
  5
5
330
0
100
AcDbSymbolTable
 70
1
  0
STYLE
  5
29
330
5
100
AcDbSymbolTableRecord
100
AcDbTextStyleTableRecord
  2
Standard
 70
0
 40
0.0
 41
1.0
 50
0.0
 71
0
 42
2.5
  3
txt
  4

  0
ENDTAB
  0
TABLE
  2
VIEW
  5
7
330
0
100
AcDbSymbolTable
 70
0
  0
ENDTAB
  0
TABLE
  2
UCS
  5
6
330
0
100
AcDbSymbolTable
 70
0
  0
ENDTAB
  0
TABLE
  2
APPID
  5
3
330
0
100
AcDbSymbolTable
 70
3
  0
APPID
  5
2A
330
3
100
AcDbSymbolTableRecord
100
AcDbRegAppTableRecord
  2
ACAD
 70
0
  0
APPID
  5
34
330
3
100
AcDbSymbolTableRecord
100
AcDbRegAppTableRecord
  2
HATCHBACKGROUNDCOLOR
 70
0
  0
APPID
  5
35
330
3
100
AcDbSymbolTableRecord
100
AcDbRegAppTableRecord
  2
EZDXF
 70
0
  0
ENDTAB
  0
TABLE
  2
DIMSTYLE
  5
4
330
0
100
AcDbSymbolTable
 70
1
100
AcDbDimStyleTable
  0
DIMSTYLE
105
2B
330
4
100
AcDbSymbolTableRecord
100
AcDbDimStyleTableRecord
  2
Standard
 70
0
 40
1.0
 41
2.5
 42
0.625
 43
3.75
 44
1.25
 45
0.0
 46
0.0
 47
0.0
 48
0.0
 49
2.5
140
2.5
141
2.5
142
0.0
143
0.03937007874
144
1.0
145
0.0
146
1.0
147
0.625
148
0.0
 69
0
 70
0
 71
0
 72
0
 73
0
 74
0
 75
0
 76
0
 77
1
 78
8
 79
3
170
0
171
3
172
1
173
0
174
0
175
0
176
0
177
0
178
0
179
2
271
2
272
2
273
2
274
3
275
0
276
0
277
2
278
44
279
0
280
0
281
0
282
0
283
0
284
8
285
0
286
0
288
0
289
3
290
0
371
-2
372
-2
  0
ENDTAB
  0
TABLE
  2
BLOCK_RECORD
  5
9
330
0
100
AcDbSymbolTable
 70
2
  0
BLOCK_RECORD
  5
17
330
9
100
AcDbSymbolTableRecord
100
AcDbBlockTableRecord
  2
*Model_Space
340
1A
 70
0
280
1
281
0
  0
BLOCK_RECORD
  5
1B
330
9
100
AcDbSymbolTableRecord
100
AcDbBlockTableRecord
  2
*Paper_Space
340
1E
 70
0
280
1
281
0
  0
ENDTAB
  0
ENDSEC
  0
SECTION
  2
BLOCKS
  0
BLOCK
  5
18
330
17
100
AcDbEntity
  8
0
100
AcDbBlockBegin
  2
*Model_Space
 70
0
 10
0.0
 20
0.0
 30
0.0
  3
*Model_Space
  1

  0
ENDBLK
  5
19
330
17
100
AcDbEntity
  8
0
100
AcDbBlockEnd
  0
BLOCK
  5
1C
330
1B
100
AcDbEntity
  8
0
100
AcDbBlockBegin
  2
*Paper_Space
 70
0
 10
0.0
 20
0.0
 30
0.0
  3
*Paper_Space
  1

  0
ENDBLK
  5
1D
330
1B
100
AcDbEntity
  8
0
100
AcDbBlockEnd
  0
ENDSEC
  0
SECTION
  2
ENTITIES
  0
LWPOLYLINE
  5
30
330
17
100
AcDbEntity
  8
CUT
100
AcDbPolyline
 90
524
 70
1
 10
95.85886817829478
 20
10.282623041437153
 10
95.55751764376558
 20
10.35809881583061
 10
95.26620657064582
 20
10.446592414036548
 10
94.98419640969371
 20
10.548515713219171
 10
94.71074869306446
 20
10.664280559967624
 10
94.44512502207132
 20
10.794298756456145
 10
94.18658705452364
 20
10.938982046672447
 10
93.93439649169366
 20
11.098742102597393
 10
93.6878150649458
 20
11.273990510196667
 10
93.44610452204397
 20
11.465138755061686
 10
93.20852661313518
 20
11.672598207510967
 10
92.97434307638821
 20
11.896780106935925
 10
92.83076570981488
 20
12.042372100458858
 10
92.7011930945067
 20
12.179123866621685
 10
92.58139534047348
 20
12.312865666287761
 10
92.46714247795748
 20
12.449427656730741
 10
92.35420442853143
 20
12.594639848102355
 10
92.2383509585648
 20
12.754332038119614
 10
92.11535161388295
 20
12.93433372292828
 10
91.98097563391599
 20
13.140473981081737
 10
91.8309918428228
 20
13.378581326076588
 10
91.66116851393032
 20
13.654483520773285
 10
91.46727320226555
 20
13.974007344087934
 10
91.31885243976653
 20
14.219691572332017
 10
91.13736343752662
 20
14.52003790025262
 10
90.92712333137469
 20
14.867894700217818
 10
90.69244927782238
 20
15.2561102968004
 10
90.43765866020948
 20
15.67753323313136
 10
90.16706928370127
 20
16.12501253229509
 10
89.8849995598344
 20
16.59139795698873
 10
89.5957686791217
 20
17.069540267251984
 10
89.30369676802313
 20
17.552291472301818
 10
89.01310502438801
 20
18.032505068250966
 10
88.72831582334751
 20
18.503036248756327
 10
88.19584601931126
 20
19.384122783937936
 10
87.62781457395604
 20
20.326586307071047
 10
87.03583153948536
 20
21.310916536222287
 10
86.43151215368181
 20
22.317608353185623
 10
85.8264787780632
 20
23.327165236490416
 10
85.23236282623559
 20
24.32010341962326
 10
84.66080646945842
 20
25.276956654471185
 10
84.12346381041067
 20
26.17828118534194
 10
83.63200115244459
 20
27.00466014966267
 10
83.19809600644433
 20
27.736706163837372
 10
82.83343460969635
 20
28.355060459115737
 10
82.61361380092106
 20
28.723329649597158
 10
82.40140187247896
 20
29.066367017186867
 10
82.19432114347465
 20
29.387493302528004
 10
81.98989296426579
 20
29.69002706351689
 10
81.7856378127272
 20
29.97728473523159
 10
81.57907537337316
 20
30.252580691359242
 10
81.36772459445748
 20
30.519227290765738
 10
81.14910371887282
 20
30.780534891890785
 10
80.92073028502232
 20
31.039811816306994
 10
80.68012109377892
 20
31.3003642405546
 10
80.42479213714533
 20
31.56549599162303
 10
79.87469710958295
 20
32.101776558410776
 10
79.3092779572691
 20
32.6048723739502
 10
78.72747181881445
 20
33.075458223149276
 10
78.12821833870171
 20
33.514213803998025
 10
77.51046082414611
 20
33.9218251182056
 10
76.87314784369033
 20
34.29898632613464
 10
76.21523547718313
 20
34.646402222127776
 10
75.53569054727325
 20
34.96479154374574
 10
74.83349536083647
 20
35.25489140349529
 10
74.1076548208658
 20
35.5174632208786
 10
73.3572073345853
 20
35.753300613534414
 10
72.78160661527352
 20
35.908286578554524
 10
72.20339703632013
 20
36.03843424053986
 10
71.62508906039436
 20
36.143730136307035
 10
71.0492204027776
 20
36.22415702885033
 10
70.4783588748749
 20
36.27968373908542
 10
69.91510209206412
 20
36.31024966936897
 10
69.3620707906565
 20
36.31574323977112
 10
68.8218912220103
 20
36.295975150159734
 10
68.29716180334117
 20
36.25065088359867
 10
67.79040179953577
 20
36.17935210745692
 10
67.30398738788634
 20
36.08154146275646
 10
67.20428940049078
 20
36.055593966893085
 10
67.06152978249204
 20
36.01453549856035
 10
66.88017528814993
 20
35.959689458683414
 10
66.66469361909364
 20
35.89235013396241
 10
66.41953275364763
 20
35.813783093404396
 10
66.14910077864198
 20
35.72523070268353
 10
65.85774898959093
 20
35.62792443040449
 10
65.5497620163212
 20
35.52310392544203
 10
65.22935856455345
 20
35.41204046291182
 10
64.90070450380684
 20
35.29606008386229
 10
64.5679367602192
 20
35.17656078191787
 10
63.857542990759015
 20
34.92014496423564
 10
62.99543268093758
 20
34.60987787076748
 10
61.99784534361443
 20
34.25190112065585
 10
60.88167157596501
 20
33.85384481268083
 10
59.66526300426977
 20
33.42406223869053
 10
58.36832326914759
 20
32.97076893310238
 10
57.01132373996485
 20
32.50164751242309
 10
55.6149821659618
 20
32.02386473097286
 10
54.199978653913206
 20
31.54423938784038
 10
52.786853625345294
 20
31.06940060120901
 10
51.395997073918394
 20
30.605892657379812
 10
50.71624176672353
 20
30.380512623685217
 10
50.084480944070215
 20
30.171485252609923
 10
49.47905373784344
 20
29.97162420580777
 10
48.878265714285426
 20
29.773769159535505
 10
48.26039827336709
 20
29.570780218889748
 10
47.60371395335614
 20
29.3555348477906
 10
46.88645940835685
 20
29.120926417456854
 10
46.08686719490053
 20
28.859863664842155
 10
45.18315714191202
 20
28.5652704692317
 10
44.15353781996395
 20
28.23008545631815
 10
42.976208394217736
 20
27.847261064022412
 10
42.4356427781583
 20
27.671177932386243
 10
41.97267492123728
 20
27.5192643539811
 10
41.578563152322374
 20
27.38831970198605
 10
41.24456084748708
 20
27.275149099753932
 10
40.96191783775414
 20
27.176561892808802
 10
40.72188141044259
 20
27.08937051918058
 10
40.51569703308323
 20
27.010389666269234
 10
40.33460888145416
 20
26.936435640627266
 10
40.16986022367041
 20
26.864325902240196
 10
40.012693693395406
 20
26.790878731636106
 10
39.85435147315739
 20
26.712913009190682
 10
39.35129670957632
 20
26.446343050263284
 10
38.866672523794435
 20
26.15841453107418
 10
38.39030191969339
 20
25.839859413639083
 10
37.9120078867429
 20
25.481408087335673
 10
37.42161388744789
 20
25.073788419702353
 10
36.908944345732145
 20
24.607724895387875
 10
36.3638251304037
 20
24.07393789621405
 10
35.776084016375194
 20
23.46314318281013
 10
35.135551096088555
 20
22.76605163587014
 10
34.4320591061105
 20
21.973369301633447
 10
33.6554436310424
 20
21.075797762193346
 10
33.07226027726277
 20
20.394987437551876
 10
32.57880564720786
 20
19.8186746099406
 10
32.15903774523072
 20
19.32807115753007
 10
31.796919677197064
 20
18.904377732147786
 10
31.47641819829134
 20
18.528787260339534
 10
31.181502717007913
 20
18.182487226254473
 10
30.896144655439535
 20
17.84666109481563
 10
30.604317099293237
 20
17.502489093729864
 10
30.28999469076766
 20
17.131148496895104
 10
29.93715372653949
 20
16.713813515833877
 10
29.529772423963735
 20
16.23165489591046
 10
29.31684522172969
 20
15.979644372014402
 10
29.10699460579446
 20
15.73136307279977
 10
28.90294077883295
 20
15.49002472237244
 10
28.707403796753116
 20
15.258843300586044
 10
28.523103588195827
 20
15.041033004973677
 10
28.352759977676534
 20
14.83980820747487
 10
28.19909271206342
 20
14.658383406560748
 10
28.064821490224656
 20
14.499973175030018
 10
27.952665995829456
 20
14.36779210340471
 10
27.865345933453664
 20
14.26505473848831
 10
27.805581068324557
 20
14.194975516254168
 10
27.755073334880958
 20
14.13560871682992
 10
27.694631209842928
 20
14.063973736834306
 10
27.625634342009757
 20
13.981732562272718
 10
27.549462371338667
 20
13.890547194650617
 10
27.46749492118607
 20
13.79207966465022
 10
27.38111159204934
 20
13.68799204305899
 10
27.291691956787123
 20
13.579946449004218
 10
27.200615557279267
 20
13.469605055588506
 10
27.109261902475666
 20
13.358630093048676
 10
27.01901046777573
 20
13.248683849577585
 10
26.931240695676948
 20
13.141428669954767
 10
26.842234938932418
 20
13.033405839721848
 10
26.748394996480553
 20
12.921230583745526
 10
26.651279430883314
 20
12.806676239309276
 10
26.55244676980044
 20
12.69151620166841
 10
26.453455506069922
 20
12.577523923089684
 10
26.355864099106913
 20
12.466472909778036
 10
26.26123097754907
 20
12.360136716838351
 10
26.171114543081863
 20
12.260288941403793
 10
26.087073175386763
 20
12.168703214039171
 10
26.010665238168077
 20
12.087153188496742
 10
25.94344908623076
 20
12.017412529866087
 10
25.789705549604157
 20
11.869568966353548
 10
25.6192647847839
 20
11.72152623084267
 10
25.434654487316095
 20
11.574870961576412
 10
25.238402304410364
 20
11.43118980590289
 10
25.033035859698913
 20
11.292069395041944
 10
24.821082775603855
 20
11.15909632167427
 10
24.605070693276318
 20
11.033857120204509
 10
24.387527290158214
 20
10.917938249488632
 10
24.170980295287663
 20
10.812926077771289
 10
23.957957502523186
 20
10.7204068695447
 10
23.7509867819019
 20
10.641966774018472
 10
23.166793876511672
 20
10.438124846340374
 10
19.011046265504056
 20
10.426375034843138
 10
17.89135910795819
 20
10.423922666586616
 10
16.962312176364506
 20
10.424188759621916
 10
16.201269216475463
 20
10.428636996858971
 10
15.585581690793532
 20
10.438739568706291
 10
15.092592408071814
 20
10.455975064726411
 10
14.699638125996858
 20
10.481826772832523
 10
14.384051411435518
 20
10.517781341101287
 10
14.123161940921733
 20
10.565327761327472
 10
13.894297356710076
 20
10.625956642783777
 10
13.67478374977585
 20
10.701159754656352
 10
13.441945814022134
 20
10.792429824295393
 10
13.131759701915325
 20
10.929325722060925
 10
12.833120439290633
 20
11.084438672114157
 10
12.546946101867936
 20
11.25693860808566
 10
12.274154887752301
 20
11.445995392822484
 10
12.015665113231695
 20
11.650778828597296
 10
11.772395208435562
 20
11.870458666609776
 10
11.54526371285162
 20
12.104204615918427
 10
11.33518927069311
 20
12.351186351935617
 10
11.14309062610435
 20
12.610573524612862
 10
10.969886618188374
 20
12.881535766440312
 10
10.816496175836512
 20
13.163242700381653
 10
10.767797253838735
 20
13.262708293576
 10
10.718669306046156
 20
13.366678961578474
 10
10.669812385508623
 20
13.473474734838963
 10
10.62192659290127
 20
13.581415676112666
 10
10.575712077727825
 20
13.688821882398658
 10
10.531869037696232
 20
13.79401348547834
 10
10.491097716211879
 20
13.895310651129313
 10
10.454098397935327
 20
13.991033577086982
 10
10.421571402356106
 20
14.079502489817934
 10
10.394217075341762
 20
14.159037640155576
 10
10.37273577863178
 20
14.227959297830271
 10
10.344008184195303
 20
14.38014035471782
 10
10.320339115485327
 20
14.686115177897896
 10
10.301356610658761
 20
15.244185360484785
 10
10.286677648952953
 20
16.15262494766406
 10
10.275896353703708
 20
17.509658672730367
 10
10.268562241032733
 20
19.413434656220023
 10
10.26414087974804
 20
21.961995865802397
 10
10.261945617301967
 20
25.25326238535785
 10
10.26102859765509
 20
29.385053436419703
 10
10.260034070294862
 20
34.455207078723596
 10
10.257072090627922
 20
40.561882280036215
 10
10.251718133465651
 20
46.45731350456828
 10
10.245947693386247
 20
51.39822632867019
 10
10.241302776322103
 20
55.47038968283476
 10
10.238879833456505
 20
58.759247572958394
 10
10.239413771569792
 20
61.35018903648191
 10
10.243395438149344
 20
63.32866916019269
 10
10.251166390317215
 20
64.78024222979849
 10
10.262981978195327
 20
65.79055478794707
 10
10.279049596483983
 20
66.44532493635162
 10
10.299550802615922
 20
66.83031995594516
 10
10.32465383349456
 20
67.03133706647242
 10
10.452448902615714
 20
67.53877019459235
 10
10.627418091671037
 20
68.02135949044455
 10
10.847683431422155
 20
68.47712393252522
 10
11.111367195842787
 20
68.90408255907198
 10
11.416591920229942
 20
69.30025449581598
 10
11.76148042028447
 20
69.66365898515582
 10
12.144155812422184
 20
69.99231541756708
 10
12.562741535593485
 20
70.28424336612277
 10
13.015361374908968
 20
70.537462625088
 10
13.500139487389763
 20
70.74999325367409
 10
14.015200430182048
 20
70.91985562619227
 10
14.145008612985041
 20
70.95418740633355
 10
14.27747786243394
 20
70.98250823516844
 10
14.430221555002078
 20
71.00534463379063
 10
14.620852394873697
 20
71.02322258187665
 10
14.866982165051256
 20
71.03666728272933
 10
15.186221285329179
 20
71.0462027737735
 10
15.59617815143208
 20
71.05235137332846
 10
16.11445821311961
 20
71.05563294932779
 10
16.7586627244182
 20
71.05656398951487
 10
17.546387063187566
 20
71.0556564462755
 10
18.495218464852563
 20
71.05341632442587
 10
22.459673905072158
 20
71.04251854718979
 10
22.696731663679767
 20
70.84863119728087
 10
22.757614940490036
 20
70.79669467744363
 10
22.812839500676155
 20
70.74219662948772
 10
22.86613768903206
 20
70.67772241663778
 10
22.92124192266098
 20
70.59585758822769
 10
22.981884722108376
 20
70.48918799560106
 10
23.051798763068483
 20
70.35029996469753
 10
23.13471694850219
 20
70.1717805293368
 10
23.234372500839562
 20
69.9462177316271
 10
23.354499073695628
 20
69.66620099926787
 10
23.498830882086402
 20
69.3243216139901
 10
23.671102849303935
 20
68.91317329128938
 10
23.803017694553652
 20
68.59941406676943
 10
23.918022139815466
 20
68.32990856840183
 10
24.018088927741424
 20
68.10079559972718
 10
24.105191104507718
 20
67.90821487121943
 10
24.181301963572622
 20
67.74830687495117
 10
24.24839499593653
 20
67.61721276046494
 10
24.308443846995118
 20
67.51107421574358
 10
24.36342227992498
 20
67.42603335656226
 10
24.41530414545562
 20
67.35823262688501
 10
24.46606335784933
 20
67.30381471237925
 10
24.517673876917087
 20
67.25892246859112
 10
24.60537812953548
 20
67.195567668365
 10
24.692801429719626
 20
67.1447237046727
 10
24.782139903464294
 20
67.10636991646155
 10
24.875589619582406
 20
67.08048565070959
 10
24.975346564696324
 20
67.06705025668452
 10
25.083606613636814
 20
67.0660430771386
 10
25.202565495108825
 20
67.07744343662992
 10
25.33441875241288
 20
67.10123062720685
 10
25.481361698925795
 20
67.1373838917436
 10
25.64558936794512
 20
67.18588240526742
 10
25.82929645638832
 20
67.24670525468315
 10
26.127581063688446
 20
67.35523588589483
 10
26.372310153186163
 20
67.46017130911562
 10
26.565544893258796
 20
67.56760966718504
 10
26.70934523128581
 20
67.68364875789501
 10
26.80577015163564
 20
67.81438616364667
 10
26.856877928916195
 20
67.96591941612292
 10
26.864726373029107
 20
68.1443461980165
 10
26.831373062549567
 20
68.35576458106533
 10
26.758875563305576
 20
68.60627329691384
 10
26.649291629770183
 20
68.9019720348067
 10
26.504679387959712
 20
69.24896175797653
 10
26.45300664103781
 20
69.37093122961423
 10
26.403639956952983
 20
69.4914466637897
 10
26.357132104439167
 20
69.60892860409658
 10
26.31403582272213
 20
69.72179751235089
 10
26.27490382462215
 20
69.82847377590328
 10
26.240288800612777
 20
69.92737771745514
 10
26.21074342384438
 20
70.01692960729437
 10
26.186820356142544
 20
70.09554967789664
 10
26.16907225499369
 20
70.1616581408741
 10
26.158051781532848
 20
70.21367520629502
 10
26.154311609551655
 20
70.25002110444548
 10
26.158016064292607
 20
70.32310271450169
 10
26.16863000613968
 20
70.39449944747486
 10
26.186071233492346
 20
70.46407249948436
 10
26.21025753763687
 20
70.53168305504144
 10
26.241106703583945
 20
70.59719228762094
 10
26.27853651086964
 20
70.66046136022325
 10
26.322464734323226
 20
70.72135142592752
 10
26.372809144804734
 20
70.77972362843748
 10
26.429487509915194
 20
70.83543910262023
 10
26.492417594682575
 20
70.88835897503996
 10
26.561517162225783
 20
70.93834436448714
 10
26.793582267886602
 20
71.09423922060594
 10
65.95435315176262
 20
71.00499187455186
 10
73.07579912157877
 20
71.01536976662506
 10
79.43737064385746
 20
71.03113575837536
 10
85.05817670851745
 20
71.0462035356862
 10
89.95539320193348
 20
71.05784087778733
 10
94.14670919893271
 20
71.0653334857077
 10
97.65074989710722
 20
71.06877102823789
 10
100.48687649766708
 20
71.06846284071531
 10
102.67493690985394
 20
71.06471960340518
 10
104.23508775335512
 20
71.05778810929452
 10
105.18768359519906
 20
71.04784074672367
 10
105.55321160138766
 20
71.03498141521473
 10
105.96599437020551
 20
70.94083462871018
 10
106.37252646387007
 20
70.81037268878936
 10
106.76959454315887
 20
70.64592059352283
 10
107.15398458298144
 20
70.44980370640818
 10
107.52248188441267
 20
70.22434768299712
 10
107.87187109306576
 20
69.97187840673043
 10
108.19893622338665
 20
69.69472193171534
 10
108.50046068865875
 20
69.39520443025515
 10
108.77322733667317
 20
69.07565214300962
 10
109.0140184911645
 20
68.73839132972051
 10
109.21961599925353
 20
68.38574821847298
 10
109.35756637117002
 20
68.1157342897362
 10
109.47089541929165
 20
67.87195826679859
 10
109.56197627612433
 20
67.63216880573185
 10
109.63318326910716
 20
67.37411647142417
 10
109.6868917324304
 20
67.07555397288692
 10
109.72547799767091
 20
66.71423689575752
 10
109.75131961215335
 20
66.26792492967262
 10
109.76679585834654
 20
65.71438359241864
 10
109.77428868984722
 20
65.03138644865882
 10
109.77618426272743
 20
64.19671780052303
 10
109.77487532867386
 20
63.18817577605615
 10
109.77272571570006
 20
62.23623581746297
 10
109.76919669858664
 20
61.45430416949749
 10
109.7626807064717
 20
60.824605685972735
 10
109.75157326991885
 20
60.32937760926145
 10
109.73427318354028
 20
59.95086684332242
 10
109.70918225686374
 20
59.6713275532893
 10
109.67470482073574
 20
59.473019140159295
 10
109.62924712499577
 20
59.33820460048864
 10
109.57121672851588
 20
59.249149262060385
 10
109.49902195064047
 20
59.18811988085318
 10
109.41107142656776
 20
59.13738408679882
 10
109.37589714785054
 20
59.12180367442577
 10
109.31514331432795
 20
59.0986787373216
 10
109.23105552905962
 20
59.06874323438771
 10
109.125879407042
 20
59.032731098718
 10
109.00186057181345
 20
58.991376245313944
 10
108.86124465233306
 20
58.94541257818336
 10
108.70627728009504
 20
58.89557399689974
 10
108.53920408644971
 20
58.842594402675985
 10
108.36227070011252
 20
58.78720770398576
 10
108.17772274485229
 20
58.73014782174728
 10
107.98780583735716
 20
58.6721486940666
 10
107.78567179237743
 20
58.61076721096192
 10
107.56565207545582
 20
58.54388668784687
 10
107.3317617586078
 20
58.472730748690765
 10
107.08801589007658
 20
58.398523070613344
 10
106.83842948933277
 20
58.3224873947405
 10
106.58701754309715
 20
58.24584753470562
 10
106.33779500251887
 20
58.16982738253037
 10
106.09477678167198
 20
58.0956509115617
 10
105.86197775755421
 20
58.02454217610304
 10
105.64341277178282
 20
57.957725307359844
 10
105.44309663417894
 20
57.89642450532949
 10
105.24790495002563
 20
57.83665470353236
 10
105.04421869519815
 20
57.77428269831697
 10
104.8353106974396
 20
57.71031056635602
 10
104.62445375903603
 20
57.64574043988498
 10
104.41492065456697
 20
57.581574511341564
 10
104.20998412965825
 20
57.51881503579866
 10
104.01291690085915
 20
57.45846433095433
 10
103.82699165677377
 20
57.401524774430065
 10
103.65548106057409
 20
57.348998798133735
 10
103.50165775401152
 20
57.301888879467676
 10
103.36879436301923
 20
57.26119752920953
 10
103.24762398980442
 20
57.22349706585674
 10
103.1277508199478
 20
57.18507089087754
 10
103.01075409270283
 20
57.146488165461435
 10
102.89821304282621
 20
57.1083180620413
 10
102.79170690188575
 20
57.07112976148372
 10
102.69281489976797
 20
57.03549244984292
 10
102.60311626638862
 20
57.00197531466878
 10
102.52419023360446
 20
56.97114754086776
 10
102.45761603731808
 20
56.94357830612691
 10
102.40497291976301
 20
56.91983677592339
 10
102.36784013194776
 20
56.90049209815544
 10
102.30164919925073
 20
56.85492475765812
 10
102.23947913612207
 20
56.7991260134715
 10
102.18206036414536
 20
56.73462928856697
 10
102.13012335706819
 20
56.66296793851568
 10
102.08439863253992
 20
56.58567523132671
 10
102.04561674356762
 20
56.50428433157349
 10
102.0145082696793
 20
56.420328289046324
 10
101.99180380782799
 20
56.33534003216496
 10
101.9782339631097
 20
56.250852366368576
 10
101.9745293394047
 20
56.16839797767133
 10
101.98142053007835
 20
56.08950944152798
 10
102.00903856556677
 20
55.95952817266979
 10
102.05178892183945
 20
55.80950163415163
 10
102.10694110957719
 20
55.64552017911665
 10
102.17176421411699
 20
55.47367384386992
 10
102.24352673025325
 20
55.30005237643032
 10
102.31949646154479
 20
55.13074529048032
 10
102.396940486491
 20
54.97184193926965
 10
102.47312519328379
 20
54.82943160325989
 10
102.54531638394009
 20
54.70960358550211
 10
102.61077944759894
 20
54.618447309924626
 10
102.666779601734
 20
54.562052419842544
 10
102.77305521041792
 20
54.489406780481964
 10
102.8798541542446
 20
54.43560574578151
 10
103.00070881872266
 20
54.4033318915643
 10
103.14915191979387
 20
54.39526744794665
 10
103.33871638775784
 20
54.41409450247781
 10
103.58293528182288
 20
54.46249513804961
 10
103.89534173350808
 20
54.543151504606165
 10
104.28946891791549
 20
54.658745824178546
 10
104.77885005183863
 20
54.81196033094174
 10
105.37701841686557
 20
55.00547715158892
 10
106.09750740423678
 20
55.24197813584471
 10
106.49624409959617
 20
55.37253929205342
 10
106.88171007910975
 20
55.49731212899862
 10
107.24932831468061
 20
55.61489715073419
 10
107.59452176036831
 20
55.723894914204806
 10
107.91271335250576
 20
55.82290602847353
 10
108.19932601022393
 20
55.91053115286279
 10
108.44978263630469
 20
55.98537099422348
 10
108.65950611829547
 20
56.046026303507
 10
108.82391932983339
 20
56.091097871774934
 10
108.93844513214158
 20
56.11918652574232
 10
108.99850637567363
 20
56.12889312291087
 10
109.0792346992506
 20
56.12486552299686
 10
109.15889521799618
 20
56.112869274140934
 10
109.23660872069475
 20
56.09341598126576
 10
109.31149597932746
 20
56.06701729864802
 10
109.38267774447439
 20
56.034184928493026
 10
109.44927474172643
 20
55.99543061880931
 10
109.51040766906115
 20
55.95126616060192
 10
109.56519719513886
 20
55.90220338439412
 10
109.6127639584771
 20
55.84875415607862
 10
109.65222856746806
 20
55.7914303720908
 10
109.68271160120705
 20
55.730743953888535
 10
109.6979440550771
 20
55.56117819134106
 10
109.7106041697968
 20
55.116892017571416
 10
109.72075818871818
 20
54.3744620806084
 10
109.72850038130898
 20
53.310490535468396
 10
109.73396447588729
 20
51.9016058554115
 10
109.7373390624403
 20
50.12445846844152
 10
109.73888666487007
 20
47.9557073185576
 10
109.73896400198832
 20
45.37199204300074
 10
109.73803686416562
 20
42.34988520968623
 10
109.73667713978926
 20
38.865822420771025
 10
109.73552445889341
 20
34.89601836635063
 10
109.73554717560388
 20
30.021911667483653
 10
109.7363812072635
 20
25.975528548140197
 10
109.73648449331165
 20
22.6782911991442
 10
109.73480395049427
 20
20.05167461587279
 10
109.73059956326863
 20
18.017041321242537
 10
109.7233103647999
 20
16.495605225541603
 10
109.71247103399801
 20
15.408448561193726
 10
109.6976650484206
 20
14.676553720617509
 10
109.67849993882349
 20
14.22083457836138
 10
109.65459473900081
 20
13.962162276398919
 10
109.62557380697136
 20
13.8213843837668
 10
109.45583429418707
 20
13.33487787874502
 10
109.24015049432485
 20
12.872144691496098
 10
108.9816402980802
 20
12.436055519085459
 10
108.68342108428321
 20
12.02948115726531
 10
108.34860967295269
 20
11.655292435853319
 10
107.98032228054679
 20
11.316360153489313
 10
107.58167447652843
 20
11.015555009019243
 10
107.15578114042876
 20
10.755747526669294
 10
106.70575641865761
 20
10.539807972004429
 10
106.23471368039144
 20
10.370606255411207
 10
105.74576547199219
 20
10.251011819496663
 10
105.36255562468372
 20
10.216842899449906
 10
104.66481550372434
 20
10.190679231674741
 10
103.7230438489456
 20
10.172340867496866
 10
102.60773875998368
 20
10.161645785518003
 10
101.38938583681615
 20
10.158402066116611
 10
100.13844771127542
 20
10.162402416384538
 10
98.9253555786625
 20
10.173421350874781
 10
97.82050423027549
 20
10.191215312568293
 10
96.89425273160569
 20
10.215525754587103
 10
96.21693303379054
 20
10.246084819904898
 10
95.85886817829478
 20
10.282623041437153
  0
LWPOLYLINE
  5
31
330
17
100
AcDbEntity
  8
CUT
100
AcDbPolyline
 90
157
 70
1
 10
98.62133661168683
 20
24.755344589113975
 10
98.92236808663411
 20
24.869395448974917
 10
99.20126835374039
 20
25.003029550713066
 10
99.45813773748313
 20
25.1564094696252
 10
99.69307855199649
 20
25.32969293681861
 10
99.9061949055073
 20
25.52303320223222
 10
100.0975924241031
 20
25.736579215458292
 10
100.26737791916267
 20
25.970475621067287
 10
100.41565901549373
 20
26.22486255834231
 10
100.54254375267766
 20
26.499875245729363
 10
100.64814017039919
 20
26.795643317552678
 10
100.73255589014772
 20
27.11228986381678
 10
100.75727227312876
 20
27.244867257353384
 10
100.77699345281387
 20
27.419433622807137
 10
100.79166868016317
 20
27.662651129960153
 10
100.80120359915237
 20
28.001081226140958
 10
100.80543824297484
 20
28.46110258728006
 10
100.80413169670803
 20
29.068765032091335
 10
100.79699364166001
 20
29.849532798694526
 10
100.78389174412689
 20
30.827860754885375
 10
100.76559780996723
 20
32.02667136345312
 10
100.74576842462804
 20
33.467580620979206
 10
100.73372729034294
 20
35.17492826987117
 10
100.80383077377665
 20
42.75809787820269
 10
100.64795575686595
 20
43.205317624805375
 10
100.54248111884995
 20
43.47445069402424
 10
100.41933497722044
 20
43.72776077543141
 10
100.278956568187
 20
43.964822137492845
 10
100.12178522246579
 20
44.18521106394008
 10
99.94826051341269
 20
44.38850560781965
 10
99.75882240732109
 20
44.57428541172923
 10
99.55391141776076
 20
44.74213158471616
 10
99.33396876602274
 20
44.891626629616106
 10
99.09943654980769
 20
45.022354417360845
 10
98.85075792226635
 20
45.13390020720616
 10
98.58837728335573
 20
45.22585071409683
 10
98.35968679797433
 20
45.29065636205933
 10
98.14581848822637
 20
45.33896355937995
 10
97.93907996909223
 20
45.36985233639311
 10
97.73179117339879
 20
45.38241331343547
 10
97.51628430459654
 20
45.375747273189056
 10
97.28490556937334
 20
45.348965599065004
 10
97.03001849811028
 20
45.301192087966086
 10
96.74400861410365
 20
45.231566775339935
 10
96.41928901858549
 20
45.13925265816146
 10
96.04830597431364
 20
45.023446551320056
 10
95.62354255729102
 20
44.8833956774857
 10
95.41138392819346
 20
44.81204136961829
 10
95.19927515371549
 20
44.74041347220218
 10
94.9901347065659
 20
44.66952293609578
 10
94.78687527824653
 20
44.60037449862604
 10
94.5924047126995
 20
44.53396617849396
 10
94.4096271745898
 20
44.47128915705254
 10
94.24144443915124
 20
44.413328117556844
 10
94.09075717965968
 20
44.361062081915684
 10
93.96046613814138
 20
44.315465749500774
 10
93.85347309650462
 20
44.277511311166776
 10
93.7726816170922
 20
44.24817068889646
 10
93.57207144770224
 20
44.174628737712204
 10
93.30611436347908
 20
44.078374732664614
 10
92.98563534803156
 20
43.963414701668896
 10
92.6214243039985
 20
43.833748355528954
 10
92.22422873977361
 20
43.69334478834868
 10
91.80475805171325
 20
43.54611942414262
 10
91.37369973952265
 20
43.395916454025794
 10
90.94174445995411
 20
43.246501190625395
 10
90.5196136928637
 20
43.101564753188704
 10
90.11808260690496
 20
42.96473996193994
 10
89.74799223096225
 20
42.83962396631394
 10
89.38578406492594
 20
42.71421085925794
 10
89.06924277873127
 20
42.5961142668905
 10
88.79417641843912
 20
42.4823366189786
 10
88.55636917112253
 20
42.36991471113449
 10
88.35158172271612
 20
42.255908711880686
 10
88.17555382415271
 20
42.13739480587354
 10
88.02400761836851
 20
42.01146069791068
 10
87.89265089763222
 20
41.875203261422016
 10
87.77717982217989
 20
41.72572776186317
 10
87.67328081160623
 20
41.560148226669256
 10
87.57663138085887
 20
41.375588628241765
 10
87.50770184983203
 20
41.22220075760183
 10
87.44879731490447
 20
41.067308898187335
 10
87.39992803919723
 20
40.910937117489944
 10
87.36110398591273
 20
40.75310995301007
 10
87.3323348276391
 20
40.59385239432288
 10
87.3136299585014
 20
40.43318987299569
 10
87.30499850858831
 20
40.27114826069385
 10
87.30644936018558
 20
40.107753875952966
 10
87.31799116543206
 20
39.943033500282205
 10
87.33963236508465
 20
39.777014404502765
 10
87.37138120813071
 20
39.60972438653128
 10
87.4055806089787
 20
39.46653042269066
 10
87.45298709742738
 20
39.316356168519214
 10
87.52850286614733
 20
39.13272992174996
 10
87.64705062543304
 20
38.88927986936402
 10
87.82358428721182
 20
38.559814141091294
 10
88.07309542616102
 20
38.118485492723444
 10
88.41057964292311
 20
37.540123197221035
 10
88.850820606167
 20
36.80091087631129
 10
89.40742867821326
 20
35.879688827936334
 10
90.08916952780017
 20
34.7593217913349
 10
90.89126913643133
 20
33.419911324293004
 10
91.03327362492682
 20
33.17629046396758
 10
91.19042077146555
 20
32.903595916841944
 10
91.3594778925429
 20
32.60658741546492
 10
91.53748851715433
 20
32.29000942912451
 10
91.72175045964889
 20
31.95873503748535
 10
91.90971593613357
 20
31.617884663372795
 10
92.09885461366204
 20
31.272872534349656
 10
92.28653536571134
 20
30.929374430471945
 10
92.46996204088721
 20
30.593247235237225
 10
92.64616524862433
 20
30.270440267929686
 10
92.81203091017514
 20
29.9669249639296
 10
92.97328885131489
 20
29.672437463691214
 10
93.13627462278022
 20
29.37559302605504
 10
93.29865899009765
 20
29.080685839899786
 10
93.45806628627827
 20
28.79202034236304
 10
93.61208562152396
 20
28.513900739479297
 10
93.75828190285442
 20
28.250624656631903
 10
93.89420553881935
 20
28.006479951000184
 10
94.01740045050308
 20
27.785743652482612
 10
94.12541048933176
 20
27.592682158451723
 10
94.2157846186976
 20
27.431552028908435
 10
94.28608133182786
 20
27.306600923991898
 10
94.34602106795852
 20
27.20004166959962
 10
94.40637848418335
 20
27.092292123600295
 10
94.46630083736218
 20
26.984901952830764
 10
94.5249326403643
 20
26.879421547177362
 10
94.58141596684015
 20
26.7774018508613
 10
94.63489081723985
 20
26.680394201691836
 10
94.68449552982723
 20
26.589950184223646
 10
94.7293672252815
 20
26.507621499220534
 10
94.76864227855411
 20
26.434959848917337
 10
94.80145681680732
 20
26.37351683519579
 10
94.82694724749734
 20
26.324843865764944
 10
94.89337026353643
 20
26.21165742268892
 10
94.98107721793754
 20
26.086131128376316
 10
95.08630926527043
 20
25.952090114615615
 10
95.20529908136085
 20
25.813361948523777
 10
95.33426890489186
 20
25.673777652621055
 10
95.46942963797625
 20
25.53717201203202
 10
95.6069808399048
 20
25.407383378536586
 10
95.7431114502919
 20
25.288253175317394
 10
95.87400109035701
 20
25.183625273367355
 10
95.99582181619375
 20
25.097345365972252
 10
96.10474023554713
 20
25.033260422324084
 10
96.35585615063282
 20
24.91233386270149
 10
96.59827058476014
 20
24.811008131723074
 10
96.83338451700608
 20
24.729135089150596
 10
97.06260539922388
 20
24.66656179713233
 10
97.28734613991558
 20
24.623131314507248
 10
97.50902424723648
 20
24.59868321032271
 10
97.72906113567977
 20
24.593053863966357
 10
97.9488815974806
 20
24.606076603115508
 10
98.16991344043426
 20
24.637581719824365
 10
98.39358729676742
 20
24.687396398737704
 10
98.62133661168683
 20
24.755344589113975
  0
LWPOLYLINE
  5
32
330
17
100
AcDbEntity
  8
CUT
100
AcDbPolyline
 90
111
 70
1
 10
60.39791501534554
 20
41.28086261297106
 10
61.92005963351447
 20
41.75449044850202
 10
63.39397890696102
 20
42.1665181864145
 10
64.68809272009557
 20
42.56401654016309
 10
65.78562821894732
 20
42.91572904510349
 10
66.696704420662
 20
43.21520331501697
 10
67.43460474798775
 20
43.463252700747
 10
68.01315215005695
 20
43.66297268691825
 10
68.44628480137652
 20
43.818329080253186
 10
68.74796658400692
 20
43.93367272843283
 10
68.93216545605674
 20
44.013544246270676
 10
69.0128482671369
 20
44.06258517798043
 10
69.07959615189901
 20
44.13936504326363
 10
69.13326561558607
 20
44.21722850144352
 10
69.17388723150106
 20
44.29788569409017
 10
69.20149328812236
 20
44.38304798893432
 10
69.21611815577327
 20
44.47442748444361
 10
69.21779876872318
 20
44.5737366592036
 10
69.20657521989583
 20
44.68268818208887
 10
69.18249146387038
 20
44.80299491314329
 10
69.14559611789213
 20
44.936370140797024
 10
69.0959433386332
 20
45.0845281181753
 10
69.03359373237876
 20
45.24918497854607
 10
68.95884773552342
 20
45.43448053827356
 10
68.89086407469588
 20
45.594198789115346
 10
68.82779659680784
 20
45.73083390011699
 10
68.76781107568854
 20
45.84687866212011
 10
68.70908291737346
 20
45.9448259337507
 10
68.64979519466624
 20
46.027169338998895
 10
68.58813707506849
 20
46.09640342782865
 10
68.5223026630864
 20
46.15502346573946
 10
68.4504902587249
 20
46.205524974791416
 10
68.37090203095894
 20
46.25040311302903
 10
68.28174411248655
 20
46.29215195404618
 10
68.21196812026717
 20
46.322007014162565
 10
68.15208997045778
 20
46.345714106129975
 10
68.09887471779277
 20
46.36314447593675
 10
68.04908989889938
 20
46.37416719080437
 10
67.99950496772166
 20
46.3786497909716
 10
67.94689083498479
 20
46.37645872548402
 10
67.88801954374173
 20
46.36745956341727
 10
67.81966410456657
 20
46.35151697246789
 10
67.73859851141371
 20
46.32849445094817
 10
67.6415979638508
 20
46.29825378640028
 10
67.52543933519463
 20
46.260654192709445
 10
67.40756165270372
 20
46.22169739856939
 10
67.20111468195793
 20
46.1528121863911
 10
66.91385894838709
 20
46.05653157365593
 10
66.55357410088004
 20
45.93535998401725
 10
66.12806554211934
 20
45.791766349455116
 10
65.64517711207769
 20
45.628171065898094
 10
65.11281465718125
 20
45.44692329081515
 10
64.53899109119132
 20
45.25026174940849
 10
63.93191740657808
 20
45.04024607241936
 10
63.30020034868023
 20
44.81863506030557
 10
62.653310716627445
 20
44.58667782204572
 10
61.97812288163058
 20
44.33564808765879
 10
61.27443997267471
 20
44.056347178049265
 10
60.59340099234973
 20
43.76224963035885
 10
59.95079741189375
 20
43.53692206263768
 10
59.21341422291186
 20
43.36344808574795
 10
58.41306928869608
 20
43.15319962100642
 10
57.610935366673345
 20
42.92010119988321
 10
56.832304213342155
 20
42.68268028694445
 10
56.09310701202463
 20
42.45179084341892
 10
55.40719761202799
 20
42.23476802219505
 10
54.78789530637854
 20
42.03744939895668
 10
53.77208626372853
 20
41.711466599658905
 10
52.93927902082862
 20
41.440786145792686
 10
52.270341140230926
 20
41.2184990426032
 10
51.746153577904636
 20
41.03707179366839
 10
51.34761378886082
 20
40.888706575635155
 10
51.05563018307989
 20
40.76548073772919
 10
50.851117408811646
 20
40.659408298523644
 10
50.71499312056464
 20
40.56246921978978
 10
50.62817588582956
 20
40.46662327166764
 10
50.57158398679449
 20
40.3638152253278
 10
50.52613509540928
 20
40.24597427249519
 10
50.50906344535882
 20
40.19392983511334
 10
50.4970884187664
 20
40.14372115971756
 10
50.49073422692171
 20
40.09268128213904
 10
50.49052398734733
 20
40.03814243926359
 10
50.49697945159271
 20
39.977436268947
 10
50.51062056917393
 20
39.90789390826191
 10
50.531964894535804
 20
39.82684596608513
 10
50.56152684665869
 20
39.731622334429844
 10
50.59981683800492
 20
39.61955178806289
 10
50.647340302605286
 20
39.48796130463713
 10
50.704596674484286
 20
39.33417501954987
 10
50.78561886696067
 20
39.12826158431045
 10
50.8646309115626
 20
38.949167880589556
 10
50.94342097197515
 20
38.79514376635186
 10
51.02376884898591
 20
38.66443831718517
 10
51.107447567833944
 20
38.555299108012775
 10
51.19622469798394
 20
38.465971971331996
 10
51.291863387652086
 20
38.394701105882305
 10
51.396123114350104
 20
38.3397294417503
 10
51.51076015883398
 20
38.29929919730212
 10
51.637527806889224
 20
38.271652588422114
 10
51.778176273662254
 20
38.25503267114653
 10
51.888441206638866
 20
38.2857604166371
 10
52.17848629705707
 20
38.377396781222444
 10
52.634330020300084
 20
38.5254560066284
 10
53.241926425360084
 20
38.72554335893108
 10
53.98712532876682
 20
38.97339669457876
 10
54.85558003270571
 20
39.264975964167405
 10
55.832522304597184
 20
39.59665350654758
 10
56.90214402398217
 20
39.9656346826629
 10
58.045588492549435
 20
40.37087915868409
 10
59.233090041893824
 20
40.814059053890986
 10
60.39791501534554
 20
41.28086261297106
  0
LWPOLYLINE
  5
33
330
17
100
AcDbEntity
  8
CUT
100
AcDbPolyline
 90
335
 70
1
 10
39.23248195179857
 20
38.80204963978328
 10
39.42104750360197
 20
38.87931407990952
 10
39.58417249692766
 20
38.951879417410154
 10
39.72382378473057
 20
39.02144026359585
 10
39.841965416504394
 20
39.08969269454646
 10
39.94055882483812
 20
39.158333892147
 10
40.02156311025483
 20
39.22906177150674
 10
40.08693540040707
 20
39.30357460595766
 10
40.13863126030813
 20
39.3835706555521
 10
40.17860513285468
 20
39.470747799837724
 10
40.20881079277048
 20
39.56680317088792
 10
40.2312018016529
 20
39.67343277808897
 10
40.240351605486794
 20
39.73590394140557
 10
40.24128597720887
 20
39.80094326137076
 10
40.227907334237
 20
39.88292791385515
 10
40.1941188207946
 20
39.99622243352459
 10
40.13382218716771
 20
40.15516913376328
 10
40.04091372670806
 20
40.37407322895541
 10
39.909275642921834
 20
40.66718289919311
 10
39.73275817918176
 20
41.04866564010463
 10
39.505145105093874
 20
41.53258525310007
 10
39.22009266867046
 20
42.13289070065878
 10
38.871033584373876
 20
42.86344097046509
 10
38.7820307859982
 20
43.051356774855265
 10
38.6977019113569
 20
43.23354587067221
 10
38.61884759197196
 20
43.408078533524126
 10
38.54627152827849
 20
43.57302638121718
 10
38.480780212023944
 20
43.726461851929855
 10
38.423182476639624
 20
43.86645773685812
 10
38.374288882584686
 20
43.991086790750096
 10
38.334910949475315
 20
44.098421431769715
 10
38.30586024909741
 20
44.186533527831024
 10
38.28794737352062
 20
44.253494250558596
 10
38.28198079143155
 20
44.297373960728294
 10
38.28724671206576
 20
44.37595889903671
 10
38.30123340769126
 20
44.45765078445363
 10
38.32321924574195
 20
44.54105306958636
 10
38.35248263373511
 20
44.62477052975105
 10
38.388301987010216
 20
44.707409378011846
 10
38.42995569079241
 20
44.7875773445549
 10
38.47672205178742
 20
44.8638837154772
 10
38.52787923436209
 20
44.93493932479469
 10
38.5827051764777
 20
44.999356492205514
 10
38.64047748107477
 20
45.05574889785355
 10
38.70047327973234
 20
45.10273138402735
 10
38.73121073330114
 20
45.122328515728256
 10
38.76732653817756
 20
45.14272748745335
 10
38.80802715782902
 20
45.16360324225389
 10
38.852518999485994
 20
45.18463085791211
 10
38.90000841912876
 20
45.20548553096904
 10
38.94970172676439
 20
45.225842559001144
 10
39.0008051922038
 20
45.24537732062654
 10
39.05252505153897
 20
45.263765252777176
 10
39.104067514508664
 20
45.28068182484615
 10
39.15463877292606
 20
45.29580250941633
 10
39.203445010319314
 20
45.308802749403505
 10
39.46564684213206
 20
45.38302280981584
 10
39.99285780602672
 20
45.53931023887156
 10
40.7307221464046
 20
45.761266877716984
 10
41.624844203498284
 20
46.032581317268715
 10
42.62076090370969
 20
46.337074949630036
 10
43.663876831860556
 20
46.65880241227106
 10
44.69930553725361
 20
46.98226291216429
 10
45.671447291872205
 20
47.29284140711006
 10
46.522782804745226
 20
47.577602814584054
 10
47.190818895780374
 20
47.82530765047781
 10
47.60936982730683
 20
48.01617182432655
 10
47.72074646563675
 20
48.07852207183628
 10
47.818041329147476
 20
48.138604667812636
 10
47.89857583402965
 20
48.1893438254118
 10
47.9671552059424
 20
48.222931830898304
 10
48.03512091683127
 20
48.23854116554163
 10
48.109760749218424
 20
48.24399277604924
 10
48.189157597215306
 20
48.247372063711964
 10
48.26709485496316
 20
48.252066044815464
 10
48.33761178113685
 20
48.25808195353754
 10
48.39613895710307
 20
48.26420959993457
 10
48.43923926055245
 20
48.26910711235612
 10
48.49266982132669
 20
48.276205194001854
 10
48.582966924837066
 20
48.29075338566942
 10
48.70815613772429
 20
48.31439035731796
 10
48.86551479073127
 20
48.348244331944095
 10
49.051679201110765
 20
48.39255900749121
 10
49.26299034870094
 20
48.446790035956695
 10
49.49574804427824
 20
48.50989656349024
 10
49.74631623421935
 20
48.5806020710093
 10
50.0111395507854
 20
48.657555788845364
 10
50.28672754846512
 20
48.73941184817682
 10
50.56963417800264
 20
48.82485985656542
 10
50.89395818092966
 20
48.92372357687272
 10
51.28978580400271
 20
49.044998736462695
 10
51.74768356470476
 20
49.18599146930002
 10
52.25823561254739
 20
49.343837756367094
 10
52.81204385130103
 20
49.51557692038127
 10
53.3997234361798
 20
49.69820375974982
 10
54.01189775739198
 20
49.88869864663649
 10
54.63919457672093
 20
50.08404248352536
 10
55.27224352575342
 20
50.28122298179295
 10
55.901674659334205
 20
50.477236520413015
 10
56.518117698778944
 20
50.66908799077434
 10
57.12188402453101
 20
50.857033582487986
 10
57.714503608817495
 20
51.04173320484951
 10
58.288433447671835
 20
51.22080470034169
 10
58.836130296078466
 20
51.39186792640351
 10
59.35005061937632
 20
51.552544654529235
 10
59.82265057423802
 20
51.700458424049415
 10
60.24638600395571
 20
51.83323439617394
 10
60.6137124379366
 20
51.94849923442525
 10
60.91708508833886
 20
52.04388102802019
 10
61.148958838184136
 20
52.11700927175626
 10
61.30178821534256
 20
52.16551491801121
 10
61.42013360655608
 20
52.203331181670684
 10
61.55188403907506
 20
52.24542668855471
 10
61.69448673089022
 20
52.29098659167344
 10
61.845388933586236
 20
52.339195909909684
 10
62.00203793671837
 20
52.389239511687734
 10
62.161881069759744
 20
52.44030210836955
 10
62.32236570197975
 20
52.49156825580832
 10
62.4809392406169
 20
52.54222236250045
 10
62.635049127683374
 20
52.59144870291318
 10
62.78214283569231
 20
52.638431434778056
 10
62.91966786254095
 20
52.68235461939931
 10
63.06945344179077
 20
52.73022835508378
 10
63.252144723068625
 20
52.78868248585547
 10
63.46341310609005
 20
52.85633058212195
 10
63.698930029305615
 20
52.931786059911936
 10
63.9543669915085
 20
53.01366209881708
 10
64.22539556586908
 20
53.100571590099655
 10
64.50768740727352
 20
53.19112711114313
 10
64.7969142541017
 20
53.28394092142203
 10
65.08874792564788
 20
53.37762497497798
 10
65.37886031632107
 20
53.47079094475813
 10
65.66292338760974
 20
53.56205025486787
 10
65.9791677523414
 20
53.66338139112353
 10
66.3627162208678
 20
53.785792756750496
 10
66.80457917540605
 20
53.92644017906275
 10
67.29576714717992
 20
54.08247892171413
 10
67.82729084864233
 20
54.25106357380876
 10
68.39016118417945
 20
54.4293480190685
 10
68.97538924469616
 20
54.614485463581474
 10
69.57398629142789
 20
54.80362850144629
 10
70.17696373354413
 20
54.99392920108406
 10
70.77533310302995
 20
55.18253919941384
 10
71.36010602923884
 20
55.36660979537915
 10
71.92993584785283
 20
55.5459116084757
 10
72.48491844651151
 20
55.72067652110713
 10
73.01822937451112
 20
55.88874741012639
 10
73.52304421716616
 20
56.047967028956414
 10
73.99253858532163
 20
56.19617804454678
 10
74.41988810569413
 20
56.33122307110044
 10
74.79826841188414
 20
56.45094470120247
 10
75.12085513582005
 20
56.553185535256645
 10
75.38082389932246
 20
56.635788210370144
 10
75.57135030540474
 20
56.696595430075014
 10
75.6856099288312
 20
56.73344999659117
 10
75.76960422510001
 20
56.760753389064895
 10
75.87225673457951
 20
56.79382956394412
 10
75.9911261332751
 20
56.83190512989162
 10
76.12377109992102
 20
56.8742066859215
 10
76.26775031682881
 20
56.91996081849761
 10
76.4206224704854
 20
56.96839409950664
 10
76.57994625191446
 20
57.01873308505692
 10
76.74328035681829
 20
57.07020431503877
 10
76.90818348552014
 20
57.12203431337463
 10
77.072214342728
 20
57.17344958888536
 10
77.23293163713889
 20
57.223676636702656
 10
78.02098544690031
 20
57.47021519671523
 10
78.67667136638137
 20
57.67757845112581
 10
79.2137052440222
 20
57.85126896761272
 10
79.64580271267295
 20
57.99679009714939
 10
79.98667930023396
 20
58.119645622086026
 10
80.25005050291038
 20
58.225339545178656
 10
80.44963183015128
 20
58.319375987616894
 10
80.5991388258427
 20
58.40725917952408
 10
80.71228706749487
 20
58.49449353504843
 10
80.80279214338559
 20
58.5865838082804
 10
80.88436960662557
 20
58.68903532685793
 10
80.91359483356291
 20
58.73076423293697
 10
80.9389409169658
 20
58.772862814010594
 10
80.96062146332005
 20
58.816277814852576
 10
80.9788500961953
 20
58.861956016814865
 10
80.99384046126272
 20
58.9108442371459
 10
81.00580623213659
 20
58.96388933049601
 10
81.01496111699474
 20
59.02203819262599
 10
81.02151886592385
 20
59.08623776634801
 10
81.02569327891985
 20
59.15743504973982
 10
81.02769821445449
 20
59.236577106684074
 10
81.02774759849747
 20
59.32461107979412
 10
81.02173699025116
 20
59.46635111073165
 10
81.00635554354784
 20
59.599139139320755
 10
80.98152618191176
 20
59.723115210365464
 10
80.94717185288596
 20
59.838419452597186
 10
80.90321552545102
 20
59.9451920723959
 10
80.84958018782781
 20
60.043573347733926
 10
80.7861888456282
 20
60.133703622325335
 10
80.71296452032443
 20
60.215723299962704
 10
80.62983024801015
 20
60.289772839021396
 10
80.536709078432
 20
60.35599274711043
 10
80.4335240742722
 20
60.41452357584792
 10
80.33945913218413
 20
60.44820558927394
 10
80.12167775237138
 20
60.475512687613694
 10
79.65745315108002
 20
60.49673920059286
 10
78.82408779561068
 20
60.512132820754765
 10
77.49895177575809
 20
60.52183801156679
 10
75.55956342559456
 20
60.52579145041692
 10
72.88377468033653
 20
60.5235211982485
 10
69.35025390074473
 20
60.51373991568964
 10
64.83993518898112
 20
60.493532117533064
 10
59.24095539879245
 20
60.45743494210746
 10
52.463037550722085
 20
60.40562112403647
 10
24.92940455864027
 20
60.52299653111815
 10
24.260754514354524
 20
60.32765231315351
 10
23.781215748079063
 20
60.1645720427454
 10
23.326223245585602
 20
59.96366616906352
 10
22.89774416793344
 20
59.726887815056614
 10
22.497746954353158
 20
59.45619131909757
 10
22.12820119082209
 20
59.15353209325678
 10
21.79107749504094
 20
58.82086651944186
 10
21.48834741443637
 20
58.46015187632325
 10
21.221983334374997
 20
58.07334629176988
 10
20.993958394228184
 20
57.66240871696339
 10
20.80624640927973
 20
57.229298919557586
 10
20.66082179672609
 20
56.775977494289684
 10
20.50045177554223
 20
56.17587255359954
 10
20.50863911679679
 20
50.80065225996183
 10
20.509550883383397
 20
49.52286451108201
 10
20.51080723932757
 20
48.46141572847745
 10
20.513156240836032
 20
47.59353645172816
 10
20.517283669161245
 20
46.896498312663965
 10
20.52382227365242
 20
46.347592086854235
 10
20.533363034213462
 20
45.924114781731625
 10
20.54646589936635
 20
45.60336312031526
 10
20.56366889460079
 20
45.36263102900426
 10
20.585495272927197
 20
45.17920932825834
 10
20.612458716931744
 20
45.03038641127135
 10
20.64506669941306
 20
44.89344915630604
 10
20.83977157586758
 20
44.29306235948101
 10
21.103112083811038
 20
43.728810938649175
 10
21.429438021117747
 20
43.20513873072449
 10
21.813101219494953
 20
42.72648443647407
 10
22.248456039071037
 20
42.297281488094065
 10
22.72985983669585
 20
41.92195774906551
 10
23.25167340728442
 20
41.60493501824517
 10
23.80826138982519
 20
41.35062829451931
 10
24.39399261882655
 20
41.163444740319605
 10
25.003240385148025
 20
41.04778226136148
 10
25.630382542932722
 20
41.00802759624616
 10
25.837648167615434
 20
41.00916455789498
 10
26.023596492709906
 20
41.01551281116325
 10
26.203249308141675
 20
41.03111956727246
 10
26.391627641566828
 20
41.06003362311237
 10
26.603751981992932
 20
41.10630477944383
 10
26.85464247613755
 20
41.17398336648482
 10
27.159319085337337
 20
41.26711989226721
 10
27.532801696552774
 20
41.3897648188793
 10
27.990110184199406
 20
41.545968468272676
 10
28.546264419598593
 20
41.73978106359654
 10
29.216284220925868
 20
41.975252926257276
 10
29.547488619064985
 20
42.091751588788554
 10
29.893839291172
 20
42.21341763318869
 10
30.249732535751335
 20
42.33829101693719
 10
30.60956464100724
 20
42.464411727191035
 10
30.967731884595366
 20
42.58981978150394
 10
31.318630533715297
 20
42.712555227555185
 10
31.656656845719265
 20
42.83065814138037
 10
31.97620706943407
 20
42.94216862353371
 10
32.271677447398844
 20
43.04512679259584
 10
32.53746421919897
 20
43.137572775507344
 10
32.76796362601266
 20
43.21754669439547
 10
32.97642592864195
 20
43.29003923085696
 10
33.1782292078061
 20
43.360763120291914
 10
33.370961428739705
 20
43.42884158022944
 10
33.55221053906598
 20
43.49339787668242
 10
33.71956446414712
 20
43.55355533788145
 10
33.87061110273541
 20
43.608437367242416
 10
34.00293832317975
 20
43.6571674548464
 10
34.11413396048944
 20
43.69886918656256
 10
34.20178581458612
 20
43.73266624984366
 10
34.263481650077324
 20
43.75768243519873
 10
34.29680919785012
 20
43.773041632427926
 10
34.35333550048014
 20
43.799783964251425
 10
34.4144160627381
 20
43.81956534657548
 10
34.47976194939327
 20
43.83241682888623
 10
34.549083973236236
 20
43.83836946999704
 10
34.62209270434222
 20
43.837454313654796
 10
34.69849847976289
 20
43.82970236168421
 10
34.77801141400036
 20
43.815144544690305
 10
34.86034141064063
 20
43.79381169037261
 10
34.945198175543
 20
43.765734489551384
 10
35.03229123199688
 20
43.73094346006542
 10
35.12132993826528
 20
43.68946890877443
 10
35.20175019334319
 20
43.64705953721633
 10
35.27327053760733
 20
43.603447669158044
 10
35.33760125600655
 20
43.55632781354277
 10
35.39645140536038
 20
43.503394932253485
 10
35.45152881226198
 20
43.442344142929045
 10
35.50453997246957
 20
43.370870416615666
 10
35.55718985281987
 20
43.28666826005062
 10
35.611181600992225
 20
43.18743136823031
 10
35.66821617338745
 20
43.07085222758548
 10
35.72999189741256
 20
42.934621643879204
 10
35.79820399218683
 20
42.776428162391134
 10
35.82380315559073
 20
42.71692727857789
 10
35.856166537408896
 20
42.643215354254515
 10
35.894471292282574
 20
42.55708758782413
 10
35.93789479765039
 20
42.46033912627666
 10
35.98561497722375
 20
42.35476521853694
 10
36.03681056083207
 20
42.24216137334605
 10
36.09066127948695
 20
42.124323519430156
 10
36.14634799610434
 20
42.00304816253789
 10
36.20305277404924
 20
41.88013253162521
 10
36.259958887423636
 20
41.75737470506593
 10
36.31625077864729
 20
41.63657370725292
 10
36.37596648218258
 20
41.50860320973595
 10
36.44280606729096
 20
41.36502201718264
 10
36.51544906339685
 20
41.208658034931005
 10
36.59257695474729
 20
41.04234018998854
 10
36.672873458902856
 20
40.86889897016583
 10
36.75502462958536
 20
40.69116692009464
 10
36.837718800759866
 20
40.51197906368232
 10
36.91964639715448
 20
40.33417322214651
 10
36.99949964268605
 20
40.16059020020134
 10
37.07597220165131
 20
39.994073819223715
 10
37.14775878758839
 20
39.83747078403901
 10
37.317414680397604
 20
39.47583955197977
 10
37.46962308973272
 20
39.178176094056674
 10
37.61154724412905
 20
38.941023353253115
 10
37.75033302677704
 20
38.76090333171821
 10
37.89311560720202
 20
38.634320039952414
 10
38.047023225194394
 20
38.557763350640585
 10
38.21917872712262
 20
38.52771311235496
 10
38.416699253270465
 20
38.54064324114238
 10
38.646694238596744
 20
38.59302571901303
 10
38.91626163305879
 20
38.68133453582515
 10
39.23248195179857
 20
38.80204963978328
  0
ENDSEC
  0
SECTION
  2
OBJECTS
  0
DICTIONARY
  5
A
330
0
100
AcDbDictionary
281
1
  3
ACAD_COLOR
350
B
  3
ACAD_GROUP
350
C
  3
ACAD_LAYOUT
350
D
  3
ACAD_MATERIAL
350
E
  3
ACAD_MLEADERSTYLE
350
F
  3
ACAD_MLINESTYLE
350
10
  3
ACAD_PLOTSETTINGS
350
11
  3
ACAD_PLOTSTYLENAME
350
12
  3
ACAD_SCALELIST
350
14
  3
ACAD_TABLESTYLE
350
15
  3
ACAD_VISUALSTYLE
350
16
  3
EZDXF_META
350
2D
  0
DICTIONARY
  5
B
330
A
100
AcDbDictionary
281
1
  0
DICTIONARY
  5
C
330
A
100
AcDbDictionary
281
1
  0
DICTIONARY
  5
D
330
A
100
AcDbDictionary
281
1
  3
Model
350
1A
  3
Layout1
350
1E
  0
DICTIONARY
  5
E
330
A
100
AcDbDictionary
281
1
  3
ByBlock
350
1F
  3
ByLayer
350
20
  3
Global
350
21
  0
DICTIONARY
  5
F
330
A
100
AcDbDictionary
281
1
  3
Standard
350
2C
  0
DICTIONARY
  5
10
330
A
100
AcDbDictionary
281
1
  3
Standard
350
22
  0
DICTIONARY
  5
11
330
A
100
AcDbDictionary
281
1
  0
ACDBDICTIONARYWDFLT
  5
12
330
A
100
AcDbDictionary
281
1
  3
Normal
350
13
100
AcDbDictionaryWithDefault
340
13
  0
ACDBPLACEHOLDER
  5
13
330
12
  0
DICTIONARY
  5
14
330
A
100
AcDbDictionary
281
1
  0
DICTIONARY
  5
15
330
A
100
AcDbDictionary
281
1
  0
DICTIONARY
  5
16
330
A
100
AcDbDictionary
281
1
  0
LAYOUT
  5
1A
330
D
100
AcDbPlotSettings
  1

  4
A3
  6

 40
7.5
 41
20.0
 42
7.5
 43
20.0
 44
420.0
 45
297.0
 46
0.0
 47
0.0
 48
0.0
 49
0.0
140
0.0
141
0.0
142
1.0
143
1.0
 70
1024
 72
1
 73
0
 74
5
  7

 75
16
 76
0
 77
2
 78
300
147
1.0
148
0.0
149
0.0
100
AcDbLayout
  1
Model
 70
1
 71
0
 10
0.0
 20
0.0
 11
420.0
 21
297.0
 12
0.0
 22
0.0
 32
0.0
 14
1e+20
 24
1e+20
 34
1e+20
 15
-1e+20
 25
-1e+20
 35
-1e+20
146
0.0
 13
0.0
 23
0.0
 33
0.0
 16
1.0
 26
0.0
 36
0.0
 17
0.0
 27
1.0
 37
0.0
 76
1
330
17
  0
LAYOUT
  5
1E
330
D
100
AcDbPlotSettings
  1

  4
A3
  6

 40
7.5
 41
20.0
 42
7.5
 43
20.0
 44
420.0
 45
297.0
 46
0.0
 47
0.0
 48
0.0
 49
0.0
140
0.0
141
0.0
142
1.0
143
1.0
 70
0
 72
1
 73
0
 74
5
  7

 75
16
 76
0
 77
2
 78
300
147
1.0
148
0.0
149
0.0
100
AcDbLayout
  1
Layout1
 70
1
 71
1
 10
0.0
 20
0.0
 11
420.0
 21
297.0
 12
0.0
 22
0.0
 32
0.0
 14
1e+20
 24
1e+20
 34
1e+20
 15
-1e+20
 25
-1e+20
 35
-1e+20
146
0.0
 13
0.0
 23
0.0
 33
0.0
 16
1.0
 26
0.0
 36
0.0
 17
0.0
 27
1.0
 37
0.0
 76
1
330
1B
  0
MATERIAL
  5
1F
102
{ACAD_REACTORS
330
E
102
}
330
E
100
AcDbMaterial
  1
ByBlock
  2

 70
0
 40
1.0
 71
1
 41
1.0
 91
-1023410177
 42
1.0
 72
1
  3

 73
1
 74
1
 75
1
 44
0.5
 73
0
 45
1.0
 46
1.0
 77
1
  4

 78
1
 79
1
170
1
 48
1.0
171
1
  6

172
1
173
1
174
1
140
1.0
141
1.0
175
1
  7

176
1
177
1
178
1
143
1.0
179
1
  8

270
1
271
1
272
1
145
1.0
146
1.0
273
1
  9

274
1
275
1
276
1
 42
1.0
 72
1
  3

 73
1
 74
1
 75
1
 94
63
  0
MATERIAL
  5
20
102
{ACAD_REACTORS
330
E
102
}
330
E
100
AcDbMaterial
  1
ByLayer
  2

 70
0
 40
1.0
 71
1
 41
1.0
 91
-1023410177
 42
1.0
 72
1
  3

 73
1
 74
1
 75
1
 44
0.5
 73
0
 45
1.0
 46
1.0
 77
1
  4

 78
1
 79
1
170
1
 48
1.0
171
1
  6

172
1
173
1
174
1
140
1.0
141
1.0
175
1
  7

176
1
177
1
178
1
143
1.0
179
1
  8

270
1
271
1
272
1
145
1.0
146
1.0
273
1
  9

274
1
275
1
276
1
 42
1.0
 72
1
  3

 73
1
 74
1
 75
1
 94
63
  0
MATERIAL
  5
21
102
{ACAD_REACTORS
330
E
102
}
330
E
100
AcDbMaterial
  1
Global
  2

 70
0
 40
1.0
 71
1
 41
1.0
 91
-1023410177
 42
1.0
 72
1
  3

 73
1
 74
1
 75
1
 44
0.5
 73
0
 45
1.0
 46
1.0
 77
1
  4

 78
1
 79
1
170
1
 48
1.0
171
1
  6

172
1
173
1
174
1
140
1.0
141
1.0
175
1
  7

176
1
177
1
178
1
143
1.0
179
1
  8

270
1
271
1
272
1
145
1.0
146
1.0
273
1
  9

274
1
275
1
276
1
 42
1.0
 72
1
  3

 73
1
 74
1
 75
1
 94
63
  0
MLINESTYLE
  5
22
102
{ACAD_REACTORS
330
10
102
}
330
10
100
AcDbMlineStyle
  2
Standard
 70
0
  3

 62
256
 51
90.0
 52
90.0
 71
2
 49
0.5
 62
256
  6
BYLAYER
 49
-0.5
 62
256
  6
BYLAYER
  0
MLEADERSTYLE
  5
2C
102
{ACAD_REACTORS
330
F
102
}
330
F
100
AcDbMLeaderStyle
179
2
170
2
171
1
172
0
 90
2
 40
0.0
 41
0.0
173
1
 91
-1056964608
 92
-2
290
1
 42
2.0
291
1
 43
8.0
  3
Standard
 44
4.0
300

342
29
174
1
175
1
176
0
178
1
 93
-1056964608
 45
4.0
292
0
297
0
 46
4.0
 94
-1056964608
 47
1.0
 49
1.0
140
1.0
294
1
141
0.0
177
0
142
1.0
295
0
296
0
143
3.75
271
0
272
9
273
9
  0
DICTIONARY
  5
2D
330
A
100
AcDbDictionary
280
1
281
1
  3
CREATED_BY_EZDXF
350
2E
  3
WRITTEN_BY_EZDXF
350
36
  0
DICTIONARYVAR
  5
2E
330
2D
100
DictionaryVariables
280
0
  1
1.4.4 @ 2026-08-04T19:36:39.262579+00:00
  0
DICTIONARYVAR
  5
36
330
2D
100
DictionaryVariables
280
0
  1
1.4.4 @ 2026-08-04T19:36:39.319853+00:00
  0
ENDSEC
  0
EOF
