  0
SECTION
  2
HEADER
  9
$ACADVER
  1
AC1024
  9
$ACADMAINTVER
 70
6
  9
$DWGCODEPAGE
  3
ANSI_1252
  9
$LASTSAVEDBY
  1
ezdxf
  9
$INSBASE
 10
0.0
 20
0.0
 30
0.0
  9
$EXTMIN
 10
1e+20
 20
1e+20
 30
1e+20
  9
$EXTMAX
 10
-1e+20
 20
-1e+20
 30
-1e+20
  9
$LIMMIN
 10
0.0
 20
0.0
  9
$LIMMAX
 10
420.0
 20
297.0
  9
$ORTHOMODE
 70
0
  9
$REGENMODE
 70
1
  9
$FILLMODE
 70
1
  9
$QTEXTMODE
 70
0
  9
$MIRRTEXT
 70
1
  9
$LTSCALE
 40
1.0
  9
$ATTMODE
 70
1
  9
$TEXTSIZE
 40
2.5
  9
$TRACEWID
 40
1.0
  9
$TEXTSTYLE
  7
Standard
  9
$CLAYER
  8
0
  9
$CELTYPE
  6
ByLayer
  9
$CECOLOR
 62
256
  9
$CELTSCALE
 40
1.0
  9
$DISPSILH
 70
0
  9
$DIMSCALE
 40
1.0
  9
$DIMASZ
 40
2.5
  9
$DIMEXO
 40
0.625
  9
$DIMDLI
 40
3.75
  9
$DIMRND
 40
0.0
  9
$DIMDLE
 40
0.0
  9
$DIMEXE
 40
1.25
  9
$DIMTP
 40
0.0
  9
$DIMTM
 40
0.0
  9
$DIMTXT
 40
2.5
  9
$DIMCEN
 40
2.5
  9
$DIMTSZ
 40
0.0
  9
$DIMTOL
 70
0
  9
$DIMLIM
 70
0
  9
$DIMTIH
 70
0
  9
$DIMTOH
 70
0
  9
$DIMSE1
 70
0
  9
$DIMSE2
 70
0
  9
$DIMTAD
 70
1
  9
$DIMZIN
 70
8
  9
$DIMBLK
  1

  9
$DIMASO
 70
1
  9
$DIMSHO
 70
1
  9
$DIMPOST
  1

  9
$DIMAPOST
  1

  9
$DIMALT
 70
0
  9
$DIMALTD
 70
3
  9
$DIMALTF
 40
0.03937007874
  9
$DIMLFAC
 40
1.0
  9
$DIMTOFL
 70
1
  9
$DIMTVP
 40
0.0
  9
$DIMTIX
 70
0
  9
$DIMSOXD
 70
0
  9
$DIMSAH
 70
0
  9
$DIMBLK1
  1

  9
$DIMBLK2
  1

  9
$DIMSTYLE
  2
ISO-25
  9
$DIMCLRD
 70
0
  9
$DIMCLRE
 70
0
  9
$DIMCLRT
 70
0
  9
$DIMTFAC
 40
1.0
  9
$DIMGAP
 40
0.625
  9
$DIMJUST
 70
0
  9
$DIMSD1
 70
0
  9
$DIMSD2
 70
0
  9
$DIMTOLJ
 70
0
  9
$DIMTZIN
 70
8
  9
$DIMALTZ
 70
0
  9
$DIMALTTZ
 70
0
  9
$DIMUPT
 70
0
  9
$DIMDEC
 70
2
  9
$DIMTDEC
 70
2
  9
$DIMALTU
 70
2
  9
$DIMALTTD
 70
3
  9
$DIMTXSTY
  7
Standard
  9
$DIMAUNIT
 70
0
  9
$DIMADEC
 70
0
  9
$DIMALTRND
 40
0.0
  9
$DIMAZIN
 70
0
  9
$DIMDSEP
 70
44
  9
$DIMATFIT
 70
3
  9
$DIMFRAC
 70
0
  9
$DIMLDRBLK
  1

  9
$DIMLUNIT
 70
2
  9
$DIMLWD
 70
-2
  9
$DIMLWE
 70
-2
  9
$DIMTMOVE
 70
0
  9
$DIMFXL
 40
1.0
  9
$DIMFXLON
 70
0
  9
$DIMJOGANG
 40
0.785398163397
  9
$DIMTFILL
 70
0
  9
$DIMTFILLCLR
 70
0
  9
$DIMARCSYM
 70
0
  9
$DIMLTYPE
  6

  9
$DIMLTEX1
  6

  9
$DIMLTEX2
  6

  9
$DIMTXTDIRECTION
 70
0
  9
$LUNITS
 70
2
  9
$LUPREC
 70
4
  9
$SKETCHINC
 40
1.0
  9
$FILLETRAD
 40
10.0
  9
$AUNITS
 70
0
  9
$AUPREC
 70
2
  9
$MENU
  1
.
  9
$ELEVATION
 40
0.0
  9
$PELEVATION
 40
0.0
  9
$THICKNESS
 40
0.0
  9
$LIMCHECK
 70
0
  9
$CHAMFERA
 40
0.0
  9
$CHAMFERB
 40
0.0
  9
$CHAMFERC
 40
0.0
  9
$CHAMFERD
 40
0.0
  9
$SKPOLY
 70
0
  9
$TDCREATE
 40
2461283.040821759
  9
$TDUCREATE
 40
2458532.153996898
  9
$TDUPDATE
 40
2461283.040821759
  9
$TDUUPDATE
 40
2458532.1544311
  9
$TDINDWG
 40
0.0
  9
$TDUSRTIMER
 40
0.0
  9
$USRTIMER
 70
1
  9
$ANGBASE
 50
0.0
  9
$ANGDIR
 70
0
  9
$PDMODE
 70
0
  9
$PDSIZE
 40
0.0
  9
$PLINEWID
 40
0.0
  9
$SPLFRAME
 70
0
  9
$SPLINETYPE
 70
6
  9
$SPLINESEGS
 70
8
  9
$HANDSEED
  5
34
  9
$SURFTAB1
 70
6
  9
$SURFTAB2
 70
6
  9
$SURFTYPE
 70
6
  9
$SURFU
 70
6
  9
$SURFV
 70
6
  9
$UCSBASE
  2

  9
$UCSNAME
  2

  9
$UCSORG
 10
0.0
 20
0.0
 30
0.0
  9
$UCSXDIR
 10
1.0
 20
0.0
 30
0.0
  9
$UCSYDIR
 10
0.0
 20
1.0
 30
0.0
  9
$UCSORTHOREF
  2

  9
$UCSORTHOVIEW
 70
0
  9
$UCSORGTOP
 10
0.0
 20
0.0
 30
0.0
  9
$UCSORGBOTTOM
 10
0.0
 20
0.0
 30
0.0
  9
$UCSORGLEFT
 10
0.0
 20
0.0
 30
0.0
  9
$UCSORGRIGHT
 10
0.0
 20
0.0
 30
0.0
  9
$UCSORGFRONT
 10
0.0
 20
0.0
 30
0.0
  9
$UCSORGBACK
 10
0.0
 20
0.0
 30
0.0
  9
$PUCSBASE
  2

  9
$PUCSNAME
  2

  9
$PUCSORG
 10
0.0
 20
0.0
 30
0.0
  9
$PUCSXDIR
 10
1.0
 20
0.0
 30
0.0
  9
$PUCSYDIR
 10
0.0
 20
1.0
 30
0.0
  9
$PUCSORTHOREF
  2

  9
$PUCSORTHOVIEW
 70
0
  9
$PUCSORGTOP
 10
0.0
 20
0.0
 30
0.0
  9
$PUCSORGBOTTOM
 10
0.0
 20
0.0
 30
0.0
  9
$PUCSORGLEFT
 10
0.0
 20
0.0
 30
0.0
  9
$PUCSORGRIGHT
 10
0.0
 20
0.0
 30
0.0
  9
$PUCSORGFRONT
 10
0.0
 20
0.0
 30
0.0
  9
$PUCSORGBACK
 10
0.0
 20
0.0
 30
0.0
  9
$USERI1
 70
0
  9
$USERI2
 70
0
  9
$USERI3
 70
0
  9
$USERI4
 70
0
  9
$USERI5
 70
0
  9
$USERR1
 40
0.0
  9
$USERR2
 40
0.0
  9
$USERR3
 40
0.0
  9
$USERR4
 40
0.0
  9
$USERR5
 40
0.0
  9
$WORLDVIEW
 70
1
  9
$SHADEDGE
 70
3
  9
$SHADEDIF
 70
70
  9
$TILEMODE
 70
1
  9
$MAXACTVP
 70
64
  9
$PINSBASE
 10
0.0
 20
0.0
 30
0.0
  9
$PLIMCHECK
 70
0
  9
$PEXTMIN
 10
1e+20
 20
1e+20
 30
1e+20
  9
$PEXTMAX
 10
-1e+20
 20
-1e+20
 30
-1e+20
  9
$PLIMMIN
 10
0.0
 20
0.0
  9
$PLIMMAX
 10
420.0
 20
297.0
  9
$UNITMODE
 70
0
  9
$VISRETAIN
 70
1
  9
$PLINEGEN
 70
0
  9
$PSLTSCALE
 70
1
  9
$TREEDEPTH
 70
3020
  9
$CMLSTYLE
  2
Standard
  9
$CMLJUST
 70
0
  9
$CMLSCALE
 40
20.0
  9
$PROXYGRAPHICS
 70
1
  9
$MEASUREMENT
 70
1
  9
$CELWEIGHT
370
-1
  9
$ENDCAPS
280
0
  9
$JOINSTYLE
280
0
  9
$LWDISPLAY
290
0
  9
$INSUNITS
 70
4
  9
$HYPERLINKBASE
  1

  9
$STYLESHEET
  1

  9
$XEDIT
290
1
  9
$CEPSNTYPE
380
0
  9
$PSTYLEMODE
290
1
  9
$FINGERPRINTGUID
  2
{F6F01A34-AFAD-4D48-9F3C-422B89754BFA}
  9
$VERSIONGUID
  2
{FB427065-F2CB-44EE-8BE4-6797D5E77065}
  9
$EXTNAMES
290
1
  9
$PSVPSCALE
 40
0.0
  9
$OLESTARTUP
290
0
  9
$SORTENTS
280
127
  9
$INDEXCTL
280
0
  9
$HIDETEXT
280
1
  9
$XCLIPFRAME
280
1
  9
$HALOGAP
280
0
  9
$OBSCOLOR
 70
257
  9
$OBSLTYPE
280
0
  9
$INTERSECTIONDISPLAY
280
0
  9
$INTERSECTIONCOLOR
 70
257
  9
$DIMASSOC
280
2
  9
$PROJECTNAME
  1

  9
$CAMERADISPLAY
290
0
  9
$LENSLENGTH
 40
50.0
  9
$CAMERAHEIGHT
 40
0.0
  9
$STEPSPERSEC
 40
24.0
  9
$STEPSIZE
 40
100.0
  9
$3DDWFPREC
 40
2.0
  9
$PSOLWIDTH
 40
0.005
  9
$PSOLHEIGHT
 40
0.08
  9
$LOFTANG1
 40
1.570796326795
  9
$LOFTANG2
 40
1.570796326795
  9
$LOFTMAG1
 40
0.0
  9
$LOFTMAG2
 40
0.0
  9
$LOFTPARAM
 70
7
  9
$LOFTNORMALS
280
1
  9
$LATITUDE
 40
37.795
  9
$LONGITUDE
 40
-122.394
  9
$NORTHDIRECTION
 40
0.0
  9
$TIMEZONE
 70
-8000
  9
$LIGHTGLYPHDISPLAY
280
1
  9
$TILEMODELIGHTSYNCH
280
1
  9
$CMATERIAL
347
20
  9
$SOLIDHIST
280
0
  9
$SHOWHIST
280
1
  9
$DWFFRAME
280
2
  9
$DGNFRAME
280
2
  9
$REALWORLDSCALE
290
1
  9
$INTERFERECOLOR
 62
256
  9
$CSHADOW
280
0
  9
$SHADOWPLANELOCATION
 40
0.0
  0
ENDSEC
  0
SECTION
  2
CLASSES
  0
CLASS
  1
ACDBDICTIONARYWDFLT
  2
AcDbDictionaryWithDefault
  3
ObjectDBX Classes
 90
0
 91
0
280
0
281
0
  0
CLASS
  1
SUN
  2
AcDbSun
  3
SCENEOE
 90
1153
 91
0
280
0
281
0
  0
CLASS
  1
VISUALSTYLE
  2
AcDbVisualStyle
  3
ObjectDBX Classes
 90
4095
 91
0
280
0
281
0
  0
CLASS
  1
MATERIAL
  2
AcDbMaterial
  3
ObjectDBX Classes
 90
1153
 91
0
280
0
281
0
  0
CLASS
  1
SCALE
  2
AcDbScale
  3
ObjectDBX Classes
 90
1153
 91
0
280
0
281
0
  0
CLASS
  1
TABLESTYLE
  2
AcDbTableStyle
  3
ObjectDBX Classes
 90
4095
 91
0
280
0
281
0
  0
CLASS
  1
MLEADERSTYLE
  2
AcDbMLeaderStyle
  3
ACDB_MLEADERSTYLE_CLASS
 90
4095
 91
0
280
0
281
0
  0
CLASS
  1
DICTIONARYVAR
  2
AcDbDictionaryVar
  3
ObjectDBX Classes
 90
0
 91
0
280
0
281
0
  0
CLASS
  1
CELLSTYLEMAP
  2
AcDbCellStyleMap
  3
ObjectDBX Classes
 90
1152
 91
0
280
0
281
0
  0
CLASS
  1
MENTALRAYRENDERSETTINGS
  2
AcDbMentalRayRenderSettings
  3
SCENEOE
 90
1024
 91
0
280
0
281
0
  0
CLASS
  1
ACDBDETAILVIEWSTYLE
  2
AcDbDetailViewStyle
  3
ObjectDBX Classes
 90
1025
 91
0
280
0
281
0
  0
CLASS
  1
ACDBSECTIONVIEWSTYLE
  2
AcDbSectionViewStyle
  3
ObjectDBX Classes
 90
1025
 91
0
280
0
281
0
  0
CLASS
  1
RASTERVARIABLES
  2
AcDbRasterVariables
  3
ISM
 90
0
 91
0
280
0
281
0
  0
CLASS
  1
LAYOUT
  2
AcDbLayout
  3
ObjectDBX Classes
 90
0
 91
0
280
0
281
0
  0
CLASS
  1
ACDBPLACEHOLDER
  2
AcDbPlaceHolder
  3
ObjectDBX Classes
 90
0
 91
0
280
0
281
0
  0
ENDSEC
  0
SECTION
  2
TABLES
  0
TABLE
  2
VPORT
  5
8
330
0
100
AcDbSymbolTable
 70
1
  0
VPORT
  5
23
330
8
100
AcDbSymbolTableRecord
100
AcDbViewportTableRecord
  2
*Active
 70
0
 10
0.0
 20
0.0
 11
1.0
 21
1.0
 12
0.0
 22
0.0
 13
0.0
 23
0.0
 14
0.5
 24
0.5
 15
0.5
 25
0.5
 16
0.0
 26
0.0
 36
1.0
 17
0.0
 27
0.0
 37
0.0
 40
1000.0
 41
1.34
 42
50.0
 43
0.0
 44
0.0
 50
0.0
 51
0.0
 71
0
 72
1000
 73
1
 74
3
 75
0
 76
0
 77
0
 78
0
281
0
 65
0
146
0.0
  0
ENDTAB
  0
TABLE
  2
LTYPE
  5
2
330
0
100
AcDbSymbolTable
 70
3
  0
LTYPE
  5
24
330
2
100
AcDbSymbolTableRecord
100
AcDbLinetypeTableRecord
  2
ByBlock
 70
0
  3

 72
65
 73
0
 40
0.0
  0
LTYPE
  5
25
330
2
100
AcDbSymbolTableRecord
100
AcDbLinetypeTableRecord
  2
ByLayer
 70
0
  3

 72
65
 73
0
 40
0.0
  0
LTYPE
  5
26
330
2
100
AcDbSymbolTableRecord
100
AcDbLinetypeTableRecord
  2
Continuous
 70
0
  3

 72
65
 73
0
 40
0.0
  0
ENDTAB
  0
TABLE
  2
LAYER
  5
1
330
0
100
AcDbSymbolTable
 70
3
  0
LAYER
  5
27
330
1
100
AcDbSymbolTableRecord
100
AcDbLayerTableRecord
  2
0
 70
0
 62
7
  6
Continuous
370
-3
390
13
347
21
  0
LAYER
  5
28
330
1
100
AcDbSymbolTableRecord
100
AcDbLayerTableRecord
  2
Defpoints
 70
0
 62
7
  6
Continuous
290
0
370
-3
390
13
347
21
  0
LAYER
  5
2F
330
1
100
AcDbSymbolTableRecord
100
AcDbLayerTableRecord
  2
CUT
 70
0
 62
1
  6
Continuous
370
-3
390
13
347
21
  0
ENDTAB
  0
TABLE
  2
STYLE
  5
5
330
0
100
AcDbSymbolTable
 70
1
  0
STYLE
  5
29
330
5
100
AcDbSymbolTableRecord
100
AcDbTextStyleTableRecord
  2
Standard
 70
0
 40
0.0
 41
1.0
 50
0.0
 71
0
 42
2.5
  3
txt
  4

  0
ENDTAB
  0
TABLE
  2
VIEW
  5
7
330
0
100
AcDbSymbolTable
 70
0
  0
ENDTAB
  0
TABLE
  2
UCS
  5
6
330
0
100
AcDbSymbolTable
 70
0
  0
ENDTAB
  0
TABLE
  2
APPID
  5
3
330
0
100
AcDbSymbolTable
 70
3
  0
APPID
  5
2A
330
3
100
AcDbSymbolTableRecord
100
AcDbRegAppTableRecord
  2
ACAD
 70
0
  0
APPID
  5
31
330
3
100
AcDbSymbolTableRecord
100
AcDbRegAppTableRecord
  2
HATCHBACKGROUNDCOLOR
 70
0
  0
APPID
  5
32
330
3
100
AcDbSymbolTableRecord
100
AcDbRegAppTableRecord
  2
EZDXF
 70
0
  0
ENDTAB
  0
TABLE
  2
DIMSTYLE
  5
4
330
0
100
AcDbSymbolTable
 70
1
100
AcDbDimStyleTable
  0
DIMSTYLE
105
2B
330
4
100
AcDbSymbolTableRecord
100
AcDbDimStyleTableRecord
  2
Standard
 70
0
 40
1.0
 41
2.5
 42
0.625
 43
3.75
 44
1.25
 45
0.0
 46
0.0
 47
0.0
 48
0.0
 49
2.5
140
2.5
141
2.5
142
0.0
143
0.03937007874
144
1.0
145
0.0
146
1.0
147
0.625
148
0.0
 69
0
 70
0
 71
0
 72
0
 73
0
 74
0
 75
0
 76
0
 77
1
 78
8
 79
3
170
0
171
3
172
1
173
0
174
0
175
0
176
0
177
0
178
0
179
2
271
2
272
2
273
2
274
3
275
0
276
0
277
2
278
44
279
0
280
0
281
0
282
0
283
0
284
8
285
0
286
0
288
0
289
3
290
0
371
-2
372
-2
  0
ENDTAB
  0
TABLE
  2
BLOCK_RECORD
  5
9
330
0
100
AcDbSymbolTable
 70
2
  0
BLOCK_RECORD
  5
17
330
9
100
AcDbSymbolTableRecord
100
AcDbBlockTableRecord
  2
*Model_Space
340
1A
 70
0
280
1
281
0
  0
BLOCK_RECORD
  5
1B
330
9
100
AcDbSymbolTableRecord
100
AcDbBlockTableRecord
  2
*Paper_Space
340
1E
 70
0
280
1
281
0
  0
ENDTAB
  0
ENDSEC
  0
SECTION
  2
BLOCKS
  0
BLOCK
  5
18
330
17
100
AcDbEntity
  8
0
100
AcDbBlockBegin
  2
*Model_Space
 70
0
 10
0.0
 20
0.0
 30
0.0
  3
*Model_Space
  1

  0
ENDBLK
  5
19
330
17
100
AcDbEntity
  8
0
100
AcDbBlockEnd
  0
BLOCK
  5
1C
330
1B
100
AcDbEntity
  8
0
100
AcDbBlockBegin
  2
*Paper_Space
 70
0
 10
0.0
 20
0.0
 30
0.0
  3
*Paper_Space
  1

  0
ENDBLK
  5
1D
330
1B
100
AcDbEntity
  8
0
100
AcDbBlockEnd
  0
ENDSEC
  0
SECTION
  2
ENTITIES
  0
LWPOLYLINE
  5
30
330
17
100
AcDbEntity
  8
CUT
100
AcDbPolyline
 90
574
 70
1
 10
27.842211351076255
 20
10.211315531066482
 10
27.41920581201332
 20
10.246144348001945
 10
26.97176806926149
 20
10.297093242545378
 10
26.50575552607942
 20
10.362922171817768
 10
26.02702618630704
 20
10.44239085220832
 10
25.54143870706692
 20
10.534258748829933
 10
25.05485242723921
 20
10.637285068647508
 10
24.5731273736861
 20
10.750228758294197
 10
24.102124247215535
 20
10.871848507627737
 10
23.647704390210983
 20
11.00090276004274
 10
23.21572973771496
 20
11.136149730472056
 10
22.812062753539045
 20
11.276347431904732
 10
21.147146251876855
 20
11.972945568228885
 10
19.57434139651304
 20
12.80338868028179
 10
18.100040169470017
 20
13.760414199958475
 10
16.730635268941885
 20
14.836759357472431
 10
15.472520063970471
 20
16.025161129011025
 10
14.33208855461999
 20
17.318356166861076
 10
13.31573533396465
 20
18.70908071260275
 10
12.429855548835306
 20
20.190070493139462
 10
11.68084485666025
 20
21.754060598457365
 10
11.075099375906804
 20
23.393785339011743
 10
10.619015627581998
 20
25.10197807943687
 10
10.520238404867536
 20
25.553522919652963
 10
10.440084501975578
 20
26.00551093605905
 10
10.37678507878405
 20
26.60030116104946
 10
10.328559988791248
 20
27.48023690164005
 10
10.293608346883477
 20
28.787632765284044
 10
10.270089693936892
 20
30.66475498848442
 10
10.25609076714841
 20
33.25379902764769
 10
10.249570092350144
 20
36.696874126088645
 10
10.248272001504839
 20
41.13601662291134
 10
10.24961109102362
 20
46.71327436607432
 10
10.250564173394853
 20
53.57092588157171
 10
10.248286385904047
 20
60.70575802191173
 10
10.245314245540571
 20
66.4532237120677
 10
10.245857456476145
 20
70.97506835578245
 10
10.253599093878691
 20
74.43283557297754
 10
10.27185236826958
 20
76.9881043962837
 10
10.303704428170583
 20
78.80256385161256
 10
10.352114442473376
 20
80.0380115153652
 10
10.419972633034833
 20
80.85632637989643
 10
10.51013351740709
 20
81.41943917995144
 10
10.625433336117878
 20
81.88930945387831
 10
10.768697369818899
 20
82.4279127436854
 10
11.118848714056902
 20
83.63694370870326
 10
11.550300191181933
 20
84.81472841372197
 10
12.060661577436022
 20
85.95793937614243
 10
12.647542818429123
 20
87.0632492137234
 10
13.308554032659847
 20
88.12733062208535
 10
14.04130551397473
 20
89.14685635368954
 10
14.843407733049055
 20
90.11849919820692
 10
15.712471337988447
 20
91.03893196423932
 10
16.64610715417169
 20
91.90482746239714
 10
17.641926183480514
 20
92.7128584897696
 10
18.69753960309241
 20
93.45969781585444
 10
19.245064513602777
 20
93.80786329265142
 10
19.802322413024868
 20
94.13691138130842
 10
20.36877923300398
 20
94.4466148291636
 10
20.943900946384325
 20
94.73674641292132
 10
21.527153569137017
 20
95.0070789385752
 10
22.118003162371796
 20
95.25738524149666
 10
22.71591583444422
 20
95.48743818670029
 10
23.320357743171684
 20
95.6970106692991
 10
23.93079509817202
 20
95.8858756151645
 10
24.546694163340007
 20
96.05380598180832
 10
25.167521259478153
 20
96.2005747595063
 10
25.638850589027136
 20
96.30691937345973
 10
26.06538241247922
 20
96.39279925018398
 10
26.57666083459933
 20
96.46032743960797
 10
27.302214513455425
 20
96.51161005478977
 10
28.37154594339902
 20
96.54874118793077
 10
29.914109139536357
 20
96.57379381448217
 10
32.05927119653338
 20
96.58880763172098
 10
34.936248826589654
 20
96.5957769480829
 10
38.67400399958632
 20
96.59664831435012
 10
43.401074379282946
 20
96.59335623276877
 10
49.245316745569546
 20
96.5879745538668
 10
71.10620416377436
 20
96.5782368634309
 10
71.47884145457596
 20
96.38785012890527
 10
71.63112355009113
 20
96.3039490447947
 10
71.76069212460501
 20
96.21732925022658
 10
71.86913934201539
 20
96.12398420223387
 10
71.9580571091893
 20
96.01990754169647
 10
72.02903718887885
 20
95.90109308953642
 10
72.08367130312996
 20
95.7635348403815
 10
72.1235512274296
 20
95.60322695485988
 10
72.15026887631151
 20
95.41616375153616
 10
72.16541638154558
 20
95.19833969935803
 10
72.17058616439579
 20
94.94574941136881
 10
72.16737100376776
 20
94.65438764036062
 10
72.15578338257583
 20
94.25763467242413
 10
72.13287022349371
 20
93.93128549971438
 10
72.08769588187542
 20
93.66817151670232
 10
72.00932601435673
 20
93.4611249541507
 10
71.88682663016591
 20
93.3029790769708
 10
71.70926323307181
 20
93.18656859413667
 10
71.465700057836
 20
93.10473027322917
 10
71.145199382275
 20
93.05030374044279
 10
70.73682087089433
 20
93.01613243675742
 10
70.22962088057928
 20
92.99506469088426
 10
69.61265163519678
 20
92.97995485699474
 10
69.09947721957145
 20
92.96803142103053
 10
68.67409900976932
 20
92.95463571082159
 10
68.32686922184087
 20
92.93722595251279
 10
68.04813772411453
 20
92.91326492842786
 10
67.8282522589856
 20
92.88021882129918
 10
67.65755878677956
 20
92.83555629819064
 10
67.52640188898232
 20
92.77674780704466
 10
67.42512518964041
 20
92.70126506208629
 10
67.344071769274
 20
92.6065806996871
 10
67.2735845562782
 20
92.49016809230936
 10
67.20400668735408
 20
92.34950131405697
 10
67.17639920260689
 20
92.28736474197068
 10
67.15285842001917
 20
92.22649543925162
 10
67.13328730982498
 20
92.16614968647272
 10
67.11758886011307
 20
92.10558378276075
 10
67.10566607400966
 20
92.04405404344308
 10
67.09742196741276
 20
91.98081679793899
 10
67.09275956728231
 20
91.91512838790943
 10
67.09158191049013
 20
91.8462451656775
 10
67.09379204323415
 20
91.77342349292891
 10
67.09929302102384
 20
91.6959197397018
 10
67.10798790924403
 20
91.61299028367365
 10
67.12699511197948
 20
91.4852637816865
 10
67.15264332325322
 20
91.36669718458728
 10
67.18536554623002
 20
91.25661006890834
 10
67.22559480354947
 20
91.15432205630574
 10
67.27376412848585
 20
91.05915281550816
 10
67.33030655536982
 20
90.97042206411855
 10
67.39565510931124
 20
90.8874495703216
 10
67.4702427952552
 20
90.80955515455723
 10
67.55450258639692
 20
90.73605869122768
 10
67.64886741197256
 20
90.66628011051253
 10
67.75377014443521
 20
90.59953940037346
 10
67.83310621171393
 20
90.55854183031923
 10
67.94512372666507
 20
90.52462813796605
 10
68.12751350003965
 20
90.49693401970181
 10
68.41796148465704
 20
90.47459981736894
 10
68.85414521853988
 20
90.45677515951083
 10
69.47372920152
 20
90.4426260226497
 10
70.31436015956103
 20
90.43134493443831
 10
71.41366399301715
 20
90.42216530267807
 10
72.80924757987984
 20
90.41438084568537
 10
74.53871063611122
 20
90.40737030352619
 10
76.63967524924006
 20
90.40062509414139
 10
78.1441977786136
 20
90.39713292575708
 10
79.51024563012008
 20
90.39582924766326
 10
80.7383811725561
 20
90.39661793690505
 10
81.82914759704899
 20
90.39941138800756
 10
82.78307392074707
 20
90.40413274625654
 10
83.60067963125931
 20
90.41071689484812
 10
84.28247870005188
 20
90.41911055290409
 10
84.82898285810808
 20
90.42927181730106
 10
85.24070413641452
 20
90.44116942267252
 10
85.51815673366121
 20
90.4547819258418
 10
85.66185829615522
 20
90.47009695774426
 10
85.79841914171404
 20
90.50555324613843
 10
85.9334107996053
 20
90.5537393705226
 10
86.06544821518332
 20
90.6135880980335
 10
86.19314608558413
 20
90.68403216032974
 10
86.31511885746137
 20
90.76400427055874
 10
86.42998073174329
 20
90.85243714071635
 10
86.53634567496944
 20
90.94826349910548
 10
86.63282743671111
 20
91.05041610767255
 10
86.71803957255007
 20
91.15782777907961
 10
86.79059547208306
 20
91.26943139345272
 10
86.8491083914318
 20
91.38415991483159
 10
86.87543230415548
 20
91.45439732093826
 10
86.89897267171928
 20
91.54090690374856
 10
86.91999070719363
 20
91.64688371772826
 10
86.93874749554053
 20
91.77552286581006
 10
86.95550395244868
 20
91.93001951220444
 10
86.9705207818492
 20
92.11356889517356
 10
86.98405843312479
 20
92.32936633931995
 10
86.99637705918366
 20
92.58060726689679
 10
87.00773647669858
 20
92.8704872076237
 10
87.0183961298939
 20
93.20220180649561
 10
87.02861505928847
 20
93.57894682910869
 10
87.07628722806756
 20
95.4746702962832
 10
87.32626298735269
 20
95.83086912044791
 10
87.36707231637217
 20
95.88544649433707
 10
87.41385609465505
 20
95.9417391752124
 10
87.46564119425243
 20
95.99887753715936
 10
87.52145444724984
 20
96.0559919555334
 10
87.58032263840184
 20
96.11221280426872
 10
87.64127250003152
 20
96.16667045363437
 10
87.7033307091359
 20
96.21849526841272
 10
87.76552388663708
 20
96.26681760646817
 10
87.82687859872134
 20
96.31076781767034
 10
87.88642136021456
 20
96.34947624313409
 10
87.94317863994921
 20
96.38207321473922
 10
88.31012373676431
 20
96.57708607923173
 10
95.85083234729171
 20
96.58844217100635
 10
97.60900231694369
 20
96.59134376350224
 10
99.07442950798948
 20
96.59280315467562
 10
100.27489308784538
 20
96.59227593619619
 10
101.2382087676646
 20
96.58924984840101
 10
101.99222366755565
 20
96.58323288354312
 10
102.56481022053663
 20
96.57374553879978
 10
102.98386025010814
 20
96.56031590324949
 10
103.27727971983715
 20
96.54247660271758
 10
103.47298433728541
 20
96.51976292961315
 10
103.59889605432113
 20
96.49171171835994
 10
103.68294045495425
 20
96.45786069493184
 10
103.82367272471835
 20
96.38150695633824
 10
103.94204806072776
 20
96.30446629586443
 10
104.03993784562219
 20
96.22157667984739
 10
104.11921353265524
 20
96.12767637116622
 10
104.18174659881464
 20
96.01760389662225
 10
104.22940847932962
 20
95.88619804699171
 10
104.26407048401515
 20
95.72829791039898
 10
104.28760369530514
 20
95.53874294032173
 10
104.30187884730722
 20
95.31237306046779
 10
104.30876618477073
 20
95.04402880999227
 10
104.31013530051396
 20
94.72855153410761
 10
104.30904493115379
 20
94.47785214198328
 10
104.30664878363758
 20
94.26563609403178
 10
104.30242717837697
 20
94.08790631150931
 10
104.29586002602463
 20
93.94066616698673
 10
104.28642690338654
 20
93.81991941266301
 10
104.27360712290967
 20
93.72167011080803
 10
104.25687979477179
 20
93.64192256837237
 10
104.23572388085786
 20
93.57668127741869
 10
104.20961824012406
 20
93.52195086265658
 10
104.17804166502155
 20
93.47373603702046
 10
104.1404729087788
 20
93.4280415659345
 10
104.05537639190194
 20
93.34019644439887
 10
103.96554671530552
 20
93.26514174359035
 10
103.86666535569096
 20
93.20192867858016
 10
103.75441399582638
 20
93.14960848560048
 10
103.62447458880595
 20
93.10723244894314
 10
103.4725294467424
 20
93.073851928132
 10
103.2942613542518
 20
93.0485183866904
 10
103.0853537071856
 20
93.030283424405
 10
102.84149067720683
 20
93.01819881569487
 10
102.5583574029658
 20
93.01131655755641
 10
102.23164020875205
 20
93.0086889316111
 10
101.93245966060783
 20
93.00781663185789
 10
101.68659025634172
 20
93.0060614915983
 10
101.48785419479393
 20
93.00242217791768
 10
101.3300752409387
 20
92.99589755859452
 10
101.20707837725246
 20
92.98548670093754
 10
101.11268950011784
 20
92.97018885215813
 10
101.04073516464491
 20
92.94900340808869
 10
100.9850423799137
 20
92.92092987551278
 10
100.93943845572545
 20
92.88496783190868
 10
100.89775090142912
 20
92.84011688512682
 10
100.85380737719534
 20
92.78537663448627
 10
100.81093783575534
 20
92.72447143820092
 10
100.77573990615265
 20
92.63923080886018
 10
100.74739050481642
 20
92.49638350551712
 10
100.72506467367992
 20
92.26266009411282
 10
100.70793361183192
 20
91.90479501830359
 10
100.69516175332204
 20
91.38952973703269
 10
100.68590272351965
 20
90.68361730147831
 10
100.67929389877497
 20
89.75382905293928
 10
100.67444916493876
 20
88.56696463978821
 10
100.67044935604686
 20
87.08986744021342
 10
100.66632988104935
 20
85.28944904628115
 10
100.66370558256628
 20
83.89965576721565
 10
100.66267730830643
 20
82.67412101165613
 10
100.66338320238134
 20
81.60493141445602
 10
100.66595330904964
 20
80.68417764004863
 10
100.67050940847987
 20
79.90395632905447
 10
100.67716526229889
 20
79.25637162900598
 10
100.68602717782038
 20
78.73353621285338
 10
100.69719478552659
 20
78.32757174985534
 10
100.71076192888698
 20
78.03060884961845
 10
100.72681758342274
 20
77.8347865442807
 10
100.74544674612558
 20
77.73225140288025
 10
100.7633450838602
 20
77.68639597611474
 10
100.78605778103547
 20
77.63917337579016
 10
100.81309430074472
 20
77.59119969045321
 10
100.84396411286066
 20
77.54309096865799
 10
100.87817668746733
 20
77.49546321659616
 10
100.91524148872949
 20
77.44893239717294
 10
100.9546679692491
 20
77.40411443053095
 10
100.9959655649635
 20
77.3616251960126
 10
101.03864369064155
 20
77.32208053554237
 10
101.08221173603322
 20
77.2860962584015
 10
101.1261790627237
 20
77.25428814735973
 10
101.40857350700588
 20
77.0648896448205
 10
104.95960599565733
 20
77.0739616621334
 10
105.89253378621359
 20
77.07544918984901
 10
106.66854877146635
 20
77.07408170078813
 10
107.30416548644804
 20
77.06848214948847
 10
107.81592224135552
 20
77.0572653372635
 10
108.22037433855826
 20
77.03903924844757
 10
108.53408910535222
 20
77.01240648159097
 10
108.77364225183254
 20
76.97596559020323
 10
108.95561521821904
 20
76.92831225021311
 10
109.09659328909913
 20
76.86804022055836
 10
109.21316433272492
 20
76.79374208487023
 10
109.32191807955203
 20
76.7040097693527
 10
109.34900581324383
 20
76.67782505116199
 10
109.37812215089932
 20
76.64574075140092
 10
109.4087544903946
 20
76.60852374801406
 10
109.44039021271587
 20
76.56694091620626
 10
109.47251667863242
 20
76.52175912177071
 10
109.50462122624133
 20
76.47374521549446
 10
109.53619116939423
 20
76.42366602861753
 10
109.56671379702465
 20
76.37228836931794
 10
109.59567637340139
 20
76.32037902019214
 10
109.62256613933748
 20
76.26870473669929
 10
109.64687031438682
 20
76.21803224653884
 10
109.68334292614895
 20
76.10201388989582
 10
109.71303346929413
 20
75.86745348189048
 10
109.73627336234136
 20
75.42253076392359
 10
109.75339391678979
 20
74.67547716834588
 10
109.76473111850832
 20
73.53462521492571
 10
109.77064519264505
 20
71.90848196563016
 10
109.77157752724095
 20
69.70582975070306
 10
109.76819180778013
 20
66.83584221156394
 10
109.76168097430991
 20
63.2081433884129
 10
109.75431635855693
 20
58.73256969169047
 10
109.750052800224
 20
53.3181203562061
 10
109.75261503797897
 20
47.90411587543921
 10
109.75886547758937
 20
43.42946436902112
 10
109.76475763783101
 20
39.8027226100734
 10
109.76783571296522
 20
36.93353942422819
 10
109.76676414070599
 20
34.7314998921789
 10
109.7607935587673
 20
33.10579599446459
 10
109.74943665910332
 20
31.965242916928176
 10
109.73231042298166
 20
31.218380277018277
 10
109.70906853427756
 20
30.773569496648555
 10
109.67937571914085
 20
30.53906770772864
 10
109.6428996078073
 20
30.4230784449681
 10
109.61859296183238
 20
30.372418743445234
 10
109.59170046929613
 20
30.320757532791998
 10
109.56273496852472
 20
30.268861349959778
 10
109.53220927365761
 20
30.217496758732374
 10
109.50063617237483
 20
30.167430348936392
 10
109.46852842472227
 20
30.119428734767762
 10
109.43639876300276
 20
30.074258552198774
 10
109.40475989270531
 20
30.032686455429776
 10
109.37412449444714
 20
29.99547911235118
 10
109.34500522691197
 20
29.96340319898477
 10
109.31791473077519
 20
29.937225392879032
 10
109.20917767093047
 20
29.847550512812983
 10
109.09262095582793
 20
29.773292843720867
 10
108.95170315952596
 20
29.713045277615763
 10
108.76988473873081
 20
29.665401473732615
 10
108.53062873384786
 20
29.62895640989203
 10
108.21740201264197
 20
29.602307191074164
 10
107.81367714745332
 20
29.58405411719713
 10
107.30293507710759
 20
29.572802009591022
 10
106.66866879297547
 20
29.567161780624104
 10
105.89438841549982
 20
29.565752190387585
 10
104.96362820695373
 20
29.567201642385196
 10
104.13298394868318
 20
29.568875585561557
 10
103.44098465887602
 20
29.56919564217119
 10
102.87374539991868
 20
29.567601870378045
 10
102.41739465570747
 20
29.563542267133865
 10
102.05807299311313
 20
29.55647108999288
 10
101.78193128436574
 20
29.545847364603368
 10
101.57512872781581
 20
29.531133617447928
 10
101.42383087710915
 20
29.51179483684329
 10
101.31420784894533
 20
29.487297645871045
 10
101.23243283628429
 20
29.457109664849092
 10
101.16468101344415
 20
29.420699042723143
 10
101.02632022307313
 20
29.33897237292238
 10
100.91424547634738
 20
29.251681382448787
 10
100.82586041392354
 20
29.11796124011502
 10
100.75856770842667
 20
28.89693995456398
 10
100.70976563301555
 20
28.54773268264331
 10
100.6768430539526
 20
28.029432739198388
 10
100.6571727300302
 20
27.301100557715696
 10
100.64810293048056
 20
26.321752596516745
 10
100.6469477526151
 20
25.05035281593026
 10
100.65097720991906
 20
23.445809541554915
 10
100.65740903677761
 20
21.466979927516554
 10
100.66288957188328
 20
19.681327081651624
 10
100.6680050193388
 20
18.216102236199433
 10
100.67374499086829
 20
17.03854080638655
 10
100.68105345411198
 20
16.11580385871929
 10
100.69084077003942
 20
15.415004766503099
 10
100.70399324238069
 20
14.90322602746362
 10
100.72138045759684
 20
14.547530191829448
 10
100.74386084774329
 20
14.31496716787148
 10
100.77228584648356
 20
14.17257921091051
 10
100.80750290042846
 20
14.087404340184086
 10
100.85035749868835
 20
14.026478591105542
 10
101.02353818989131
 20
13.805963773034689
 10
102.32963690211575
 20
13.802482485900434
 10
102.81409513336472
 20
13.797639874064028
 10
103.21537267263545
 20
13.781366167789182
 10
103.541041353215
 20
13.746794232702022
 10
103.79867682951794
 20
13.687056210693257
 10
103.99585765025095
 20
13.595283430058435
 10
104.14016442222548
 20
13.46460626673057
 10
104.23917904710434
 20
13.288153983892888
 10
104.30048402086108
 20
13.059054574524433
 10
104.3316617932655
 20
12.770434629720224
 10
104.3402941920036
 20
12.415419253991915
 10
104.33396192266342
 20
11.98713204638263
 10
104.32467605179096
 20
11.698361559605342
 10
104.31066227725205
 20
11.45090551316345
 10
104.29015150058875
 20
11.24034337343887
 10
104.261374100383
 20
11.062253897302526
 10
104.22256005951802
 20
10.912215292122106
 10
104.17193907781781
 20
10.785805339091729
 10
104.10774067080195
 20
10.678601483649777
 10
104.02819425514424
 20
10.586180895611166
 10
103.93152922117535
 20
10.50412050073015
 10
103.81597499243452
 20
10.427996984700233
 10
103.67976107185751
 20
10.353386770065256
 10
103.59611379004036
 20
10.319250400935251
 10
103.47164300190582
 20
10.291157723219674
 10
103.27755477603564
 20
10.268716357447088
 10
102.98505908538164
 20
10.251533104646741
 10
102.5653726848093
 20
10.239213338240644
 10
101.9897230117151
 20
10.231359904691363
 10
101.22935314031858
 20
10.22757122644091
 10
100.25552777381259
 20
10.227438102770043
 10
99.03954011036912
 20
10.230538421824818
 10
97.55271906278357
 20
10.23642861848007
 10
95.76643556303182
 20
10.24463026890366
 10
88.14511669058163
 20
10.27834179846198
 10
87.80197193974875
 20
10.50686495712985
 10
87.74889567848426
 20
10.544867209702577
 10
87.69321366888207
 20
10.589657420898543
 10
87.63583638090223
 20
10.640244920449126
 10
87.57767423626255
 20
10.695639043658653
 10
87.51963760310582
 20
10.754849130688228
 10
87.46263679269195
 20
10.816884525696064
 10
87.4075820581732
 20
10.88075457580266
 10
87.35538359552072
 20
10.945468629848632
 10
87.30695154667593
 20
11.01003603691522
 10
87.26319600500277
 20
11.073466144581541
 10
87.22502702311354
 20
11.134768296898805
 10
87.16697651031048
 20
11.23538510533897
 10
87.11921395128324
 20
11.326734492314655
 10
87.080495114904
 20
11.419022609339958
 10
87.04957585990164
 20
11.522455604973505
 10
87.0252120005882
 20
11.64723958414992
 10
87.00615914402385
 20
11.80358056037735
 10
86.99117249594177
 20
12.001684399277206
 10
86.97900662988391
 20
12.251756750850136
 10
86.96841521023076
 20
12.564002966398903
 10
86.95815065477625
 20
12.948627994025918
 10
86.94696371558517
 20
13.415836243726433
 10
86.93685305528328
 20
13.819143630482948
 10
86.92665275979985
 20
14.165376314918534
 10
86.91590277785599
 20
14.459726719246156
 10
86.90414233952647
 20
14.707387044936318
 10
86.8909100351984
 20
14.91354928927862
 10
86.87574390352258
 20
15.083405267130459
 10
86.85818152405457
 20
15.222146636272498
 10
86.83776011063111
 20
15.334964924796159
 10
86.81401660204816
 20
15.427051559064815
 10
86.78648774723447
 20
15.503597890983375
 10
86.75471018278063
 20
15.569795223554024
 10
86.6936868534554
 20
15.668047325569816
 10
86.61977061515252
 20
15.762627864076684
 10
86.53414764125866
 20
15.85278197027014
 10
86.43800398466598
 20
15.93775469912164
 10
86.33252555290044
 20
16.016791045087274
 10
86.21889808664183
 20
16.08913595799234
 10
86.09830714202225
 20
16.154034359094194
 10
85.97193807708743
 20
16.210731157264803
 10
85.84097604279026
 20
16.25847126517242
 10
85.70660597885758
 20
16.296499615283768
 10
85.57001261482817
 20
16.324061175455796
 10
85.41583933967945
 20
16.33395201924636
 10
85.08687237369992
 20
16.34358054294817
 10
84.59728592756264
 20
16.352801789123873
 10
83.96125719554941
 20
16.361460628942258
 10
83.19296250585084
 20
16.36939453881123
 10
82.3065737137208
 20
16.376436447993193
 10
81.31625514422706
 20
16.38241784682598
 10
80.23616138762138
 20
16.38717221755592
 10
79.08043622178168
 20
16.39053870781232
 10
77.8632128595215
 20
16.392365828135112
 10
76.59861558507079
 20
16.39251484639317
 10
74.50421798361414
 20
16.39072073885398
 10
72.78099622525394
 20
16.387758121930297
 10
71.39126351239416
 20
16.383223256966193
 10
70.29735768887576
 20
16.376590030682003
 10
69.4616083179773
 20
16.367240392781923
 10
68.84632364168652
 20
16.35449150098309
 10
68.41378875116362
 20
16.33761691181787
 10
68.12626909458992
 20
16.315862065014834
 10
67.94601578520135
 20
16.288455205309216
 10
67.8352707333114
 20
16.25461487604954
 10
67.75627056695257
 20
16.21355480798071
 10
67.63392671706688
 20
16.135997283866978
 10
67.52676229165604
 20
16.05693411581968
 10
67.43404678343268
 20
15.97502509732563
 10
67.35504952874908
 20
15.88892992361192
 10
67.28903974603003
 20
15.797308192763722
 10
67.23528657205985
 20
15.6988194062859
 10
67.19305909620243
 20
15.592122969424885
 10
67.16162639256854
 20
15.475878191540428
 10
67.14025755008498
 20
15.348744286792087
 10
67.12822170036563
 20
15.209380375380393
 10
67.12478804323459
 20
15.056445485556093
 10
67.12926217132124
 20
14.899814027326123
 10
67.14174645884334
 20
14.757552308672492
 10
67.16275179889877
 20
14.62868697358585
 10
67.19278910669232
 20
14.512244622377086
 10
67.23236930545778
 20
14.407251810306015
 10
67.28200331443986
 20
14.31273504448243
 10
67.34220203886811
 20
14.227720779067273
 10
67.4134763618977
 20
14.151235408786317
 10
67.4963371385336
 20
14.082305260758272
 10
67.59129519159544
 20
14.019956584634553
 10
67.69886130981739
 20
13.963215541046562
 10
67.76420113809212
 20
13.936093256821565
 10
67.84029262056211
 20
13.912779167631127
 10
67.93077418303251
 20
13.893026130655898
 10
68.0392840619518
 20
13.876586772268485
 10
68.16946023243105
 20
13.863213419805017
 10
68.32494032700322
 20
13.852658012479417
 10
68.50936154711746
 20
13.844671989561363
 10
68.72636057016766
 20
13.839006153410129
 10
68.97957345592482
 20
13.835410504403828
 10
69.2726355576288
 20
13.833634044281462
 10
69.60918144477151
 20
13.833424543990148
 10
70.05863955088262
 20
13.832541557564548
 10
70.43965163416546
 20
13.827651069107745
 10
70.75938012282458
 20
13.81737428962155
 10
71.02498510951463
 20
13.80032983729533
 10
71.24362487917895
 20
13.775134152448278
 10
71.42245634549487
 20
13.740401898768088
 10
71.56863541697008
 20
13.694746329141672
 10
71.68931731025637
 20
13.63677960008211
 10
71.79165682435054
 20
13.56511302333976
 10
71.88280858564212
 20
13.478357247015705
 10
71.96992727066012
 20
13.375122361600946
 10
72.01093410741512
 20
13.319615624644872
 10
72.0452459037893
 20
13.264271856455956
 10
72.07344522624366
 20
13.204859039212758
 10
72.09611475022267
 20
13.137145090496926
 10
72.1138372444946
 20
13.056897876055146
 10
72.12719557029521
 20
12.959885217464699
 10
72.13677269485046
 20
12.841874894982416
 10
72.14315171867634
 20
12.698634645855522
 10
72.14691591577964
 20
12.525932158427697
 10
72.14864878552589
 20
12.319535062472065
 10
72.14893411452492
 20
12.075210916317072
 10
72.14836118523425
 20
11.817323481375874
 10
72.1465711483796
 20
11.602912719061491
 10
72.1426799868627
 20
11.426617660450095
 10
72.13580403684657
 20
11.283077250762485
 10
72.1250599138019
 20
11.16693036292063
 10
72.10956444446992
 20
11.07281580913477
 10
72.08843460253456
 20
10.995372351172065
 10
72.06078744638941
 20
10.92923870982961
 10
72.02574005789899
 20
10.869053574038087
 10
71.9824094815248
 20
10.809455609944044
 10
71.92991266363646
 20
10.74508347024945
 10
71.84196861222918
 20
10.609560394683008
 10
71.74523906288019
 20
10.500533731283904
 10
71.51438054820275
 20
10.415110653804916
 10
71.02403582234727
 20
10.35038100596605
 10
70.14881836483903
 20
10.303387630106092
 10
68.76327713487095
 20
10.271083643186234
 10
66.74182936361548
 20
10.250288484592602
 10
63.95864847068131
 20
10.237668035028618
 10
60.287511134099496
 20
10.229781023570176
 10
55.60165478492927
 20
10.223235939883258
 10
49.773758811184116
 20
10.214953356369987
 10
46.60367615696215
 20
10.210304512805878
 10
43.56449974565168
 20
10.206480277570106
 10
40.69102023440596
 20
10.203548627545068
 10
38.0180381297634
 20
10.201538091259927
 10
35.5803511042155
 20
10.200446579411956
 10
33.41274580869198
 20
10.20025045318963
 10
31.549992913171216
 20
10.200912802244337
 10
30.026844130904216
 20
10.202390581524117
 10
28.878030158483412
 20
10.204640659663564
 10
28.138258639297906
 20
10.207625032853926
 10
27.842211351076255
 20
10.211315531066482
  0
ENDSEC
  0
SECTION
  2
OBJECTS
  0
DICTIONARY
  5
A
330
0
100
AcDbDictionary
281
1
  3
ACAD_COLOR
350
B
  3
ACAD_GROUP
350
C
  3
ACAD_LAYOUT
350
D
  3
ACAD_MATERIAL
350
E
  3
ACAD_MLEADERSTYLE
350
F
  3
ACAD_MLINESTYLE
350
10
  3
ACAD_PLOTSETTINGS
350
11
  3
ACAD_PLOTSTYLENAME
350
12
  3
ACAD_SCALELIST
350
14
  3
ACAD_TABLESTYLE
350
15
  3
ACAD_VISUALSTYLE
350
16
  3
EZDXF_META
350
2D
  0
DICTIONARY
  5
B
330
A
100
AcDbDictionary
281
1
  0
DICTIONARY
  5
C
330
A
100
AcDbDictionary
281
1
  0
DICTIONARY
  5
D
330
A
100
AcDbDictionary
281
1
  3
Model
350
1A
  3
Layout1
350
1E
  0
DICTIONARY
  5
E
330
A
100
AcDbDictionary
281
1
  3
ByBlock
350
1F
  3
ByLayer
350
20
  3
Global
350
21
  0
DICTIONARY
  5
F
330
A
100
AcDbDictionary
281
1
  3
Standard
350
2C
  0
DICTIONARY
  5
10
330
A
100
AcDbDictionary
281
1
  3
Standard
350
22
  0
DICTIONARY
  5
11
330
A
100
AcDbDictionary
281
1
  0
ACDBDICTIONARYWDFLT
  5
12
330
A
100
AcDbDictionary
281
1
  3
Normal
350
13
100
AcDbDictionaryWithDefault
340
13
  0
ACDBPLACEHOLDER
  5
13
330
12
  0
DICTIONARY
  5
14
330
A
100
AcDbDictionary
281
1
  0
DICTIONARY
  5
15
330
A
100
AcDbDictionary
281
1
  0
DICTIONARY
  5
16
330
A
100
AcDbDictionary
281
1
  0
LAYOUT
  5
1A
330
D
100
AcDbPlotSettings
  1

  4
A3
  6

 40
7.5
 41
20.0
 42
7.5
 43
20.0
 44
420.0
 45
297.0
 46
0.0
 47
0.0
 48
0.0
 49
0.0
140
0.0
141
0.0
142
1.0
143
1.0
 70
1024
 72
1
 73
0
 74
5
  7

 75
16
 76
0
 77
2
 78
300
147
1.0
148
0.0
149
0.0
100
AcDbLayout
  1
Model
 70
1
 71
0
 10
0.0
 20
0.0
 11
420.0
 21
297.0
 12
0.0
 22
0.0
 32
0.0
 14
1e+20
 24
1e+20
 34
1e+20
 15
-1e+20
 25
-1e+20
 35
-1e+20
146
0.0
 13
0.0
 23
0.0
 33
0.0
 16
1.0
 26
0.0
 36
0.0
 17
0.0
 27
1.0
 37
0.0
 76
1
330
17
  0
LAYOUT
  5
1E
330
D
100
AcDbPlotSettings
  1

  4
A3
  6

 40
7.5
 41
20.0
 42
7.5
 43
20.0
 44
420.0
 45
297.0
 46
0.0
 47
0.0
 48
0.0
 49
0.0
140
0.0
141
0.0
142
1.0
143
1.0
 70
0
 72
1
 73
0
 74
5
  7

 75
16
 76
0
 77
2
 78
300
147
1.0
148
0.0
149
0.0
100
AcDbLayout
  1
Layout1
 70
1
 71
1
 10
0.0
 20
0.0
 11
420.0
 21
297.0
 12
0.0
 22
0.0
 32
0.0
 14
1e+20
 24
1e+20
 34
1e+20
 15
-1e+20
 25
-1e+20
 35
-1e+20
146
0.0
 13
0.0
 23
0.0
 33
0.0
 16
1.0
 26
0.0
 36
0.0
 17
0.0
 27
1.0
 37
0.0
 76
1
330
1B
  0
MATERIAL
  5
1F
102
{ACAD_REACTORS
330
E
102
}
330
E
100
AcDbMaterial
  1
ByBlock
  2

 70
0
 40
1.0
 71
1
 41
1.0
 91
-1023410177
 42
1.0
 72
1
  3

 73
1
 74
1
 75
1
 44
0.5
 73
0
 45
1.0
 46
1.0
 77
1
  4

 78
1
 79
1
170
1
 48
1.0
171
1
  6

172
1
173
1
174
1
140
1.0
141
1.0
175
1
  7

176
1
177
1
178
1
143
1.0
179
1
  8

270
1
271
1
272
1
145
1.0
146
1.0
273
1
  9

274
1
275
1
276
1
 42
1.0
 72
1
  3

 73
1
 74
1
 75
1
 94
63
  0
MATERIAL
  5
20
102
{ACAD_REACTORS
330
E
102
}
330
E
100
AcDbMaterial
  1
ByLayer
  2

 70
0
 40
1.0
 71
1
 41
1.0
 91
-1023410177
 42
1.0
 72
1
  3

 73
1
 74
1
 75
1
 44
0.5
 73
0
 45
1.0
 46
1.0
 77
1
  4

 78
1
 79
1
170
1
 48
1.0
171
1
  6

172
1
173
1
174
1
140
1.0
141
1.0
175
1
  7

176
1
177
1
178
1
143
1.0
179
1
  8

270
1
271
1
272
1
145
1.0
146
1.0
273
1
  9

274
1
275
1
276
1
 42
1.0
 72
1
  3

 73
1
 74
1
 75
1
 94
63
  0
MATERIAL
  5
21
102
{ACAD_REACTORS
330
E
102
}
330
E
100
AcDbMaterial
  1
Global
  2

 70
0
 40
1.0
 71
1
 41
1.0
 91
-1023410177
 42
1.0
 72
1
  3

 73
1
 74
1
 75
1
 44
0.5
 73
0
 45
1.0
 46
1.0
 77
1
  4

 78
1
 79
1
170
1
 48
1.0
171
1
  6

172
1
173
1
174
1
140
1.0
141
1.0
175
1
  7

176
1
177
1
178
1
143
1.0
179
1
  8

270
1
271
1
272
1
145
1.0
146
1.0
273
1
  9

274
1
275
1
276
1
 42
1.0
 72
1
  3

 73
1
 74
1
 75
1
 94
63
  0
MLINESTYLE
  5
22
102
{ACAD_REACTORS
330
10
102
}
330
10
100
AcDbMlineStyle
  2
Standard
 70
0
  3

 62
256
 51
90.0
 52
90.0
 71
2
 49
0.5
 62
256
  6
BYLAYER
 49
-0.5
 62
256
  6
BYLAYER
  0
MLEADERSTYLE
  5
2C
102
{ACAD_REACTORS
330
F
102
}
330
F
100
AcDbMLeaderStyle
179
2
170
2
171
1
172
0
 90
2
 40
0.0
 41
0.0
173
1
 91
-1056964608
 92
-2
290
1
 42
2.0
291
1
 43
8.0
  3
Standard
 44
4.0
300

342
29
174
1
175
1
176
0
178
1
 93
-1056964608
 45
4.0
292
0
297
0
 46
4.0
 94
-1056964608
 47
1.0
 49
1.0
140
1.0
294
1
141
0.0
177
0
142
1.0
295
0
296
0
143
3.75
271
0
272
9
273
9
  0
DICTIONARY
  5
2D
330
A
100
AcDbDictionary
280
1
281
1
  3
CREATED_BY_EZDXF
350
2E
  3
WRITTEN_BY_EZDXF
350
33
  0
DICTIONARYVAR
  5
2E
330
2D
100
DictionaryVariables
280
0
  1
1.4.4 @ 2026-08-29T21:58:47.032907+00:00
  0
DICTIONARYVAR
  5
33
330
2D
100
DictionaryVariables
280
0
  1
1.4.4 @ 2026-08-29T21:58:47.067983+00:00
  0
ENDSEC
  0
EOF
