  0
SECTION
  2
HEADER
  9
$ACADVER
  1
AC1024
  9
$ACADMAINTVER
 70
6
  9
$DWGCODEPAGE
  3
ANSI_1252
  9
$LASTSAVEDBY
  1
ezdxf
  9
$INSBASE
 10
0.0
 20
0.0
 30
0.0
  9
$EXTMIN
 10
1e+20
 20
1e+20
 30
1e+20
  9
$EXTMAX
 10
-1e+20
 20
-1e+20
 30
-1e+20
  9
$LIMMIN
 10
0.0
 20
0.0
  9
$LIMMAX
 10
420.0
 20
297.0
  9
$ORTHOMODE
 70
0
  9
$REGENMODE
 70
1
  9
$FILLMODE
 70
1
  9
$QTEXTMODE
 70
0
  9
$MIRRTEXT
 70
1
  9
$LTSCALE
 40
1.0
  9
$ATTMODE
 70
1
  9
$TEXTSIZE
 40
2.5
  9
$TRACEWID
 40
1.0
  9
$TEXTSTYLE
  7
Standard
  9
$CLAYER
  8
0
  9
$CELTYPE
  6
ByLayer
  9
$CECOLOR
 62
256
  9
$CELTSCALE
 40
1.0
  9
$DISPSILH
 70
0
  9
$DIMSCALE
 40
1.0
  9
$DIMASZ
 40
2.5
  9
$DIMEXO
 40
0.625
  9
$DIMDLI
 40
3.75
  9
$DIMRND
 40
0.0
  9
$DIMDLE
 40
0.0
  9
$DIMEXE
 40
1.25
  9
$DIMTP
 40
0.0
  9
$DIMTM
 40
0.0
  9
$DIMTXT
 40
2.5
  9
$DIMCEN
 40
2.5
  9
$DIMTSZ
 40
0.0
  9
$DIMTOL
 70
0
  9
$DIMLIM
 70
0
  9
$DIMTIH
 70
0
  9
$DIMTOH
 70
0
  9
$DIMSE1
 70
0
  9
$DIMSE2
 70
0
  9
$DIMTAD
 70
1
  9
$DIMZIN
 70
8
  9
$DIMBLK
  1

  9
$DIMASO
 70
1
  9
$DIMSHO
 70
1
  9
$DIMPOST
  1

  9
$DIMAPOST
  1

  9
$DIMALT
 70
0
  9
$DIMALTD
 70
3
  9
$DIMALTF
 40
0.03937007874
  9
$DIMLFAC
 40
1.0
  9
$DIMTOFL
 70
1
  9
$DIMTVP
 40
0.0
  9
$DIMTIX
 70
0
  9
$DIMSOXD
 70
0
  9
$DIMSAH
 70
0
  9
$DIMBLK1
  1

  9
$DIMBLK2
  1

  9
$DIMSTYLE
  2
ISO-25
  9
$DIMCLRD
 70
0
  9
$DIMCLRE
 70
0
  9
$DIMCLRT
 70
0
  9
$DIMTFAC
 40
1.0
  9
$DIMGAP
 40
0.625
  9
$DIMJUST
 70
0
  9
$DIMSD1
 70
0
  9
$DIMSD2
 70
0
  9
$DIMTOLJ
 70
0
  9
$DIMTZIN
 70
8
  9
$DIMALTZ
 70
0
  9
$DIMALTTZ
 70
0
  9
$DIMUPT
 70
0
  9
$DIMDEC
 70
2
  9
$DIMTDEC
 70
2
  9
$DIMALTU
 70
2
  9
$DIMALTTD
 70
3
  9
$DIMTXSTY
  7
Standard
  9
$DIMAUNIT
 70
0
  9
$DIMADEC
 70
0
  9
$DIMALTRND
 40
0.0
  9
$DIMAZIN
 70
0
  9
$DIMDSEP
 70
44
  9
$DIMATFIT
 70
3
  9
$DIMFRAC
 70
0
  9
$DIMLDRBLK
  1

  9
$DIMLUNIT
 70
2
  9
$DIMLWD
 70
-2
  9
$DIMLWE
 70
-2
  9
$DIMTMOVE
 70
0
  9
$DIMFXL
 40
1.0
  9
$DIMFXLON
 70
0
  9
$DIMJOGANG
 40
0.785398163397
  9
$DIMTFILL
 70
0
  9
$DIMTFILLCLR
 70
0
  9
$DIMARCSYM
 70
0
  9
$DIMLTYPE
  6

  9
$DIMLTEX1
  6

  9
$DIMLTEX2
  6

  9
$DIMTXTDIRECTION
 70
0
  9
$LUNITS
 70
2
  9
$LUPREC
 70
4
  9
$SKETCHINC
 40
1.0
  9
$FILLETRAD
 40
10.0
  9
$AUNITS
 70
0
  9
$AUPREC
 70
2
  9
$MENU
  1
.
  9
$ELEVATION
 40
0.0
  9
$PELEVATION
 40
0.0
  9
$THICKNESS
 40
0.0
  9
$LIMCHECK
 70
0
  9
$CHAMFERA
 40
0.0
  9
$CHAMFERB
 40
0.0
  9
$CHAMFERC
 40
0.0
  9
$CHAMFERD
 40
0.0
  9
$SKPOLY
 70
0
  9
$TDCREATE
 40
2461258.514722222
  9
$TDUCREATE
 40
2458532.153996898
  9
$TDUPDATE
 40
2461258.514722222
  9
$TDUUPDATE
 40
2458532.1544311
  9
$TDINDWG
 40
0.0
  9
$TDUSRTIMER
 40
0.0
  9
$USRTIMER
 70
1
  9
$ANGBASE
 50
0.0
  9
$ANGDIR
 70
0
  9
$PDMODE
 70
0
  9
$PDSIZE
 40
0.0
  9
$PLINEWID
 40
0.0
  9
$SPLFRAME
 70
0
  9
$SPLINETYPE
 70
6
  9
$SPLINESEGS
 70
8
  9
$HANDSEED
  5
35
  9
$SURFTAB1
 70
6
  9
$SURFTAB2
 70
6
  9
$SURFTYPE
 70
6
  9
$SURFU
 70
6
  9
$SURFV
 70
6
  9
$UCSBASE
  2

  9
$UCSNAME
  2

  9
$UCSORG
 10
0.0
 20
0.0
 30
0.0
  9
$UCSXDIR
 10
1.0
 20
0.0
 30
0.0
  9
$UCSYDIR
 10
0.0
 20
1.0
 30
0.0
  9
$UCSORTHOREF
  2

  9
$UCSORTHOVIEW
 70
0
  9
$UCSORGTOP
 10
0.0
 20
0.0
 30
0.0
  9
$UCSORGBOTTOM
 10
0.0
 20
0.0
 30
0.0
  9
$UCSORGLEFT
 10
0.0
 20
0.0
 30
0.0
  9
$UCSORGRIGHT
 10
0.0
 20
0.0
 30
0.0
  9
$UCSORGFRONT
 10
0.0
 20
0.0
 30
0.0
  9
$UCSORGBACK
 10
0.0
 20
0.0
 30
0.0
  9
$PUCSBASE
  2

  9
$PUCSNAME
  2

  9
$PUCSORG
 10
0.0
 20
0.0
 30
0.0
  9
$PUCSXDIR
 10
1.0
 20
0.0
 30
0.0
  9
$PUCSYDIR
 10
0.0
 20
1.0
 30
0.0
  9
$PUCSORTHOREF
  2

  9
$PUCSORTHOVIEW
 70
0
  9
$PUCSORGTOP
 10
0.0
 20
0.0
 30
0.0
  9
$PUCSORGBOTTOM
 10
0.0
 20
0.0
 30
0.0
  9
$PUCSORGLEFT
 10
0.0
 20
0.0
 30
0.0
  9
$PUCSORGRIGHT
 10
0.0
 20
0.0
 30
0.0
  9
$PUCSORGFRONT
 10
0.0
 20
0.0
 30
0.0
  9
$PUCSORGBACK
 10
0.0
 20
0.0
 30
0.0
  9
$USERI1
 70
0
  9
$USERI2
 70
0
  9
$USERI3
 70
0
  9
$USERI4
 70
0
  9
$USERI5
 70
0
  9
$USERR1
 40
0.0
  9
$USERR2
 40
0.0
  9
$USERR3
 40
0.0
  9
$USERR4
 40
0.0
  9
$USERR5
 40
0.0
  9
$WORLDVIEW
 70
1
  9
$SHADEDGE
 70
3
  9
$SHADEDIF
 70
70
  9
$TILEMODE
 70
1
  9
$MAXACTVP
 70
64
  9
$PINSBASE
 10
0.0
 20
0.0
 30
0.0
  9
$PLIMCHECK
 70
0
  9
$PEXTMIN
 10
1e+20
 20
1e+20
 30
1e+20
  9
$PEXTMAX
 10
-1e+20
 20
-1e+20
 30
-1e+20
  9
$PLIMMIN
 10
0.0
 20
0.0
  9
$PLIMMAX
 10
420.0
 20
297.0
  9
$UNITMODE
 70
0
  9
$VISRETAIN
 70
1
  9
$PLINEGEN
 70
0
  9
$PSLTSCALE
 70
1
  9
$TREEDEPTH
 70
3020
  9
$CMLSTYLE
  2
Standard
  9
$CMLJUST
 70
0
  9
$CMLSCALE
 40
20.0
  9
$PROXYGRAPHICS
 70
1
  9
$MEASUREMENT
 70
1
  9
$CELWEIGHT
370
-1
  9
$ENDCAPS
280
0
  9
$JOINSTYLE
280
0
  9
$LWDISPLAY
290
0
  9
$INSUNITS
 70
4
  9
$HYPERLINKBASE
  1

  9
$STYLESHEET
  1

  9
$XEDIT
290
1
  9
$CEPSNTYPE
380
0
  9
$PSTYLEMODE
290
1
  9
$FINGERPRINTGUID
  2
{DFA9EE28-810E-4669-BAF3-1E475306355F}
  9
$VERSIONGUID
  2
{8E11855F-054A-4F18-B36F-B61EF3912825}
  9
$EXTNAMES
290
1
  9
$PSVPSCALE
 40
0.0
  9
$OLESTARTUP
290
0
  9
$SORTENTS
280
127
  9
$INDEXCTL
280
0
  9
$HIDETEXT
280
1
  9
$XCLIPFRAME
280
1
  9
$HALOGAP
280
0
  9
$OBSCOLOR
 70
257
  9
$OBSLTYPE
280
0
  9
$INTERSECTIONDISPLAY
280
0
  9
$INTERSECTIONCOLOR
 70
257
  9
$DIMASSOC
280
2
  9
$PROJECTNAME
  1

  9
$CAMERADISPLAY
290
0
  9
$LENSLENGTH
 40
50.0
  9
$CAMERAHEIGHT
 40
0.0
  9
$STEPSPERSEC
 40
24.0
  9
$STEPSIZE
 40
100.0
  9
$3DDWFPREC
 40
2.0
  9
$PSOLWIDTH
 40
0.005
  9
$PSOLHEIGHT
 40
0.08
  9
$LOFTANG1
 40
1.570796326795
  9
$LOFTANG2
 40
1.570796326795
  9
$LOFTMAG1
 40
0.0
  9
$LOFTMAG2
 40
0.0
  9
$LOFTPARAM
 70
7
  9
$LOFTNORMALS
280
1
  9
$LATITUDE
 40
37.795
  9
$LONGITUDE
 40
-122.394
  9
$NORTHDIRECTION
 40
0.0
  9
$TIMEZONE
 70
-8000
  9
$LIGHTGLYPHDISPLAY
280
1
  9
$TILEMODELIGHTSYNCH
280
1
  9
$CMATERIAL
347
20
  9
$SOLIDHIST
280
0
  9
$SHOWHIST
280
1
  9
$DWFFRAME
280
2
  9
$DGNFRAME
280
2
  9
$REALWORLDSCALE
290
1
  9
$INTERFERECOLOR
 62
256
  9
$CSHADOW
280
0
  9
$SHADOWPLANELOCATION
 40
0.0
  0
ENDSEC
  0
SECTION
  2
CLASSES
  0
CLASS
  1
ACDBDICTIONARYWDFLT
  2
AcDbDictionaryWithDefault
  3
ObjectDBX Classes
 90
0
 91
0
280
0
281
0
  0
CLASS
  1
SUN
  2
AcDbSun
  3
SCENEOE
 90
1153
 91
0
280
0
281
0
  0
CLASS
  1
VISUALSTYLE
  2
AcDbVisualStyle
  3
ObjectDBX Classes
 90
4095
 91
0
280
0
281
0
  0
CLASS
  1
MATERIAL
  2
AcDbMaterial
  3
ObjectDBX Classes
 90
1153
 91
0
280
0
281
0
  0
CLASS
  1
SCALE
  2
AcDbScale
  3
ObjectDBX Classes
 90
1153
 91
0
280
0
281
0
  0
CLASS
  1
TABLESTYLE
  2
AcDbTableStyle
  3
ObjectDBX Classes
 90
4095
 91
0
280
0
281
0
  0
CLASS
  1
MLEADERSTYLE
  2
AcDbMLeaderStyle
  3
ACDB_MLEADERSTYLE_CLASS
 90
4095
 91
0
280
0
281
0
  0
CLASS
  1
DICTIONARYVAR
  2
AcDbDictionaryVar
  3
ObjectDBX Classes
 90
0
 91
0
280
0
281
0
  0
CLASS
  1
CELLSTYLEMAP
  2
AcDbCellStyleMap
  3
ObjectDBX Classes
 90
1152
 91
0
280
0
281
0
  0
CLASS
  1
MENTALRAYRENDERSETTINGS
  2
AcDbMentalRayRenderSettings
  3
SCENEOE
 90
1024
 91
0
280
0
281
0
  0
CLASS
  1
ACDBDETAILVIEWSTYLE
  2
AcDbDetailViewStyle
  3
ObjectDBX Classes
 90
1025
 91
0
280
0
281
0
  0
CLASS
  1
ACDBSECTIONVIEWSTYLE
  2
AcDbSectionViewStyle
  3
ObjectDBX Classes
 90
1025
 91
0
280
0
281
0
  0
CLASS
  1
RASTERVARIABLES
  2
AcDbRasterVariables
  3
ISM
 90
0
 91
0
280
0
281
0
  0
CLASS
  1
ACDBPLACEHOLDER
  2
AcDbPlaceHolder
  3
ObjectDBX Classes
 90
0
 91
0
280
0
281
0
  0
CLASS
  1
LAYOUT
  2
AcDbLayout
  3
ObjectDBX Classes
 90
0
 91
0
280
0
281
0
  0
ENDSEC
  0
SECTION
  2
TABLES
  0
TABLE
  2
VPORT
  5
8
330
0
100
AcDbSymbolTable
 70
1
  0
VPORT
  5
23
330
8
100
AcDbSymbolTableRecord
100
AcDbViewportTableRecord
  2
*Active
 70
0
 10
0.0
 20
0.0
 11
1.0
 21
1.0
 12
0.0
 22
0.0
 13
0.0
 23
0.0
 14
0.5
 24
0.5
 15
0.5
 25
0.5
 16
0.0
 26
0.0
 36
1.0
 17
0.0
 27
0.0
 37
0.0
 40
1000.0
 41
1.34
 42
50.0
 43
0.0
 44
0.0
 50
0.0
 51
0.0
 71
0
 72
1000
 73
1
 74
3
 75
0
 76
0
 77
0
 78
0
281
0
 65
0
146
0.0
  0
ENDTAB
  0
TABLE
  2
LTYPE
  5
2
330
0
100
AcDbSymbolTable
 70
3
  0
LTYPE
  5
24
330
2
100
AcDbSymbolTableRecord
100
AcDbLinetypeTableRecord
  2
ByBlock
 70
0
  3

 72
65
 73
0
 40
0.0
  0
LTYPE
  5
25
330
2
100
AcDbSymbolTableRecord
100
AcDbLinetypeTableRecord
  2
ByLayer
 70
0
  3

 72
65
 73
0
 40
0.0
  0
LTYPE
  5
26
330
2
100
AcDbSymbolTableRecord
100
AcDbLinetypeTableRecord
  2
Continuous
 70
0
  3

 72
65
 73
0
 40
0.0
  0
ENDTAB
  0
TABLE
  2
LAYER
  5
1
330
0
100
AcDbSymbolTable
 70
3
  0
LAYER
  5
27
330
1
100
AcDbSymbolTableRecord
100
AcDbLayerTableRecord
  2
0
 70
0
 62
7
  6
Continuous
370
-3
390
13
347
21
  0
LAYER
  5
28
330
1
100
AcDbSymbolTableRecord
100
AcDbLayerTableRecord
  2
Defpoints
 70
0
 62
7
  6
Continuous
290
0
370
-3
390
13
347
21
  0
LAYER
  5
2F
330
1
100
AcDbSymbolTableRecord
100
AcDbLayerTableRecord
  2
CUT
 70
0
 62
1
  6
Continuous
370
-3
390
13
347
21
  0
ENDTAB
  0
TABLE
  2
STYLE
  5
5
330
0
100
AcDbSymbolTable
 70
1
  0
STYLE
  5
29
330
5
100
AcDbSymbolTableRecord
100
AcDbTextStyleTableRecord
  2
Standard
 70
0
 40
0.0
 41
1.0
 50
0.0
 71
0
 42
2.5
  3
txt
  4

  0
ENDTAB
  0
TABLE
  2
VIEW
  5
7
330
0
100
AcDbSymbolTable
 70
0
  0
ENDTAB
  0
TABLE
  2
UCS
  5
6
330
0
100
AcDbSymbolTable
 70
0
  0
ENDTAB
  0
TABLE
  2
APPID
  5
3
330
0
100
AcDbSymbolTable
 70
3
  0
APPID
  5
2A
330
3
100
AcDbSymbolTableRecord
100
AcDbRegAppTableRecord
  2
ACAD
 70
0
  0
APPID
  5
32
330
3
100
AcDbSymbolTableRecord
100
AcDbRegAppTableRecord
  2
HATCHBACKGROUNDCOLOR
 70
0
  0
APPID
  5
33
330
3
100
AcDbSymbolTableRecord
100
AcDbRegAppTableRecord
  2
EZDXF
 70
0
  0
ENDTAB
  0
TABLE
  2
DIMSTYLE
  5
4
330
0
100
AcDbSymbolTable
 70
1
100
AcDbDimStyleTable
  0
DIMSTYLE
105
2B
330
4
100
AcDbSymbolTableRecord
100
AcDbDimStyleTableRecord
  2
Standard
 70
0
 40
1.0
 41
2.5
 42
0.625
 43
3.75
 44
1.25
 45
0.0
 46
0.0
 47
0.0
 48
0.0
 49
2.5
140
2.5
141
2.5
142
0.0
143
0.03937007874
144
1.0
145
0.0
146
1.0
147
0.625
148
0.0
 69
0
 70
0
 71
0
 72
0
 73
0
 74
0
 75
0
 76
0
 77
1
 78
8
 79
3
170
0
171
3
172
1
173
0
174
0
175
0
176
0
177
0
178
0
179
2
271
2
272
2
273
2
274
3
275
0
276
0
277
2
278
44
279
0
280
0
281
0
282
0
283
0
284
8
285
0
286
0
288
0
289
3
290
0
371
-2
372
-2
  0
ENDTAB
  0
TABLE
  2
BLOCK_RECORD
  5
9
330
0
100
AcDbSymbolTable
 70
2
  0
BLOCK_RECORD
  5
17
330
9
100
AcDbSymbolTableRecord
100
AcDbBlockTableRecord
  2
*Model_Space
340
1A
 70
0
280
1
281
0
  0
BLOCK_RECORD
  5
1B
330
9
100
AcDbSymbolTableRecord
100
AcDbBlockTableRecord
  2
*Paper_Space
340
1E
 70
0
280
1
281
0
  0
ENDTAB
  0
ENDSEC
  0
SECTION
  2
BLOCKS
  0
BLOCK
  5
18
330
17
100
AcDbEntity
  8
0
100
AcDbBlockBegin
  2
*Model_Space
 70
0
 10
0.0
 20
0.0
 30
0.0
  3
*Model_Space
  1

  0
ENDBLK
  5
19
330
17
100
AcDbEntity
  8
0
100
AcDbBlockEnd
  0
BLOCK
  5
1C
330
1B
100
AcDbEntity
  8
0
100
AcDbBlockBegin
  2
*Paper_Space
 70
0
 10
0.0
 20
0.0
 30
0.0
  3
*Paper_Space
  1

  0
ENDBLK
  5
1D
330
1B
100
AcDbEntity
  8
0
100
AcDbBlockEnd
  0
ENDSEC
  0
SECTION
  2
ENTITIES
  0
LWPOLYLINE
  5
30
330
17
100
AcDbEntity
  8
CUT
100
AcDbPolyline
 90
514
 70
1
 10
16.86667510050057
 20
10.231632813633343
 10
16.382211176260736
 20
10.294697408410036
 10
15.915448428504384
 20
10.380394533416425
 10
15.465773132686822
 20
10.48899649952523
 10
15.03257141164893
 20
10.620775605565768
 10
14.61522924865237
 20
10.776004126958515
 10
14.213132498349811
 20
10.954954304394109
 10
13.825666895817406
 20
11.157898332551262
 10
13.452218063745564
 20
11.38510834885268
 10
13.09217151785567
 20
11.636856422260216
 10
12.744912670584164
 20
11.913414542119547
 10
12.409826833050888
 20
12.215054607071172
 10
12.184869221088679
 20
12.439226884915078
 10
11.969577661209389
 20
12.672770752223826
 10
11.764568080815447
 20
12.914741055850598
 10
11.570456459514634
 20
13.164192699911528
 10
11.387858825918816
 20
13.420180649454473
 10
11.217391254163823
 20
13.681759933828838
 10
11.059669860086972
 20
13.947985649811422
 10
10.915310796997709
 20
14.217912964540883
 10
10.78493025097564
 20
14.490597118311353
 10
10.66914443562855
 20
14.765093427273596
 10
10.568569586241297
 20
15.040457286088886
 10
10.4729840095838
 20
15.304068668661952
 10
10.395833949601917
 20
15.59759792738844
 10
10.335536065091167
 20
16.113482011050632
 10
10.29050711310908
 20
17.04411953246641
 10
10.259163177004144
 20
18.58182128163203
 10
10.239907637722307
 20
20.918724546887677
 10
10.231083874165188
 20
24.246662973997957
 10
10.230835754207849
 20
28.756993006324123
 10
10.236758345058867
 20
34.64044037533247
 10
10.24517561052555
 20
42.087255070381026
 10
10.250163301518516
 20
51.28845546241652
 10
10.247776875794335
 20
59.27149865045118
 10
10.242190777737418
 20
65.94353045813898
 10
10.236760908420687
 20
71.42425464544672
 10
10.233619293566637
 20
75.8323662501393
 10
10.233955536325462
 20
79.28649860716672
 10
10.238420503368555
 20
81.9055549329393
 10
10.24740079224699
 20
83.80874030910869
 10
10.261165940335504
 20
85.11549932196337
 10
10.279938150706235
 20
85.94544218323412
 10
10.303922315001309
 20
86.41828345536062
 10
10.333317630778915
 20
86.65379698632535
 10
10.423362490207777
 20
87.0487137212913
 10
10.528094251920445
 20
87.42508759951626
 10
10.64859994997176
 20
87.78492686873075
 10
10.785966481365447
 20
88.13024006631036
 10
10.94128059828137
 20
88.46303598660256
 10
11.115628896093487
 20
88.78532365298628
 10
11.31009779759273
 20
89.09911229479113
 10
11.525773533774135
 20
89.40641132924841
 10
11.763742121514893
 20
89.70923034870549
 10
12.025089338460806
 20
90.00957911340865
 10
12.310900695453332
 20
90.30946755024395
 10
12.622297782546394
 20
90.61058327022265
 10
12.931418200999126
 20
90.88391817209877
 10
13.241195855175771
 20
91.1310559190241
 10
13.554564225466192
 20
91.35358034699941
 10
13.874456393262156
 20
91.55307543955834
 10
14.203805053221991
 20
91.7311252992754
 10
14.545542512933572
 20
91.88931411715083
 10
14.902600679961346
 20
92.02922614078125
 10
15.277911036111483
 20
92.15244564213457
 10
15.674404598576471
 20
92.26055688571446
 10
16.0950118674305
 20
92.35514409793035
 10
16.258103193771426
 20
92.38253464193836
 10
16.471693035204133
 20
92.40550130984273
 10
16.75960448253419
 20
92.42434521808846
 10
17.14565749463878
 20
92.43936627926131
 10
17.653667227115008
 20
92.45086260807167
 10
18.307441737579687
 20
92.45912981055054
 10
19.130778918277525
 20
92.46446020949652
 10
20.1474624351154
 20
92.46714210641007
 10
21.381256360882652
 20
92.46745926677848
 10
22.85589808200782
 20
92.46569097258553
 10
24.595088949801653
 20
92.46211326667887
 10
32.47731061609237
 20
92.44327069298602
 10
32.745192718641334
 20
92.26204395246079
 10
32.78661027684102
 20
92.23243268950506
 10
32.83002740034825
 20
92.19844031439982
 10
32.874736059592394
 20
92.16077622592861
 10
32.92002823712289
 20
92.12014982975069
 10
32.965195927202906
 20
92.07727053836268
 10
33.00953113504087
 20
92.03284777087273
 10
33.05232587564743
 20
91.98759095258069
 10
33.092872172305746
 20
91.94220951435904
 10
33.130462054644696
 20
91.89741289182864
 10
33.16438755630644
 20
91.85391052432395
 10
33.193940712202526
 20
91.81241185364304
 10
33.235450925201405
 20
91.74802068199939
 10
33.27014840825551
 20
91.68581671411638
 10
33.298648603708585
 20
91.62138267611853
 10
33.32156700254745
 20
91.55030135401977
 10
33.339519164002574
 20
91.46815562716176
 10
33.353120747639146
 20
91.37052851599542
 10
33.36298755811346
 20
91.25300324492235
 10
33.3697356028511
 20
91.11116332130442
 10
33.37398116303578
 20
90.94059263228256
 10
33.37634087847291
 20
90.73687556174207
 10
33.37743184710416
 20
90.49559713065082
 10
33.37788504234652
 20
90.23568761881917
 10
33.377092463335245
 20
90.02106293738058
 10
33.37398905805864
 20
89.84557056490891
 10
33.36751041274257
 20
89.70305886031329
 10
33.356592600665586
 20
89.58737686550324
 10
33.3401720524606
 20
89.49237413925749
 10
33.31718544891962
 20
89.41190062788505
 10
33.28656963700435
 20
89.33980657670561
 10
33.24726156943868
 20
89.26994248509152
 10
33.19819826789086
 20
89.19615910686313
 10
33.13831680932133
 20
89.11230749725449
 10
33.040314593172
 20
88.98326447104729
 10
32.94381207297563
 20
88.87560140191445
 10
32.84108578811568
 20
88.7874265481542
 10
32.72441194016452
 20
88.71684855468654
 10
32.58606625954835
 20
88.66197632149358
 10
32.41832379527054
 20
88.6209188884398
 10
32.2134586293096
 20
88.59178533320619
 10
31.9637435197037
 20
88.57268467776981
 10
31.661449478809896
 20
88.56172579696907
 10
31.29884529584888
 20
88.55701732043356
 10
30.868197015705572
 20
88.55666751682989
 10
30.33289912261805
 20
88.55541622668932
 10
29.890336358383834
 20
88.54466869583977
 10
29.53173023796726
 20
88.51843423802134
 10
29.248297270770188
 20
88.47072207086475
 10
29.03125020793125
 20
88.39554122346114
 10
28.871799104826355
 20
88.28690061642547
 10
28.76115221930872
 20
88.13880927728663
 10
28.690516764664256
 20
87.94527667126454
 10
28.651099531974758
 20
87.70031314023629
 10
28.63410739026099
 20
87.39793045211334
 10
28.63074766444274
 20
87.03214246967194
 10
28.631737182289744
 20
86.86163707119438
 10
28.634358282169885
 20
86.71065692308683
 10
28.638803637498345
 20
86.57766137948241
 10
28.645266014713783
 20
86.46111000264368
 10
28.653938258153058
 20
86.35946253670602
 10
28.665013276519588
 20
86.27117888243453
 10
28.67868403092363
 20
86.19471907333006
 10
28.69514352446347
 20
86.12854325336782
 10
28.714584793311783
 20
86.07111165660244
 10
28.737200899270693
 20
86.0208845888286
 10
28.763184923761386
 20
85.97632241144572
 10
28.8181692174226
 20
85.86223048330012
 10
28.899564485621784
 20
85.77013453096853
 10
29.130167052109172
 20
85.69733040495706
 10
29.632752501576864
 20
85.64110753544485
 10
30.530037668052945
 20
85.59874184916116
 10
31.94461466077938
 20
85.56748764585674
 10
33.998844606299656
 20
85.54457905904033
 10
36.81469121191898
 20
85.52727012152464
 10
40.5134789573017
 20
85.512988851761
 10
45.21563643878277
 20
85.49978113678307
 10
51.040822661138506
 20
85.48733401916948
 10
56.07020638351627
 20
85.48110105487912
 10
60.259262103146995
 20
85.48108462476834
 10
63.68707259492311
 20
85.4857148750917
 10
66.43137122225409
 20
85.49367032356
 10
68.5692192622842
 20
85.50422552787442
 10
70.17749914947231
 20
85.51719768791637
 10
71.33314739498698
 20
85.53277751128641
 10
72.11322213898825
 20
85.55138062493457
 10
72.59489586618585
 20
85.57354834466065
 10
72.85542397763791
 20
85.5998884088045
 10
72.97211189636577
 20
85.63104108839535
 10
73.09176367450388
 20
85.69301316802876
 10
73.19056102160793
 20
85.76249339378292
 10
73.2705352845476
 20
85.85264701931276
 10
73.3337178185187
 20
85.97663958127447
 10
73.3821393389842
 20
86.1476373369786
 10
73.41782916700072
 20
86.37880775538976
 10
73.44281438953828
 20
86.68332003217371
 10
73.4591189717608
 20
87.07434558745753
 10
73.468762874237
 20
87.56505849539735
 10
73.47376124240932
 20
88.16863579030277
 10
73.4761237453616
 20
88.89825759753447
 10
73.4814247860133
 20
91.50798818372903
 10
73.69058533656366
 20
91.83149867521766
 10
73.78072135433453
 20
91.98805344165683
 10
73.8639212958542
 20
92.11398868584041
 10
73.9949424376225
 20
92.21271996245386
 10
74.2285475920424
 20
92.28766434828117
 10
74.61950945897367
 20
92.34224458112482
 10
75.22261938005617
 20
92.37989471337961
 10
76.09270088833928
 20
92.40406609522371
 10
77.28462841131031
 20
92.41823155367466
 10
78.85335079490874
 20
92.4258845554474
 10
80.85391749980536
 20
92.43052941368995
 10
83.34150220609735
 20
92.43565915127604
 10
85.80648095133301
 20
92.44191026240205
 10
87.79903139907613
 20
92.44595737136716
 10
89.37109931302739
 20
92.44515817141345
 10
90.57476175593389
 20
92.43690952640934
 10
91.46219058845529
 20
92.41862180638917
 10
92.0856232924582
 20
92.38770759477572
 10
92.49734096758257
 20
92.34157760142936
 10
92.74965222140942
 20
92.27763995010935
 10
92.8948817171707
 20
92.1933008660092
 10
92.985362499853
 20
92.08596578204924
 10
93.07343158910953
 20
91.95304039977822
 10
93.11430755905043
 20
91.89275203523253
 10
93.14834270197359
 20
91.83365917114455
 10
93.17614398764533
 20
91.77081959725949
 10
93.19831836190804
 20
91.69929124304353
 10
93.2154727250115
 20
91.61413219567311
 10
93.22821390066602
 20
91.51040074371353
 10
93.23714859599939
 20
91.3831554472813
 10
93.24288335260833
 20
91.22745523593085
 10
93.24602448898538
 20
91.03835953611451
 10
93.24717803478852
 20
90.81092843084082
 10
93.24694965774026
 20
90.54022285512434
 10
93.24582335664186
 20
90.27515508664376
 10
93.24349017617583
 20
90.05124880499118
 10
93.2394159614345
 20
89.86406284108011
 10
93.23306621927131
 20
89.70915673369453
 10
93.22390619072921
 20
89.58209060505035
 10
93.2114009131115
 20
89.47842504477622
 10
93.19501527179187
 20
89.39372100511758
 10
93.17421404194461
 20
89.32353970953817
 10
93.1484619204009
 20
89.26344257633204
 10
93.11722354781791
 20
89.20899115838883
 10
93.07996352129578
 20
89.15574709988444
 10
92.97863908539198
 20
89.02314484992489
 10
92.88507286082442
 20
88.91382625352622
 10
92.7895752782969
 20
88.82528284796146
 10
92.68245696945476
 20
88.75500609875672
 10
92.55402891534237
 20
88.70048740643233
 10
92.39460268975095
 20
88.65921807346407
 10
92.19449080151344
 20
88.62868923355079
 10
91.94400714268214
 20
88.60639174700752
 10
91.63346755386678
 20
88.5898160681544
 10
91.25319052388447
 20
88.57645209327964
 10
90.79349804841182
 20
88.563789001673
 10
90.32018844309383
 20
88.55024876523314
 10
89.92600171328894
 20
88.53511252952953
 10
89.60281196262864
 20
88.51613994920032
 10
89.34249637657148
 20
88.49108983601776
 10
89.13693469100427
 20
88.45772043209712
 10
88.97800867260929
 20
88.41378962501564
 10
88.85760163268696
 20
88.35705511049957
 10
88.76759799046818
 20
88.28527450917085
 10
88.69988289696191
 20
88.19620544361298
 10
88.64634192628135
 20
88.08760558108953
 10
88.59886083826768
 20
87.95723264592662
 10
88.58359460180978
 20
87.90307173609274
 10
88.57002565036439
 20
87.83805359505703
 10
88.55820078971078
 20
87.76292935037874
 10
88.54816682376348
 20
87.67845015159752
 10
88.53997055900722
 20
87.58536716190736
 10
88.53365880862914
 20
87.48443155028474
 10
88.52927839633492
 20
87.37639448404933
 10
88.52687615983585
 20
87.26200712184456
 10
88.5264989539929
 20
87.14202060703269
 10
88.52819365360453
 20
87.0171860615059
 10
88.53200715582405
 20
86.88825457992226
 10
88.5415083138143
 20
86.68127751568866
 10
88.55424325197674
 20
86.50317756565866
 10
88.57151700419026
 20
86.35077332602184
 10
88.59463439059743
 20
86.2208838762086
 10
88.62490006971579
 20
86.1103286887316
 10
88.66361858874481
 20
86.0159275506095
 10
88.712094432365
 20
85.9345004977767
 10
88.77163207024162
 20
85.86286776352968
 10
88.84353600340556
 20
85.7978497417219
 10
88.92911080969492
 20
85.73626696509355
 10
89.0296611885082
 20
85.67494009881827
 10
89.11250437781489
 20
85.65763568588986
 10
89.30214892193827
 20
85.64202125630882
 10
89.60530536675235
 20
85.62799877642495
 10
90.02869030390531
 20
85.61546855555517
 10
90.57902705692351
 20
85.60432878210896
 10
91.263046180795
 20
85.59447496014646
 10
92.08748571813321
 20
85.585799260264
 10
93.0590911595474
 20
85.57818981718705
 10
94.18461506752364
 20
85.57153002574728
 10
95.47081634302597
 20
85.56569790371434
 10
96.92445914181451
 20
85.56056560035132
 10
99.05362875388762
 20
85.5542458166075
 10
100.77429768300979
 20
85.54794275123581
 10
102.13659756842371
 20
85.53851218414464
 10
103.19074132969197
 20
85.52277836579822
 10
103.9869943629119
 20
85.49754074101364
 10
104.57565572113337
 20
85.45958060666189
 10
105.00704571506729
 20
85.40566676087143
 10
105.33149780073838
 20
85.33255990581087
 10
105.59935352025268
 20
85.23701579742307
 10
105.86095981258494
 20
85.11578718375985
 10
106.16666833000612
 20
84.96562455700368
 10
106.63421221640381
 20
84.71835680508197
 10
107.07407047256896
 20
84.44012834436126
 10
107.48520033648805
 20
84.13221494924993
 10
107.86655888532674
 20
83.7958924480336
 10
108.21710304658117
 20
83.43243671088493
 10
108.53578960807141
 20
83.04312363909747
 10
108.82157522695941
 20
82.62922915528469
 10
109.0734164379535
 20
82.1920291943094
 10
109.29026966084123
 20
81.7327996947276
 10
109.47109120747764
 20
81.25281659054218
 10
109.61483728834342
 20
80.75335580306873
 10
109.7805105860402
 20
80.07833810631203
 10
109.72983892414328
 20
50.41995613926015
 10
109.74812910204048
 20
20.753623829367292
 10
109.57203364513843
 20
20.25328904565457
 10
109.3503078843017
 20
19.6981191001158
 10
109.08689104745073
 20
19.171809950149857
 10
108.783664356908
 20
18.676159980220554
 10
108.44250880357382
 20
18.212967572390788
 10
108.06530513144472
 20
17.784031089587337
 10
107.65393382101131
 20
17.391148857705154
 10
107.21027507121468
 20
17.03611914597901
 10
106.73620877960467
 20
16.720740145005315
 10
106.23361452029863
 20
16.446809941734426
 10
105.7043715192932
 20
16.216126490665825
 10
105.15035862662022
 20
16.030487580367073
 10
104.51549635708616
 20
15.84812375538543
 10
96.81497827895447
 20
15.824613800808596
 10
95.32000615040869
 20
15.819691045456985
 10
94.01027156857134
 20
15.81409457711711
 10
92.87602355551846
 20
15.807653902957265
 10
91.90751963189457
 20
15.800204908920556
 10
91.09502643767759
 20
15.79158882947695
 10
90.42881987297147
 20
15.781651197801812
 10
89.89918482097102
 20
15.77024086575793
 10
89.49641453503041
 20
15.7572091521853
 10
89.21080977834085
 20
15.742409147711406
 10
89.03267780149727
 20
15.72569517888926
 10
88.95233123399056
 20
15.706922416151045
 10
88.854923755628
 20
15.630031137210413
 10
88.7680633645794
 20
15.519937753162772
 10
88.69268700683655
 20
15.381739900475973
 10
88.62973158639348
 20
15.220535485797832
 10
88.58013407075971
 20
15.041422800343302
 10
88.54483158311338
 20
14.849500596057652
 10
88.52476147914348
 20
14.649868124154846
 10
88.52086140709473
 20
14.447625137582564
 10
88.5340693500975
 20
14.247871859635623
 10
88.56532365049642
 20
14.05570892131636
 10
88.61556301654058
 20
13.876237270139004
 10
88.6631496845263
 20
13.753942097478742
 10
88.71788228260282
 20
13.65170570395742
 10
88.7874805890879
 20
13.567490503008443
 10
88.87966458309423
 20
13.49925886731875
 10
89.0021546407562
 20
13.444973118479536
 10
89.16267179400187
 20
13.402595537734133
 10
89.36893804924418
 20
13.370088401391122
 10
89.62867676124252
 20
13.345414045841114
 10
89.94961305448687
 20
13.326534968295011
 10
90.33947428080623
 20
13.311413970120784
 10
90.80599049757714
 20
13.298014349702182
 10
91.27066245140313
 20
13.285185619443245
 10
91.6552483347756
 20
13.271366544490549
 10
91.96944382051798
 20
13.253864144723213
 10
92.22294784850607
 20
13.229985828200164
 10
92.42546183472456
 20
13.19703930792161
 10
92.58668902129654
 20
13.152332513309936
 10
92.71633394820702
 20
13.093173510238426
 10
92.8241020332824
 20
13.016870439243519
 10
92.91969925162098
 20
12.920731478538986
 10
93.01283190909669
 20
12.802064836123895
 10
93.11320650677919
 20
12.658178773344423
 10
93.15114783795597
 20
12.599607267620005
 10
93.18354123203133
 20
12.542422700896367
 10
93.2108012293408
 20
12.48452669180059
 10
93.23334235644506
 20
12.423820833648257
 10
93.25157912404916
 20
12.358206686891235
 10
93.26592602284751
 20
12.285585768701017
 10
93.27679751729507
 20
12.203859539764967
 10
93.28460803730086
 20
12.110929388401038
 10
93.28977196784179
 20
12.004696612133122
 10
93.29270363649945
 20
11.883062396915053
 10
93.29381729893304
 20
11.74392779424423
 10
93.29013556978539
 20
11.541976621790946
 10
93.27741598921213
 20
11.361540867003328
 10
93.25462339713616
 20
11.200621167682923
 10
93.22072255284554
 20
11.05721796175766
 10
93.17467816304749
 20
10.92933152275085
 10
93.11545490955588
 20
10.814961988505713
 10
93.04201747661786
 20
10.712109383529734
 10
92.95333057788919
 20
10.61877363520525
 10
92.84835898305519
 20
10.53295458400218
 10
92.72606754406485
 20
10.452651987726835
 10
92.58542122089975
 20
10.37586551974478
 10
92.23255714081868
 20
10.197991551726851
 10
83.39516212965188
 20
10.217839518218003
 10
81.20771295363465
 20
10.222706288491594
 10
79.41372678957755
 20
10.227369424370773
 10
77.97219270261142
 20
10.232700779319277
 10
76.84217454982617
 20
10.239574497211482
 10
75.98279729538787
 20
10.248856149227038
 10
75.35323256686884
 20
10.261397852085606
 10
74.91268557755782
 20
10.27803776468993
 10
74.62038433381704
 20
10.299602190467612
 10
74.43557131007462
 20
10.326908786345063
 10
74.31749744985378
 20
10.360769798995193
 10
74.225418288099
 20
10.401994648373012
 10
74.17320272713324
 20
10.429244270763142
 10
74.11950531397801
 20
10.460628763274029
 10
74.06514719072818
 20
10.495488207164325
 10
74.01094946532567
 20
10.533162683519228
 10
73.95773321030657
 20
10.57299227245436
 10
73.90631946280884
 20
10.614317052335643
 10
73.85752922587261
 20
10.656477099002753
 10
73.8121834710677
 20
10.698812484985387
 10
73.77110314248156
 20
10.740663278704599
 10
73.73510916210003
 20
10.781369543653934
 10
73.70502243660738
 20
10.820271337560367
 10
73.66195121657509
 20
10.884137656387175
 10
73.62611782791294
 20
10.949841591725113
 10
73.59663397745592
 20
11.026808118028331
 10
73.57261126667078
 20
11.124462145467636
 10
73.55316104337027
 20
11.252228436847291
 10
73.53739420105396
 20
11.419531498310057
 10
73.52442092083564
 20
11.635795439721313
 10
73.51335034749604
 20
11.910443797944252
 10
73.50329018651135
 20
12.252899312485802
 10
73.49334620253775
 20
12.672583637726168
 10
73.48262159111965
 20
13.178916968362453
 10
73.47054354160431
 20
13.730271926332856
 10
73.45807336861964
 20
14.188538824378902
 10
73.4436124516958
 20
14.563629851534067
 10
73.4255596939787
 20
14.865455909557905
 10
73.40231186655758
 20
15.103926722759748
 10
73.37226399136276
 20
15.288950992332442
 10
73.3338097373032
 20
15.43043657887073
 10
73.28534180809204
 20
15.53829069731184
 10
73.22525230495384
 20
15.62242011055173
 10
73.15193305242535
 20
15.692731310886316
 10
73.0637758802234
 20
15.759130681661514
 10
72.95739209344379
 20
15.7871715795809
 10
72.67827198495077
 20
15.811084577803436
 10
72.15761156877943
 20
15.831376996914933
 10
71.32664776655432
 20
15.848523704970164
 10
70.11668031445375
 20
15.86293838046866
 10
68.45908895581914
 20
15.874926906038137
 10
66.28532934718314
 20
15.884615095603078
 10
63.52687484590055
 20
15.89184855478469
 10
60.115051656772856
 20
15.89608711866918
 10
55.98071778311321
 20
15.896375301230709
 10
51.053827324558476
 20
15.891546489406963
 10
29.180796174796892
 20
15.840883544550866
 10
28.921222841881836
 20
15.60859105334954
 10
28.66164632235834
 20
15.376300806803272
 10
28.659642964353885
 20
14.577745771606509
 10
28.65952928185621
 20
14.385955975719234
 10
28.660802770999513
 20
14.226133060174789
 10
28.664324889423803
 20
14.094237038581337
 10
28.67095733911287
 20
13.986227453611995
 10
28.681562009850627
 20
13.898063492145432
 10
28.697000929455506
 20
13.82570407682666
 10
28.718136220947024
 20
13.765107935771963
 10
28.745830066713467
 20
13.712233651628685
 10
28.780944679728627
 20
13.663039690795225
 10
28.82434228189851
 20
13.613484413300544
 10
28.876885089698415
 20
13.55952606362752
 10
29.096092779818594
 20
13.339913316646193
 10
30.818895988032242
 20
13.304407671745125
 10
31.288204510833953
 20
13.294139624353974
 10
31.676355492755906
 20
13.283009771697227
 10
31.99301437351671
 20
13.268805865350851
 10
32.24784317018482
 20
13.249315722731167
 10
32.45050119118019
 20
13.222327160428772
 10
32.610645676890854
 20
13.18562795229847
 10
32.73793235412852
 20
13.1370057925062
 10
32.84201589517514
 20
13.074248248424515
 10
32.93255027512201
 20
12.995142692647926
 10
33.0191890238821
 20
12.897476206992188
 10
33.11158537188112
 20
12.779035453821699
 10
33.16267247383222
 20
12.710060127594954
 10
33.205229420304406
 20
12.64708160594396
 10
33.24001972787193
 20
12.586571762319801
 10
33.26780694004209
 20
12.525002337688958
 10
33.28935463123184
 20
12.458844960966076
 10
33.30542641808725
 20
12.384571155865116
 10
33.31678597826475
 20
12.29865233442878
 10
33.324197076688066
 20
12.197559777577116
 10
33.328423599200875
 20
12.077764603161704
 10
33.33022959344777
 20
11.935737722213197
 10
33.3303793167362
 20
11.767949784326634
 10
33.32631849811192
 20
11.550573276133312
 10
33.31431964644587
 20
11.359338348191978
 10
33.29304173131608
 20
11.191592934866659
 10
33.26114391546044
 20
11.044684661382556
 10
33.21728550081187
 20
10.915960894448455
 10
33.160125876909376
 20
10.802768788496957
 10
33.08832447146345
 20
10.702455328520543
 10
33.00054070299899
 20
10.612367370283893
 10
32.89543393563857
 20
10.529851678516694
 10
32.771663436224415
 20
10.45225496352995
 10
32.62788833410372
 20
10.376923916549643
 10
32.53661652456966
 20
10.33574965404665
 10
32.42484638278383
 20
10.301973363728157
 10
32.25757387892067
 20
10.27483893969113
 10
31.999791602802667
 20
10.253590112692175
 10
31.616485963818246
 20
10.237470194366106
 10
31.072633124517164
 20
10.225721950387205
 10
30.33319381922482
 20
10.217587846242665
 10
29.36310733501606
 20
10.212311013724293
 10
28.127285122618744
 20
10.20913735165627
 10
26.59060475733824
 20
10.20731914250861
 10
24.717905247536248
 20
10.206120373970899
 10
23.599942093918884
 20
10.205832562434118
 10
22.525604663777315
 20
10.206193858277047
 10
21.50729566039778
 20
10.207164187748672
 10
20.557420517224436
 20
10.208701900895395
 10
19.688386538013596
 20
10.210763925510156
 10
18.91260203905766
 20
10.213306016021457
 10
18.242475495718033
 20
10.216283080824821
 10
17.690414685169884
 20
10.219649572769923
 10
17.268825807299304
 20
10.223359929509526
 10
16.990112555743238
 20
10.22736905238442
 10
16.86667510050057
 20
10.231632813633343
  0
LWPOLYLINE
  5
31
330
17
100
AcDbEntity
  8
CUT
100
AcDbPolyline
 90
80
 70
1
 10
98.06168238951341
 20
26.241268835888256
 10
98.16419073071368
 20
26.2787481657336
 10
98.24693791743103
 20
26.3571021658023
 10
98.3119468032877
 20
26.608677440836342
 10
98.36121791262963
 20
27.165817725547246
 10
98.39671506909995
 20
28.160862764837386
 10
98.42031972968206
 20
29.726143879745987
 10
98.43370579098132
 20
31.993969436317172
 10
98.43793881642799
 20
35.09656807645301
 10
98.43169437515765
 20
39.1657569637496
 10
98.39540568847706
 20
44.32800061175874
 10
98.33616887888078
 20
50.27526318956838
 10
98.42901857202487
 20
56.72915062381338
 10
98.44227414890219
 20
61.95066510070582
 10
98.44383120943873
 20
66.04694726395246
 10
98.43687122362147
 20
69.15429705927804
 10
98.42021439481503
 20
71.40978825271428
 10
98.39177753246629
 20
72.95060836582553
 10
98.34919785513085
 20
73.91397349576899
 10
98.29000687502459
 20
74.43710931207198
 10
98.21169154660325
 20
74.65724550902516
 10
98.11171720206552
 20
74.71161412605034
 10
97.98753288848076
 20
74.73744933371079
 10
97.94182348217345
 20
74.75358505752591
 10
97.88657323196688
 20
74.767874742547
 10
97.82221668161671
 20
74.78028683287387
 10
97.74918841782541
 20
74.79078982152537
 10
97.66792306496609
 20
74.79935223743786
 10
97.57885528003666
 20
74.80594263324636
 10
97.48241974792184
 20
74.8105295738007
 10
97.37905117702344
 20
74.81308162537691
 10
97.26918429530576
 20
74.81356734555081
 10
97.15325384678843
 20
74.81195527370718
 10
97.03169458850789
 20
74.80821392216437
 10
96.85719141888893
 20
74.8010992439956
 10
96.71203628413566
 20
74.7937334430399
 10
96.59232631715588
 20
74.78492997730162
 10
96.49415887669086
 20
74.77350375404824
 10
96.41363143272598
 20
74.75827080102877
 10
96.3468415105948
 20
74.73804799122848
 10
96.2898866829752
 20
74.71165282360707
 10
96.23886460211499
 20
74.67790326105205
 10
96.18987306723585
 20
74.63561762626591
 10
96.13901012408105
 20
74.58361455635423
 10
96.08237419496407
 20
74.52071301740641
 10
95.85263443675967
 20
74.26103964822879
 10
95.97575551042395
 20
50.3134995047909
 10
95.96492814512355
 20
46.23300274819532
 10
95.89468430267459
 20
42.27822650994317
 10
95.87964169789356
 20
38.802314850261915
 10
95.87624724602396
 20
35.806876361445774
 10
95.87795434036668
 20
33.27291801493806
 10
95.88292023477266
 20
31.180101864468583
 10
95.89046552936641
 20
29.507849161063238
 10
95.90031103647998
 20
28.23551468982198
 10
95.91234584742065
 20
27.342429638635252
 10
95.9265404545098
 20
26.80791526118127
 10
95.94290935534681
 20
26.611288044503855
 10
95.99544694316259
 20
26.515356062395657
 10
96.05048664813386
 20
26.433715957566427
 10
96.11093588152016
 20
26.36527334344804
 10
96.17970242894121
 20
26.308933393235026
 10
96.25969428100309
 20
26.263600762578292
 10
96.35381950181988
 20
26.228179461893873
 10
96.46498613812842
 20
26.20157267880962
 10
96.59610217430075
 20
26.182682550922095
 10
96.7500755415967
 20
26.170409889303098
 10
96.92981419343931
 20
26.163653854234955
 10
97.13822626224632
 20
26.16131158669187
 10
97.25357877941315
 20
26.161944631792004
 10
97.36702233407357
 20
26.164281083258242
 10
97.47709971986973
 20
26.168195019373993
 10
97.58235376034231
 20
26.173560826444163
 10
97.6813273082559
 20
26.180253170138165
 10
97.77256324637938
 20
26.18814695622986
 10
97.85460449045264
 20
26.197117280671993
 10
97.92599399483032
 20
26.207039368936506
 10
97.98527476099149
 20
26.21778850452535
 10
98.03098984874228
 20
26.22923994650939
 10
98.06168238951341
 20
26.241268835888256
  0
ENDSEC
  0
SECTION
  2
OBJECTS
  0
DICTIONARY
  5
A
330
0
100
AcDbDictionary
281
1
  3
ACAD_COLOR
350
B
  3
ACAD_GROUP
350
C
  3
ACAD_LAYOUT
350
D
  3
ACAD_MATERIAL
350
E
  3
ACAD_MLEADERSTYLE
350
F
  3
ACAD_MLINESTYLE
350
10
  3
ACAD_PLOTSETTINGS
350
11
  3
ACAD_PLOTSTYLENAME
350
12
  3
ACAD_SCALELIST
350
14
  3
ACAD_TABLESTYLE
350
15
  3
ACAD_VISUALSTYLE
350
16
  3
EZDXF_META
350
2D
  0
DICTIONARY
  5
B
330
A
100
AcDbDictionary
281
1
  0
DICTIONARY
  5
C
330
A
100
AcDbDictionary
281
1
  0
DICTIONARY
  5
D
330
A
100
AcDbDictionary
281
1
  3
Model
350
1A
  3
Layout1
350
1E
  0
DICTIONARY
  5
E
330
A
100
AcDbDictionary
281
1
  3
ByBlock
350
1F
  3
ByLayer
350
20
  3
Global
350
21
  0
DICTIONARY
  5
F
330
A
100
AcDbDictionary
281
1
  3
Standard
350
2C
  0
DICTIONARY
  5
10
330
A
100
AcDbDictionary
281
1
  3
Standard
350
22
  0
DICTIONARY
  5
11
330
A
100
AcDbDictionary
281
1
  0
ACDBDICTIONARYWDFLT
  5
12
330
A
100
AcDbDictionary
281
1
  3
Normal
350
13
100
AcDbDictionaryWithDefault
340
13
  0
ACDBPLACEHOLDER
  5
13
330
12
  0
DICTIONARY
  5
14
330
A
100
AcDbDictionary
281
1
  0
DICTIONARY
  5
15
330
A
100
AcDbDictionary
281
1
  0
DICTIONARY
  5
16
330
A
100
AcDbDictionary
281
1
  0
LAYOUT
  5
1A
330
D
100
AcDbPlotSettings
  1

  4
A3
  6

 40
7.5
 41
20.0
 42
7.5
 43
20.0
 44
420.0
 45
297.0
 46
0.0
 47
0.0
 48
0.0
 49
0.0
140
0.0
141
0.0
142
1.0
143
1.0
 70
1024
 72
1
 73
0
 74
5
  7

 75
16
 76
0
 77
2
 78
300
147
1.0
148
0.0
149
0.0
100
AcDbLayout
  1
Model
 70
1
 71
0
 10
0.0
 20
0.0
 11
420.0
 21
297.0
 12
0.0
 22
0.0
 32
0.0
 14
1e+20
 24
1e+20
 34
1e+20
 15
-1e+20
 25
-1e+20
 35
-1e+20
146
0.0
 13
0.0
 23
0.0
 33
0.0
 16
1.0
 26
0.0
 36
0.0
 17
0.0
 27
1.0
 37
0.0
 76
1
330
17
  0
LAYOUT
  5
1E
330
D
100
AcDbPlotSettings
  1

  4
A3
  6

 40
7.5
 41
20.0
 42
7.5
 43
20.0
 44
420.0
 45
297.0
 46
0.0
 47
0.0
 48
0.0
 49
0.0
140
0.0
141
0.0
142
1.0
143
1.0
 70
0
 72
1
 73
0
 74
5
  7

 75
16
 76
0
 77
2
 78
300
147
1.0
148
0.0
149
0.0
100
AcDbLayout
  1
Layout1
 70
1
 71
1
 10
0.0
 20
0.0
 11
420.0
 21
297.0
 12
0.0
 22
0.0
 32
0.0
 14
1e+20
 24
1e+20
 34
1e+20
 15
-1e+20
 25
-1e+20
 35
-1e+20
146
0.0
 13
0.0
 23
0.0
 33
0.0
 16
1.0
 26
0.0
 36
0.0
 17
0.0
 27
1.0
 37
0.0
 76
1
330
1B
  0
MATERIAL
  5
1F
102
{ACAD_REACTORS
330
E
102
}
330
E
100
AcDbMaterial
  1
ByBlock
  2

 70
0
 40
1.0
 71
1
 41
1.0
 91
-1023410177
 42
1.0
 72
1
  3

 73
1
 74
1
 75
1
 44
0.5
 73
0
 45
1.0
 46
1.0
 77
1
  4

 78
1
 79
1
170
1
 48
1.0
171
1
  6

172
1
173
1
174
1
140
1.0
141
1.0
175
1
  7

176
1
177
1
178
1
143
1.0
179
1
  8

270
1
271
1
272
1
145
1.0
146
1.0
273
1
  9

274
1
275
1
276
1
 42
1.0
 72
1
  3

 73
1
 74
1
 75
1
 94
63
  0
MATERIAL
  5
20
102
{ACAD_REACTORS
330
E
102
}
330
E
100
AcDbMaterial
  1
ByLayer
  2

 70
0
 40
1.0
 71
1
 41
1.0
 91
-1023410177
 42
1.0
 72
1
  3

 73
1
 74
1
 75
1
 44
0.5
 73
0
 45
1.0
 46
1.0
 77
1
  4

 78
1
 79
1
170
1
 48
1.0
171
1
  6

172
1
173
1
174
1
140
1.0
141
1.0
175
1
  7

176
1
177
1
178
1
143
1.0
179
1
  8

270
1
271
1
272
1
145
1.0
146
1.0
273
1
  9

274
1
275
1
276
1
 42
1.0
 72
1
  3

 73
1
 74
1
 75
1
 94
63
  0
MATERIAL
  5
21
102
{ACAD_REACTORS
330
E
102
}
330
E
100
AcDbMaterial
  1
Global
  2

 70
0
 40
1.0
 71
1
 41
1.0
 91
-1023410177
 42
1.0
 72
1
  3

 73
1
 74
1
 75
1
 44
0.5
 73
0
 45
1.0
 46
1.0
 77
1
  4

 78
1
 79
1
170
1
 48
1.0
171
1
  6

172
1
173
1
174
1
140
1.0
141
1.0
175
1
  7

176
1
177
1
178
1
143
1.0
179
1
  8

270
1
271
1
272
1
145
1.0
146
1.0
273
1
  9

274
1
275
1
276
1
 42
1.0
 72
1
  3

 73
1
 74
1
 75
1
 94
63
  0
MLINESTYLE
  5
22
102
{ACAD_REACTORS
330
10
102
}
330
10
100
AcDbMlineStyle
  2
Standard
 70
0
  3

 62
256
 51
90.0
 52
90.0
 71
2
 49
0.5
 62
256
  6
BYLAYER
 49
-0.5
 62
256
  6
BYLAYER
  0
MLEADERSTYLE
  5
2C
102
{ACAD_REACTORS
330
F
102
}
330
F
100
AcDbMLeaderStyle
179
2
170
2
171
1
172
0
 90
2
 40
0.0
 41
0.0
173
1
 91
-1056964608
 92
-2
290
1
 42
2.0
291
1
 43
8.0
  3
Standard
 44
4.0
300

342
29
174
1
175
1
176
0
178
1
 93
-1056964608
 45
4.0
292
0
297
0
 46
4.0
 94
-1056964608
 47
1.0
 49
1.0
140
1.0
294
1
141
0.0
177
0
142
1.0
295
0
296
0
143
3.75
271
0
272
9
273
9
  0
DICTIONARY
  5
2D
330
A
100
AcDbDictionary
280
1
281
1
  3
CREATED_BY_EZDXF
350
2E
  3
WRITTEN_BY_EZDXF
350
34
  0
DICTIONARYVAR
  5
2E
330
2D
100
DictionaryVariables
280
0
  1
1.4.4 @ 2026-08-05T09:21:12.847250+00:00
  0
DICTIONARYVAR
  5
34
330
2D
100
DictionaryVariables
280
0
  1
1.4.4 @ 2026-08-05T09:21:12.866905+00:00
  0
ENDSEC
  0
EOF
