  0
SECTION
  2
HEADER
  9
$ACADVER
  1
AC1024
  9
$ACADMAINTVER
 70
6
  9
$DWGCODEPAGE
  3
ANSI_1252
  9
$LASTSAVEDBY
  1
ezdxf
  9
$INSBASE
 10
0.0
 20
0.0
 30
0.0
  9
$EXTMIN
 10
1e+20
 20
1e+20
 30
1e+20
  9
$EXTMAX
 10
-1e+20
 20
-1e+20
 30
-1e+20
  9
$LIMMIN
 10
0.0
 20
0.0
  9
$LIMMAX
 10
420.0
 20
297.0
  9
$ORTHOMODE
 70
0
  9
$REGENMODE
 70
1
  9
$FILLMODE
 70
1
  9
$QTEXTMODE
 70
0
  9
$MIRRTEXT
 70
1
  9
$LTSCALE
 40
1.0
  9
$ATTMODE
 70
1
  9
$TEXTSIZE
 40
2.5
  9
$TRACEWID
 40
1.0
  9
$TEXTSTYLE
  7
Standard
  9
$CLAYER
  8
0
  9
$CELTYPE
  6
ByLayer
  9
$CECOLOR
 62
256
  9
$CELTSCALE
 40
1.0
  9
$DISPSILH
 70
0
  9
$DIMSCALE
 40
1.0
  9
$DIMASZ
 40
2.5
  9
$DIMEXO
 40
0.625
  9
$DIMDLI
 40
3.75
  9
$DIMRND
 40
0.0
  9
$DIMDLE
 40
0.0
  9
$DIMEXE
 40
1.25
  9
$DIMTP
 40
0.0
  9
$DIMTM
 40
0.0
  9
$DIMTXT
 40
2.5
  9
$DIMCEN
 40
2.5
  9
$DIMTSZ
 40
0.0
  9
$DIMTOL
 70
0
  9
$DIMLIM
 70
0
  9
$DIMTIH
 70
0
  9
$DIMTOH
 70
0
  9
$DIMSE1
 70
0
  9
$DIMSE2
 70
0
  9
$DIMTAD
 70
1
  9
$DIMZIN
 70
8
  9
$DIMBLK
  1

  9
$DIMASO
 70
1
  9
$DIMSHO
 70
1
  9
$DIMPOST
  1

  9
$DIMAPOST
  1

  9
$DIMALT
 70
0
  9
$DIMALTD
 70
3
  9
$DIMALTF
 40
0.03937007874
  9
$DIMLFAC
 40
1.0
  9
$DIMTOFL
 70
1
  9
$DIMTVP
 40
0.0
  9
$DIMTIX
 70
0
  9
$DIMSOXD
 70
0
  9
$DIMSAH
 70
0
  9
$DIMBLK1
  1

  9
$DIMBLK2
  1

  9
$DIMSTYLE
  2
ISO-25
  9
$DIMCLRD
 70
0
  9
$DIMCLRE
 70
0
  9
$DIMCLRT
 70
0
  9
$DIMTFAC
 40
1.0
  9
$DIMGAP
 40
0.625
  9
$DIMJUST
 70
0
  9
$DIMSD1
 70
0
  9
$DIMSD2
 70
0
  9
$DIMTOLJ
 70
0
  9
$DIMTZIN
 70
8
  9
$DIMALTZ
 70
0
  9
$DIMALTTZ
 70
0
  9
$DIMUPT
 70
0
  9
$DIMDEC
 70
2
  9
$DIMTDEC
 70
2
  9
$DIMALTU
 70
2
  9
$DIMALTTD
 70
3
  9
$DIMTXSTY
  7
Standard
  9
$DIMAUNIT
 70
0
  9
$DIMADEC
 70
0
  9
$DIMALTRND
 40
0.0
  9
$DIMAZIN
 70
0
  9
$DIMDSEP
 70
44
  9
$DIMATFIT
 70
3
  9
$DIMFRAC
 70
0
  9
$DIMLDRBLK
  1

  9
$DIMLUNIT
 70
2
  9
$DIMLWD
 70
-2
  9
$DIMLWE
 70
-2
  9
$DIMTMOVE
 70
0
  9
$DIMFXL
 40
1.0
  9
$DIMFXLON
 70
0
  9
$DIMJOGANG
 40
0.785398163397
  9
$DIMTFILL
 70
0
  9
$DIMTFILLCLR
 70
0
  9
$DIMARCSYM
 70
0
  9
$DIMLTYPE
  6

  9
$DIMLTEX1
  6

  9
$DIMLTEX2
  6

  9
$DIMTXTDIRECTION
 70
0
  9
$LUNITS
 70
2
  9
$LUPREC
 70
4
  9
$SKETCHINC
 40
1.0
  9
$FILLETRAD
 40
10.0
  9
$AUNITS
 70
0
  9
$AUPREC
 70
2
  9
$MENU
  1
.
  9
$ELEVATION
 40
0.0
  9
$PELEVATION
 40
0.0
  9
$THICKNESS
 40
0.0
  9
$LIMCHECK
 70
0
  9
$CHAMFERA
 40
0.0
  9
$CHAMFERB
 40
0.0
  9
$CHAMFERC
 40
0.0
  9
$CHAMFERD
 40
0.0
  9
$SKPOLY
 70
0
  9
$TDCREATE
 40
2461242.397974537
  9
$TDUCREATE
 40
2458532.153996898
  9
$TDUPDATE
 40
2461242.397974537
  9
$TDUUPDATE
 40
2458532.1544311
  9
$TDINDWG
 40
0.0
  9
$TDUSRTIMER
 40
0.0
  9
$USRTIMER
 70
1
  9
$ANGBASE
 50
0.0
  9
$ANGDIR
 70
0
  9
$PDMODE
 70
0
  9
$PDSIZE
 40
0.0
  9
$PLINEWID
 40
0.0
  9
$SPLFRAME
 70
0
  9
$SPLINETYPE
 70
6
  9
$SPLINESEGS
 70
8
  9
$HANDSEED
  5
5D
  9
$SURFTAB1
 70
6
  9
$SURFTAB2
 70
6
  9
$SURFTYPE
 70
6
  9
$SURFU
 70
6
  9
$SURFV
 70
6
  9
$UCSBASE
  2

  9
$UCSNAME
  2

  9
$UCSORG
 10
0.0
 20
0.0
 30
0.0
  9
$UCSXDIR
 10
1.0
 20
0.0
 30
0.0
  9
$UCSYDIR
 10
0.0
 20
1.0
 30
0.0
  9
$UCSORTHOREF
  2

  9
$UCSORTHOVIEW
 70
0
  9
$UCSORGTOP
 10
0.0
 20
0.0
 30
0.0
  9
$UCSORGBOTTOM
 10
0.0
 20
0.0
 30
0.0
  9
$UCSORGLEFT
 10
0.0
 20
0.0
 30
0.0
  9
$UCSORGRIGHT
 10
0.0
 20
0.0
 30
0.0
  9
$UCSORGFRONT
 10
0.0
 20
0.0
 30
0.0
  9
$UCSORGBACK
 10
0.0
 20
0.0
 30
0.0
  9
$PUCSBASE
  2

  9
$PUCSNAME
  2

  9
$PUCSORG
 10
0.0
 20
0.0
 30
0.0
  9
$PUCSXDIR
 10
1.0
 20
0.0
 30
0.0
  9
$PUCSYDIR
 10
0.0
 20
1.0
 30
0.0
  9
$PUCSORTHOREF
  2

  9
$PUCSORTHOVIEW
 70
0
  9
$PUCSORGTOP
 10
0.0
 20
0.0
 30
0.0
  9
$PUCSORGBOTTOM
 10
0.0
 20
0.0
 30
0.0
  9
$PUCSORGLEFT
 10
0.0
 20
0.0
 30
0.0
  9
$PUCSORGRIGHT
 10
0.0
 20
0.0
 30
0.0
  9
$PUCSORGFRONT
 10
0.0
 20
0.0
 30
0.0
  9
$PUCSORGBACK
 10
0.0
 20
0.0
 30
0.0
  9
$USERI1
 70
0
  9
$USERI2
 70
0
  9
$USERI3
 70
0
  9
$USERI4
 70
0
  9
$USERI5
 70
0
  9
$USERR1
 40
0.0
  9
$USERR2
 40
0.0
  9
$USERR3
 40
0.0
  9
$USERR4
 40
0.0
  9
$USERR5
 40
0.0
  9
$WORLDVIEW
 70
1
  9
$SHADEDGE
 70
3
  9
$SHADEDIF
 70
70
  9
$TILEMODE
 70
1
  9
$MAXACTVP
 70
64
  9
$PINSBASE
 10
0.0
 20
0.0
 30
0.0
  9
$PLIMCHECK
 70
0
  9
$PEXTMIN
 10
1e+20
 20
1e+20
 30
1e+20
  9
$PEXTMAX
 10
-1e+20
 20
-1e+20
 30
-1e+20
  9
$PLIMMIN
 10
0.0
 20
0.0
  9
$PLIMMAX
 10
420.0
 20
297.0
  9
$UNITMODE
 70
0
  9
$VISRETAIN
 70
1
  9
$PLINEGEN
 70
0
  9
$PSLTSCALE
 70
1
  9
$TREEDEPTH
 70
3020
  9
$CMLSTYLE
  2
Standard
  9
$CMLJUST
 70
0
  9
$CMLSCALE
 40
20.0
  9
$PROXYGRAPHICS
 70
1
  9
$MEASUREMENT
 70
1
  9
$CELWEIGHT
370
-1
  9
$ENDCAPS
280
0
  9
$JOINSTYLE
280
0
  9
$LWDISPLAY
290
0
  9
$INSUNITS
 70
4
  9
$HYPERLINKBASE
  1

  9
$STYLESHEET
  1

  9
$XEDIT
290
1
  9
$CEPSNTYPE
380
0
  9
$PSTYLEMODE
290
1
  9
$FINGERPRINTGUID
  2
{64AE2301-661C-4EC5-8000-23F0403CCCCD}
  9
$VERSIONGUID
  2
{7BBE46D0-D00D-426E-A0F5-7CEECC3510D2}
  9
$EXTNAMES
290
1
  9
$PSVPSCALE
 40
0.0
  9
$OLESTARTUP
290
0
  9
$SORTENTS
280
127
  9
$INDEXCTL
280
0
  9
$HIDETEXT
280
1
  9
$XCLIPFRAME
280
1
  9
$HALOGAP
280
0
  9
$OBSCOLOR
 70
257
  9
$OBSLTYPE
280
0
  9
$INTERSECTIONDISPLAY
280
0
  9
$INTERSECTIONCOLOR
 70
257
  9
$DIMASSOC
280
2
  9
$PROJECTNAME
  1

  9
$CAMERADISPLAY
290
0
  9
$LENSLENGTH
 40
50.0
  9
$CAMERAHEIGHT
 40
0.0
  9
$STEPSPERSEC
 40
24.0
  9
$STEPSIZE
 40
100.0
  9
$3DDWFPREC
 40
2.0
  9
$PSOLWIDTH
 40
0.005
  9
$PSOLHEIGHT
 40
0.08
  9
$LOFTANG1
 40
1.570796326795
  9
$LOFTANG2
 40
1.570796326795
  9
$LOFTMAG1
 40
0.0
  9
$LOFTMAG2
 40
0.0
  9
$LOFTPARAM
 70
7
  9
$LOFTNORMALS
280
1
  9
$LATITUDE
 40
37.795
  9
$LONGITUDE
 40
-122.394
  9
$NORTHDIRECTION
 40
0.0
  9
$TIMEZONE
 70
-8000
  9
$LIGHTGLYPHDISPLAY
280
1
  9
$TILEMODELIGHTSYNCH
280
1
  9
$CMATERIAL
347
20
  9
$SOLIDHIST
280
0
  9
$SHOWHIST
280
1
  9
$DWFFRAME
280
2
  9
$DGNFRAME
280
2
  9
$REALWORLDSCALE
290
1
  9
$INTERFERECOLOR
 62
256
  9
$CSHADOW
280
0
  9
$SHADOWPLANELOCATION
 40
0.0
  0
ENDSEC
  0
SECTION
  2
CLASSES
  0
CLASS
  1
ACDBDICTIONARYWDFLT
  2
AcDbDictionaryWithDefault
  3
ObjectDBX Classes
 90
0
 91
0
280
0
281
0
  0
CLASS
  1
SUN
  2
AcDbSun
  3
SCENEOE
 90
1153
 91
0
280
0
281
0
  0
CLASS
  1
VISUALSTYLE
  2
AcDbVisualStyle
  3
ObjectDBX Classes
 90
4095
 91
0
280
0
281
0
  0
CLASS
  1
MATERIAL
  2
AcDbMaterial
  3
ObjectDBX Classes
 90
1153
 91
0
280
0
281
0
  0
CLASS
  1
SCALE
  2
AcDbScale
  3
ObjectDBX Classes
 90
1153
 91
0
280
0
281
0
  0
CLASS
  1
TABLESTYLE
  2
AcDbTableStyle
  3
ObjectDBX Classes
 90
4095
 91
0
280
0
281
0
  0
CLASS
  1
MLEADERSTYLE
  2
AcDbMLeaderStyle
  3
ACDB_MLEADERSTYLE_CLASS
 90
4095
 91
0
280
0
281
0
  0
CLASS
  1
DICTIONARYVAR
  2
AcDbDictionaryVar
  3
ObjectDBX Classes
 90
0
 91
0
280
0
281
0
  0
CLASS
  1
CELLSTYLEMAP
  2
AcDbCellStyleMap
  3
ObjectDBX Classes
 90
1152
 91
0
280
0
281
0
  0
CLASS
  1
MENTALRAYRENDERSETTINGS
  2
AcDbMentalRayRenderSettings
  3
SCENEOE
 90
1024
 91
0
280
0
281
0
  0
CLASS
  1
ACDBDETAILVIEWSTYLE
  2
AcDbDetailViewStyle
  3
ObjectDBX Classes
 90
1025
 91
0
280
0
281
0
  0
CLASS
  1
ACDBSECTIONVIEWSTYLE
  2
AcDbSectionViewStyle
  3
ObjectDBX Classes
 90
1025
 91
0
280
0
281
0
  0
CLASS
  1
RASTERVARIABLES
  2
AcDbRasterVariables
  3
ISM
 90
0
 91
0
280
0
281
0
  0
CLASS
  1
ACDBPLACEHOLDER
  2
AcDbPlaceHolder
  3
ObjectDBX Classes
 90
0
 91
0
280
0
281
0
  0
CLASS
  1
LAYOUT
  2
AcDbLayout
  3
ObjectDBX Classes
 90
0
 91
0
280
0
281
0
  0
ENDSEC
  0
SECTION
  2
TABLES
  0
TABLE
  2
VPORT
  5
8
330
0
100
AcDbSymbolTable
 70
1
  0
VPORT
  5
23
330
8
100
AcDbSymbolTableRecord
100
AcDbViewportTableRecord
  2
*Active
 70
0
 10
0.0
 20
0.0
 11
1.0
 21
1.0
 12
0.0
 22
0.0
 13
0.0
 23
0.0
 14
0.5
 24
0.5
 15
0.5
 25
0.5
 16
0.0
 26
0.0
 36
1.0
 17
0.0
 27
0.0
 37
0.0
 40
1000.0
 41
1.34
 42
50.0
 43
0.0
 44
0.0
 50
0.0
 51
0.0
 71
0
 72
1000
 73
1
 74
3
 75
0
 76
0
 77
0
 78
0
281
0
 65
0
146
0.0
  0
ENDTAB
  0
TABLE
  2
LTYPE
  5
2
330
0
100
AcDbSymbolTable
 70
3
  0
LTYPE
  5
24
330
2
100
AcDbSymbolTableRecord
100
AcDbLinetypeTableRecord
  2
ByBlock
 70
0
  3

 72
65
 73
0
 40
0.0
  0
LTYPE
  5
25
330
2
100
AcDbSymbolTableRecord
100
AcDbLinetypeTableRecord
  2
ByLayer
 70
0
  3

 72
65
 73
0
 40
0.0
  0
LTYPE
  5
26
330
2
100
AcDbSymbolTableRecord
100
AcDbLinetypeTableRecord
  2
Continuous
 70
0
  3

 72
65
 73
0
 40
0.0
  0
ENDTAB
  0
TABLE
  2
LAYER
  5
1
330
0
100
AcDbSymbolTable
 70
3
  0
LAYER
  5
27
330
1
100
AcDbSymbolTableRecord
100
AcDbLayerTableRecord
  2
0
 70
0
 62
7
  6
Continuous
370
-3
390
13
347
21
  0
LAYER
  5
28
330
1
100
AcDbSymbolTableRecord
100
AcDbLayerTableRecord
  2
Defpoints
 70
0
 62
7
  6
Continuous
290
0
370
-3
390
13
347
21
  0
LAYER
  5
2F
330
1
100
AcDbSymbolTableRecord
100
AcDbLayerTableRecord
  2
CUT
 70
0
 62
1
  6
Continuous
370
-3
390
13
347
21
  0
ENDTAB
  0
TABLE
  2
STYLE
  5
5
330
0
100
AcDbSymbolTable
 70
1
  0
STYLE
  5
29
330
5
100
AcDbSymbolTableRecord
100
AcDbTextStyleTableRecord
  2
Standard
 70
0
 40
0.0
 41
1.0
 50
0.0
 71
0
 42
2.5
  3
txt
  4

  0
ENDTAB
  0
TABLE
  2
VIEW
  5
7
330
0
100
AcDbSymbolTable
 70
0
  0
ENDTAB
  0
TABLE
  2
UCS
  5
6
330
0
100
AcDbSymbolTable
 70
0
  0
ENDTAB
  0
TABLE
  2
APPID
  5
3
330
0
100
AcDbSymbolTable
 70
3
  0
APPID
  5
2A
330
3
100
AcDbSymbolTableRecord
100
AcDbRegAppTableRecord
  2
ACAD
 70
0
  0
APPID
  5
5A
330
3
100
AcDbSymbolTableRecord
100
AcDbRegAppTableRecord
  2
HATCHBACKGROUNDCOLOR
 70
0
  0
APPID
  5
5B
330
3
100
AcDbSymbolTableRecord
100
AcDbRegAppTableRecord
  2
EZDXF
 70
0
  0
ENDTAB
  0
TABLE
  2
DIMSTYLE
  5
4
330
0
100
AcDbSymbolTable
 70
1
100
AcDbDimStyleTable
  0
DIMSTYLE
105
2B
330
4
100
AcDbSymbolTableRecord
100
AcDbDimStyleTableRecord
  2
Standard
 70
0
 40
1.0
 41
2.5
 42
0.625
 43
3.75
 44
1.25
 45
0.0
 46
0.0
 47
0.0
 48
0.0
 49
2.5
140
2.5
141
2.5
142
0.0
143
0.03937007874
144
1.0
145
0.0
146
1.0
147
0.625
148
0.0
 69
0
 70
0
 71
0
 72
0
 73
0
 74
0
 75
0
 76
0
 77
1
 78
8
 79
3
170
0
171
3
172
1
173
0
174
0
175
0
176
0
177
0
178
0
179
2
271
2
272
2
273
2
274
3
275
0
276
0
277
2
278
44
279
0
280
0
281
0
282
0
283
0
284
8
285
0
286
0
288
0
289
3
290
0
371
-2
372
-2
  0
ENDTAB
  0
TABLE
  2
BLOCK_RECORD
  5
9
330
0
100
AcDbSymbolTable
 70
2
  0
BLOCK_RECORD
  5
17
330
9
100
AcDbSymbolTableRecord
100
AcDbBlockTableRecord
  2
*Model_Space
340
1A
 70
0
280
1
281
0
  0
BLOCK_RECORD
  5
1B
330
9
100
AcDbSymbolTableRecord
100
AcDbBlockTableRecord
  2
*Paper_Space
340
1E
 70
0
280
1
281
0
  0
ENDTAB
  0
ENDSEC
  0
SECTION
  2
BLOCKS
  0
BLOCK
  5
18
330
17
100
AcDbEntity
  8
0
100
AcDbBlockBegin
  2
*Model_Space
 70
0
 10
0.0
 20
0.0
 30
0.0
  3
*Model_Space
  1

  0
ENDBLK
  5
19
330
17
100
AcDbEntity
  8
0
100
AcDbBlockEnd
  0
BLOCK
  5
1C
330
1B
100
AcDbEntity
  8
0
100
AcDbBlockBegin
  2
*Paper_Space
 70
0
 10
0.0
 20
0.0
 30
0.0
  3
*Paper_Space
  1

  0
ENDBLK
  5
1D
330
1B
100
AcDbEntity
  8
0
100
AcDbBlockEnd
  0
ENDSEC
  0
SECTION
  2
ENTITIES
  0
LWPOLYLINE
  5
30
330
17
100
AcDbEntity
  8
CUT
100
AcDbPolyline
 90
524
 70
1
 10
50.48286752386429
 20
10.892647100884691
 10
50.180267911109986
 20
11.157802883669373
 10
49.91412386769692
 20
11.433121090708216
 10
49.68281340969114
 20
11.722866457564288
 10
49.48471492854878
 20
12.03130286259682
 10
49.31820713752029
 20
12.36269341902853
 10
49.181669058203056
 20
12.721300551819393
 10
49.07348004670557
 20
13.111386056253867
 10
48.992019860019546
 20
13.537211135334989
 10
48.93566876469653
 20
14.003036412881494
 10
48.90280769185098
 20
14.513121918584297
 10
48.89181844497346
 20
15.071727040102617
 10
48.87754212033354
 20
15.670167432906656
 10
48.83534930638466
 20
16.220263851173783
 10
48.764297792408335
 20
16.72419456343907
 10
48.66344493372864
 20
17.1841375957064
 10
48.53184754536016
 20
17.60227073248744
 10
48.368561800972756
 20
17.98077152001966
 10
48.17264313907049
 20
18.321817272326232
 10
47.9431461779949
 20
18.62758508079701
 10
47.67912464103611
 20
18.900251827948367
 10
47.37963129258883
 20
19.14199420596017
 10
47.043717885948254
 20
19.35498874049744
 10
46.81480032028795
 20
19.4707995685976
 10
46.57341998918878
 20
19.559120713895567
 10
46.299252468313675
 20
19.618446455294585
 10
45.97196899375281
 20
19.647268960868324
 10
45.57123430533472
 20
19.644078463443208
 10
45.07670381777934
 20
19.60736338103483
 10
44.468020223491564
 20
19.53561054928919
 10
43.72480970409881
 20
19.427305776934464
 10
42.826678020782296
 20
19.280934958770708
 10
41.753206863546446
 20
19.094985960885346
 10
40.48395095163018
 20
18.86795140694973
 10
39.612011519084376
 20
18.710531445590576
 10
38.693413894655436
 20
18.544719230091097
 10
37.74335675595847
 20
18.373265697690922
 10
36.77704904168114
 20
18.198921568298005
 10
35.80970964702968
 20
18.024436578702492
 10
34.8565666486028
 20
17.852558852892354
 10
33.93285618535005
 20
17.686034467883864
 10
33.053821113081625
 20
17.52760724128059
 10
32.23470952961539
 20
17.380018740157386
 10
31.490773240631476
 20
17.246008492952317
 10
30.837266206622864
 20
17.128314376721868
 10
30.20125183424936
 20
17.013163923048122
 10
29.508076091222723
 20
16.886547261387797
 10
28.770420229932697
 20
16.750844630507984
 10
28.000969554894045
 20
16.60843521566064
 10
27.212413632474696
 20
16.461696886849758
 10
26.417446252802627
 20
16.313006008754954
 10
25.628765193104513
 20
16.164737332436022
 10
24.85907183037885
 20
16.019263973029993
 10
24.1210706461504
 20
15.878957472333308
 10
23.42746865834362
 20
15.746187941198114
 10
22.79097480616791
 20
15.62332427438556
 10
21.49511343075576
 20
15.381980645450884
 10
20.322679845493848
 20
15.18571523564889
 10
19.26460940124816
 20
15.034293425434502
 10
18.3118288460657
 20
14.927484032309069
 10
17.45525826216953
 20
14.86505876861081
 10
16.685812535812452
 20
14.846791739565376
 10
15.994402476012358
 20
14.872458994127122
 10
15.371935665844799
 20
14.941838131636038
 10
14.809317106624253
 20
15.054707962921619
 10
14.29744969843396
 20
15.210848222900381
 10
13.827234588244828
 20
15.4100393316642
 10
13.423184810630959
 20
15.638946812585633
 10
13.018630372553163
 20
15.928401493710982
 10
12.619797713920372
 20
16.270253798577208
 10
12.232914490222166
 20
16.656354274456064
 10
11.864209597430788
 20
17.07855384612664
 10
11.519913172631874
 20
17.528704011278815
 10
11.20625656492066
 20
17.998656988443333
 10
10.929472269927674
 20
18.480265828412634
 10
10.69579382062533
 20
18.96538450001465
 10
10.51145562661991
 20
19.44586796070505
 10
10.382692753758324
 20
19.91357222163493
 10
10.296808691715563
 20
20.612509600923634
 10
10.323557947213224
 20
21.350787037572054
 10
10.453797336825694
 20
22.111222152463128
 10
10.678382054471262
 20
22.876637082118634
 10
10.988165568795932
 20
23.62985874308786
 10
11.373999483424129
 20
24.35371899901243
 10
11.826733349802932
 20
25.03105467801459
 10
12.337214422810085
 20
25.644707375538527
 10
12.896287353549758
 20
26.17752296397798
 10
13.494793824097808
 20
26.61235071646057
 10
14.123572148159798
 20
26.932041940328983
 10
14.350024586091843
 20
27.00589448015559
 10
14.717985184903007
 20
27.10448404304448
 10
15.214587337036608
 20
27.225096788200215
 10
15.82696291583499
 20
27.36502052356876
 10
16.54224264090738
 20
27.521544176133798
 10
17.34755640956259
 20
27.69195729847894
 10
18.23003361939419
 20
27.873549590157808
 10
19.176803503396776
 20
28.06361041755682
 10
20.174995496313045
 20
28.259428320763682
 10
21.211739648421677
 20
28.45829050107376
 10
22.274167099837648
 20
28.657482288686037
 10
23.333510889609666
 20
28.85436354877109
 10
24.361302935949794
 20
29.046516140895665
 10
25.345126680120984
 20
29.231553902470097
 10
26.272569615249488
 20
29.407086966701037
 10
27.13122345134739
 20
29.570721878348067
 10
27.908684021274862
 20
29.7200619296101
 10
28.592550842349844
 20
29.852707748275026
 10
29.170426258325993
 20
29.966258158082614
 10
29.62991411351902
 20
30.058311314590775
 10
29.958617957337754
 20
30.126466099983883
 10
30.144138842183807
 20
30.16832373872176
 10
30.346836511359225
 20
30.231134049932542
 10
30.55818851420573
 20
30.343573856876738
 10
30.815127833127754
 20
30.552322991751474
 10
31.15459116222447
 20
30.90405459452719
 10
31.613523544228176
 20
31.44542627609576
 10
32.22888543859014
 20
32.2230661800234
 10
33.03766335277392
 20
33.28355029274827
 10
34.07688610380392
 20
34.67336323133291
 10
35.38365014886293
 20
36.43882548091692
 10
36.99515856935687
 20
38.625947379860264
 10
38.94877354492782
 20
41.28010947426843
 10
40.4271251672251
 20
43.305011600165365
 10
41.66952013295561
 20
45.05531566456163
 10
42.694837205673835
 20
46.57406156849446
 10
43.52197055164277
 20
47.904282768485665
 10
44.169833264092766
 20
49.088981032848
 10
44.657351463508036
 20
50.171103332386956
 10
45.003448404690275
 20
51.1935285884704
 10
45.22702091121347
 20
52.199070439647265
 10
45.34691273323105
 20
53.23049937123485
 10
45.381891222747385
 20
54.33058499122988
 10
45.350635890632034
 20
55.54215710562848
 10
45.3167519312368
 20
56.1747076911656
 10
45.27397513672767
 20
56.743138635167504
 10
45.219575349483
 20
57.25891640442962
 10
45.150786998044815
 20
57.73351270983152
 10
45.06481755821734
 20
58.1784092945772
 10
44.95885451904067
 20
58.60510040189427
 10
44.830070913066784
 20
59.02509410089598
 10
44.675629647792
 20
59.44991321237971
 10
44.492686922090925
 20
59.89109623735151
 10
44.27839499855736
 20
60.36019843984823
 10
44.029904564542555
 20
60.86879305366546
 10
43.84203578149925
 20
61.23431405460135
 10
43.63577146675525
 20
61.618318292574415
 10
43.41497184934299
 20
62.01451682656383
 10
43.18349608793783
 20
62.416610798981324
 10
42.94520171296596
 20
62.81829217759547
 10
42.70394426509646
 20
63.21324487515744
 10
42.463577135278534
 20
63.5951460889551
 10
42.227951588696705
 20
63.95766773662602
 10
42.0009169422186
 20
64.29447790255671
 10
41.786320860652424
 20
64.59924224559012
 10
41.58800973895107
 20
64.86562535065426
 10
41.36137647947657
 20
65.16189667215036
 10
41.064564055004375
 20
65.55348710541494
 10
40.70554409394546
 20
66.02980339739088
 10
40.29228773689377
 20
66.58024754284037
 10
39.83276394201315
 20
67.19421248012554
 10
39.33493819028154
 20
67.86107970476272
 10
38.806771627642064
 20
68.57021849041956
 10
38.256220633338245
 20
69.3109862937199
 10
37.69123676139802
 20
70.0727299167502
 10
37.11976697567846
 20
70.84478706565858
 10
36.54975409040951
 20
71.61648803578
 10
35.979922516820224
 20
72.38857807636455
 10
35.408985951826594
 20
73.16177833658864
 10
34.84486602019538
 20
73.92537481567247
 10
34.29548166814388
 20
74.668649692084
 10
33.76874971583901
 20
75.3808824031512
 10
33.2725853952722
 20
76.0513505804298
 10
32.81490285975087
 20
76.6693308501817
 10
32.403615661820325
 20
77.22409952144436
 10
32.0466372046659
 20
77.70493319181959
 10
31.751881178563
 20
78.1011093059602
 10
31.527261999576446
 20
78.40190670606971
 10
30.281263959319315
 20
80.06559567274378
 10
22.888733992141958
 20
81.49998037353144
 10
20.710743650793482
 20
81.92377957736251
 10
18.895654185653644
 20
82.28375391262621
 10
17.403232024291285
 20
82.5917846341349
 10
16.193189709800052
 20
82.85971174325577
 10
15.225205492535027
 20
83.09934666068241
 10
14.458935424871887
 20
83.32248112259461
 10
13.854021126479228
 20
83.54089351086931
 10
13.37009495389093
 20
83.76635341643458
 10
12.966783543835506
 20
84.01062494135752
 10
12.603710274507572
 20
84.28546904629573
 10
12.24049694300657
 20
84.60264511929661
 10
11.200049898358449
 20
85.79690288626283
 10
10.529624641767237
 20
87.10459591794556
 10
10.205598627575242
 20
88.47440693559786
 10
10.204330156074068
 20
89.85498357358045
 10
10.502168372425453
 20
91.1949453242697
 10
11.075459737082543
 20
92.44288889396815
 10
11.900552322874168
 20
93.54739248177874
 10
12.95379889139187
 20
94.4570195183263
 10
14.211559493756717
 20
95.12032238837214
 10
15.650204265314482
 20
95.48584667959615
 10
17.24611711602684
 20
95.50213660638676
 10
18.141877454588908
 20
95.3793680944657
 10
19.658705668118152
 20
95.14006450543484
 10
21.67333298952609
 20
94.80584474736573
 10
24.06247023473997
 20
94.39833189331253
 10
26.702839086844243
 20
93.9391735950279
 10
29.4712083270819
 20
93.45005866987792
 10
32.24443615765631
 20
92.95272645023503
 10
34.89951455994694
 20
92.46896424197716
 10
37.313604981403465
 20
92.02058984277625
 10
39.3640491510359
 20
91.62942210605226
 10
40.92833890222943
 20
91.31725163097504
 10
41.97978461234128
 20
91.10894377901359
 10
42.915914506942485
 20
90.94528370576967
 10
43.745784715052515
 20
90.8265560793622
 10
44.478443031145574
 20
90.75304370481635
 10
45.12292930617559
 20
90.72502826582306
 10
45.68827607428222
 20
90.74279095181194
 10
46.18350935148718
 20
90.80661296420064
 10
46.6176495450142
 20
90.91677591033533
 10
46.99971241787355
 20
91.07356210346522
 10
47.33871006141009
 20
91.27725479213015
 10
47.64365183743627
 20
91.52813834326989
 10
47.81716651275718
 20
91.70163487001133
 10
47.968599510921045
 20
91.87514285194483
 10
48.09911042202992
 20
92.05184873318079
 10
48.209858927954194
 20
92.23493944318233
 10
48.30200479840138
 20
92.42760232522564
 10
48.376707894735006
 20
92.63302507677567
 10
48.435128182466414
 20
92.85439570112548
 10
48.478425752942755
 20
93.09490246970203
 10
48.507760854362154
 20
93.35773389444842
 10
48.524293931857585
 20
93.64607870965438
 10
48.52918567601047
 20
93.96312586252444
 10
48.5466764521852
 20
94.50092807497741
 10
48.59974547345448
 20
95.02862829894944
 10
48.68663894416466
 20
95.54184728354574
 10
48.80560152363738
 20
96.03620516173116
 10
48.95487642537875
 20
96.5073214236357
 10
49.13270551482614
 20
96.95081491138298
 10
49.33732940445298
 20
97.36230383021882
 10
49.5669875455957
 20
97.73740577163447
 10
49.8199183167302
 20
98.07173774497782
 10
50.0943591081669
 20
98.36091621472971
 10
50.38854640329526
 20
98.60055714120318
 10
50.60659523800061
 20
98.72956611458643
 10
50.88073300788176
 20
98.83893321965257
 10
51.23534301817034
 20
98.93016947282432
 10
51.69480575568612
 20
99.00479118493323
 10
52.28349756344735
 20
99.06432234235662
 10
53.02578950254804
 20
99.11029791377217
 10
53.94604679899961
 20
99.14426822857551
 10
55.06862949279938
 20
99.16780454985194
 10
56.41789519844592
 20
99.18250584306385
 10
58.018205224410586
 20
99.19000643883159
 10
59.89393558548131
 20
99.19198369602488
 10
68.55043747579
 20
99.19547764547904
 10
69.83828022666165
 20
98.05928143530113
 10
70.13398327122306
 20
97.79309065306668
 10
70.38092883067566
 20
97.55478065434598
 10
70.58344623131376
 20
97.33378594752695
 10
70.74586301333098
 20
97.11954297391819
 10
70.8725054143566
 20
96.90148974003726
 10
70.96769869518693
 20
96.6690654960612
 10
71.03576730836667
 20
96.4117104791328
 10
71.08103490947289
 20
96.11886573512032
 10
71.10782420748808
 20
95.77997302973115
 10
71.12045664463756
 20
95.38447485990832
 10
71.1232518872765
 20
94.92181457961681
 10
71.13245834282948
 20
94.31534709360221
 10
71.16362134064059
 20
93.77670483984689
 10
71.2194178952226
 20
93.29988312167607
 10
71.30252435081678
 20
92.87887785831379
 10
71.4156166158771
 20
92.50768561905902
 10
71.56137037984463
 20
92.18030368185505
 10
71.74246130648967
 20
91.89073011869256
 10
71.9615652008988
 20
91.6329639093148
 10
72.22135815025803
 20
91.40100508384404
 10
72.52451664176078
 20
91.18885489424328
 10
72.87371766411177
 20
90.99051601392274
 10
73.18187911104411
 20
90.86323105340594
 10
73.59583577197593
 20
90.78678129204341
 10
74.20681640303704
 20
90.77499782903423
 10
75.10610280007978
 20
90.84173265215075
 10
76.38506991344644
 20
91.00086267589245
 10
78.13523535162449
 20
91.2662853565222
 10
80.44830908669964
 20
91.65189678405135
 10
83.41622649961451
 20
92.17154667636889
 10
87.1311426540735
 20
92.83897594450636
 10
91.68537148933304
 20
93.66775863395668
 10
97.17127556430265
 20
94.67127938749779
 10
98.71687686572659
 20
94.94931881761882
 10
100.03838247297577
 20
95.17369729320602
 10
101.1619728631731
 20
95.34506008144245
 10
102.11385325896103
 20
95.46404531587719
 10
102.9202465786108
 20
95.53128517487318
 10
103.60738841217797
 20
95.54740713764855
 10
104.20152346924763
 20
95.51303514814195
 10
104.72890312793034
 20
95.42879061232871
 10
105.21578384226797
 20
95.2952931971428
 10
105.68842625142544
 20
95.11316141436014
 10
106.17309488983679
 20
94.88301297361389
 10
107.05671011435726
 20
94.34724029681843
 10
107.81257655788136
 20
93.7107065146894
 10
108.43777500302797
 20
92.98574942970275
 10
108.92938692856275
 20
92.18470445553487
 10
109.28449456097992
 20
91.31990436628625
 10
109.50018097525052
 20
90.4036789961547
 10
109.57353025823865
 20
89.44835487828303
 10
109.50162775380565
 20
88.46625480818055
 10
109.28156041593986
 20
87.46969731331934
 10
108.91041730625265
 20
86.47099600628567
 10
108.38529028611404
 20
85.48245879446178
 10
108.1022939093732
 20
85.06863046382993
 10
107.78290877427803
 20
84.69418130749398
 10
107.4180414423755
 20
84.35486135207775
 10
106.9985992313497
 20
84.0464204971195
 10
106.51549059959818
 20
83.76460814348697
 10
105.95962558902686
 20
83.50517276928944
 10
105.3219163486956
 20
83.26386144658508
 10
104.59327777138066
 20
83.03641928783036
 10
103.76462828798813
 20
82.81858880604938
 10
102.82689088285605
 20
82.60610916715598
 10
101.77099441905304
 20
82.39471530694544
 10
101.24685021903731
 20
82.29511647927349
 10
100.72268115966898
 20
82.19536005329896
 10
100.20570780946485
 20
82.096827607312
 10
99.70314977996998
 20
82.00090155444046
 10
99.22222569707866
 20
81.90896513753522
 10
98.77015321382041
 20
81.82240238921385
 10
98.35414907316728
 20
81.74259805338934
 10
97.98142922896174
 20
81.67093746521824
 10
97.65920903168437
 20
81.60880638732016
 10
97.3947034833235
 20
81.55759080133784
 10
97.19512756197875
 20
81.51867665539598
 10
96.99934562439944
 20
81.48075964580438
 10
96.74586017605041
 20
81.43243568547466
 10
96.44134391365068
 20
81.37494066273571
 10
96.09246971165582
 20
81.30951038651854
 10
95.70591038432826
 20
81.23738078178377
 10
95.28833846242964
 20
81.15978806599355
 10
94.84642598202673
 20
81.0779689069334
 10
94.38684428509283
 20
80.9931605611072
 10
93.9162638337285
 20
80.90660099098801
 10
93.44135404195175
 20
80.81952895863458
 10
92.96878313110277
 20
80.73318409261189
 10
92.5041426137159
 20
80.64644303387567
 10
92.05225923874927
 20
80.55821986526846
 10
91.61865228116683
 20
80.46981159365346
 10
91.20883993029248
 20
80.3825159099355
 10
90.8283393663301
 20
80.29763112113022
 10
90.48266689383595
 20
80.21645605403346
 10
90.17733813859769
 20
80.14028992935808
 10
89.9178683123468
 20
80.0704322056441
 10
89.70977254676029
 20
80.00818239268189
 10
89.55856629427699
 20
79.95483983461645
 10
89.4697657884357
 20
79.91170346335689
 10
89.31078364379047
 20
79.75511332568576
 10
89.03215211285173
 20
79.4279579797591
 10
88.65407448792861
 20
78.95719155294331
 10
88.19675173688353
 20
78.36977169289159
 10
87.68038433524846
 20
77.69265726890445
 10
87.12517397752971
 20
76.95280619041976
 10
86.55132524187383
 20
76.17717318332718
 10
85.97904720768098
 20
75.39270746524411
 10
85.4285549425211
 20
74.6263503826214
 10
84.92007068083976
 20
73.90503323259968
 10
84.47382442260285
 20
73.25567568978992
 10
84.34841452943684
 20
73.07516834073053
 10
84.16152651858182
 20
72.81339161345005
 10
83.91911355882677
 20
72.47843744422855
 10
83.62712779086137
 20
72.07839958088107
 10
83.29152074600121
 20
71.62137305031094
 10
82.91824374598706
 20
71.11545365177037
 10
82.51324830365681
 20
70.56873743500347
 10
82.08248653953572
 20
69.98932012670633
 10
81.63191162465267
 20
69.38529647162338
 10
81.16747825436865
 20
68.76475945784347
 10
80.69514315099373
 20
68.13579940144605
 10
79.61296453642619
 20
66.69358041210226
 10
78.69928500778322
 20
65.4643950665505
 10
77.93558936171979
 20
64.41835204426052
 10
77.30334143490454
 20
63.525586696212386
 10
76.78398228419725
 20
62.756271638082076
 10
76.3589309448448
 20
62.08062476611826
 10
76.00958739631783
 20
61.46891466676845
 10
75.7173371821984
 20
60.89146476881513
 10
75.46355738346963
 20
60.31865873651841
 10
75.22962439946525
 20
59.7209503528386
 10
74.99692541680864
 20
59.06888156265537
 10
74.76327478671497
 20
58.327770016300185
 10
74.57440583936855
 20
57.58511427284848
 10
74.43045888731741
 20
56.84106955244425
 10
74.33157944487226
 20
56.09574037926525
 10
74.27790485792598
 20
55.34917785274783
 10
74.26954907359075
 20
54.601383704730296
 10
74.30658841896319
 20
53.852322029270056
 10
74.38905165087058
 20
53.101937634840894
 10
74.51691679827489
 20
52.35017797831178
 10
74.69011557372043
 20
51.597014477243725
 10
74.90854407146774
 20
50.84245922898146
 10
75.12426060110774
 20
50.229465064492715
 10
75.39395659860517
 20
49.5903473436236
 10
75.7336944840088
 20
48.90030031107904
 10
76.1595407346464
 20
48.13444330457074
 10
76.68755244264932
 20
47.267822763557994
 10
77.33376653730912
 20
46.27542062082634
 10
78.11419306508299
 20
45.13216949956697
 10
79.04481384688455
 20
43.81297296959089
 10
80.14158680882956
 20
42.29272726954625
 10
81.42045477550552
 20
40.54634033523648
 10
82.8973563218311
 20
38.54874496608089
 10
83.42899219926392
 20
37.83063874809089
 10
83.96183922099861
 20
37.10814632406186
 10
84.48849316192828
 20
36.39146359487716
 10
85.00155310395583
 20
35.690792018736175
 10
85.4936208514349
 20
35.01633713030653
 10
85.95730033185329
 20
34.37830725007348
 10
86.38519700793687
 20
33.78691238032734
 10
86.76991731352909
 20
33.25236326282794
 10
87.10406811413763
 20
32.78487056066315
 10
87.38025618372068
 20
32.39464411929314
 10
87.59108768138118
 20
32.09189225590303
 10
87.81539862300878
 20
31.775536508755856
 10
88.03154968763639
 20
31.491688204915835
 10
88.24107778499932
 20
31.239067582109207
 10
88.44551947120158
 20
31.016393905220077
 10
88.64641101431162
 20
30.822385612308075
 10
88.84528845606783
 20
30.65576044028754
 10
89.04368767023293
 20
30.515235534660928
 10
89.24314441804168
 20
30.399527546840723
 10
89.44519440107189
 20
30.307352721913006
 10
89.65137331174292
 20
30.23742697914844
 10
89.86321688151251
 20
30.188465987114913
 10
91.02881878023635
 20
29.973270694438245
 10
92.48613651651974
 20
29.697431353667042
 10
94.15463720024198
 20
29.376978753364348
 10
95.95373090047279
 20
29.02790269556944
 10
97.80277240275643
 20
28.666146764209177
 10
99.62107156889542
 20
28.307611246258933
 10
101.32790651735326
 20
27.96816105673401
 10
102.84253626233635
 20
27.66363597969069
 10
104.0842115486686
 20
27.409861527677325
 10
104.97218400926103
 20
27.22265977371785
 10
105.42571460656877
 20
27.117860423715964
 10
105.83320091697807
 20
26.983842965564417
 10
106.23238901663063
 20
26.81193836178216
 10
106.62111372139215
 20
26.604054663579035
 10
106.99721018248405
 20
26.362099729676633
 10
107.35851389721716
 20
26.087981337176256
 10
107.7028607143676
 20
25.78360727767786
 10
108.02808683592758
 20
25.450885439565198
 10
108.33202881669149
 20
25.09172387758727
 10
108.61252356289103
 20
24.708030870984366
 10
108.86740833088018
 20
24.301714971452952
 10
109.09452072669005
 20
23.87468504223333
 10
109.50168419324118
 20
22.844179958480474
 10
109.73182572843116
 20
21.810180572455497
 10
109.79203672313186
 20
20.788200922471948
 10
109.6894102891534
 20
19.79376172502833
 10
109.43104036344972
 20
18.842389244336033
 10
109.02402104596011
 20
17.94961439220427
 10
108.47544609482478
 20
17.130971992452093
 10
107.79240852070998
 20
16.40200015543349
 10
106.98200023246449
 20
15.778239716306857
 10
106.05131169130624
 20
15.275233695415432
 10
105.00743153117254
 20
14.908526740378548
 10
104.53479993369372
 20
14.821301849711517
 10
103.90562804611305
 20
14.790544152032183
 10
103.04824792414084
 20
14.82740880088487
 10
101.89101769997605
 20
14.9430646158592
 10
100.36233837161029
 20
15.148701650974248
 10
98.39068099273841
 20
15.455541028583822
 10
95.90463116789336
 20
15.874846311093197
 10
92.83296345751323
 20
16.41793298313395
 10
89.10476801157402
 20
17.09616415359203
 10
84.64966514619191
 20
17.920895450839236
 10
79.39814475321843
 20
18.903261430532545
 10
78.31342257805095
 20
19.104140460340346
 10
77.38013667183775
 20
19.27003989014115
 10
76.58297325202174
 20
19.40217042049639
 10
75.90663661321989
 20
19.501744912545746
 10
75.33584713349501
 20
19.569976793523953
 10
74.85533894299427
 20
19.60807897938841
 10
74.44985749689975
 20
19.617263229671895
 10
74.10415723856985
 20
19.598739814868694
 10
73.80299948578266
 20
19.553717369360236
 10
73.53115062837041
 20
19.483402813853743
 10
73.27338068988935
 20
19.38900125146671
 10
72.88784259883522
 20
19.19963801177316
 10
72.54218798481625
 20
18.966985247036668
 10
72.23576733385354
 20
18.68965733199132
 10
71.9679327659286
 20
18.366268970118732
 10
71.73803807280956
 20
17.99543509991379
 10
71.5454387168659
 20
17.575770805669002
 10
71.38949179257347
 20
17.10589123574214
 10
71.26955595374308
 20
16.58441153049167
 10
71.18499131059096
 20
16.009946761234353
 10
71.13515930157743
 20
15.38111188077498
 10
71.11942254545441
 20
14.696521685339793
 10
71.1173229291471
 20
14.184489953555577
 10
71.10622340348775
 20
13.75057040799484
 10
71.08148652033026
 20
13.382775916765105
 10
71.03847211307442
 20
13.069118014987177
 10
70.97253811499492
 20
12.797607175917586
 10
70.87904109282427
 20
12.55625290260439
 10
70.75333653032948
 20
12.33306366666233
 10
70.59077888069795
 20
12.11604671299825
 10
70.38672139564358
 20
11.893207747403409
 10
70.1365157326295
 20
11.652550526882978
 10
69.83551133953634
 20
11.382076379768288
 10
68.54813826455042
 20
10.246057362310811
 10
59.90422957139848
 20
10.258100114881916
 10
57.978554404809195
 20
10.261577561802243
 10
56.349644446744236
 20
10.269970188986544
 10
54.989846239795654
 20
10.285337171094957
 10
53.87152486618832
 20
10.30968207791659
 10
52.967049085145405
 20
10.34496349725003
 10
52.248783488864085
 20
10.393105514908077
 10
51.68908531571461
 20
10.456006771556323
 10
51.26030405895325
 20
10.53554773137679
 10
50.934782564040255
 20
10.633596231874412
 10
50.68485876337477
 20
10.75201153429497
 10
50.48286752386429
 20
10.892647100884691
  0
LWPOLYLINE
  5
31
330
17
100
AcDbEntity
  8
CUT
100
AcDbPolyline
 90
64
 70
1
 10
54.87603765918352
 20
19.049887108075936
 10
54.863999475864006
 20
19.294929958899836
 10
54.828000860191594
 20
19.537612913116256
 10
54.76838849851404
 20
19.77559880121209
 10
54.685736490461736
 20
20.00659568898866
 10
54.580840820054405
 20
20.22837895014093
 10
54.45471168993988
 20
20.438812690624943
 10
54.30856379259036
 20
20.63587031848505
 10
54.143804612149886
 20
20.817654061042305
 10
53.96202086959263
 20
20.982413241482778
 10
53.764963241732524
 20
21.1285611388323
 10
53.55452950124851
 20
21.254690268946824
 10
53.33274624009624
 20
21.359585939354155
 10
53.10174935231967
 20
21.442237947406458
 10
52.86376346422384
 20
21.501850309084013
 10
52.62108051000742
 20
21.537848924756428
 10
52.37603765918352
 20
21.549887108075936
 10
52.13099480835962
 20
21.537848924756428
 10
51.8883118541432
 20
21.501850309084013
 10
51.65032596604736
 20
21.442237947406458
 10
51.41932907827079
 20
21.359585939354155
 10
51.197545817118524
 20
21.254690268946824
 10
50.98711207663451
 20
21.1285611388323
 10
50.790054448774406
 20
20.982413241482778
 10
50.60827070621715
 20
20.817654061042305
 10
50.44351152577667
 20
20.63587031848505
 10
50.297363628427156
 20
20.438812690624943
 10
50.17123449831263
 20
20.22837895014093
 10
50.0663388279053
 20
20.00659568898866
 10
49.98368681985299
 20
19.77559880121209
 10
49.92407445817544
 20
19.537612913116256
 10
49.88807584250303
 20
19.29492995889984
 10
49.87603765918352
 20
19.049887108075936
 10
49.88807584250303
 20
18.804844257252036
 10
49.92407445817544
 20
18.562161303035616
 10
49.98368681985299
 20
18.32417541493978
 10
50.0663388279053
 20
18.09317852716321
 10
50.17123449831263
 20
17.871395266010943
 10
50.297363628427156
 20
17.66096152552693
 10
50.44351152577667
 20
17.46390389766682
 10
50.60827070621715
 20
17.282120155109567
 10
50.7900544487744
 20
17.117360974669094
 10
50.98711207663451
 20
16.97121307731957
 10
51.197545817118524
 20
16.845083947205048
 10
51.41932907827079
 20
16.74018827679772
 10
51.65032596604736
 20
16.657536268745414
 10
51.8883118541432
 20
16.59792390706786
 10
52.13099480835962
 20
16.561925291395443
 10
52.37603765918352
 20
16.549887108075936
 10
52.62108051000742
 20
16.561925291395443
 10
52.86376346422384
 20
16.59792390706786
 10
53.10174935231967
 20
16.657536268745414
 10
53.33274624009624
 20
16.74018827679772
 10
53.55452950124851
 20
16.845083947205048
 10
53.764963241732524
 20
16.97121307731957
 10
53.96202086959263
 20
17.117360974669094
 10
54.143804612149886
 20
17.282120155109567
 10
54.308563792590355
 20
17.46390389766682
 10
54.45471168993988
 20
17.66096152552693
 10
54.580840820054405
 20
17.871395266010943
 10
54.685736490461736
 20
18.09317852716321
 10
54.76838849851404
 20
18.32417541493978
 10
54.828000860191594
 20
18.562161303035612
 10
54.863999475864006
 20
18.804844257252036
  0
LWPOLYLINE
  5
32
330
17
100
AcDbEntity
  8
CUT
100
AcDbPolyline
 90
64
 70
1
 10
70.01598891224819
 20
19.0928393818453
 10
70.00395072892869
 20
19.3378822326692
 10
69.96795211325626
 20
19.58056518688562
 10
69.90833975157871
 20
19.818551074981457
 10
69.8256877435264
 20
20.049547962758027
 10
69.72079207311907
 20
20.271331223910295
 10
69.59466294300455
 20
20.48176496439431
 10
69.44851504565503
 20
20.678822592254416
 10
69.28375586521456
 20
20.86060633481167
 10
69.1019721226573
 20
21.025365515252144
 10
68.9049144947972
 20
21.171513412601666
 10
68.69448075431319
 20
21.29764254271619
 10
68.47269749316091
 20
21.40253821312352
 10
68.24170060538435
 20
21.485190221175824
 10
68.00371471728852
 20
21.54480258285338
 10
67.7610317630721
 20
21.580801198525794
 10
67.51598891224819
 20
21.5928393818453
 10
67.27094606142428
 20
21.580801198525794
 10
67.02826310720786
 20
21.54480258285338
 10
66.79027721911203
 20
21.485190221175824
 10
66.55928033133547
 20
21.40253821312352
 10
66.33749707018319
 20
21.29764254271619
 10
66.12706332969918
 20
21.171513412601666
 10
65.93000570183908
 20
21.025365515252144
 10
65.74822195928182
 20
20.86060633481167
 10
65.58346277884135
 20
20.678822592254416
 10
65.43731488149183
 20
20.48176496439431
 10
65.31118575137731
 20
20.271331223910295
 10
65.20629008096998
 20
20.049547962758027
 10
65.12363807291767
 20
19.818551074981457
 10
65.06402571124012
 20
19.58056518688562
 10
65.0280270955677
 20
19.337882232669205
 10
65.01598891224819
 20
19.0928393818453
 10
65.0280270955677
 20
18.8477965310214
 10
65.06402571124012
 20
18.605113576804982
 10
65.12363807291767
 20
18.367127688709147
 10
65.20629008096998
 20
18.136130800932577
 10
65.31118575137731
 20
17.91434753978031
 10
65.43731488149183
 20
17.703913799296295
 10
65.58346277884135
 20
17.506856171436187
 10
65.74822195928182
 20
17.325072428878933
 10
65.93000570183908
 20
17.16031324843846
 10
66.12706332969918
 20
17.014165351088938
 10
66.33749707018319
 20
16.888036220974413
 10
66.55928033133546
 20
16.783140550567087
 10
66.79027721911203
 20
16.70048854251478
 10
67.02826310720786
 20
16.640876180837225
 10
67.27094606142428
 20
16.60487756516481
 10
67.51598891224819
 20
16.5928393818453
 10
67.7610317630721
 20
16.60487756516481
 10
68.00371471728852
 20
16.640876180837225
 10
68.24170060538435
 20
16.70048854251478
 10
68.47269749316092
 20
16.783140550567087
 10
68.69448075431319
 20
16.888036220974413
 10
68.9049144947972
 20
17.014165351088938
 10
69.1019721226573
 20
17.16031324843846
 10
69.28375586521456
 20
17.325072428878933
 10
69.44851504565503
 20
17.506856171436187
 10
69.59466294300455
 20
17.703913799296295
 10
69.72079207311907
 20
17.91434753978031
 10
69.8256877435264
 20
18.136130800932577
 10
69.90833975157871
 20
18.367127688709147
 10
69.96795211325626
 20
18.60511357680498
 10
70.00395072892869
 20
18.8477965310214
  0
LWPOLYLINE
  5
37
330
17
100
AcDbEntity
  8
CUT
100
AcDbPolyline
 90
64
 70
1
 10
18.056012924715617
 20
21.00128254200941
 10
18.048790014723913
 20
21.14830825250375
 10
18.02719084532046
 20
21.2939180250336
 10
17.99142342831393
 20
21.436709557891103
 10
17.941832223482546
 20
21.575307690557043
 10
17.87889482123815
 20
21.708377647248405
 10
17.803217343169436
 20
21.83463789153881
 10
17.715528604759722
 20
21.952872468254878
 10
17.61667309649544
 20
22.061942713789232
 10
17.507602850961085
 20
22.160798222053515
 10
17.38936827424502
 20
22.24848696046323
 10
17.263108029954612
 20
22.32416443853194
 10
17.13003807326325
 20
22.38710184077634
 10
16.99143994059731
 20
22.436693045607722
 10
16.84864840773981
 20
22.472460462614254
 10
16.703038635209957
 20
22.494059632017706
 10
16.556012924715617
 20
22.50128254200941
 10
16.408987214221277
 20
22.494059632017706
 10
16.263377441691425
 20
22.472460462614254
 10
16.120585908833924
 20
22.436693045607722
 10
15.981987776167982
 20
22.38710184077634
 10
15.84891781947662
 20
22.32416443853194
 10
15.722657575186213
 20
22.24848696046323
 10
15.604422998470149
 20
22.160798222053515
 10
15.495352752935796
 20
22.061942713789232
 10
15.396497244671512
 20
21.952872468254878
 10
15.3088085062618
 20
21.83463789153881
 10
15.233131028193085
 20
21.708377647248405
 10
15.170193625948688
 20
21.575307690557043
 10
15.120602421117304
 20
21.436709557891103
 10
15.084835004110772
 20
21.2939180250336
 10
15.06323583470732
 20
21.14830825250375
 10
15.056012924715617
 20
21.00128254200941
 10
15.06323583470732
 20
20.85425683151507
 10
15.084835004110772
 20
20.708647058985218
 10
15.120602421117304
 20
20.565855526127717
 10
15.170193625948686
 20
20.427257393461776
 10
15.233131028193084
 20
20.294187436770414
 10
15.308808506261798
 20
20.167927192480008
 10
15.396497244671512
 20
20.04969261576394
 10
15.495352752935796
 20
19.940622370229587
 10
15.604422998470149
 20
19.841766861965304
 10
15.722657575186213
 20
19.75407812355559
 10
15.84891781947662
 20
19.678400645486878
 10
15.981987776167982
 20
19.61546324324248
 10
16.120585908833924
 20
19.565872038411097
 10
16.263377441691425
 20
19.530104621404565
 10
16.408987214221277
 20
19.508505452001113
 10
16.556012924715617
 20
19.50128254200941
 10
16.703038635209957
 20
19.508505452001113
 10
16.84864840773981
 20
19.530104621404565
 10
16.99143994059731
 20
19.565872038411097
 10
17.13003807326325
 20
19.61546324324248
 10
17.263108029954612
 20
19.678400645486878
 10
17.38936827424502
 20
19.75407812355559
 10
17.507602850961085
 20
19.841766861965304
 10
17.61667309649544
 20
19.940622370229587
 10
17.715528604759722
 20
20.04969261576394
 10
17.803217343169436
 20
20.167927192480008
 10
17.87889482123815
 20
20.294187436770414
 10
17.941832223482546
 20
20.427257393461772
 10
17.99142342831393
 20
20.565855526127717
 10
18.02719084532046
 20
20.708647058985218
 10
18.048790014723913
 20
20.85425683151507
  0
LWPOLYLINE
  5
38
330
17
100
AcDbEntity
  8
CUT
100
AcDbPolyline
 90
67
 70
1
 10
28.2493586396886
 20
20.875038928608937
 10
28.75148493226669
 20
20.97086112866546
 10
29.24825007882022
 20
21.05675090153454
 10
29.73701229518211
 20
21.140377005695008
 10
30.208213453127247
 20
21.226214383388058
 10
30.650872600894715
 20
21.314542994153655
 10
31.055047988821944
 20
21.40351847829778
 10
31.4120238627187
 20
21.490670093592545
 10
31.713934156819082
 20
21.573509632869865
 10
31.953427329220933
 20
21.6497052980215
 10
32.12345475326165
 20
21.717104479886967
 10
32.217150311929416
 20
21.77371973099931
 10
32.273635235484264
 20
21.845064868898085
 10
32.31891067855733
 20
21.94062823941792
 10
32.35305094385113
 20
22.059674231181017
 10
32.37614475838707
 20
22.201455997733728
 10
32.388298127807346
 20
22.365222198607583
 10
32.38963678109343
 20
22.550224866761923
 10
32.38030748840632
 20
22.755728831384804
 10
32.3604772828493
 20
22.981022825758007
 10
32.33032940896413
 20
23.22543189459461
 10
32.29005481208985
 20
23.488329948446662
 10
32.23983838593932
 20
23.769150370019325
 10
32.16152543892075
 20
24.180457028427227
 10
32.091929561842605
 20
24.518158103753166
 10
32.022255307498156
 20
24.789067512293137
 10
31.944173137252445
 20
24.999933112640157
 10
31.849652242222156
 20
25.15759002718337
 10
31.73084298105497
 20
25.26898638302457
 10
31.58001997363786
 20
25.34115384433246
 10
31.389577864601797
 20
25.38115948214573
 10
31.152077599748672
 20
25.396054491730894
 10
30.86035621468411
 20
25.392831149415123
 10
30.50773298568185
 20
25.378417243704146
 10
29.961355855701246
 20
25.334563479361712
 10
29.291057171210582
 20
25.25117354571602
 10
28.541370372854715
 20
25.140737317162305
 10
27.74788287163673
 20
25.025261424078252
 10
26.923296065931773
 20
24.92119175400009
 10
26.080353911074127
 20
24.819853547424014
 10
25.256349797857816
 20
24.709013241638516
 10
24.497831554605344
 20
24.588926764458954
 10
23.84852364428291
 20
24.466241520413526
 10
23.348763198011845
 20
24.348635394555316
 10
23.03699100924431
 20
24.243311390319587
 10
22.864983835066987
 20
24.111741170183443
 10
22.716840490445367
 20
23.899969838583164
 10
22.593593674017214
 20
23.62225488168331
 10
22.496323068011925
 20
23.29285865524149
 10
22.426189941778574
 20
22.926004349566796
 10
22.384472350650412
 20
22.535872475273145
 10
22.37258980369699
 20
22.136628687756442
 10
22.392107715667407
 20
21.74246832781617
 10
22.44471934006927
 20
21.36765970205665
 10
22.53221179692369
 20
21.026570699648726
 10
22.656428234006693
 20
20.733670788751443
 10
22.792867719018208
 20
20.51372412229727
 10
22.951871438871084
 20
20.3383848813358
 10
23.15193964590791
 20
20.20807407708849
 10
23.411434343738918
 20
20.123292164553426
 10
23.748537247965082
 20
20.08465663881963
 10
24.181123153900977
 20
20.09300097099311
 10
24.72643226841062
 20
20.14957025892948
 10
25.400193697483406
 20
20.256361737016874
 10
26.214079008230765
 20
20.416412252924193
 10
27.16850029433705
 20
20.631019978613814
 10
28.2493586396886
 20
20.875038928608937
  0
LWPOLYLINE
  5
39
330
17
100
AcDbEntity
  8
CUT
100
AcDbPolyline
 90
56
 70
1
 10
97.49225553010272
 20
20.651141245526645
 10
97.6121917226042
 20
21.098551246253173
 10
97.7144082672124
 20
21.533544623257463
 10
97.79852563750599
 20
21.951078042968273
 10
97.86401810256619
 20
22.346089120916744
 10
97.91023705620367
 20
22.713444002220736
 10
97.93645117415942
 20
23.047908132663096
 10
97.94189003893254
 20
23.344143240967448
 10
97.9257806674151
 20
23.596725829395844
 10
97.88737207426449
 20
23.80017936345253
 10
97.82594828987217
 20
23.949013543735447
 10
97.74083368227495
 20
24.037767510967477
 10
97.44177837745322
 20
24.14327210547323
 10
96.87317298858103
 20
24.2818350104534
 10
96.09412618822785
 20
24.439934080133938
 10
95.16810891216544
 20
24.601861385024293
 10
94.16949328586836
 20
24.753618724629725
 10
93.1785110925517
 20
24.90715101248679
 10
92.21560117738147
 20
25.099650725103537
 10
91.2758507424786
 20
25.299977773730866
 10
90.4227034346737
 20
25.462334372450478
 10
89.7319354673547
 20
25.56979047026744
 10
89.26956458993622
 20
25.613409098010656
 10
89.05684924150015
 20
25.613250056724727
 10
88.87236003414726
 20
25.598265787289463
 10
88.71278295254743
 20
25.564971530800854
 10
88.57473799872896
 20
25.509858632216613
 10
88.45479723567678
 20
25.429409482686612
 10
88.34949196591671
 20
25.320110535860163
 10
88.25531102374212
 20
25.178462503941645
 10
88.16869067432825
 20
25.00098595805732
 10
88.08599610909717
 20
24.78421880722304
 10
88.00349550237542
 20
24.52469970123107
 10
87.91733107963772
 20
24.218929138086807
 10
87.78189291065205
 20
23.6755432653763
 10
87.69418901861069
 20
23.204254185058602
 10
87.65958395661328
 20
22.798376835039413
 10
87.68306283464165
 20
22.451588987774166
 10
87.76926910054539
 20
22.157691405517696
 10
87.92257900443552
 20
21.910508679358735
 10
88.14715154934642
 20
21.703880988825315
 10
88.4469284459548
 20
21.53171218021413
 10
88.82555806519348
 20
21.38806116347923
 10
89.28618325148648
 20
21.267273691401783
 10
89.83094725007655
 20
21.16411969491769
 10
91.41623168707727
 20
20.913706077800512
 10
92.7074355384201
 20
20.683708254680198
 10
93.80465276719849
 20
20.456467071874187
 10
94.74370428552136
 20
20.27731091120569
 10
95.52154493215954
 20
20.160881713772593
 10
96.1444235846448
 20
20.10577408644309
 10
96.62604741468817
 20
20.10873809545459
 10
96.98324905680303
 20
20.166970009198373
 10
97.23415778467474
 20
20.278133341211113
 10
97.39748828912126
 20
20.440166788563936
 10
97.49225553010272
 20
20.651141245526645
  0
LWPOLYLINE
  5
3A
330
17
100
AcDbEntity
  8
CUT
100
AcDbPolyline
 90
64
 70
1
 10
105.12486608369659
 20
20.996959200335446
 10
105.11764317370488
 20
21.143984910829786
 10
105.09604400430143
 20
21.28959468335964
 10
105.06027658729491
 20
21.43238621621714
 10
105.01068538246352
 20
21.57098434888308
 10
104.94774798021912
 20
21.70405430557444
 10
104.87207050215041
 20
21.83031454986485
 10
104.7843817637407
 20
21.948549126580915
 10
104.6855262554764
 20
22.05761937211527
 10
104.57645600994206
 20
22.15647488037955
 10
104.45822143322599
 20
22.244163618789266
 10
104.33196118893558
 20
22.319841096857978
 10
104.19889123224422
 20
22.382778499102375
 10
104.06029309957829
 20
22.43236970393376
 10
103.91750156672079
 20
22.46813712094029
 10
103.77189179419094
 20
22.489736290343743
 10
103.62486608369659
 20
22.496959200335446
 10
103.47784037320224
 20
22.489736290343743
 10
103.33223060067239
 20
22.46813712094029
 10
103.18943906781489
 20
22.43236970393376
 10
103.05084093514895
 20
22.382778499102375
 10
102.9177709784576
 20
22.319841096857978
 10
102.79151073416719
 20
22.244163618789266
 10
102.67327615745111
 20
22.15647488037955
 10
102.56420591191677
 20
22.05761937211527
 10
102.46535040365248
 20
21.948549126580915
 10
102.37766166524277
 20
21.83031454986485
 10
102.30198418717406
 20
21.70405430557444
 10
102.23904678492966
 20
21.57098434888308
 10
102.18945558009827
 20
21.43238621621714
 10
102.15368816309174
 20
21.28959468335964
 10
102.1320889936883
 20
21.143984910829786
 10
102.12486608369659
 20
20.996959200335446
 10
102.1320889936883
 20
20.849933489841106
 10
102.15368816309174
 20
20.704323717311254
 10
102.18945558009827
 20
20.561532184453753
 10
102.23904678492966
 20
20.422934051787813
 10
102.30198418717406
 20
20.28986409509645
 10
102.37766166524277
 20
20.163603850806044
 10
102.46535040365248
 20
20.04536927408998
 10
102.56420591191677
 20
19.936299028555624
 10
102.67327615745111
 20
19.83744352029134
 10
102.79151073416719
 20
19.749754781881627
 10
102.9177709784576
 20
19.674077303812915
 10
103.05084093514895
 20
19.611139901568517
 10
103.18943906781489
 20
19.561548696737134
 10
103.33223060067239
 20
19.5257812797306
 10
103.47784037320224
 20
19.50418211032715
 10
103.62486608369659
 20
19.496959200335446
 10
103.77189179419094
 20
19.50418211032715
 10
103.91750156672079
 20
19.5257812797306
 10
104.06029309957827
 20
19.561548696737134
 10
104.19889123224422
 20
19.611139901568517
 10
104.33196118893558
 20
19.674077303812915
 10
104.45822143322599
 20
19.749754781881627
 10
104.57645600994206
 20
19.83744352029134
 10
104.6855262554764
 20
19.936299028555624
 10
104.7843817637407
 20
20.04536927408998
 10
104.87207050215041
 20
20.163603850806044
 10
104.94774798021912
 20
20.289864095096448
 10
105.01068538246352
 20
20.42293405178781
 10
105.06027658729491
 20
20.561532184453753
 10
105.09604400430143
 20
20.704323717311254
 10
105.11764317370488
 20
20.849933489841106
  0
LWPOLYLINE
  5
3D
330
17
100
AcDbEntity
  8
CUT
100
AcDbPolyline
 90
47
 70
1
 10
42.2961051284584
 20
23.279016988187053
 10
42.77067458163167
 20
23.390486179667096
 10
43.2195501888081
 20
23.493158358535553
 10
43.64794268679408
 20
23.577376553528826
 10
44.065821872091796
 20
23.645396653004255
 10
44.47306628830957
 20
23.707406879902663
 10
44.85962664248527
 20
23.769939485818767
 10
45.21346187290882
 20
23.833910683166565
 10
45.52400831287795
 20
23.89757747071858
 10
45.782296544683696
 20
23.958544148788
 10
45.98039027789057
 20
24.014486580546972
 10
46.110951215161315
 20
24.063327374491934
 10
46.29298610851636
 20
24.175045506239837
 10
46.4425633825247
 20
24.32198360513633
 10
46.559757618785135
 20
24.503123868241133
 10
46.64471399041982
 20
24.717462661823518
 10
46.69765812637077
 20
24.96402526433249
 10
46.718903978046995
 20
25.241895226665463
 10
46.70885161978395
 20
25.550260190534296
 10
46.66796324628163
 20
25.888472036583078
 10
46.59670412774227
 20
26.256109926522768
 10
46.49544157121312
 20
26.65302100491904
 10
46.36431451474801
 20
27.079302939660113
 10
46.25680074488105
 20
27.400023561406467
 10
46.145388669676436
 20
27.65777635607691
 10
45.997778378369624
 20
27.851435382770674
 10
45.78228080543682
 20
27.980089727817848
 10
45.4679254099739
 20
28.04298127941335
 10
45.02508506914831
 20
28.03951602937399
 10
44.42685500003602
 20
27.969949477980613
 10
43.65061659348733
 20
27.838750034575927
 10
42.67186391685294
 20
27.663253403873615
 10
41.435105334909856
 20
27.46686944865279
 10
39.863782619237696
 20
27.23264112626835
 10
36.60212828802288
 20
26.706131915478785
 10
36.61011525733732
 20
25.053738070393706
 10
36.62033069191618
 20
24.375988122315658
 10
36.66612567382774
 20
23.820489821238148
 10
36.77058667560469
 20
23.380345392702708
 10
36.956316478972795
 20
23.04896336436716
 10
37.24553795479113
 20
22.819823954169685
 10
37.66017574444961
 20
22.686449060819065
 10
38.22183073598252
 20
22.642534501132353
 10
38.951521109711855
 20
22.68230198702247
 10
39.86872004280707
 20
22.801359625970882
 10
40.98741360850178
 20
22.998885295462344
 10
42.2961051284584
 20
23.279016988187053
  0
LWPOLYLINE
  5
3E
330
17
100
AcDbEntity
  8
CUT
100
AcDbPolyline
 90
56
 70
1
 10
83.412626210821
 20
24.020371343648
 10
83.57508282603801
 20
24.634806468374286
 10
83.6856294653922
 20
25.144152825663625
 10
83.7233795890052
 20
25.563432719726002
 10
83.66819086291717
 20
25.906958221287738
 10
83.50055919011713
 20
26.18881831614156
 10
83.20149909159294
 20
26.422939283894674
 10
82.75263024936328
 20
26.622830514793733
 10
82.13676525765663
 20
26.80097654451935
 10
81.33999707113722
 20
26.967761750907798
 10
80.35861248700408
 20
27.131615034418026
 10
79.20947319131139
 20
27.318187004842116
 10
78.46862649896686
 20
27.464948954978663
 10
77.78758314356118
 20
27.61238397225531
 10
77.16023384186184
 20
27.74402724590053
 10
76.59146017114088
 20
27.851990665580484
 10
76.08535405924115
 20
27.934682304987724
 10
75.64348332664487
 20
27.992570651238605
 10
75.2657221106229
 20
28.026522520927177
 10
74.95100130505621
 20
28.037357783274537
 10
74.69773804583542
 20
28.025771953957236
 10
74.50406332862357
 20
27.99234960784373
 10
74.36794338594872
 20
27.937592727430314
 10
74.186428139909
 20
27.77073988535951
 10
74.0129379612155
 20
27.507117418369216
 10
73.85152448807511
 20
27.168301419582388
 10
73.70628885150722
 20
26.775694817195276
 10
73.58148283323358
 20
26.350454221595754
 10
73.48163090170291
 20
25.913530325947725
 10
73.41160807207972
 20
25.485800687198285
 10
73.37662913125159
 20
25.088227367623155
 10
73.3821576306699
 20
24.741959532426094
 10
73.43378449859739
 20
24.46833472436399
 10
73.53712619745286
 20
24.288776620617746
 10
73.78507505267001
 20
24.165891809152235
 10
74.27702479888409
 20
24.015005414885326
 10
74.96464451416867
 20
23.84755603556141
 10
75.79695143333474
 20
23.67639708671776
 10
76.71675049504452
 20
23.514244850909908
 10
77.65900499445011
 20
23.36284966004434
 10
78.57908707104399
 20
23.197264976199676
 10
79.48050600909998
 20
23.011876507980592
 10
80.34053917533949
 20
22.845744377148957
 10
81.10018272627256
 20
22.72613903182981
 10
81.7007283619684
 20
22.664779365001923
 10
82.01736414039969
 20
22.649342289692505
 10
82.28282787110646
 20
22.646594934408114
 10
82.503131924957
 20
22.66145389843883
 10
82.68452633828157
 20
22.69892842439844
 10
82.83340197985927
 20
22.764085201501178
 10
82.95624130392596
 20
22.862014444610743
 10
83.0595992202376
 20
22.997801458965238
 10
83.150106750574
 20
23.17650601913839
 10
83.23449553721716
 20
23.403154834929417
 10
83.31964225547557
 20
23.682758441591737
 10
83.412626210821
 20
24.020371343648
  0
LWPOLYLINE
  5
41
330
17
100
AcDbEntity
  8
CUT
100
AcDbPolyline
 90
56
 70
1
 10
47.80383092277434
 20
34.53187032825633
 10
47.98532427735804
 20
34.75311613781247
 10
48.13605399935348
 20
34.969997063517056
 10
48.257971633260375
 20
35.20334382189216
 10
48.353394454172076
 20
35.47346833709679
 10
48.42523855700844
 20
35.80024350014089
 10
48.477426919702175
 20
36.203300128911124
 10
48.51543065462074
 20
36.70279256311005
 10
48.54623994128305
 20
37.321237197346505
 10
48.576262192894276
 20
38.0855594697764
 10
48.60758200009269
 20
39.02584402639518
 10
48.6375185126294
 20
40.16995645185818
 10
48.658130543538576
 20
41.29357193209103
 10
48.66662925208196
 20
42.23356844576359
 10
48.66406950781389
 20
42.99902494239414
 10
48.650484073472484
 20
43.6018614484224
 10
48.62517195298919
 20
44.05513939447054
 10
48.58699958399529
 20
44.37241729224097
 10
48.53458473467781
 20
44.567488340385204
 10
48.466402250427265
 20
44.654263769173916
 10
48.380846519122336
 20
44.646716397272804
 10
48.27627074943641
 20
44.5588510995399
 10
48.1510139370985
 20
44.40468832171088
 10
47.455305638391685
 20
43.46051902995202
 10
46.605727461769696
 20
42.285209869615265
 10
45.65834919511478
 20
40.94495071843622
 10
44.681770894086625
 20
39.5171121760457
 10
43.73344239810433
 20
38.12558419287477
 10
42.742808833798456
 20
36.83144026311206
 10
41.75520463143348
 20
35.56855520087268
 10
40.88227085194353
 20
34.416430919287535
 10
40.18098207240982
 20
33.4672734686806
 10
39.69775396964526
 20
32.79621672839883
 10
39.47871677148285
 20
32.471682274915786
 10
39.42087333962985
 20
32.3446633116327
 10
39.41010238399523
 20
32.24574380134006
 10
39.457216516540946
 20
32.17580271298688
 10
39.57300315338524
 20
32.13573181389992
 10
39.76820093596604
 20
32.1264540924475
 10
40.05346033404891
 20
32.148948239443
 10
40.43927408702145
 20
32.204282258964625
 10
40.935847086574654
 20
32.293657993864514
 10
41.552839772863265
 20
32.41845707969685
 10
42.298843754631285
 20
32.58022301199709
 10
43.18033599260891
 20
32.78027232131869
 10
44.012742027621115
 20
32.976633980993476
 10
44.72348871729657
 20
33.15244501228217
 10
45.32709572906719
 20
33.31015398077784
 10
45.838236014958
 20
33.45408776327001
 10
46.27027842444178
 20
33.58996966177841
 10
46.634896518275596
 20
33.7237917529518
 10
46.94258130423503
 20
33.86103334361887
 10
47.203315431409834
 20
34.006466870696336
 10
47.427017785421455
 20
34.164277425712896
 10
47.62375476768643
 20
34.338241397250904
 10
47.80383092277434
 20
34.53187032825633
  0
LWPOLYLINE
  5
42
330
17
100
AcDbEntity
  8
CUT
100
AcDbPolyline
 90
58
 70
1
 10
79.11752984750967
 20
34.0456676939458
 10
78.50532776107637
 20
34.851739377264536
 10
77.80560672976449
 20
35.75210701857408
 10
77.0828448304653
 20
36.71151611941826
 10
76.36475587717786
 20
37.75884361016973
 10
75.61402565240151
 20
38.87520689203719
 10
74.84555468111509
 20
39.98765490563036
 10
74.09985727022736
 20
41.04153814906829
 10
73.41373837634563
 20
41.994351627929646
 10
72.81975104279974
 20
42.80683947971223
 10
72.34825897071008
 20
43.44048906810802
 10
72.02852986010987
 20
43.85692044909268
 10
71.29710325091108
 20
44.77656094010067
 10
71.34942155448744
 20
40.22962158395255
 10
71.37081570646238
 20
39.252951907462226
 10
71.39861410593119
 20
38.4179038014816
 10
71.43331139113829
 20
37.70899482473396
 10
71.47574763642226
 20
37.110251333231744
 10
71.52736378168082
 20
36.60559587049124
 10
71.59017520799736
 20
36.179271556033115
 10
71.66652990723725
 20
35.816084211513555
 10
71.75882843210235
 20
35.50141813636057
 10
71.86932103212825
 20
35.22112184772465
 10
71.99998977667391
 20
34.961368488035916
 10
72.15246851788848
 20
34.708531660733755
 10
72.26451573398404
 20
34.546535128207346
 10
72.3881885639988
 20
34.38855821267596
 10
72.52097726093237
 20
34.23658791269074
 10
72.66042120067863
 20
34.09256747208049
 10
72.80412333246932
 20
33.95840840265971
 10
72.9497597378488
 20
33.83600869827163
 10
73.09508169036638
 20
33.727274606350974
 10
73.23790934961931
 20
33.63414167065749
 10
73.376118687934
 20
33.55859023903918
 10
73.50762550891422
 20
33.50265152662574
 10
73.63037158472258
 20
33.468402144172636
 10
74.29811237832415
 20
33.33824172771746
 10
74.95835418021733
 20
33.19721727342295
 10
75.6162810407965
 20
33.038790815579404
 10
76.2758234019271
 20
32.872620407863785
 10
76.92650643150266
 20
32.712819010699086
 10
77.55059021949423
 20
32.56798967037391
 10
78.13033523193376
 20
32.44228991196995
 10
78.64964862311385
 20
32.33814806434519
 10
79.0937472748927
 20
32.25757304559455
 10
79.4486591794847
 20
32.20258815814748
 10
79.700895253006
 20
32.17534311672942
 10
79.89609152351011
 20
32.16616961112061
 10
80.04864490636078
 20
32.171209329144475
 10
80.15619445669911
 20
32.19774424817223
 10
80.21641286416764
 20
32.253066334710624
 10
80.22698916097319
 20
32.34445943217874
 10
80.18561417126139
 20
32.479173104116406
 10
80.08996728997805
 20
32.66438302241629
 10
79.9377045715047
 20
32.90712626972052
 10
79.72645226046659
 20
33.2141876786669
 10
79.4538239685196
 20
33.59188750206244
 10
79.11752984750967
 20
34.0456676939458
  0
LWPOLYLINE
  5
43
330
17
100
AcDbEntity
  8
CUT
100
AcDbPolyline
 90
64
 70
1
 10
62.31769506825065
 20
34.26000704142213
 10
62.30565688493114
 20
34.50504989224603
 10
62.26965826925873
 20
34.74773284646245
 10
62.210045907581176
 20
34.98571873455828
 10
62.12739389952887
 20
35.21671562233485
 10
62.02249822912154
 20
35.43849888348712
 10
61.89636909900701
 20
35.648932623971135
 10
61.750221201657496
 20
35.84599025183124
 10
61.58546202121702
 20
36.0277739943885
 10
61.40367827865976
 20
36.19253317482897
 10
61.20662065079966
 20
36.33868107217849
 10
60.99618691031564
 20
36.464810202293016
 10
60.774403649163375
 20
36.56970587270035
 10
60.543406761386805
 20
36.65235788075265
 10
60.30542087329097
 20
36.711970242430205
 10
60.06273791907455
 20
36.74796885810262
 10
59.81769506825065
 20
36.76000704142213
 10
59.57265221742675
 20
36.747968858102624
 10
59.32996926321033
 20
36.711970242430205
 10
59.091983375114495
 20
36.65235788075265
 10
58.860986487337925
 20
36.56970587270035
 10
58.63920322618566
 20
36.464810202293016
 10
58.42876948570164
 20
36.33868107217849
 10
58.23171185784154
 20
36.192533174828974
 10
58.04992811528428
 20
36.0277739943885
 10
57.885168934843804
 20
35.84599025183124
 10
57.73902103749429
 20
35.648932623971135
 10
57.61289190737976
 20
35.43849888348712
 10
57.50799623697243
 20
35.21671562233485
 10
57.425344228920125
 20
34.98571873455828
 10
57.36573186724257
 20
34.74773284646245
 10
57.32973325157016
 20
34.50504989224603
 10
57.31769506825065
 20
34.26000704142213
 10
57.32973325157016
 20
34.01496419059823
 10
57.36573186724257
 20
33.77228123638181
 10
57.425344228920125
 20
33.53429534828597
 10
57.50799623697243
 20
33.3032984605094
 10
57.61289190737976
 20
33.081515199357135
 10
57.73902103749429
 20
32.87108145887312
 10
57.885168934843804
 20
32.67402383101302
 10
58.04992811528428
 20
32.49224008845576
 10
58.23171185784153
 20
32.32748090801529
 10
58.42876948570164
 20
32.18133301066577
 10
58.63920322618566
 20
32.05520388055124
 10
58.860986487337925
 20
31.950308210143913
 10
59.091983375114495
 20
31.867656202091606
 10
59.32996926321033
 20
31.80804384041405
 10
59.57265221742675
 20
31.772045224741635
 10
59.81769506825065
 20
31.760007041422128
 10
60.06273791907455
 20
31.772045224741635
 10
60.30542087329097
 20
31.80804384041405
 10
60.543406761386805
 20
31.867656202091606
 10
60.774403649163375
 20
31.950308210143913
 10
60.99618691031564
 20
32.05520388055124
 10
61.20662065079966
 20
32.18133301066577
 10
61.40367827865976
 20
32.32748090801529
 10
61.58546202121702
 20
32.49224008845576
 10
61.75022120165749
 20
32.67402383101302
 10
61.89636909900701
 20
32.87108145887312
 10
62.02249822912154
 20
33.081515199357135
 10
62.12739389952887
 20
33.3032984605094
 10
62.210045907581176
 20
33.53429534828597
 10
62.26965826925873
 20
33.77228123638181
 10
62.30565688493114
 20
34.01496419059823
  0
LWPOLYLINE
  5
44
330
17
100
AcDbEntity
  8
CUT
100
AcDbPolyline
 90
62
 70
1
 10
62.461165754957904
 20
41.43350021256198
 10
63.80124909181977
 20
42.555807983538415
 10
63.61768016476266
 20
54.85747860451557
 10
63.61429894863933
 20
56.75079683212867
 10
63.66617350393082
 20
58.56704842269401
 10
63.69421899162716
 20
60.28370613784899
 10
63.69804754933085
 20
61.85350020600485
 10
63.68575924036078
 20
63.25682245100783
 10
63.66188195670387
 20
64.48295761210902
 10
63.628811369362545
 20
65.52376763787309
 10
63.587917828353845
 20
66.37198675186579
 10
63.54005922502843
 20
67.02069294203899
 10
63.48581730904114
 20
67.46311787828878
 10
63.425611269144504
 20
67.69256991093647
 10
63.3600914806497
 20
67.80211135795547
 10
63.27521810160182
 20
67.91846519214582
 10
63.17321644267757
 20
68.0396656453647
 10
63.056313894228154
 20
68.16374557382599
 10
62.92674012529062
 20
68.28873583988607
 10
62.786727249410376
 20
68.41266489627125
 10
62.63850995184366
 20
68.53355854878451
 10
62.484325567863095
 20
68.64943987160859
 10
62.32641410037821
 20
68.7583292483778
 10
62.16701816581371
 20
68.8582445123246
 10
62.008382859114704
 20
68.9472011600749
 10
61.566561782292666
 20
69.15655857664831
 10
61.133944553001875
 20
69.31500540801105
 10
60.71021013683829
 20
69.42245687133254
 10
60.295032451424355
 20
69.47884067752165
 10
59.88808142043381
 20
69.48409518471459
 10
59.48902415331551
 20
69.43816822056743
 10
59.09752618075491
 20
69.34101649341
 10
58.71325270799156
 20
69.1926055503709
 10
58.33586986179267
 20
68.99291027932995
 10
57.96504590506012
 20
68.74191599151482
 10
57.60045237480997
 20
68.43962016388627
 10
56.430171498975085
 20
67.37932082342984
 10
56.48151757414838
 20
55.39817775674672
 10
56.21726551299914
 20
43.3733745719729
 10
57.04915655221546
 20
42.11549556876667
 10
57.262225468477375
 20
41.817383372489054
 10
57.48699974966095
 20
41.551706598980395
 10
57.72669936561346
 20
41.3168532659349
 10
57.98454820741283
 20
41.11120319786528
 10
58.26377296551182
 20
40.93312866246704
 10
58.56760229335655
 20
40.78099450988007
 10
58.899266311968965
 20
40.65315789113518
 10
59.26199653096429
 20
40.54796761924355
 10
59.65902628785911
 20
40.46376324017823
 10
60.09359183540692
 20
40.398873904004724
 10
60.56893422856724
 20
40.351617172083095
 10
60.66444487953126
 20
40.3575422297144
 10
60.784255337899566
 20
40.38710465400155
 10
60.92536655139035
 20
40.43858645535149
 10
61.08477823665137
 20
40.51026940768285
 10
61.25948981454075
 20
40.60043548277303
 10
61.44650121553873
 20
40.70736727417255
 10
61.64281356541544
 20
40.829348422993135
 10
61.84542975699156
 20
40.96466404942625
 10
62.05135491141403
 20
41.11160118632812
 10
62.257596731956966
 20
41.26844920441375
 10
62.461165754957904
 20
41.43350021256198
  0
LWPOLYLINE
  5
45
330
17
100
AcDbEntity
  8
CUT
100
AcDbPolyline
 90
69
 70
1
 10
48.19435522437196
 20
74.50747807325857
 10
47.97875764072392
 20
74.96492184698242
 10
47.740518166101346
 20
75.36679594269316
 10
47.467358899976816
 20
75.71926370148128
 10
47.14760489464375
 20
76.02823511488045
 10
46.77024852975711
 20
76.29969696494722
 10
46.324949869517184
 20
76.54009468932847
 10
45.80182567427861
 20
76.75689060332812
 10
45.190596236427545
 20
76.95924446557079
 10
44.478663845895056
 20
77.15806291402465
 10
43.649152141918876
 20
77.36395771703208
 10
42.682153199172994
 20
77.58366833995196
 10
42.14512841292961
 20
77.69959917455414
 10
41.626072022153465
 20
77.80860209282837
 10
41.13196398561519
 20
77.90903656699864
 10
40.66973444785992
 20
77.99960674992747
 10
40.246180166956805
 20
78.07922133173186
 10
39.86795358526724
 20
78.14689485069276
 10
39.541579678652035
 20
78.20168701057943
 10
39.27347868120141
 20
78.24266778976241
 10
39.069985852588324
 20
78.26889767014266
 10
38.937365337187956
 20
78.27941566892105
 10
38.881817165843444
 20
78.27323047871698
 10
38.899450514437355
 20
78.21520920095618
 10
38.97928638614372
 20
78.0752440030667
 10
39.1168709684578
 20
77.85989653677241
 10
39.307785294362276
 20
77.57579360012744
 10
39.54764887125798
 20
77.22964852390177
 10
39.83212677588857
 20
76.8283035168107
 10
40.15693789562144
 20
76.37880869879092
 10
40.51785520633029
 20
75.88857098411282
 10
40.9106635994766
 20
75.36564155856814
 10
41.33094853911908
 20
74.81927441387576
 10
41.77326257435925
 20
74.26091609496964
 10
42.21925135457699
 20
73.71283331528113
 10
42.64143049520237
 20
73.19458810702722
 10
43.01884289676207
 20
72.69787108163717
 10
43.356975682874484
 20
72.19862773122978
 10
43.678356883890935
 20
71.69851520126848
 10
43.98750483768639
 20
71.21926934829483
 10
44.27599866220135
 20
70.77916106773245
 10
44.53383404390056
 20
70.39060246664063
 10
44.75229549526754
 20
70.06316662433764
 10
44.923882180071914
 20
69.80531719644469
 10
45.04190130146977
 20
69.62510198396508
 10
45.14490564776134
 20
69.46761703268241
 10
45.27365618914082
 20
69.27571129729782
 10
45.42516500103448
 20
69.05393523729684
 10
45.596385997921985
 20
68.80684628511938
 10
45.784210318046966
 20
68.53900413101631
 10
45.98547155109963
 20
68.25496607730506
 10
46.19695590882388
 20
67.95928376524256
 10
46.41541366657586
 20
67.65650158254664
 10
46.63756969669282
 20
67.35115646078569
 10
46.86013213005645
 20
67.0477785705893
 10
47.079798962724524
 20
66.75089246203206
 10
48.531832205937675
 20
64.80467701546596
 10
48.56955522529
 20
69.25561262427507
 10
48.56722893047156
 20
69.96550789869289
 10
48.55617085357865
 20
70.6410113881806
 10
48.537429637512105
 20
71.27743971787288
 10
48.5121601055561
 20
71.87052502651406
 10
48.4814243506613
 20
72.41647435470082
 10
48.44595888401536
 20
72.91187331394462
 10
48.40602466241759
 20
73.35343947921214
 10
48.36142384469254
 20
73.73773618345815
 10
48.31166084977808
 20
74.0609849084851
 10
48.25614658081271
 20
74.31903809520925
 10
48.19435522437196
 20
74.50747807325857
  0
LWPOLYLINE
  5
46
330
17
100
AcDbEntity
  8
CUT
100
AcDbPolyline
 90
47
 70
1
 10
76.99643093078498
 20
72.92684759098651
 10
77.54125682481359
 20
73.62396474684462
 10
78.09473545474818
 20
74.32177867410856
 10
78.62163713003908
 20
75.0083952019462
 10
79.10677472452473
 20
75.66180361248155
 10
79.54275261349618
 20
76.26550798030193
 10
79.92381875699898
 20
76.80684889859931
 10
80.24441644922622
 20
77.27503534021997
 10
80.49891114028841
 20
77.66018231569726
 10
80.68156319123139
 20
77.95287273298578
 10
80.78654290741858
 20
78.14395323339062
 10
80.80794461917274
 20
78.22443841191682
 10
80.5697954919742
 20
78.2523056750213
 10
80.04502336889855
 20
78.19857814529331
 10
79.29817991066673
 20
78.07630208398754
 10
78.3951283334593
 20
77.89863285209523
 10
77.4032392026319
 20
77.68002359637833
 10
76.38992425098171
 20
77.438560881503
 10
75.41660316834358
 20
77.19702401107206
 10
74.5326085519951
 20
76.97528769701874
 10
73.78480825521075
 20
76.78030043324154
 10
73.23163303009599
 20
76.61305533796899
 10
72.93950980209978
 20
76.47897483439566
 10
72.63049571782906
 20
76.19784795236951
 10
72.36501440613844
 20
75.88959625700937
 10
72.14055189849675
 20
75.54015356335874
 10
71.95412053203452
 20
75.13581553465892
 10
71.80205089922859
 20
74.66299252730575
 10
71.67981257898674
 20
74.10775508990893
 10
71.58209666612075
 20
73.45504682525014
 10
71.50359241521633
 20
72.68782407184663
 10
71.44049162318092
 20
71.78708100867534
 10
71.39152568712387
 20
70.73352267765493
 10
71.35716116719442
 20
69.509726689107
 10
71.2887067903221
 20
64.70074143612291
 10
72.32173398739616
 20
66.15155578361066
 10
72.51597947296
 20
66.42467079175555
 10
72.78402820656603
 20
66.80137994334987
 10
73.11772999837873
 20
67.27087905908266
 10
73.50873293485876
 20
67.822381242917
 10
73.948347667771
 20
68.445098115278
 10
74.42727427359118
 20
69.1281703246431
 10
74.9350407022866
 20
69.86041848339568
 10
75.4588849672505
 20
70.62943678285242
 10
75.9822551891489
 20
71.41831739245899
 10
76.48913557889452
 20
72.19677840399126
 10
76.99643093078498
 20
72.92684759098651
  0
LWPOLYLINE
  5
47
330
17
100
AcDbEntity
  8
CUT
100
AcDbPolyline
 90
64
 70
1
 10
54.639686838987814
 20
76.72071921617682
 10
54.62764865566831
 20
76.96576206700072
 10
54.59165003999589
 20
77.20844502121714
 10
54.53203767831833
 20
77.44643090931298
 10
54.44938567026603
 20
77.67742779708954
 10
54.3444899998587
 20
77.89921105824182
 10
54.218360869744174
 20
78.10964479872582
 10
54.07221297239466
 20
78.30670242658593
 10
53.90745379195418
 20
78.48848616914319
 10
53.725670049396925
 20
78.65324534958366
 10
53.52861242153682
 20
78.79939324693318
 10
53.31817868105281
 20
78.9255223770477
 10
53.09639541990054
 20
79.03041804745503
 10
52.86539853212397
 20
79.11307005550734
 10
52.627412644028134
 20
79.17268241718489
 10
52.384729689811714
 20
79.20868103285731
 10
52.139686838987814
 20
79.22071921617682
 10
51.894643988163914
 20
79.20868103285731
 10
51.651961033947494
 20
79.17268241718489
 10
51.41397514585166
 20
79.11307005550734
 10
51.18297825807509
 20
79.03041804745503
 10
50.96119499692282
 20
78.9255223770477
 10
50.75076125643881
 20
78.79939324693318
 10
50.5537036285787
 20
78.65324534958366
 10
50.371919886021445
 20
78.48848616914319
 10
50.20716070558097
 20
78.30670242658593
 10
50.06101280823145
 20
78.10964479872582
 10
49.934883678116925
 20
77.89921105824182
 10
49.829988007709595
 20
77.67742779708954
 10
49.747335999657295
 20
77.44643090931298
 10
49.68772363797974
 20
77.20844502121714
 10
49.651725022307325
 20
76.96576206700072
 10
49.639686838987814
 20
76.72071921617682
 10
49.65172502230732
 20
76.47567636535291
 10
49.68772363797974
 20
76.23299341113649
 10
49.74733599965729
 20
75.99500752304066
 10
49.829988007709595
 20
75.7640106352641
 10
49.934883678116925
 20
75.54222737411182
 10
50.06101280823145
 20
75.33179363362781
 10
50.20716070558097
 20
75.1347360057677
 10
50.371919886021445
 20
74.95295226321045
 10
50.5537036285787
 20
74.78819308276998
 10
50.75076125643881
 20
74.64204518542046
 10
50.96119499692282
 20
74.51591605530594
 10
51.18297825807509
 20
74.4110203848986
 10
51.41397514585166
 20
74.3283683768463
 10
51.651961033947494
 20
74.26875601516875
 10
51.894643988163914
 20
74.23275739949632
 10
52.139686838987814
 20
74.22071921617682
 10
52.384729689811714
 20
74.23275739949632
 10
52.627412644028134
 20
74.26875601516875
 10
52.86539853212397
 20
74.3283683768463
 10
53.09639541990054
 20
74.4110203848986
 10
53.31817868105281
 20
74.51591605530594
 10
53.52861242153682
 20
74.64204518542046
 10
53.725670049396925
 20
74.78819308276998
 10
53.90745379195418
 20
74.95295226321045
 10
54.07221297239465
 20
75.1347360057677
 10
54.218360869744174
 20
75.33179363362781
 10
54.3444899998587
 20
75.54222737411182
 10
54.44938567026603
 20
75.76401063526409
 10
54.53203767831833
 20
75.99500752304066
 10
54.59165003999589
 20
76.23299341113649
 10
54.62764865566831
 20
76.47567636535291
  0
LWPOLYLINE
  5
48
330
17
100
AcDbEntity
  8
CUT
100
AcDbPolyline
 90
64
 70
1
 10
69.98885953057443
 20
76.78013255413242
 10
69.97682134725493
 20
77.02517540495633
 10
69.9408227315825
 20
77.26785835917275
 10
69.88121036990495
 20
77.50584424726858
 10
69.79855836185264
 20
77.73684113504514
 10
69.69366269144531
 20
77.95862439619742
 10
69.56753356133079
 20
78.16905813668143
 10
69.42138566398127
 20
78.36611576454153
 10
69.2566264835408
 20
78.54789950709879
 10
69.07484274098354
 20
78.71265868753926
 10
68.87778511312344
 20
78.85880658488878
 10
68.66735137263943
 20
78.9849357150033
 10
68.44556811148715
 20
79.08983138541063
 10
68.21457122371059
 20
79.17248339346294
 10
67.97658533561476
 20
79.23209575514049
 10
67.73390238139834
 20
79.26809437081292
 10
67.48885953057443
 20
79.28013255413242
 10
67.24381667975052
 20
79.26809437081292
 10
67.0011337255341
 20
79.23209575514049
 10
66.76314783743827
 20
79.17248339346294
 10
66.53215094966171
 20
79.08983138541063
 10
66.31036768850943
 20
78.9849357150033
 10
66.09993394802542
 20
78.85880658488878
 10
65.90287632016532
 20
78.71265868753926
 10
65.72109257760806
 20
78.54789950709879
 10
65.55633339716759
 20
78.36611576454153
 10
65.41018549981807
 20
78.16905813668143
 10
65.28405636970355
 20
77.95862439619742
 10
65.17916069929622
 20
77.73684113504514
 10
65.09650869124391
 20
77.50584424726858
 10
65.03689632956636
 20
77.26785835917275
 10
65.00089771389393
 20
77.02517540495633
 10
64.98885953057443
 20
76.78013255413242
 10
65.00089771389393
 20
76.53508970330851
 10
65.03689632956636
 20
76.2924067490921
 10
65.09650869124391
 20
76.05442086099626
 10
65.17916069929622
 20
75.8234239732197
 10
65.28405636970355
 20
75.60164071206742
 10
65.41018549981807
 20
75.39120697158341
 10
65.55633339716759
 20
75.19414934372331
 10
65.72109257760806
 20
75.01236560116605
 10
65.90287632016532
 20
74.84760642072558
 10
66.09993394802542
 20
74.70145852337606
 10
66.31036768850943
 20
74.57532939326154
 10
66.5321509496617
 20
74.47043372285421
 10
66.76314783743827
 20
74.3877817148019
 10
67.0011337255341
 20
74.32816935312435
 10
67.24381667975052
 20
74.29217073745193
 10
67.48885953057443
 20
74.28013255413242
 10
67.73390238139834
 20
74.29217073745193
 10
67.97658533561476
 20
74.32816935312435
 10
68.21457122371058
 20
74.3877817148019
 10
68.44556811148716
 20
74.47043372285421
 10
68.66735137263943
 20
74.57532939326154
 10
68.87778511312344
 20
74.70145852337606
 10
69.07484274098354
 20
74.84760642072558
 10
69.2566264835408
 20
75.01236560116605
 10
69.42138566398127
 20
75.19414934372331
 10
69.56753356133079
 20
75.39120697158341
 10
69.69366269144531
 20
75.60164071206742
 10
69.79855836185264
 20
75.82342397321969
 10
69.88121036990495
 20
76.05442086099626
 10
69.9408227315825
 20
76.2924067490921
 10
69.97682134725493
 20
76.53508970330851
  0
LWPOLYLINE
  5
4A
330
17
100
AcDbEntity
  8
CUT
100
AcDbPolyline
 90
89
 70
1
 10
45.60666402278333
 20
82.28531430667651
 10
45.67979899657441
 20
82.34386996161938
 10
45.75665309855163
 20
82.43226100454372
 10
45.8360608202223
 20
82.5475799035262
 10
45.91685873503109
 20
82.68691722020459
 10
45.997881669131985
 20
82.84737139815773
 10
46.077957554064305
 20
83.02605555255946
 10
46.1559011675298
 20
83.22010093079027
 10
46.23050743148219
 20
83.4266568477105
 10
46.300545237682144
 20
83.6428872398009
 10
46.36475282999616
 20
83.86596444696356
 10
46.42183555653063
 20
84.09306127268034
 10
46.523409091000325
 20
84.57945360253757
 10
46.575712294124735
 20
84.99384730769249
 10
46.567076700883895
 20
85.34425173588771
 10
46.48632152770522
 20
85.63853448316416
 10
46.32263549239154
 20
85.88454942643064
 10
46.065526191540656
 20
86.09011165177668
 10
45.70488934771796
 20
86.26287915510258
 10
45.231286048930926
 20
86.41016274340102
 10
44.636659538420375
 20
86.53872182238291
 10
43.91600198397614
 20
86.65498844512321
 10
43.07011393148023
 20
86.76800711200752
 10
42.69769459199099
 20
86.81888621729043
 10
42.31878965157233
 20
86.87740793553974
 10
41.93758651431922
 20
86.94430906564533
 10
41.55727365634764
 20
87.01918041362606
 10
41.18119289539372
 20
87.10010581673312
 10
40.813821412619475
 20
87.18417871183003
 10
40.460949038135745
 20
87.26834864592023
 10
40.12925814952173
 20
87.34996352723381
 10
39.82581325459151
 20
87.42688929505918
 10
39.557721817103904
 20
87.49740278913707
 10
39.33197562295402
 20
87.56003800452307
 10
38.793878730218836
 20
87.70100525546387
 10
38.32611312446957
 20
87.79100075348654
 10
37.924332204020395
 20
87.82681196223717
 10
37.583407889415554
 20
87.8051251768345
 10
37.297799832257866
 20
87.72254177862557
 10
37.06173243226403
 20
87.57562912514058
 10
36.86927337034197
 20
87.36097100701768
 10
36.714352757044736
 20
87.07520974673737
 10
36.5907353227509
 20
86.71507168747412
 10
36.49194718354658
 20
86.277355340257
 10
36.41116500235239
 20
85.75883985561168
 10
36.373410165198436
 20
85.44889103807118
 10
36.345666117319794
 20
85.16403313828354
 10
36.3280911471098
 20
84.90425369302284
 10
36.32084200472734
 20
84.66958595955815
 10
36.32406478896771
 20
84.4600989393148
 10
36.337889732683436
 20
84.27588688348766
 10
36.36242904620335
 20
84.11705953528154
 10
36.39777685387823
 20
83.98373369889225
 10
36.44401035580498
 20
83.87602624370535
 10
36.50119152799277
 20
83.79404835994933
 10
36.569368852205606
 20
83.73790073630514
 10
36.670164680150215
 20
83.69623980447588
 10
36.845916059481226
 20
83.64392129464089
 10
37.08996121923592
 20
83.58253135355925
 10
37.3955763357085
 20
83.51376361203329
 10
37.75593453084181
 20
83.43944979621794
 10
38.164027886973315
 20
83.36160806816426
 10
38.6125174289662
 20
83.28250587485967
 10
39.09344338493571
 20
83.20470606237481
 10
39.597690229128055
 20
83.13095777693185
 10
40.11419175126852
 20
83.0634629485488
 10
40.6297484827782
 20
83.00144601648223
 10
41.12434277942542
 20
82.93567162379284
 10
41.59128162700132
 20
82.85334399409211
 10
42.042318357408234
 20
82.75406590694638
 10
42.480740851908806
 20
82.6488567537311
 10
42.89861061172644
 20
82.54775126051464
 10
43.284663529289254
 20
82.45574418399532
 10
43.62848533303575
 20
82.37489728004675
 10
43.92105973972916
 20
82.3062461123121
 10
44.15438468538691
 20
82.25061737185491
 10
44.321097041507464
 20
82.20889753441716
 10
44.41424227284052
 20
82.18210731300763
 10
44.56325071996631
 20
82.13152697217781
 10
44.69260417952161
 20
82.09203619437672
 10
44.80609412824861
 20
82.06390197403522
 10
44.9075479054398
 20
82.04741707457647
 10
45.0008174780043
 20
82.0428908295837
 10
45.08977388745032
 20
82.05064324134527
 10
45.178305516810354
 20
82.07100168725789
 10
45.270319098605405
 20
82.10429995596502
 10
45.369742692057805
 20
82.15087962343293
 10
45.480529855694215
 20
82.21109393239517
 10
45.60666402278333
 20
82.28531430667651
  0
LWPOLYLINE
  5
4B
330
17
100
AcDbEntity
  8
CUT
100
AcDbPolyline
 90
45
 70
1
 10
78.17586157038215
 20
82.82066840570884
 10
79.48001475107266
 20
83.03662727168211
 10
80.5735704583177
 20
83.17446625339281
 10
81.45398534794869
 20
83.3000212387422
 10
82.12360358761961
 20
83.42411624358311
 10
82.60506003380199
 20
83.555339033664
 10
82.92733919221905
 20
83.70543351646361
 10
83.12138152475549
 20
83.88781992495429
 10
83.21887931655172
 20
84.11663663070071
 10
83.2519697825413
 20
84.40631971082827
 10
83.2532369261185
 20
84.7715329810974
 10
83.25579232545638
 20
85.22743932892104
 10
83.26762082144218
 20
85.9136873146319
 10
83.24857137178063
 20
86.48043200585346
 10
83.18147988677691
 20
86.93435637473773
 10
83.0502644443253
 20
87.28184624998698
 10
82.83954259794275
 20
87.5294381538426
 10
82.53439658859855
 20
87.68384606449922
 10
82.12036894961776
 20
87.75181264704722
 10
81.583765163721
 20
87.73987260430782
 10
80.91257654136216
 20
87.65407935475358
 10
80.09898442284268
 20
87.5001723372207
 10
79.14488991426221
 20
87.28781936267761
 10
77.64480765597177
 20
86.98540164537862
 10
76.41231769743291
 20
86.80403611212434
 10
75.41606750090561
 20
86.65097789599588
 10
74.65917529960781
 20
86.50714615588434
 10
74.11840656569393
 20
86.36425636719363
 10
73.76118783066845
 20
86.21050667846674
 10
73.55222429833117
 20
86.0319146438243
 10
73.45527395869269
 20
85.81355255094223
 10
73.43361815420204
 20
85.54011807549934
 10
73.45011366099541
 20
85.19609928635903
 10
73.46710315467291
 20
84.76558295297986
 10
73.47243086220794
 20
84.0330342049734
 10
73.49124599374984
 20
83.437731227342
 10
73.54960581161046
 20
82.97059571571376
 10
73.67222799213643
 20
82.62314620689017
 10
73.88295240068314
 20
82.386789225268
 10
74.20505140401951
 20
82.2527524621988
 10
74.66121272728225
 20
82.21230871155537
 10
75.27302077402256
 20
82.2571900538963
 10
76.05920390405723
 20
82.38017498886454
 10
77.03004120244539
 20
82.57466496978373
 10
78.17586157038215
 20
82.82066840570884
  0
LWPOLYLINE
  5
4C
330
17
100
AcDbEntity
  8
CUT
100
AcDbPolyline
 90
56
 70
1
 10
31.6722061958724
 20
85.16403023437867
 10
31.80518516882937
 20
85.45389418641595
 10
31.922130445380144
 20
85.76849461371842
 10
32.022322201038506
 20
86.09963548953965
 10
32.104909356412165
 20
86.43924027426748
 10
32.16887013815388
 20
86.77928695133001
 10
32.213006139425325
 20
87.11172987682497
 10
32.23597096551394
 20
87.4284328020069
 10
32.23632073490003
 20
87.72113163415348
 10
32.212567842172064
 20
87.98143246522069
 10
32.163222837356365
 20
88.20083890057627
 10
32.08681731281113
 20
88.37079843316903
 10
31.816219957960463
 20
88.53237898448513
 10
31.23048822750224
 20
88.72641669680127
 10
30.406371919456053
 20
88.93562610418736
 10
29.428933970650228
 20
89.14788918718276
 10
28.377735031069623
 20
89.37414084681681
 10
27.28494851649999
 20
89.62950963473543
 10
26.1793656383257
 20
89.87983867315226
 10
25.13505050164361
 20
90.08579712155952
 10
24.235031428932384
 20
90.2272800019989
 10
23.556255383146652
 20
90.29078518877077
 10
23.171378161963844
 20
90.26332140015491
 10
22.895919878794615
 20
90.10067416553132
 10
22.650308786041492
 20
89.83594078546439
 10
22.43816280375587
 20
89.49042208799932
 10
22.263148314660057
 20
89.0853344638725
 10
22.129011643351326
 20
88.64176198773521
 10
22.039630175960035
 20
88.18065462305606
 10
21.999059259292995
 20
87.72286750729826
 10
22.011553460201164
 20
87.28922348502503
 10
22.0815531751094
 20
86.90057009420421
 10
22.21364387227552
 20
86.57780122825595
 10
22.412505223047603
 20
86.34182033778757
 10
22.675913757343405
 20
86.22288735178918
 10
23.188647645416037
 20
86.06788844273585
 10
23.900646339664526
 20
85.88922578367448
 10
24.76016230442712
 20
85.70093765358085
 10
25.710728998108152
 20
85.51909384055331
 10
26.684624141989904
 20
85.35681930037939
 10
27.61201537854884
 20
85.19879229054064
 10
28.485069113450464
 20
85.01154144822883
 10
29.309247092688615
 20
84.82911700819771
 10
30.02712678589187
 20
84.6937252944484
 10
30.572312564746873
 20
84.62179666687638
 10
30.691776113827505
 20
84.61868792676582
 10
30.812521098540582
 20
84.62870543278135
 10
30.932851350400995
 20
84.6509759428192
 10
31.051054098681877
 20
84.6846211155956
 10
31.165401449523458
 20
84.7287584958063
 10
31.274151789950405
 20
84.78250189839011
 10
31.375551171679074
 20
84.84496145583051
 10
31.467834699886378
 20
84.91524352236442
 10
31.549227927373607
 20
84.99245057362123
 10
31.617948238052694
 20
85.07568119681935
 10
31.6722061958724
 20
85.16403023437867
  0
LWPOLYLINE
  5
4E
330
17
100
AcDbEntity
  8
CUT
100
AcDbPolyline
 90
67
 70
1
 10
94.43704883677641
 20
85.59069290213536
 10
95.27492866784571
 20
85.73601797906431
 10
95.97292838962532
 20
85.88287237668762
 10
96.53778482655125
 20
86.03881523898173
 10
96.97912754892891
 20
86.21368808704356
 10
97.30757924925724
 20
86.41846261822937
 10
97.53418265749848
 20
86.6646407340172
 10
97.67022785368796
 20
86.96396786562075
 10
97.72722539862923
 20
87.32831038846085
 10
97.71694223985064
 20
87.76964938911733
 10
97.65144704818574
 20
88.3001982044957
 10
97.5430810498002
 20
88.93266111393277
 10
97.46806494442266
 20
89.35725567125701
 10
97.38877922583501
 20
89.69864753950792
 10
97.26837179971265
 20
89.95847343554772
 10
97.07032833251503
 20
90.13830276950941
 10
96.75842017118255
 20
90.23965203145038
 10
96.29680937468184
 20
90.26384343878173
 10
95.65048228371103
 20
90.21168041317138
 10
94.78660983518883
 20
90.08283337920969
 10
93.67911988010123
 20
89.87528113306715
 10
92.32265861335641
 20
89.59278901748087
 10
90.71105668200599
 20
89.2992262378818
 10
90.33553718102542
 20
89.2420486570421
 10
89.9663338921348
 20
89.18152570829926
 10
89.60849729681428
 20
89.11716409670078
 10
89.26768063222184
 20
89.0491548343539
 10
88.94967285851146
 20
88.97828916521544
 10
88.6601555683577
 20
88.90575272335512
 10
88.40462481570852
 20
88.83294246034362
 10
88.18839413317397
 20
88.76134406632237
 10
88.01662505690119
 20
88.69246039185728
 10
87.89436003284045
 20
88.62777185667217
 10
87.82654839371094
 20
88.56871312445702
 10
87.7363734412814
 20
88.40009941530771
 10
87.66707449135778
 20
88.18761767388193
 10
87.6181130713491
 20
87.93832287197553
 10
87.588941077688
 20
87.65921066258198
 10
87.5790230152161
 20
87.35718560371481
 10
87.58787122683957
 20
87.0390469442424
 10
87.61508685990133
 20
86.711498104726
 10
87.66039481061478
 20
86.38118146887223
 10
87.72366037011075
 20
86.05473198269846
 10
87.8048806263424
 20
85.73883557816671
 10
87.904152873344
 20
85.44027640788568
 10
87.98719227459748
 20
85.22919349556372
 10
88.06797092892062
 20
85.05545707192
 10
88.15433884036007
 20
84.91692083389984
 10
88.25401521635845
 20
84.81143401701998
 10
88.37462031323963
 20
84.73682825938398
 10
88.52368512971495
 20
84.69092764117875
 10
88.70863384181602
 20
84.67157322794928
 10
88.93672889200121
 20
84.67665795286733
 10
89.21495495023122
 20
84.70416763122583
 10
89.54979025139832
 20
84.75221081379014
 10
89.94676613449023
 20
84.81896259513346
 10
90.22473154850285
 20
84.8703950967737
 10
90.54918224876688
 20
84.93507393636604
 10
90.91028523540655
 20
85.01043513550513
 10
91.29840694700243
 20
85.09232218841262
 10
91.70604392418343
 20
85.17465961073319
 10
92.13032560826753
 20
85.25130545582522
 10
92.57233619677488
 20
85.32021625058422
 10
93.03159440591143
 20
85.38484813742456
 10
93.50215197709859
 20
85.45014439749019
 10
93.97419487873145
 20
85.51874719543638
 10
94.43704883677641
 20
85.59069290213536
  0
LWPOLYLINE
  5
53
330
17
100
AcDbEntity
  8
CUT
100
AcDbPolyline
 90
64
 70
1
 10
17.77257118609768
 20
89.31082351540013
 10
17.765348276105975
 20
89.45784922589448
 10
17.743749106702523
 20
89.60345899842433
 10
17.70798168969599
 20
89.74625053128183
 10
17.658390484864608
 20
89.88484866394776
 10
17.59545308262021
 20
90.01791862063912
 10
17.519775604551498
 20
90.14417886492953
 10
17.432086866141784
 20
90.2624134416456
 10
17.3332313578775
 20
90.37148368717995
 10
17.224161112343147
 20
90.47033919544424
 10
17.10592653562708
 20
90.55802793385395
 10
16.979666291336674
 20
90.63370541192266
 10
16.846596334645312
 20
90.69664281416706
 10
16.707998201979372
 20
90.74623401899845
 10
16.56520666912187
 20
90.78200143600498
 10
16.41959689659202
 20
90.80360060540842
 10
16.27257118609768
 20
90.81082351540013
 10
16.12554547560334
 20
90.80360060540842
 10
15.979935703073487
 20
90.78200143600498
 10
15.837144170215986
 20
90.74623401899845
 10
15.698546037550043
 20
90.69664281416706
 10
15.565476080858682
 20
90.63370541192266
 10
15.439215836568275
 20
90.55802793385395
 10
15.32098125985221
 20
90.47033919544424
 10
15.211911014317858
 20
90.37148368717995
 10
15.113055506053573
 20
90.2624134416456
 10
15.025366767643861
 20
90.14417886492953
 10
14.949689289575147
 20
90.01791862063912
 10
14.88675188733075
 20
89.88484866394776
 10
14.837160682499366
 20
89.74625053128183
 10
14.801393265492834
 20
89.60345899842433
 10
14.779794096089383
 20
89.45784922589448
 10
14.772571186097679
 20
89.31082351540013
 10
14.779794096089383
 20
89.16379780490578
 10
14.801393265492834
 20
89.01818803237593
 10
14.837160682499366
 20
88.87539649951843
 10
14.886751887330748
 20
88.7367983668525
 10
14.949689289575145
 20
88.60372841016114
 10
15.02536676764386
 20
88.47746816587073
 10
15.113055506053573
 20
88.35923358915467
 10
15.211911014317858
 20
88.25016334362032
 10
15.32098125985221
 20
88.15130783535602
 10
15.439215836568275
 20
88.06361909694631
 10
15.565476080858682
 20
87.9879416188776
 10
15.698546037550043
 20
87.9250042166332
 10
15.837144170215986
 20
87.87541301180181
 10
15.979935703073485
 20
87.83964559479529
 10
16.12554547560334
 20
87.81804642539184
 10
16.27257118609768
 20
87.81082351540013
 10
16.41959689659202
 20
87.81804642539184
 10
16.56520666912187
 20
87.83964559479529
 10
16.707998201979372
 20
87.87541301180181
 10
16.846596334645312
 20
87.9250042166332
 10
16.979666291336674
 20
87.9879416188776
 10
17.10592653562708
 20
88.06361909694631
 10
17.224161112343147
 20
88.15130783535602
 10
17.3332313578775
 20
88.25016334362032
 10
17.432086866141784
 20
88.35923358915466
 10
17.519775604551498
 20
88.47746816587073
 10
17.59545308262021
 20
88.60372841016114
 10
17.658390484864608
 20
88.7367983668525
 10
17.70798168969599
 20
88.87539649951843
 10
17.743749106702523
 20
89.01818803237593
 10
17.765348276105975
 20
89.16379780490578
  0
LWPOLYLINE
  5
54
330
17
100
AcDbEntity
  8
CUT
100
AcDbPolyline
 90
64
 70
1
 10
104.9720943760685
 20
89.29569570296914
 10
104.96487146607679
 20
89.44272141346349
 10
104.94327229667334
 20
89.58833118599334
 10
104.90750487966682
 20
89.73112271885084
 10
104.85791367483543
 20
89.86972085151677
 10
104.79497627259103
 20
90.00279080820813
 10
104.71929879452232
 20
90.12905105249854
 10
104.6316100561126
 20
90.24728562921462
 10
104.53275454784831
 20
90.35635587474896
 10
104.42368430231397
 20
90.45521138301325
 10
104.3054497255979
 20
90.54290012142296
 10
104.17918948130749
 20
90.61857759949167
 10
104.04611952461613
 20
90.68151500173607
 10
103.9075213919502
 20
90.73110620656746
 10
103.7647298590927
 20
90.76687362357399
 10
103.61912008656284
 20
90.78847279297743
 10
103.4720943760685
 20
90.79569570296914
 10
103.32506866557415
 20
90.78847279297743
 10
103.1794588930443
 20
90.76687362357399
 10
103.0366673601868
 20
90.73110620656746
 10
102.89806922752086
 20
90.68151500173607
 10
102.7649992708295
 20
90.61857759949167
 10
102.6387390265391
 20
90.54290012142296
 10
102.52050444982302
 20
90.45521138301325
 10
102.41143420428868
 20
90.35635587474896
 10
102.31257869602439
 20
90.24728562921462
 10
102.22488995761468
 20
90.12905105249854
 10
102.14921247954597
 20
90.00279080820813
 10
102.08627507730156
 20
89.86972085151677
 10
102.03668387247018
 20
89.73112271885084
 10
102.00091645546365
 20
89.58833118599334
 10
101.97931728606021
 20
89.44272141346349
 10
101.9720943760685
 20
89.29569570296914
 10
101.97931728606021
 20
89.1486699924748
 10
102.00091645546365
 20
89.00306021994494
 10
102.03668387247018
 20
88.86026868708744
 10
102.08627507730156
 20
88.72167055442151
 10
102.14921247954597
 20
88.58860059773015
 10
102.22488995761468
 20
88.46234035343974
 10
102.31257869602439
 20
88.34410577672368
 10
102.41143420428868
 20
88.23503553118933
 10
102.52050444982302
 20
88.13618002292503
 10
102.6387390265391
 20
88.04849128451532
 10
102.7649992708295
 20
87.97281380644661
 10
102.89806922752086
 20
87.90987640420221
 10
103.0366673601868
 20
87.86028519937082
 10
103.1794588930443
 20
87.8245177823643
 10
103.32506866557415
 20
87.80291861296085
 10
103.4720943760685
 20
87.79569570296914
 10
103.61912008656284
 20
87.80291861296085
 10
103.7647298590927
 20
87.8245177823643
 10
103.90752139195018
 20
87.86028519937082
 10
104.04611952461613
 20
87.90987640420221
 10
104.17918948130749
 20
87.97281380644661
 10
104.3054497255979
 20
88.04849128451532
 10
104.42368430231397
 20
88.13618002292503
 10
104.53275454784831
 20
88.23503553118933
 10
104.6316100561126
 20
88.34410577672367
 10
104.71929879452232
 20
88.46234035343974
 10
104.79497627259103
 20
88.58860059773015
 10
104.85791367483543
 20
88.72167055442151
 10
104.90750487966682
 20
88.86026868708744
 10
104.94327229667334
 20
89.00306021994494
 10
104.96487146607679
 20
89.1486699924748
  0
LWPOLYLINE
  5
55
330
17
100
AcDbEntity
  8
CUT
100
AcDbPolyline
 90
64
 70
1
 10
62.68768278830915
 20
92.29446246771545
 10
62.67564460498964
 20
92.53950531853936
 10
62.63964598931722
 20
92.78218827275577
 10
62.580033627639665
 20
93.02017416085161
 10
62.497381619587365
 20
93.25117104862817
 10
62.392485949180035
 20
93.47295430978045
 10
62.26635681906551
 20
93.68338805026445
 10
62.12020892171599
 20
93.88044567812456
 10
61.955449741275515
 20
94.06222942068182
 10
61.77366599871826
 20
94.22698860112229
 10
61.57660837085815
 20
94.37313649847181
 10
61.36617463037414
 20
94.49926562858633
 10
61.14439136922187
 20
94.60416129899366
 10
60.9133944814453
 20
94.68681330704597
 10
60.67540859334947
 20
94.74642566872352
 10
60.43272563913305
 20
94.78242428439594
 10
60.18768278830915
 20
94.79446246771545
 10
59.94263993748525
 20
94.78242428439594
 10
59.69995698326883
 20
94.74642566872352
 10
59.46197109517299
 20
94.68681330704597
 10
59.23097420739642
 20
94.60416129899366
 10
59.00919094624415
 20
94.49926562858633
 10
58.79875720576014
 20
94.37313649847181
 10
58.601699577900035
 20
94.22698860112229
 10
58.41991583534278
 20
94.06222942068182
 10
58.2551566549023
 20
93.88044567812456
 10
58.109008757552786
 20
93.68338805026445
 10
57.98287962743826
 20
93.47295430978045
 10
57.87798395703093
 20
93.25117104862817
 10
57.79533194897863
 20
93.02017416085161
 10
57.73571958730107
 20
92.78218827275577
 10
57.69972097162866
 20
92.53950531853936
 10
57.68768278830915
 20
92.29446246771545
 10
57.69972097162865
 20
92.04941961689154
 10
57.73571958730107
 20
91.80673666267512
 10
57.79533194897862
 20
91.56875077457929
 10
57.87798395703093
 20
91.33775388680273
 10
57.98287962743826
 20
91.11597062565045
 10
58.109008757552786
 20
90.90553688516644
 10
58.2551566549023
 20
90.70847925730634
 10
58.41991583534278
 20
90.52669551474908
 10
58.601699577900035
 20
90.36193633430861
 10
58.79875720576014
 20
90.21578843695909
 10
59.00919094624415
 20
90.08965930684457
 10
59.23097420739642
 20
89.98476363643724
 10
59.46197109517299
 20
89.90211162838493
 10
59.69995698326883
 20
89.84249926670738
 10
59.94263993748525
 20
89.80650065103495
 10
60.18768278830915
 20
89.79446246771545
 10
60.43272563913305
 20
89.80650065103495
 10
60.67540859334947
 20
89.84249926670738
 10
60.9133944814453
 20
89.90211162838493
 10
61.14439136922187
 20
89.98476363643724
 10
61.36617463037414
 20
90.08965930684457
 10
61.57660837085815
 20
90.21578843695909
 10
61.77366599871826
 20
90.36193633430861
 10
61.955449741275515
 20
90.52669551474908
 10
62.120208921715985
 20
90.70847925730634
 10
62.26635681906551
 20
90.90553688516644
 10
62.392485949180035
 20
91.11597062565045
 10
62.497381619587365
 20
91.33775388680272
 10
62.580033627639665
 20
91.56875077457929
 10
62.63964598931722
 20
91.80673666267512
 10
62.67564460498964
 20
92.04941961689154
  0
ENDSEC
  0
SECTION
  2
OBJECTS
  0
DICTIONARY
  5
A
330
0
100
AcDbDictionary
281
1
  3
ACAD_COLOR
350
B
  3
ACAD_GROUP
350
C
  3
ACAD_LAYOUT
350
D
  3
ACAD_MATERIAL
350
E
  3
ACAD_MLEADERSTYLE
350
F
  3
ACAD_MLINESTYLE
350
10
  3
ACAD_PLOTSETTINGS
350
11
  3
ACAD_PLOTSTYLENAME
350
12
  3
ACAD_SCALELIST
350
14
  3
ACAD_TABLESTYLE
350
15
  3
ACAD_VISUALSTYLE
350
16
  3
EZDXF_META
350
2D
  0
DICTIONARY
  5
B
330
A
100
AcDbDictionary
281
1
  0
DICTIONARY
  5
C
330
A
100
AcDbDictionary
281
1
  0
DICTIONARY
  5
D
330
A
100
AcDbDictionary
281
1
  3
Model
350
1A
  3
Layout1
350
1E
  0
DICTIONARY
  5
E
330
A
100
AcDbDictionary
281
1
  3
ByBlock
350
1F
  3
ByLayer
350
20
  3
Global
350
21
  0
DICTIONARY
  5
F
330
A
100
AcDbDictionary
281
1
  3
Standard
350
2C
  0
DICTIONARY
  5
10
330
A
100
AcDbDictionary
281
1
  3
Standard
350
22
  0
DICTIONARY
  5
11
330
A
100
AcDbDictionary
281
1
  0
ACDBDICTIONARYWDFLT
  5
12
330
A
100
AcDbDictionary
281
1
  3
Normal
350
13
100
AcDbDictionaryWithDefault
340
13
  0
ACDBPLACEHOLDER
  5
13
330
12
  0
DICTIONARY
  5
14
330
A
100
AcDbDictionary
281
1
  0
DICTIONARY
  5
15
330
A
100
AcDbDictionary
281
1
  0
DICTIONARY
  5
16
330
A
100
AcDbDictionary
281
1
  0
LAYOUT
  5
1A
330
D
100
AcDbPlotSettings
  1

  4
A3
  6

 40
7.5
 41
20.0
 42
7.5
 43
20.0
 44
420.0
 45
297.0
 46
0.0
 47
0.0
 48
0.0
 49
0.0
140
0.0
141
0.0
142
1.0
143
1.0
 70
1024
 72
1
 73
0
 74
5
  7

 75
16
 76
0
 77
2
 78
300
147
1.0
148
0.0
149
0.0
100
AcDbLayout
  1
Model
 70
1
 71
0
 10
0.0
 20
0.0
 11
420.0
 21
297.0
 12
0.0
 22
0.0
 32
0.0
 14
1e+20
 24
1e+20
 34
1e+20
 15
-1e+20
 25
-1e+20
 35
-1e+20
146
0.0
 13
0.0
 23
0.0
 33
0.0
 16
1.0
 26
0.0
 36
0.0
 17
0.0
 27
1.0
 37
0.0
 76
1
330
17
  0
LAYOUT
  5
1E
330
D
100
AcDbPlotSettings
  1

  4
A3
  6

 40
7.5
 41
20.0
 42
7.5
 43
20.0
 44
420.0
 45
297.0
 46
0.0
 47
0.0
 48
0.0
 49
0.0
140
0.0
141
0.0
142
1.0
143
1.0
 70
0
 72
1
 73
0
 74
5
  7

 75
16
 76
0
 77
2
 78
300
147
1.0
148
0.0
149
0.0
100
AcDbLayout
  1
Layout1
 70
1
 71
1
 10
0.0
 20
0.0
 11
420.0
 21
297.0
 12
0.0
 22
0.0
 32
0.0
 14
1e+20
 24
1e+20
 34
1e+20
 15
-1e+20
 25
-1e+20
 35
-1e+20
146
0.0
 13
0.0
 23
0.0
 33
0.0
 16
1.0
 26
0.0
 36
0.0
 17
0.0
 27
1.0
 37
0.0
 76
1
330
1B
  0
MATERIAL
  5
1F
102
{ACAD_REACTORS
330
E
102
}
330
E
100
AcDbMaterial
  1
ByBlock
  2

 70
0
 40
1.0
 71
1
 41
1.0
 91
-1023410177
 42
1.0
 72
1
  3

 73
1
 74
1
 75
1
 44
0.5
 73
0
 45
1.0
 46
1.0
 77
1
  4

 78
1
 79
1
170
1
 48
1.0
171
1
  6

172
1
173
1
174
1
140
1.0
141
1.0
175
1
  7

176
1
177
1
178
1
143
1.0
179
1
  8

270
1
271
1
272
1
145
1.0
146
1.0
273
1
  9

274
1
275
1
276
1
 42
1.0
 72
1
  3

 73
1
 74
1
 75
1
 94
63
  0
MATERIAL
  5
20
102
{ACAD_REACTORS
330
E
102
}
330
E
100
AcDbMaterial
  1
ByLayer
  2

 70
0
 40
1.0
 71
1
 41
1.0
 91
-1023410177
 42
1.0
 72
1
  3

 73
1
 74
1
 75
1
 44
0.5
 73
0
 45
1.0
 46
1.0
 77
1
  4

 78
1
 79
1
170
1
 48
1.0
171
1
  6

172
1
173
1
174
1
140
1.0
141
1.0
175
1
  7

176
1
177
1
178
1
143
1.0
179
1
  8

270
1
271
1
272
1
145
1.0
146
1.0
273
1
  9

274
1
275
1
276
1
 42
1.0
 72
1
  3

 73
1
 74
1
 75
1
 94
63
  0
MATERIAL
  5
21
102
{ACAD_REACTORS
330
E
102
}
330
E
100
AcDbMaterial
  1
Global
  2

 70
0
 40
1.0
 71
1
 41
1.0
 91
-1023410177
 42
1.0
 72
1
  3

 73
1
 74
1
 75
1
 44
0.5
 73
0
 45
1.0
 46
1.0
 77
1
  4

 78
1
 79
1
170
1
 48
1.0
171
1
  6

172
1
173
1
174
1
140
1.0
141
1.0
175
1
  7

176
1
177
1
178
1
143
1.0
179
1
  8

270
1
271
1
272
1
145
1.0
146
1.0
273
1
  9

274
1
275
1
276
1
 42
1.0
 72
1
  3

 73
1
 74
1
 75
1
 94
63
  0
MLINESTYLE
  5
22
102
{ACAD_REACTORS
330
10
102
}
330
10
100
AcDbMlineStyle
  2
Standard
 70
0
  3

 62
256
 51
90.0
 52
90.0
 71
2
 49
0.5
 62
256
  6
BYLAYER
 49
-0.5
 62
256
  6
BYLAYER
  0
MLEADERSTYLE
  5
2C
102
{ACAD_REACTORS
330
F
102
}
330
F
100
AcDbMLeaderStyle
179
2
170
2
171
1
172
0
 90
2
 40
0.0
 41
0.0
173
1
 91
-1056964608
 92
-2
290
1
 42
2.0
291
1
 43
8.0
  3
Standard
 44
4.0
300

342
29
174
1
175
1
176
0
178
1
 93
-1056964608
 45
4.0
292
0
297
0
 46
4.0
 94
-1056964608
 47
1.0
 49
1.0
140
1.0
294
1
141
0.0
177
0
142
1.0
295
0
296
0
143
3.75
271
0
272
9
273
9
  0
DICTIONARY
  5
2D
330
A
100
AcDbDictionary
280
1
281
1
  3
CREATED_BY_EZDXF
350
2E
  3
WRITTEN_BY_EZDXF
350
5C
  0
DICTIONARYVAR
  5
2E
330
2D
100
DictionaryVariables
280
0
  1
1.4.4 @ 2026-07-19T20:51:46.176406+00:00
  0
DICTIONARYVAR
  5
5C
330
2D
100
DictionaryVariables
280
0
  1
1.4.4 @ 2026-07-20T06:33:05.302149+00:00
  0
ENDSEC
  0
EOF
